<?xml version="1.0" encoding="UTF-8" standalone="no"?>
<!-- Created with Inkscape (http://www.inkscape.org/) -->

<svg
   xmlns:osb="http://www.openswatchbook.org/uri/2009/osb"
   xmlns:dc="http://purl.org/dc/elements/1.1/"
   xmlns:cc="http://creativecommons.org/ns#"
   xmlns:rdf="http://www.w3.org/1999/02/22-rdf-syntax-ns#"
   xmlns:svg="http://www.w3.org/2000/svg"
   xmlns="http://www.w3.org/2000/svg"
   xmlns:xlink="http://www.w3.org/1999/xlink"
   xmlns:sodipodi="http://sodipodi.sourceforge.net/DTD/sodipodi-0.dtd"
   xmlns:inkscape="http://www.inkscape.org/namespaces/inkscape"
   width="210mm"
   height="297mm"
   viewBox="0 0 210 297"
   version="1.1"
   id="svg11716"
   inkscape:version="0.92.2 (5c3e80d, 2017-08-06)"
   sodipodi:docname="fb_world.svg">
  <defs
     id="defs11710">
    <linearGradient
       id="FB_1"
       osb:paint="solid"
       gradientTransform="matrix(1.3671875,0,0,1.3671875,341.79202,5.1349497)">
      <stop
         style="stop-color:#3b5998;stop-opacity:1;"
         offset="0"
         id="stop840" />
    </linearGradient>
    <linearGradient
       id="FB_2-3"
       osb:paint="solid"
       gradientTransform="matrix(-0.00109531,0,0,-0.00128472,251.55717,-711.02019)">
      <stop
         style="stop-color:#8b9dc3;stop-opacity:1;"
         offset="0"
         id="stop870" />
    </linearGradient>
    <linearGradient
       inkscape:collect="always"
       xlink:href="#FB_1"
       id="linearGradient11708"
       gradientUnits="userSpaceOnUse"
       x1="21.827351"
       y1="238.29202"
       x2="136.97749"
       y2="238.29202" />
    <linearGradient
       id="linearGradient11355"
       osb:paint="solid"
       gradientTransform="matrix(0.38435502,0,0,0.38435502,22.38464,158.81581)">
      <stop
         style="stop-color:#041235;stop-opacity:1;"
         offset="0"
         id="stop11353" />
    </linearGradient>
    <linearGradient
       id="FB_5"
       osb:paint="solid"
       gradientTransform="matrix(0.26458333,0,0,0.26458333,-17.210131,156.7236)">
      <stop
         style="stop-color:#ffffff;stop-opacity:1;"
         offset="0"
         id="stop888" />
    </linearGradient>
  </defs>
  <sodipodi:namedview
     id="base"
     pagecolor="#ffffff"
     bordercolor="#666666"
     borderopacity="1.0"
     inkscape:pageopacity="0.0"
     inkscape:pageshadow="2"
     inkscape:zoom="0.35"
     inkscape:cx="279.76304"
     inkscape:cy="674.28571"
     inkscape:document-units="mm"
     inkscape:current-layer="layer1"
     showgrid="false"
     inkscape:pagecheckerboard="true"
     inkscape:window-width="1248"
     inkscape:window-height="900"
     inkscape:window-x="629"
     inkscape:window-y="93"
     inkscape:window-maximized="0" />
  <metadata
     id="metadata11713">
    <rdf:RDF>
      <cc:Work
         rdf:about="">
        <dc:format>image/svg+xml</dc:format>
        <dc:type
           rdf:resource="http://purl.org/dc/dcmitype/StillImage" />
        <dc:title></dc:title>
      </cc:Work>
    </rdf:RDF>
  </metadata>
  <g
     inkscape:label="Layer 1"
     inkscape:groupmode="layer"
     id="layer1">
    <g
       id="g12761"
       transform="matrix(0.99222963,0,0,0.99222963,-1.4339588,4.2492881)">
      <g
         transform="matrix(1.3009474,0,0,1.3009474,5.0222596,-176.58349)"
         id="g11640">
        <path
           d="m 135.02033,236.22652 a 55.181389,54.04493 0 0 1 -55.178245,54.04493 55.181389,54.04493 0 0 1 -55.18453,-54.03878 55.181389,54.04493 0 0 1 55.171965,-54.05108 55.181389,54.04493 0 0 1 55.19081,54.03262 l -55.181387,0.0123 z"
           sodipodi:end="6.2829576"
           sodipodi:start="0"
           sodipodi:ry="54.04493"
           sodipodi:rx="55.181389"
           sodipodi:cy="236.22652"
           sodipodi:cx="79.838943"
           sodipodi:type="arc"
           id="path11630"
           style="opacity:1;fill:url(#FB_2-3);fill-opacity:1;stroke:#000000;stroke-width:0;stroke-miterlimit:4;stroke-dasharray:none;stroke-opacity:1" />
        <path
           inkscape:connector-curvature="0"
           id="path11632"
           d="m 65.193215,184.34611 c -0.05795,0.2318 -0.115898,0.4636 -0.173847,0.69539 0,0.1159 0.02273,0.23405 0,0.3477 -0.03594,0.1797 -0.137912,0.34185 -0.17385,0.52155 -0.03453,0.17266 0,0.84542 0,1.04309 0,0.14719 -0.03115,0.60193 0,0.69539 0.0259,0.0778 0.128389,0.10566 0.17385,0.17385 0.07188,0.10782 0.115898,0.2318 0.173847,0.3477 0.1159,0.2318 0.231798,0.4636 0.347697,0.69539 0.05795,0.1159 0.0961,0.24404 0.173849,0.3477 0.09834,0.13113 0.263369,0.20715 0.347697,0.3477 0.09428,0.15714 0.07957,0.36441 0.17385,0.52154 0.08433,0.14055 0.231796,0.2318 0.347697,0.3477 0.115898,0.1159 0.231796,0.2318 0.347697,0.3477 0.115898,0.1159 0.231796,0.2318 0.347697,0.34769 0.05795,0.058 0.09434,0.15398 0.173847,0.17385 0.168658,0.0422 0.350062,-0.0286 0.521546,0 0.180758,0.0301 0.340786,0.14373 0.521547,0.17385 0.171482,0.0286 0.347697,0 0.521544,0 0.231799,0 0.463598,0 0.695394,0 1.043093,0 2.086184,0 3.129275,0 0.289747,0 0.579495,0 0.869243,0 0.17385,0 0.349446,-0.0246 0.521547,0 0.236529,0.0338 0.46215,0.12202 0.695394,0.17385 0.288448,0.0641 0.58258,0.10218 0.869243,0.17385 0.177782,0.0444 0.343765,0.1294 0.521544,0.17385 0.286666,0.0717 0.58892,0.0804 0.869244,0.17385 0.559443,0.18648 0.740039,0.40925 1.21694,0.69539 0.111112,0.0667 0.256072,0.0822 0.347697,0.17385 0.09162,0.0916 0.10197,0.23988 0.17385,0.3477 0.04546,0.0682 0.128389,0.10566 0.173847,0.17384 0.506195,0.7593 -0.07705,-0.0573 0.17385,0.6954 0.0259,0.0778 0.147931,0.0961 0.173847,0.17385 0,0.79141 -0.08195,0.01 0.17385,0.52154 0.05183,0.10367 -0.03665,0.23775 0,0.3477 0.04098,0.12293 0.115898,0.2318 0.173847,0.3477 0.05795,0.1159 0.08222,0.25607 0.173849,0.34769 0.147744,0.14775 0.347697,0.2318 0.521547,0.3477 0.470435,0.31363 0.665517,0.47483 1.216938,0.6954 0.340291,0.13611 0.695396,0.2318 1.043093,0.34769 0.347697,0.1159 0.697937,0.22443 1.043091,0.3477 0.466275,0.16653 0.912386,0.39397 1.390787,0.52155 0.395931,0.10558 0.813785,0.10054 1.216941,0.17384 0.23508,0.0428 0.459713,0.13457 0.695394,0.17385 0.114324,0.019 0.231799,0 0.347697,0 0.405648,0 0.811294,0 1.21694,0 0.463598,0 0.927193,0 1.39079,0 0.173847,0 0.350063,0.0286 0.521544,0 0.44477,-0.0741 0.813914,-0.34882 1.216941,-0.52154 0.336872,-0.14438 0.71528,-0.18379 1.04309,-0.3477 0.816319,-0.40816 0.218721,-0.26134 0.869244,-0.52155 0.415676,-0.16627 0.777346,-0.23779 1.21694,-0.34769 0.41097,-0.10274 1.167366,-0.30356 1.564638,-0.3477 0.23038,-0.0256 0.463595,0 0.695393,0 0.231799,0 0.463598,0 0.695394,0 0.3477,0 0.695397,0 1.043095,0 0.17385,0 0.34944,-0.0246 0.52154,0 0.23653,0.0338 0.46654,0.10519 0.695399,0.17385 0.35105,0.10531 0.7028,0.21158 1.04309,0.3477 0.24062,0.0962 0.46359,0.2318 0.69539,0.34769 0.3477,0.17385 0.6954,0.3477 1.04309,0.52155 1.6784,0.83919 0.47611,0.13851 2.08619,1.39079 0.16493,0.12828 0.39618,0.18054 0.52154,0.34769 0.0695,0.0927 -0.0643,0.25127 0,0.3477 0.0719,0.10782 0.24404,0.0961 0.3477,0.17385 0.13113,0.0983 0.24531,0.21971 0.3477,0.3477 0.13052,0.16315 0.19995,0.3738 0.3477,0.52154 0.0916,0.0916 0.23987,0.10198 0.34769,0.17385 0.13638,0.0909 0.21132,0.25678 0.3477,0.3477 0.49723,0.33149 0.22611,0.0667 0.86924,0.17385 0.18076,0.0301 0.34186,0.13791 0.52155,0.17385 0.11365,0.0227 0.2318,0 0.3477,0 0.17384,0 0.34769,0 0.52154,0 0.52155,0 1.04309,0 1.56464,0 0.92719,0 1.85438,0 2.78158,0 0.17384,0 0.34769,0 0.52154,0 0.0579,0 0.1159,0 0.17385,0 0.058,0 0.13287,0.041 0.17385,0 0.041,-0.041 -0.0259,-0.12202 0,-0.17385 0.10431,-0.20862 0.41723,-0.31293 0.52154,-0.52155 0.0387,-0.0774 -0.0265,-0.61588 0,-0.69539 0.0259,-0.0778 0.1372,-0.10055 0.17385,-0.17385 0.0265,-0.0529 0,-0.44325 0,-0.52155 0,-0.0579 0.041,-0.13287 0,-0.17385 -0.041,-0.041 -0.13287,0.041 -0.17385,0 -0.041,-0.041 0,-0.11589 0,-0.17384 0,-0.28975 0,-0.5795 0,-0.86925 0,-0.058 0.041,-0.13287 0,-0.17385 -0.041,-0.041 -0.13287,0.041 -0.17384,0 -0.008,-0.008 0,-0.78727 0,-0.86924 0,-0.058 -0.041,-0.13287 0,-0.17385 0.041,-0.041 0.13287,0.041 0.17384,0 0.041,-0.041 -0.0259,-0.12201 0,-0.17385 0.0367,-0.0733 0.1372,-0.10054 0.17385,-0.17384 0.0225,-0.045 0,-0.91987 0,-1.0431 0,-0.0579 0.041,-0.13287 0,-0.17384 -0.041,-0.041 -0.13287,0.041 -0.17385,0 -0.041,-0.041 0.041,-0.13288 0,-0.17385 -0.23179,-0.2318 -0.17384,0.28975 -0.17384,-0.17385"
           style="fill:none;stroke:#000000;stroke-width:0.39500001;stroke-linecap:butt;stroke-linejoin:miter;stroke-miterlimit:4;stroke-dasharray:none;stroke-opacity:1" />
        <path
           inkscape:connector-curvature="0"
           id="path11634"
           d="m 132.99416,250.06087 c 0,0.4636 0.058,-0.058 -0.17385,0.17385 -0.082,0.082 0.0819,0.2657 0,0.3477 -0.041,0.041 -0.13285,-0.041 -0.17385,0 -0.041,0.041 0.041,0.13285 0,0.17385 -0.041,0.041 -0.13285,-0.041 -0.17385,0 -0.041,0.041 0.041,0.13285 0,0.17385 -0.041,0.041 -0.13285,-0.041 -0.17385,0 -0.041,0.041 0.041,0.13284 0,0.17384 -0.0819,0.082 -0.26569,-0.082 -0.34769,0 -0.041,0.041 0.041,0.13285 0,0.17385 -0.082,0.082 -0.24404,-0.0518 -0.3477,0 -0.0733,0.0367 -0.10055,0.13715 -0.17385,0.17385 -0.0457,0.0229 -0.60449,0 -0.69539,0 -0.0639,0 -0.6884,0.007 -0.6954,0 -0.041,-0.041 0.041,-0.13285 0,-0.17385 -0.041,-0.041 -0.13285,0.041 -0.17385,0 -0.041,-0.041 0.041,-0.13285 0,-0.17385 -0.041,-0.041 -0.14794,0.0518 -0.17384,0 -0.0518,-0.10366 0.0367,-0.23774 0,-0.34769 -0.0259,-0.0778 -0.13715,-0.10055 -0.17385,-0.17385 -0.0518,-0.10366 0.0518,-0.24404 0,-0.3477 -0.0367,-0.0733 -0.13715,-0.10055 -0.17385,-0.17385 -0.0518,-0.10366 0.0518,-0.24403 0,-0.34769 -0.0366,-0.0733 -0.13715,-0.10055 -0.17385,-0.17385 -0.0518,-0.10367 0.0518,-0.24404 0,-0.3477 -0.0367,-0.0733 -0.12835,-0.10565 -0.17385,-0.17385 -0.0719,-0.10781 -0.11585,-0.2318 -0.17385,-0.3477 -0.058,-0.11589 -0.13285,-0.22476 -0.17385,-0.34769 -0.0367,-0.10995 0.082,-0.2658 0,-0.3477 -0.041,-0.041 -0.11765,-0.014 -0.17385,0 -0.17778,0.0444 -0.35311,0.10165 -0.52154,0.17385 -0.23821,0.10209 -0.45274,0.2567 -0.6954,0.3477 -0.22371,0.0838 -0.48794,0.0553 -0.69539,0.17384 -0.21347,0.12198 -0.32148,0.37865 -0.52155,0.52155 -0.21088,0.15063 -0.46359,0.2318 -0.69539,0.3477 -0.17385,0.17385 -0.33267,0.36415 -0.52155,0.52154 -0.98549,0.82125 -0.0267,-0.1548 -1.21694,0.6954 -0.89712,0.6408 -0.12335,0.40937 -1.04309,0.86924 -1.9504,0.9752 1.31537,-0.92549 -1.21694,0.52155 -0.36282,0.20732 -0.66933,0.50851 -1.04309,0.69539 -0.16391,0.0819 -0.3514,0.10575 -0.52155,0.17385 -0.12031,0.0481 -0.21987,0.15255 -0.34769,0.17385 -0.22865,0.0381 -0.4636,0 -0.6954,0 -0.49852,0 -0.71291,0.0422 -1.21694,-0.17385 -0.57625,-0.24697 -0.43787,-0.3503 -0.86924,-0.6954 -0.16315,-0.13052 -0.38778,-0.18718 -0.52154,-0.34769 -0.16591,-0.19909 -0.2567,-0.45274 -0.3477,-0.6954 -0.24415,-0.65099 -0.17385,-0.85118 -0.17385,-1.56463 0,-0.2318 0.0328,-0.46593 0,-0.6954 -0.0518,-0.36282 -0.2758,-0.6837 -0.3477,-1.04309 -0.0227,-0.11365 0,-0.2318 0,-0.3477 0,-0.17384 -0.0286,-0.35006 0,-0.52154 0.0301,-0.18076 0.14375,-0.34079 0.17385,-0.52155 0.0286,-0.17148 -0.0286,-0.35006 0,-0.52154 0.0824,-0.49422 0.18556,-0.46389 0.3477,-0.86925 0.13611,-0.34029 0.20332,-0.70622 0.3477,-1.04309 0.10208,-0.2382 0.23179,-0.46359 0.34769,-0.69539 0.17385,-0.3477 0.32568,-0.70731 0.52155,-1.04309 0.21055,-0.36096 0.47104,-0.69055 0.69539,-1.0431 1.21613,-1.91106 -0.06,0.0616 0.86924,-1.56463 0.20733,-0.36282 0.4636,-0.6954 0.6954,-1.04309 0.1159,-0.17385 0.2543,-0.33467 0.3477,-0.52155 0.0819,-0.16391 0.11594,-0.3477 0.17384,-0.52155 0.0579,-0.17385 0.14375,-0.34078 0.17385,-0.52154 0.0286,-0.17148 0,-0.3477 0,-0.52155 0,-0.17385 0.0246,-0.34944 0,-0.52154 -0.0338,-0.23653 -0.12205,-0.46216 -0.17385,-0.6954 -0.0641,-0.28845 -0.10744,-0.58132 -0.17384,-0.86924 -0.10746,-0.46563 -0.2318,-0.92719 -0.3477,-1.39079 -0.1159,-0.4636 -0.18698,-0.94076 -0.3477,-1.39079 -0.13074,-0.36609 -0.36068,-0.68919 -0.52154,-1.04309 -0.12914,-0.28409 -0.23813,-0.57704 -0.3477,-0.86924 -0.0643,-0.17159 -0.0918,-0.35764 -0.17385,-0.52155 -0.0934,-0.18688 -0.2543,-0.33466 -0.3477,-0.52154 -0.57414,-1.14821 0.30884,0.11943 -0.52154,-1.04309 -0.33919,-0.47487 -0.6148,-0.65271 -0.6954,-1.21694 -0.0328,-0.22947 0,-0.4636 0,-0.6954 0,-0.2318 -0.0328,-0.46592 0,-0.69539 0.0259,-0.18141 0.12355,-0.34535 0.17385,-0.52155 0.31561,-1.10461 -0.0186,-0.31053 0.52155,-1.39079 0.1159,-0.23179 0.2318,-0.46359 0.3477,-0.69539 0.11589,-0.2318 0.19706,-0.48451 0.34769,-0.6954 0.38024,-0.53233 0.83331,-0.7086 1.39079,-1.04309 1.52634,-0.91579 0.22168,-0.24774 1.56464,-0.69539 0.12293,-0.041 0.22063,-0.14845 0.3477,-0.17385 0.39776,-0.0796 0.82179,0.10607 1.21694,0 0.6354,-0.37809 1.41801,0.16704 2.08618,0 0.0795,-0.0199 0.0961,-0.14793 0.17385,-0.17385 0.21032,-0.0701 0.80628,0.0592 1.04309,0 0.12571,-0.0314 0.22477,-0.13287 0.3477,-0.17385 0.11264,-0.0375 0.72691,0 0.86924,0 0.75334,0 1.50669,0 2.26003,0 0.1159,0 0.2318,0 0.3477,0 0.058,0 0.12202,0.0259 0.17385,0 0.0733,-0.0367 0.10054,-0.13719 0.17385,-0.17385 0.0148,-0.007 0.68057,-0.007 0.69539,0 0.0333,0.0166 0.67876,0.66212 0.69539,0.6954 0.0259,0.0518 -0.041,0.13287 0,0.17385 0.041,0.041 0.13288,-0.041 0.17385,0 0.041,0.041 -0.041,0.13287 0,0.17385 0.041,0.041 0.12202,-0.0259 0.17385,0 0.0733,0.0367 0.10055,0.13719 0.17385,0.17384 0.0518,0.0259 0.12202,-0.0259 0.17385,0 0.72351,0.36176 -0.18585,-0.012 0.17385,0.3477 0.041,0.041 0.13287,-0.041 0.17385,0 0.041,0.041 -0.0259,0.12202 0,0.17385 0.10431,0.20862 0.41723,0.31293 0.52154,0.52155 0.0259,0.0518 0,0.1159 0,0.17384 0,0.058 0.058,0.17385 0,0.17385 -0.058,0 -0.058,-0.17385 0,-0.17385 0.082,0 0.1159,0.1159 0.17385,0.17385"
           style="fill:none;stroke:#000000;stroke-width:0.39500001;stroke-linecap:butt;stroke-linejoin:miter;stroke-miterlimit:4;stroke-dasharray:none;stroke-opacity:1" />
        <path
           inkscape:connector-curvature="0"
           id="path11636"
           d="m 42.766749,275.44277 c 0.521547,0 1.043091,0 1.564638,0 0.231799,0 0.466749,0.0381 0.695394,0 0.255632,-0.0426 0.443973,-0.28485 0.695393,-0.3477 0.11244,-0.0281 0.23526,0.0281 0.347697,0 0.25142,-0.0629 0.443976,-0.28484 0.695397,-0.3477 0.112437,-0.0281 0.237744,0.0367 0.347697,0 0.07775,-0.0259 0.0961,-0.14793 0.173847,-0.17385 0.109953,-0.0366 0.23405,0.0227 0.347697,0 0.179694,-0.0359 0.341852,-0.13791 0.521546,-0.17385 0.214194,-0.0428 0.672936,0.0654 0.869244,0 0.07775,-0.0259 0.09434,-0.15397 0.173847,-0.17385 0.168659,-0.0422 0.347697,0 0.521547,0 0.173849,0 0.347696,0 0.521546,0 0.173847,0 0.352888,-0.0422 0.521544,0 0.07951,0.0199 0.105662,0.12839 0.17385,0.17385 0.107815,0.0719 0.224766,0.13288 0.347697,0.17385 0.05497,0.0183 0.115898,0 0.173847,0 0.05795,0.058 0.10055,0.1372 0.17385,0.17385 0.30775,0.15388 0.05941,-0.25859 0.347697,0.17385 0.07188,0.10782 0.08222,0.25607 0.173849,0.3477 0.04098,0.041 0.122016,-0.0259 0.173848,0 0.0733,0.0367 0.108286,0.12467 0.173849,0.17385 0.167151,0.12536 0.334664,0.25425 0.521544,0.34769 0.163907,0.082 0.35764,0.0919 0.521547,0.17385 0.18688,0.0934 0.334663,0.25426 0.521547,0.3477 0.163904,0.082 0.347697,0.1159 0.521544,0.17385 0.603649,0.20121 0.484645,0.17385 1.043093,0.17385 0.115898,0 0.231796,0 0.347697,0 0.115898,0 0.237744,0.0367 0.347697,0 0.07775,-0.0259 0.100547,-0.1372 0.173847,-0.17385 0.05183,-0.0259 0.125632,0.0321 0.17385,0 0.272756,-0.18184 0.433144,-0.49871 0.695393,-0.6954 0.34425,-0.25818 0.524995,-0.0895 0.869244,-0.34769 0.103664,-0.0777 0.06603,-0.27582 0.173847,-0.3477 0.521547,-0.3477 0.17385,0.17385 0.521547,0 0.0733,-0.0367 0.0961,-0.14794 0.17385,-0.17385 0.10995,-0.0367 0.231796,0 0.347696,0 0.115898,0 0.231797,0 0.347697,0 0.100172,0 0.805879,-0.0317 0.869244,0 0.18688,0.0934 0.347697,0.2318 0.521544,0.3477 0.231799,0.058 0.477057,0.0768 0.695394,0.17385 0.308779,0.13723 0.573865,0.35744 0.869243,0.52154 0.226544,0.12586 0.463598,0.2318 0.695394,0.3477 0.115901,0.058 0.224769,0.13287 0.347697,0.17385 0.05599,0.0186 0.691785,7.9e-4 0.695396,0 0.201941,-0.0404 0.670558,-0.21525 0.869241,-0.3477 0.06819,-0.0455 0.0961,-0.14793 0.17385,-0.17385 0.10995,-0.0367 0.237747,0.0367 0.347697,0 0.07775,-0.0259 0.115898,-0.1159 0.17385,-0.17385 0.115898,-0.058 0.220633,-0.14843 0.347697,-0.17385 0.28412,-0.0568 0.579495,0 0.86924,0 0.147191,0 0.601933,-0.0311 0.695397,0 0.07774,0.0259 0.105659,0.12839 0.173847,0.17385 0.107818,0.0719 0.256072,0.0822 0.347697,0.17385 0.09163,0.0916 0.08222,0.25607 0.17385,0.3477 0.09163,0.0916 0.236582,0.10718 0.347697,0.17385 0.179165,0.1075 0.358391,0.21717 0.521546,0.34769 0.127987,0.10239 0.216572,0.24936 0.347697,0.3477 0.186325,0.13974 1.177637,0.48602 1.390788,0.52155 0.233412,0.0389 1.127119,0 1.390787,0 0.115901,0 0.231799,0 0.3477,0 0.173847,0 0.356616,0.055 0.521544,0 0.560864,-0.18696 0.377145,-0.39852 0.869243,-0.52155 0.112438,-0.0281 0.23526,0.0281 0.347697,0 0.314656,0.10479 0.323329,-0.28162 0.521547,-0.3477 0.10995,-0.0367 0.234048,0.0227 0.347697,0 0.248769,-0.0498 0.637445,-0.20862 0.869243,-0.34769 1.922336,-1.28156 -0.467206,0.28032 0.869241,-0.52155 0.179165,-0.1075 0.342382,-0.2402 0.521547,-0.3477 0.111112,-0.0667 0.236582,-0.10718 0.347697,-0.17384 0.358328,-0.215 0.669327,-0.50852 1.04309,-0.6954 0.327814,-0.16391 0.71528,-0.18379 1.043094,-0.3477 0.18688,-0.0934 0.342379,-0.24019 0.521544,-0.34769 0.111114,-0.0667 0.231799,-0.1159 0.347697,-0.17385 0.1159,-0.058 0.224769,-0.13287 0.347697,-0.17385 0.67801,-0.226 1.408173,-0.29554 2.086184,-0.52155 0.450088,-0.15003 0.766852,-0.54536 1.21694,-0.69539 0.05497,-0.0183 0.118872,0.0183 0.173847,0 0.122931,-0.041 0.227388,-0.12572 0.3477,-0.17385 0.521036,-0.20841 0.639969,-0.18285 1.216937,-0.3477 0.176202,-0.0503 0.35764,-0.0919 0.521547,-0.17385 0.325067,-0.16253 -0.0061,-0.30575 0.521547,-0.17384 0.125709,0.0314 0.231796,0.11589 0.347697,0.17384 0.231796,0.1159 0.457189,0.24561 0.695393,0.3477 0.789882,0.33852 0.291039,-0.0566 0.869244,0.52155 0.05795,0.058 0.147931,0.0961 0.173847,0.17385 0.39782,1.19345 -0.665654,-0.80977 0.17385,0.86924 0.03665,0.0733 0.147931,0.0961 0.173847,0.17385 0.0733,0.2199 -0.103661,0.48807 0,0.69539 0.02593,0.0518 0.115901,0 0.17385,0 0.115898,0 0.234048,-0.0227 0.347697,0 0.179694,0.0359 0.347697,0.1159 0.521546,0.17385 0.231797,0 0.464746,-0.0231 0.695394,0 0.701487,0.0702 1.384694,0.27755 2.086181,0.3477 0.587241,0.0587 1.335855,-0.0721 1.912335,0 0.474175,0.0593 0.917728,0.28012 1.39079,0.3477 0.344202,0.0492 0.702146,-0.0682 1.043091,0 0.127063,0.0254 0.220636,0.14843 0.347696,0.17384 0.170474,0.0341 0.347697,0 0.521547,0 0.521547,0 1.043092,0 1.564642,0 0.57949,0 1.15898,0 1.73848,0 0.28975,0 0.58512,0.0568 0.86924,0 0.12707,-0.0254 0.22064,-0.14843 0.3477,-0.17384 0.17047,-0.0341 0.35107,0.0341 0.52155,0 0.12706,-0.0254 0.21988,-0.15255 0.34769,-0.17385 0.22865,-0.0381 0.4636,0 0.6954,0 0.17385,0 0.34769,0 0.52154,0 0.17385,0 0.3477,0 0.52155,0 0.17385,0 0.35289,-0.0422 0.52155,0 0.0244,0.006 0.29721,0.31404 0.34769,0.34769 0.10782,0.0719 0.25607,0.0822 0.3477,0.17385 0.0111,0.0111 0.32611,0.66301 0.3477,0.6954 0.0455,0.0682 0.1159,0.1159 0.17385,0.17385 0.0579,0.0579 0.10054,0.13719 0.17384,0.17384 0.0518,0.0259 0.1159,0 0.17385,0 0.058,0 0.1159,0 0.17385,0 0.3477,0 0.6954,0 1.04309,0 0.5795,0 1.15899,0 1.73849,0 0.17385,0 0.35289,-0.0422 0.52154,0 0.90273,0.22568 -0.18559,0.17385 0.6954,0.17385 0.1159,0 0.23526,0.0281 0.34769,0 0.12572,-0.0314 0.22477,-0.13287 0.3477,-0.17385 0.0382,-0.0127 0.66955,-0.0129 0.6954,0 0.0462,0.0231 0.49846,0.47539 0.52154,0.52155 0.0265,0.0529 0,0.44325 0,0.52155 0,0.058 0.058,0.17384 0,0.17384 -0.0579,0 -0.0579,-0.17384 0,-0.17384 0.058,0 0,0.11589 0,0.17384"
           style="fill:none;stroke:#000000;stroke-width:0.39399999;stroke-linecap:butt;stroke-linejoin:miter;stroke-miterlimit:4;stroke-dasharray:none;stroke-opacity:1" />
        <path
           inkscape:connector-curvature="0"
           id="path11638"
           d="m 40.854416,214.07422 c -0.900176,-1.12522 -0.433018,-0.60686 -1.390788,-1.56464 -0.17385,-0.17384 -0.364151,-0.33267 -0.521547,-0.52154 -0.13376,-0.16051 -0.240199,-0.34238 -0.347697,-0.52155 -0.06667,-0.11111 -0.07019,-0.26995 -0.173849,-0.34769 -0.146601,-0.10996 -0.362437,-0.0829 -0.521544,-0.17385 -0.251574,-0.14376 -0.432316,-0.40013 -0.695397,-0.52155 -3.337425,-1.54035 -0.304252,0.41288 -2.260031,-1.21694 -0.09954,-0.0829 -0.27582,-0.066 -0.347697,-0.17385 -0.172506,-0.25875 0.333904,-1.0224 0.347697,-1.04309 0.205827,-0.30874 0.463598,-0.57949 0.695394,-0.86924 0.231799,-0.28975 0.463597,-0.5795 0.695396,-0.86924 0.729838,-0.9123 1.4472,-1.7761 2.433879,-2.43388 0.215632,-0.14376 0.479763,-0.20395 0.695396,-0.3477 0.207817,-0.13855 0.457417,-0.43888 0.521544,-0.69539 0.02811,-0.11244 -0.02273,-0.23405 0,-0.3477 0.03594,-0.1797 0.147934,-0.34014 0.17385,-0.52155 0.09495,-0.66467 -0.166503,-0.88394 0.173847,-1.56463 0.297021,-0.59404 1.467823,-1.62471 1.912334,-1.91234 1.552168,-1.00434 2.025372,-0.91729 3.824669,-1.39079 1.502738,-0.39546 0.746175,-0.3477 1.738487,-0.3477 0.05795,0 0.117025,-0.0114 0.173847,0 0.234294,0.0469 0.461102,0.127 0.695396,0.17385 0.635312,0.12707 1.286314,0.18076 1.912334,0.3477 3.900244,1.04007 2.54086,1.14769 6.432397,1.56464 0.576196,0.0617 1.158991,0 1.738484,0 0.231799,0 0.480177,0.0861 0.695397,0 0.120311,-0.0481 0.10197,-0.23988 0.173847,-0.3477 0.04546,-0.0682 0.100547,-0.1372 0.17385,-0.17385 0.163904,-0.0819 0.347697,-0.1159 0.521544,-0.17385 0.491715,-0.1639 1.102997,-0.3847 1.564637,0 0.952227,0.79353 0.836583,0.99807 1.564637,2.26004 0.571156,0.98999 1.171427,1.96307 1.738487,2.95542 0.555948,0.97291 2.017766,3.54034 2.607728,4.86776 0.201089,0.45245 0.331116,0.93375 0.521547,1.39079 0.09968,0.23922 0.24561,0.45719 0.347697,0.69539 0.07219,0.16844 0.0722,0.36907 0.173847,0.52155 0.380926,0.57139 0.562041,0.46837 1.043093,0.86924 0.188873,0.1574 0.306626,0.40215 0.521544,0.52155 0.320384,0.17799 0.695394,0.2318 1.043094,0.34769 0.71384,0.23795 1.175155,0.43964 1.912334,0.52155 0.230378,0.0256 0.463595,0 0.695394,0 0.173847,0 0.349443,0.0246 0.521544,0 1.807244,-0.25818 -0.670648,-0.17385 1.738487,-0.17385 1.965709,0 0.786217,-0.1466 2.433881,0.3477 1.026379,0.30791 0.370358,0.0113 1.04309,0.3477 0.115899,0.058 0.256072,0.0822 0.347697,0.17384 0.573511,0.57352 0.521547,1.34719 0.521547,2.08619 0,0.3477 0.07818,0.7043 0,1.04309 -0.09924,0.43003 -0.363119,0.80503 -0.521547,1.21694 -0.308853,0.80302 -0.460888,1.61311 -0.695393,2.43388 -0.05034,0.1762 -0.123505,0.34534 -0.17385,0.52154 -0.131279,0.45948 -0.231796,0.9272 -0.347697,1.3908 -0.115898,0.46359 -0.231799,0.92719 -0.347697,1.39078 -0.05795,0.2318 -0.147463,0.45793 -0.17385,0.6954 -0.08145,0.73304 0.05145,1.17796 0.17385,1.91233 0.05795,0.3477 0.110792,0.69629 0.17385,1.04309 0.219308,1.2062 0.173847,0.48774 0.173847,1.56464 0,0.17385 0.04776,0.35439 0,0.52155 -0.0712,0.24918 -0.242443,0.45857 -0.347697,0.69539 -0.126743,0.28517 -0.168738,0.61359 -0.347697,0.86924 -0.234984,0.3357 -0.628232,0.53785 -0.869243,0.86925 -0.228645,0.31438 -0.29862,0.72462 -0.521544,1.04309 -0.18799,0.26855 -0.479531,0.44869 -0.695397,0.69539 -0.190799,0.21806 -0.332981,0.4754 -0.521544,0.69539 -1.09224,1.27429 -0.0032,-0.29864 -0.869243,1.21694 -0.103664,0.18142 -0.281626,0.32333 -0.347697,0.52155 -0.05497,0.16493 0,0.3477 0,0.52155 0,0.28974 0,0.57949 0,0.86924 0,0.3477 -0.05287,0.69944 0,1.04309 0.06415,0.41698 0.238995,0.80931 0.347697,1.21694 0.123126,0.46173 0.259633,0.92111 0.347696,1.39079 0.216975,1.1572 0.17385,1.35418 0.17385,2.43388 0,0.4636 0.05417,0.93037 0,1.39079 -0.174799,1.48578 -0.961339,3.51034 -1.564637,4.86776 -0.540864,1.21694 -0.709882,1.31835 -1.216941,2.43388 -0.129135,0.2841 -0.296394,0.56142 -0.347696,0.86924 -0.06669,0.40013 0,0.81129 0,1.21694 0,0.67139 -0.04098,1.44171 0.173847,2.08618 0.26761,0.80283 1.150352,1.49805 1.738487,2.08619 0.231796,0.23179 0.513556,0.42264 0.695394,0.69539 0.173103,0.25966 0.241051,0.57597 0.347696,0.86925 0.506778,1.39363 0.287788,0.79756 0.521547,2.43387 0.259591,1.81714 0.173847,0.30652 0.173847,2.60773 0,0.40565 0,0.8113 0,1.21694 0,0.3477 0.0346,0.69712 0,1.0431 -0.05296,0.52964 -0.341852,1.08545 -0.521544,1.56463 -0.07064,0.18836 -0.364305,1.0597 -0.521546,1.21694 -0.09163,0.0916 -0.239882,0.10197 -0.347697,0.17385 -0.540507,0.36034 0.452466,0.0296 -0.695394,0.52155 -0.219615,0.0941 -0.468725,0.0983 -0.695397,0.17384 -0.296052,0.0987 -0.564604,0.28 -0.86924,0.3477 -0.22628,0.0503 -0.464749,-0.0231 -0.695394,0 -1.246974,0.1247 -0.827794,0.27872 -2.086184,0.17385 -0.0011,-8e-5 -2.080131,-0.34676 -2.086184,-0.3477 -0.29328,-0.0451 -1.495909,-0.16923 -1.912334,-0.34769 -0.192046,-0.0823 -0.334664,-0.25426 -0.521544,-0.3477 -0.163907,-0.082 -0.347697,-0.1159 -0.521547,-0.17385 -1.269762,-0.42325 -0.68753,-0.25881 -1.738485,-0.52155 -0.231798,-0.058 -0.459713,-0.13456 -0.695396,-0.17384 -0.114321,-0.0191 -0.235257,0.0281 -0.347697,0 -0.125709,-0.0314 -0.220633,-0.14844 -0.347697,-0.17385 -0.170471,-0.0341 -0.347697,0 -0.521544,0 -0.231799,0 -0.463597,0 -0.695396,0 -1.41111,0 -0.675071,0 -2.086182,0 -0.231798,0 -0.463597,0 -0.695393,0 -0.17385,0 -0.348761,0.0192 -0.521547,0 -0.350337,-0.0389 -0.692047,-0.14194 -1.043091,-0.17385 -0.28856,-0.0262 -0.579495,0 -0.869243,0 -0.521547,0 -1.043091,0 -1.564638,0 -0.115898,0 -0.233375,0.019 -0.347696,0 -0.761672,-0.12695 -1.486406,-0.44418 -2.260032,-0.52155 -0.461295,-0.0461 -0.927192,0 -1.39079,0 -0.09713,0 -0.766649,-0.0342 -0.869241,0 -0.12293,0.041 -0.227388,0.12573 -0.347699,0.17385 -0.340291,0.13612 -0.695394,0.2318 -1.043091,0.3477 -0.173847,0.058 -0.340786,0.14372 -0.521547,0.17385 -0.228642,0.0381 -0.463595,0 -0.695393,0 -0.115898,0 -0.275294,0.0905 -0.347697,0 -0.381297,-0.47662 -0.406313,-1.37458 -0.521544,-1.91234 -0.100129,-0.46725 -0.3477,-0.91292 -0.3477,-1.39078 0,-0.33404 0.682966,-1.85852 0.869244,-2.08619 0.286604,-0.35029 0.709456,-0.56341 1.04309,-0.86924 0.362474,-0.33227 0.649719,-0.74806 1.043094,-1.04309 2.137034,-1.60278 -0.106955,0.71968 2.260031,-1.21694 0.287184,-0.23497 0.453914,-0.58752 0.695394,-0.86924 0.106669,-0.12445 0.245305,-0.21971 0.347697,-0.3477 0.06798,-0.085 0.472305,-0.67228 0.521546,-0.86924 0.02811,-0.11244 0,-0.2318 0,-0.3477 0,-0.44613 0.04216,-0.78492 -0.17385,-1.21694 -0.129577,-0.25916 -0.343656,-0.46668 -0.521544,-0.6954 -0.466772,-0.60013 -0.904904,-1.0364 -1.21694,-1.73848 -0.09704,-0.21834 -0.115901,-0.4636 -0.17385,-0.6954 -0.109897,-0.43959 -0.181425,-0.80126 -0.347697,-1.21694 -0.04812,-0.12031 -0.115898,-0.2318 -0.173847,-0.34769 -0.115901,-0.2318 -0.21912,-0.47039 -0.347697,-0.6954 -0.103663,-0.18141 -0.265393,-0.3295 -0.347699,-0.52154 -0.09412,-0.21962 -0.108207,-0.46566 -0.173847,-0.6954 -0.100688,-0.3524 -0.231799,-0.69539 -0.347697,-1.04309 -0.05795,-0.17385 -0.143722,-0.34078 -0.17385,-0.52155 -0.02858,-0.17148 0,-0.34769 0,-0.52154 0,-0.28975 0,-0.5795 0,-0.86924 0,-0.2318 -0.02875,-0.46539 0,-0.6954 -0.179776,-0.4486 0.27582,-0.6837 0.347697,-1.04309 0.03409,-0.17047 -0.03409,-0.35107 0,-0.52154 0.225682,-1.12841 0.17385,0.38744 0.17385,-0.6954 0,-0.0579 0.02593,-0.12202 0,-0.17385 -0.343935,-0.68787 -1.045639,-1.04818 -1.390791,-1.73849 -0.106852,-0.2137 -0.108206,-0.46565 -0.173847,-0.69539 -0.05034,-0.1762 -0.151119,-0.33971 -0.173849,-0.52155 -0.03594,-0.2875 0,-0.57949 0,-0.86924 0,-0.57949 0,-1.15899 0,-1.73848 0,-0.3477 0.05287,-0.69944 0,-1.04309 -0.06415,-0.41698 -0.221862,-0.81427 -0.347697,-1.21694 -0.163979,-0.52474 -0.347697,-1.0431 -0.521544,-1.56464 -0.115901,-0.3477 -0.265288,-0.68597 -0.347697,-1.04309 -0.09214,-0.39927 -0.111543,-0.81194 -0.17385,-1.21694 -0.0536,-0.3484 -0.110792,-0.69629 -0.17385,-1.04309 -0.05286,-0.29073 -0.147095,-0.57498 -0.173847,-0.86925 -0.03148,-0.34627 0.06819,-0.70214 0,-1.04309 -0.05083,-0.25412 -0.231799,-0.4636 -0.347697,-0.69539 -0.115901,-0.2318 -0.175522,-0.5017 -0.347697,-0.6954 -0.284205,-0.31973 -1.663575,-1.37254 -2.086184,-1.56464 -0.268999,-0.12227 -0.594892,-0.0641 -0.869243,-0.17384 -0.0538,-0.0215 -0.04098,-0.13288 0,-0.17385 0.04098,-0.041 0.1159,0 0.17385,0 0.115898,-0.1159 0.249353,-0.21657 0.347696,-0.3477 0.711248,-0.94833 1.451576,-2.32933 1.738488,-3.47697 0.268753,-1.07502 0.173847,-2.20866 0.173847,-3.30312 0,-0.2318 0,-0.4636 0,-0.6954 0,-0.17385 0.05497,-0.35662 0,-0.52154 -0.06607,-0.19822 -0.231799,-0.3477 -0.347697,-0.52155 -0.231799,-0.3477 -0.434348,-0.71678 -0.695394,-1.04309 -0.102391,-0.12799 -0.249354,-0.21657 -0.347697,-0.3477 -0.07775,-0.10366 -0.0961,-0.24403 -0.17385,-0.34769 -0.09834,-0.13113 -0.263369,-0.20715 -0.347697,-0.3477 -0.09428,-0.15714 -0.105791,-0.3514 -0.173849,-0.52155 -0.303427,-0.75857 -0.173847,0.12113 -0.173847,-1.21694 z"
           style="fill:none;stroke:#000000;stroke-width:0.40000001;stroke-linecap:butt;stroke-linejoin:miter;stroke-miterlimit:4;stroke-dasharray:none;stroke-opacity:1" />
      </g>
      <g
         transform="matrix(1.3009474,0,0,1.3009474,5.0222596,-176.58349)"
         id="g11678">
        <g
           transform="translate(0.37964462,-2.1668227)"
           id="g11656">
          <path
             style="fill:url(#FB_1);stroke:#000000;stroke-width:0;stroke-linecap:butt;stroke-linejoin:miter;stroke-miterlimit:4;stroke-dasharray:none;stroke-opacity:1"
             d="m 20.340283,254.05939 -5.041608,8.34473 10.083217,9.56167 -6.953943,1.39079 c 0,0 -8.5185802,1.91234 -9.3878232,-1.91233 L 3.7377444,252.23398 c 0,0 -0.7823186,1.39079 5.2154573,1.73849 5.9977763,0.34769 11.3870813,0.0869 11.3870813,0.0869 z"
             id="path11642"
             inkscape:connector-curvature="0"
             sodipodi:nodetypes="ccccc" />
          <path
             style="fill:url(#linearGradient11708);fill-opacity:1;stroke:#000000;stroke-width:0;stroke-linecap:butt;stroke-linejoin:miter;stroke-miterlimit:4;stroke-dasharray:none;stroke-opacity:1"
             d="m 22.165693,247.2793 c 0,0 2.694653,-6.69317 0.60847,-16.51562 -2.086183,-9.82244 -0.08692,-9.12705 0,-9.12705 0.08692,0 21.234601,6.89162 78.765607,5.5394 34.42026,-0.98344 35.03491,-5.16304 35.03491,-5.16304 0,0 0.98344,3.07324 -0.12293,7.25284 -1.10636,4.1796 -2.33566,15.73498 0,17.94771 2.33566,2.21273 -22.00438,7.74456 -60.112527,7.74456 -38.108146,0 -54.381007,-5.76911 -54.17353,-7.6788 z"
             id="path11644"
             inkscape:connector-curvature="0" />
          <path
             style="fill:url(#FB_1);stroke:#000000;stroke-width:0;stroke-linecap:butt;stroke-linejoin:miter;stroke-miterlimit:4;stroke-dasharray:none;stroke-opacity:1"
             d="m 131.04285,218.69389 c 0,0 -5.28596,-9.83436 -9.95729,-14.50568 6.88406,-4.42546 12.66174,-5.90062 16.71842,-8.85092 4.05667,-2.95031 5.90061,-6.76113 5.40889,-7.86749 -0.49171,-1.10637 9.71144,18.07064 9.71144,18.07064 0,0 2.9503,1.59808 -21.88146,13.15345 z"
             id="path11646"
             inkscape:connector-curvature="0" />
          <path
             style="fill:url(#linearGradient11355);stroke:#000000;stroke-width:0;stroke-linecap:butt;stroke-linejoin:miter;stroke-miterlimit:4;stroke-dasharray:none;stroke-opacity:1"
             d="m 22.619029,244.75495 c 0,0 -33.068037,7.25284 -12.29295,8.97385 9.957289,0.49172 10.014204,0.33059 10.014204,0.33059 l -5.041608,8.34473 2.280244,2.14248 c 0,0 12.292952,-2.70445 12.292952,-3.68789 -1.106366,-2.95031 -4.179604,-9.46557 -3.810816,-10.94072 -4.056673,-2.21273 -3.895362,-2.63869 -3.895362,-2.63869 z"
             id="path11648"
             inkscape:connector-curvature="0" />
          <path
             style="fill:url(#linearGradient11355);stroke:#000000;stroke-width:0;stroke-linecap:butt;stroke-linejoin:miter;stroke-miterlimit:4;stroke-dasharray:none;stroke-opacity:1"
             d="m 27.659139,220.16905 c 0,0 -7.990418,0.49172 -4.548392,1.47515 3.442026,0.98344 4.056675,1.2293 4.056675,1.2293 z"
             id="path11650"
             inkscape:connector-curvature="0" />
          <path
             style="fill:url(#linearGradient11355);stroke:#000000;stroke-width:0;stroke-linecap:butt;stroke-linejoin:miter;stroke-miterlimit:4;stroke-dasharray:none;stroke-opacity:1"
             d="m 132.51801,223.85693 c 0,0 5.4089,-0.98343 3.3191,-2.70445 -2.08981,-1.72101 -4.05668,-0.36879 -4.05668,-0.36879 z"
             id="path11652"
             inkscape:connector-curvature="0" />
          <path
             style="fill:url(#linearGradient11355);stroke:#000000;stroke-width:0.26458332px;stroke-linecap:butt;stroke-linejoin:miter;stroke-opacity:1"
             d="m 127.72376,190.66597 c 0,0 10.69486,-6.08502 13.52224,-4.85572 2.82738,1.22929 3.74935,3.44203 -3.99521,9.83436 z"
             id="path11654"
             inkscape:connector-curvature="0" />
        </g>
        <g
           style="fill:url(#FB_5)"
           inkscape:label="Layer 1"
           id="g11676"
           transform="matrix(0.08723388,0,0,0.08723388,41.836339,79.246282)">
          <g
             style="fill:url(#FB_5)"
             id="g11674">
            <path
               style="fill:url(#FB_5);fill-opacity:1;stroke:none"
               d="M -5.6743522,1904.7472 H -43.357108 v -93.9338 h -25.667965 v -30.5831 h 25.667965 v -21.7619 c 0,-25.7882 11.352547,-44.2828 48.93155,-44.2828 7.948396,0 20.426566,1.6017 20.426566,1.6017 v 28.3986 H 12.893962 c -13.3538181,0 -18.5683142,4.0616 -18.5683142,15.2915 v 20.7529 H 25.499926 l -2.775679,30.5831 H -5.6743522 Z"
               id="path11658"
               inkscape:connector-curvature="0"
               sodipodi:nodetypes="ccccccccccscccccc" />
            <path
               inkscape:connector-curvature="0"
               style="fill:url(#FB_5);fill-opacity:1;stroke:none"
               d="m 80.784363,1777.7867 c -0.547951,0 -1.113804,0.02 -1.672514,0.034 -34.940773,0 -50.926333,26.2821 -50.926333,63.5897 0,46.9984 20.736165,65.8083 51.199396,65.8083 17.428712,0 28.879508,-7.3355 35.839578,-21.0259 v 18.5684 h 35.83958 v -124.517 h -35.83958 v 19.1485 c -5.68228,-12.32 -17.453724,-21.4608 -34.440127,-21.606 z m 9.113492,29.4226 c 14.675575,0 23.483455,10.2368 23.483455,27.6476 l 0.0341,17.7832 c 0,11.7347 -7.2751,25.4632 -23.517589,25.4632 -24.970604,0 -24.302647,-26.9618 -24.302647,-35.9419 0,-30.2068 13.303301,-34.9521 24.302647,-34.9521 z"
               id="path11660" />
            <path
               style="fill:url(#FB_5);fill-opacity:1;stroke:none"
               d="m 165.53936,1842.5084 c 0,-15.1311 -0.72454,-64.641 63.78005,-64.641 25.89278,0 36.70447,8.2335 36.70447,8.2335 l -8.6903,26.9526 c 0,0 -10.79773,-5.9455 -24.86747,-5.9455 -18.02155,0 -29.51999,10.4463 -29.51999,28.8272 l 0.0206,13.18 c 0,17.6626 11.09367,29.452 29.53641,29.452 12.81731,0 24.63192,-6.002 24.63192,-6.002 l 8.66826,26.3908 c 0,0 -9.88614,8.2844 -36.30389,8.2844 -61.41768,0 -63.96007,-44.4204 -63.96007,-64.732 z"
               id="path11662"
               inkscape:connector-curvature="0"
               sodipodi:nodetypes="ccccccccccccc" />
            <path
               id="path11664"
               d="m 476.16727,1777.8207 c 34.94078,0 51.17823,26.282 51.17823,63.5896 0,46.9984 -20.73616,65.8083 -51.19939,65.8083 -17.42872,0 -30.3131,-7.3354 -37.27317,-21.0258 v 18.5683 l -35.38902,-0.014 v -186.7754 l 37.57353,-3.2768 v 83.0113 c 5.42303,-14.5229 23.24499,-19.8855 35.10982,-19.8855 z m -10.53411,29.3886 c -14.67557,0 -24.57571,10.2368 -24.57571,27.6476 l -0.0341,17.7832 c -0.0225,11.7347 6.856,25.4632 24.60985,25.4632 24.9706,0 24.30264,-26.9618 24.30264,-35.9419 0,-30.2068 -13.3033,-34.9521 -24.30264,-34.9521 z"
               style="fill:url(#FB_5);fill-opacity:1;stroke:none"
               inkscape:connector-curvature="0"
               sodipodi:nodetypes="csscccccccscsssss" />
            <path
               inkscape:connector-curvature="0"
               style="fill:url(#FB_5);fill-opacity:1;stroke:none"
               d="m 331.21768,1777.9232 c -39.63015,0 -60.55182,21.6073 -60.55182,60.0057 v 7.1337 c 0,49.8367 29.38116,62.6681 64.40884,62.6681 34.04758,0 49.45862,-9.523 49.45862,-9.523 l -7.03139,-25.3609 c 0,0 -18.12777,7.7141 -37.92168,7.7141 -20.51984,0 -29.34553,-5.2309 -31.6071,-24.9511 h 79.56387 v -20.3433 c 0,-41.6517 -23.48105,-57.3433 -56.31934,-57.3433 z m 0.95572,25.3949 c 13.7177,0 22.60632,8.4118 22.11814,27.9207 h -46.25012 c 0.80261,-20.5335 10.38834,-27.9207 24.13198,-27.9207 z"
               id="path11666" />
            <path
               inkscape:connector-curvature="0"
               style="fill:url(#FB_5);fill-opacity:1;stroke:none"
               d="m 602.26729,1777.7525 c -40.69701,0 -62.12194,22.9337 -62.12194,64.0334 0,56.3895 36.93175,65.4669 62.1902,65.4669 36.97521,0 61.57581,-19.9072 61.57581,-64.9549 0,-46.8876 -27.66135,-64.5454 -61.64407,-64.5454 z m -0.512,29.5591 c 17.89507,0 24.98531,13.3927 24.98531,28.6376 v 13.107 c 0,18.469 -9.92216,29.1496 -25.05357,29.1496 -14.1518,0 -24.09785,-9.9915 -24.09785,-29.1496 v -13.107 c 0,-20.4319 11.83513,-28.6376 24.16611,-28.6376 z"
               id="path11668" />
            <path
               id="path11670"
               d="m 738.76488,1777.7525 c -40.69701,0 -62.12194,22.9337 -62.12194,64.0334 0,56.3895 36.93175,65.4669 62.1902,65.4669 36.97521,0 61.57581,-19.9072 61.57581,-64.9549 0,-46.8876 -27.66135,-64.5454 -61.64407,-64.5454 z m -0.512,29.5591 c 17.89508,0 24.98531,13.3927 24.98531,28.6376 v 13.107 c 0,18.469 -9.92215,29.1496 -25.05357,29.1496 -14.1518,0 -24.09785,-9.9915 -24.09785,-29.1496 v -13.107 c 0,-20.4319 11.83514,-28.6376 24.16611,-28.6376 z"
               style="fill:url(#FB_5);fill-opacity:1;stroke:none"
               inkscape:connector-curvature="0" />
            <path
               style="fill:url(#FB_5);fill-opacity:1;stroke:none"
               d="m 814.60825,1904.7472 v -186.7754 l 37.68276,-3.2768 v 125.1886 l 37.38589,-59.6533 h 39.79611 l -39.00071,61.7834 40.50261,62.7335 h -39.90889 l -38.77501,-60.9137 v 60.9137 z"
               id="path11672"
               inkscape:connector-curvature="0"
               sodipodi:nodetypes="cccccccccccc" />
          </g>
        </g>
      </g>
    </g>
  </g>
</svg>
