<?xml version="1.0" encoding="UTF-8" standalone="no"?>
<!-- Created with Inkscape (http://www.inkscape.org/) -->

<svg
   xmlns:osb="http://www.openswatchbook.org/uri/2009/osb"
   xmlns:dc="http://purl.org/dc/elements/1.1/"
   xmlns:cc="http://creativecommons.org/ns#"
   xmlns:rdf="http://www.w3.org/1999/02/22-rdf-syntax-ns#"
   xmlns:svg="http://www.w3.org/2000/svg"
   xmlns="http://www.w3.org/2000/svg"
   xmlns:sodipodi="http://sodipodi.sourceforge.net/DTD/sodipodi-0.dtd"
   xmlns:inkscape="http://www.inkscape.org/namespaces/inkscape"
   width="210mm"
   height="297mm"
   viewBox="0 0 210 297"
   version="1.1"
   id="svg26207"
   inkscape:version="0.92.2 (5c3e80d, 2017-08-06)"
   sodipodi:docname="hand_key.svg">
  <defs
     id="defs26201">
    <linearGradient
       id="FB_1"
       osb:paint="solid"
       gradientTransform="matrix(-0.0562504,0,0,-0.14080976,-2774.9726,4405.1924)">
      <stop
         style="stop-color:#3b5998;stop-opacity:1;"
         offset="0"
         id="stop840" />
    </linearGradient>
    <linearGradient
       id="FB_2-3"
       osb:paint="solid"
       gradientTransform="matrix(0.00157976,0,0,0.00186863,2294.0973,-4119.4442)">
      <stop
         style="stop-color:#8b9dc3;stop-opacity:1;"
         offset="0"
         id="stop870" />
    </linearGradient>
    <linearGradient
       id="FB_5"
       osb:paint="solid"
       gradientTransform="matrix(0,-3.4066598e-4,3.4066598e-4,0,80.027073,246.25384)">
      <stop
         style="stop-color:#ffffff;stop-opacity:1;"
         offset="0"
         id="stop888" />
    </linearGradient>
    <filter
       height="1.1271192"
       y="-0.063559622"
       width="1.4600809"
       x="-0.23004043"
       id="filter8324"
       style="color-interpolation-filters:sRGB"
       inkscape:collect="always">
      <feGaussianBlur
         id="feGaussianBlur8326"
         stdDeviation="6.8483525"
         inkscape:collect="always" />
    </filter>
    <linearGradient
       id="FB_4"
       osb:paint="solid"
       gradientTransform="matrix(0.46477127,0,0,0.48069923,-96.160144,344.42936)">
      <stop
         style="stop-color:#f7f7f7;stop-opacity:1;"
         offset="0"
         id="stop882" />
    </linearGradient>
  </defs>
  <sodipodi:namedview
     id="base"
     pagecolor="#ffffff"
     bordercolor="#666666"
     borderopacity="1.0"
     inkscape:pageopacity="0.0"
     inkscape:pageshadow="2"
     inkscape:zoom="0.35"
     inkscape:cx="400"
     inkscape:cy="560"
     inkscape:document-units="mm"
     inkscape:current-layer="layer1"
     showgrid="false"
     inkscape:pagecheckerboard="true"
     inkscape:window-width="925"
     inkscape:window-height="744"
     inkscape:window-x="334"
     inkscape:window-y="167"
     inkscape:window-maximized="0" />
  <metadata
     id="metadata26204">
    <rdf:RDF>
      <cc:Work
         rdf:about="">
        <dc:format>image/svg+xml</dc:format>
        <dc:type
           rdf:resource="http://purl.org/dc/dcmitype/StillImage" />
        <dc:title></dc:title>
      </cc:Work>
    </rdf:RDF>
  </metadata>
  <g
     inkscape:label="Layer 1"
     inkscape:groupmode="layer"
     id="layer1">
    <g
       style="opacity:1"
       id="g26131"
       transform="matrix(3.4992455,0,0,3.4992455,-90.748232,-633.09503)">
      <g
         id="g26050"
         transform="matrix(0.55880018,0,0,0.56352743,19.824787,77.856104)">
        <path
           sodipodi:nodetypes="ccccccccccccccccscccccccccccccccc"
           inkscape:connector-curvature="0"
           id="path26046"
           d="m 21.758523,63.445445 0.368788,15.980836 1.106366,13.768104 0.983436,9.096785 13.276387,-0.86051 -0.245861,-1.96687 8.727996,1.10637 L 66.996582,99.340859 67.24244,97.0052 46.344424,98.357424 37.247639,97.0052 36.018345,85.572755 35.280769,68.977271 l 7.990416,-3.073236 10.571938,-9.957292 7.25284,-24.217111 c 0,0 -0.737576,-4.671322 -0.122928,-5.654758 0.614648,-0.983436 3.442026,-1.966872 5.285968,-0.368788 1.106366,0.368788 2.950308,6.023546 2.950308,6.023546 l -2.212729,10.449007 -0.614649,6.515264 c 0,0 -0.245858,2.82738 0.983436,3.196166 l 1.475155,0.122932 c 0,0 -0.614647,-7.4987 0.12293,-7.990418 0.245859,-3.196168 2.45859,-12.784669 2.45859,-12.784669 l -3.319097,-7.129912 c 0,0 -3.810815,-1.721013 -5.777687,-1.598083 -2.089801,1.106365 -4.794251,1.721013 -3.564955,8.727995 -6.761123,23.602465 -7.006982,23.725395 -7.006982,23.725395 l -9.834361,9.096783 -6.761123,2.704449 -0.122929,-4.056673 z"
           style="display:inline;opacity:1;fill:url(#FB_1);stroke:#000000;stroke-width:0.26458332px;stroke-linecap:butt;stroke-linejoin:miter;stroke-opacity:1"
           transform="translate(0,169.99999)" />
        <path
           transform="translate(0,169.99999)"
           inkscape:connector-curvature="0"
           id="path26048"
           d="m 24.217113,65.781104 8.727994,-0.614648 2.089803,34.174403 -8.973855,0.614648 -1.721013,-19.177002 z"
           style="display:inline;opacity:1;fill:url(#FB_2-3);stroke:#000000;stroke-width:0.26458332px;stroke-linecap:butt;stroke-linejoin:miter;stroke-opacity:1" />
      </g>
      <path
         style="fill:url(#FB_1);stroke:#000000;stroke-width:0.15449247px;stroke-linecap:butt;stroke-linejoin:miter;stroke-opacity:1"
         d="m 58.268748,203.17829 13.095583,0.43319 0.06928,1.21403 c -0.115375,-0.75978 -14.232894,-0.24672 -14.29633,-0.7563 -0.320694,-2.57619 -0.145896,-5.62388 -0.145896,-5.62388"
         id="path26052"
         inkscape:connector-curvature="0"
         sodipodi:nodetypes="cccsc" />
      <path
         sodipodi:nodetypes="cccccc"
         inkscape:connector-curvature="0"
         id="path26054"
         d="m 57.233782,228.36022 c 0,0 8.869733,-1.58947 11.987027,-1.17382 3.117294,0.41562 1.73183,0.41562 1.73183,0.41562 l -0.346367,0.83129 c -5.02351,0.27391 -9.053666,0.66626 -13.404357,1.10836 z"
         style="fill:url(#FB_1);stroke:#000000;stroke-width:0.14909784px;stroke-linecap:butt;stroke-linejoin:miter;stroke-opacity:1" />
      <path
         inkscape:connector-curvature="0"
         id="path26056"
         d="m 43.086509,228.58224 c -1.266224,-0.19107 -2.310346,-0.3514 -2.320264,-0.35629 -0.0099,-0.005 -0.175,-1.507 -0.36684,-3.33805 -0.375918,-3.58801 -0.829388,-12.17844 -0.648769,-12.29006 0.04998,-0.0308 1.044782,-0.42623 2.21071,-0.87856 l 2.119875,-0.82242 2.974859,-2.82792 c 1.636167,-1.55536 2.996774,-2.90368 3.023558,-2.99627 0.02676,-0.0925 0.936186,-3.16065 2.020893,-6.81791 l 1.972189,-6.64958 -0.118891,-1.24492 c -0.170623,-1.7867 -0.08772,-2.06395 0.717721,-2.40049 0.704928,-0.29454 1.673974,-0.1332 2.212298,0.36832 0.296479,0.2762 0.681172,1.041 1.135063,2.25656 l 0.359644,0.96317 -0.64138,3.03619 c -0.352763,1.6699 -0.641381,3.20561 -0.641381,3.41268 0,0.21401 -0.05286,0.39422 -0.122457,0.41755 -0.144175,0.0484 -0.152859,4.22897 -0.01086,5.21252 0.08122,0.56247 0.09683,0.58682 0.427187,0.66679 0.188588,0.0456 2.260592,0.10351 4.604455,0.12852 2.343858,0.0251 4.589026,0.0711 4.98926,0.10241 l 0.727696,0.0569 -0.490634,0.17278 c -0.697931,0.24579 -0.969496,0.44927 -1.259123,0.94349 -0.804413,1.37262 -0.998753,2.78713 -0.512154,3.7277 0.296597,0.5733 0.790183,1.02269 1.467799,1.33634 0.508937,0.23558 0.564478,0.31883 0.274192,0.41097 -0.374882,0.11894 -1.628915,1.01399 -2.07848,1.48341 -0.65907,0.68819 -0.912991,1.23067 -0.911296,1.94696 0.0022,1.05858 0.720184,1.99982 2.172413,2.84912 l 0.633864,0.37069 -0.361593,0.18552 c -0.481917,0.24723 -1.156861,0.93373 -1.434625,1.45919 -0.299945,0.56741 -0.325411,1.89784 -0.04706,2.45782 0.239614,0.48204 0.843161,1.07721 1.444334,1.4243 l 0.483714,0.27926 -0.370678,0.29789 c -0.203875,0.16384 -0.502355,0.53565 -0.663296,0.82624 -0.268702,0.48519 -0.292619,0.60643 -0.292619,1.48343 v 0.95506 l -0.365414,1.1e-4 c -0.562172,1.5e-4 -3.728994,0.37534 -5.855491,0.69369 -1.395263,0.20888 -3.468845,0.39138 -7.690417,0.67688 -3.179027,0.21498 -5.934349,0.38559 -6.122938,0.37911 -0.188587,-0.006 -1.378885,-0.16809 -2.645109,-0.35916 z"
         style="opacity:1;fill:url(#FB_5);fill-opacity:1;stroke:#000000;stroke-width:0.03702692;stroke-miterlimit:4;stroke-dasharray:none;stroke-opacity:1" />
      <g
         transform="matrix(-0.23953459,0,0,-0.23953459,92.280451,257.68044)"
         id="g26066">
        <g
           id="g26058"
           inkscape:label="img"
           style="opacity:0.4510002" />
        <g
           inkscape:label="cnt"
           id="g26064">
          <path
             inkscape:connector-curvature="0"
             id="path26060"
             d="m 106.46332,272.09552 c 7.39755,-0.005 15.61317,-2.77246 24.22845,-9.535 23.97302,-18.81749 -17.27074,-37.11972 -17.27074,-37.11972 L 112.38986,87.016212 c 0,0 5.92882,-3.866635 0,-7.733264 -0.25776,-12.11539 -0.51536,-63.670277 -0.51536,-63.670277 0,0 -5.15581,-4.381983 -10.82683,-0.515351 -0.25781,14.435351 0,20.87969 0,20.87969 0,0 -3.092927,-2.577593 -3.60848,7.475567 -18.559753,0.257812 -19.333139,0.257698 -19.333139,0.257698 L 77.847872,36.75006 c 0,0 -11.341813,-4.639724 -11.084023,3.351259 0.257765,7.990985 0,22.426242 0,22.426242 0,0 -0.773411,5.670951 5.413162,5.413186 6.186597,-0.25779 4.640164,-6.444389 4.640164,-6.444389 h 21.137361 c 0,0 -0.64422,7.217825 2.706824,7.475592 0.77332,5.413251 -0.38674,10.568673 -0.38674,10.568673 0,0 -5.928928,3.093513 -1.031184,7.217916 2.577724,1.288876 1.288844,11.857543 1.288844,11.857543 l 1.03124,126.567058 c 0,0 -33.253005,11.08417 -24.488671,27.58172 5.614649,10.56876 16.201543,19.33935 29.388471,19.33066 z m 0.59312,-9.96113 A 20.230508,13.404622 0 0 1 86.791263,248.76068 v -0.0309 a 20.230508,13.404622 0 0 1 20.218817,-13.4046 20.230508,13.404622 0 0 1 20.24221,13.38918 20.230508,13.404622 0 0 1 -20.19585,13.42005 z"
             style="opacity:0.93500001;fill:url(#FB_2-3);fill-opacity:1;stroke:#000000;stroke-width:0.70888597;stroke-linecap:butt;stroke-linejoin:miter;stroke-miterlimit:4;stroke-dasharray:none;stroke-opacity:1;filter:url(#filter8324)" />
          <path
             style="opacity:1;fill:url(#FB_2-3);fill-opacity:1;stroke:#000000;stroke-width:0.70888597;stroke-linecap:butt;stroke-linejoin:miter;stroke-miterlimit:4;stroke-dasharray:none;stroke-opacity:1"
             d="m 106.46332,272.09552 c 7.39755,-0.005 15.61317,-2.77246 24.22845,-9.535 23.97302,-18.81749 -17.27074,-37.11972 -17.27074,-37.11972 L 112.38986,87.016212 c 0,0 5.92882,-3.866635 0,-7.733264 -0.25776,-12.11539 -0.51536,-63.670277 -0.51536,-63.670277 0,0 -5.15581,-4.381983 -10.82683,-0.515351 -0.25781,14.435351 0,20.87969 0,20.87969 0,0 -3.092927,-2.577593 -3.60848,7.475567 -18.559753,0.257812 -19.333139,0.257698 -19.333139,0.257698 L 77.847872,36.75006 c 0,0 -11.341813,-4.639724 -11.084023,3.351259 0.257765,7.990985 0,22.426242 0,22.426242 0,0 -0.773411,5.670951 5.413162,5.413186 6.186597,-0.25779 4.640164,-6.444389 4.640164,-6.444389 h 21.137361 c 0,0 -0.64422,7.217825 2.706824,7.475592 0.77332,5.413251 -0.38674,10.568673 -0.38674,10.568673 0,0 -5.928928,3.093513 -1.031184,7.217916 2.577724,1.288876 1.288844,11.857543 1.288844,11.857543 l 1.03124,126.567058 c 0,0 -33.253005,11.08417 -24.488671,27.58172 5.614649,10.56876 16.201543,19.33935 29.388471,19.33066 z m 0.59312,-9.96113 A 20.230508,13.404622 0 0 1 86.791263,248.76068 v -0.0309 a 20.230508,13.404622 0 0 1 20.218817,-13.4046 20.230508,13.404622 0 0 1 20.24221,13.38918 20.230508,13.404622 0 0 1 -20.19585,13.42005 z"
             id="path26062"
             inkscape:connector-curvature="0" />
        </g>
      </g>
      <g
         id="g26078"
         transform="matrix(0.55880018,0,0,0.56352743,16.128787,77.87255)">
        <path
           style="display:inline;opacity:1;fill:url(#FB_1);stroke:#000000;stroke-width:0.99999994px;stroke-linecap:butt;stroke-linejoin:miter;stroke-opacity:1"
           d="m 313.58532,202.87736 -1.80798,5.26131 c 0,0 -29.89705,-0.98561 -34.16796,7.88477 -19.05491,31.53914 13.4707,36.46679 13.4707,36.46679 0,0 -1.3151,-0.32699 -3.94336,0.33008 -36.79567,18.0693 -21.02488,37.45156 -0.98438,45.00781 -17.41223,5.25653 -25.62556,29.24013 0,38.76758 -18.39784,9.52746 -13.63021,38.76758 13.30946,38.76758 26.93971,0 30.71384,-24.31164 18.22961,-40.73828 25.62553,-18.72637 6.24098,-37.12565 -0.65821,-39.75391 28.25383,-14.78397 11.09738,-38.53625 11.09738,-38.53625 0,0 -2.20309,-2.45479 -4.9361,-5.23906 19.87622,-19.21917 3.36802,-38.3575 3.36802,-38.3575 l -8.77724,-8.7104 z m 1.69885,48.10416 c 0.002,0 2.17771,-0.206 2.54453,3.73643 -1.52786,-0.73581 -2.10957,-0.84769 -2.73726,-0.99802 -1.08102,-0.25892 -1.53213,-0.56234 -1.53213,-0.56234 l -2.21906,-1.14937 z"
           transform="matrix(0.26458333,0,0,0.26458333,16.080993,169.52191)"
           id="path26068"
           inkscape:connector-curvature="0"
           sodipodi:nodetypes="cccccccscccccccccsccc" />
        <path
           inkscape:connector-curvature="0"
           id="path26070"
           d="m 96.051337,65.109907 c 0,0 -6.69317,1.564637 -6.780093,-4.346215 -0.08693,-5.910853 13.299416,-7.736261 13.125566,-1.303864 -0.17385,6.432396 -6.345473,5.650079 -6.345473,5.650079 z"
           style="display:inline;opacity:1;fill:url(#FB_4);stroke:#000000;stroke-width:0.26458332px;stroke-linecap:butt;stroke-linejoin:miter;stroke-opacity:1"
           transform="translate(0,169.99999)" />
        <path
           inkscape:connector-curvature="0"
           id="path26072"
           d="m 95.09517,76.931609 c 0,0 -7.562413,0.869244 -7.649337,-4.172365 -0.08692,-5.041609 7.91011,-5.128533 7.91011,-5.128533 0,0 7.649337,-1.738487 7.301637,3.998516 -0.34769,5.737002 -7.56241,5.302382 -7.56241,5.302382 z"
           style="display:inline;opacity:1;fill:url(#FB_4);stroke:#000000;stroke-width:0.26458332px;stroke-linecap:butt;stroke-linejoin:miter;stroke-opacity:1"
           transform="translate(0,169.99999)" />
        <path
           inkscape:connector-curvature="0"
           id="path26074"
           d="m 95.355943,87.362524 c 0,0 -6.780093,1.21694 -6.69317,-3.650822 0.08692,-4.867759 7.040867,-4.867759 7.040867,-4.867759 0,0 6.34547,-1.651561 6.51932,3.824669 0.17385,5.476229 -6.867017,4.693912 -6.867017,4.693912 z"
           style="display:inline;opacity:1;fill:url(#FB_4);stroke:#000000;stroke-width:0.26458332px;stroke-linecap:butt;stroke-linejoin:miter;stroke-opacity:1"
           transform="translate(0,169.99999)" />
        <path
           sodipodi:nodetypes="cscsc"
           inkscape:connector-curvature="0"
           id="path26076"
           d="m 95.714184,89.29595 c 0,0 -6.155008,0.114022 -5.681715,4.4015 0.461982,4.185008 6.192718,3.661365 6.192718,3.661365 0,0 4.749543,-0.496115 4.346213,-4.172365 -0.37611,-3.428232 -0.16331,-4.325123 -4.857216,-3.8905 z"
           style="display:inline;opacity:1;fill:url(#FB_4);stroke:#000000;stroke-width:0.26458332px;stroke-linecap:butt;stroke-linejoin:miter;stroke-opacity:1"
           transform="translate(0,169.99999)" />
      </g>
    </g>
  </g>
</svg>
