<?xml version="1.0" encoding="UTF-8" standalone="no"?>
<!-- Created with Inkscape (http://www.inkscape.org/) -->

<svg
   xmlns:dc="http://purl.org/dc/elements/1.1/"
   xmlns:cc="http://creativecommons.org/ns#"
   xmlns:rdf="http://www.w3.org/1999/02/22-rdf-syntax-ns#"
   xmlns:svg="http://www.w3.org/2000/svg"
   xmlns="http://www.w3.org/2000/svg"
   xmlns:sodipodi="http://sodipodi.sourceforge.net/DTD/sodipodi-0.dtd"
   xmlns:inkscape="http://www.inkscape.org/namespaces/inkscape"
   width="210mm"
   height="29mm"
   viewBox="0 0 210 29"
   version="1.1"
   id="svg17715"
   sodipodi:docname="text10.svg"
   inkscape:version="0.92.2 (5c3e80d, 2017-08-06)">
  <defs
     id="defs17709" />
  <sodipodi:namedview
     id="base"
     pagecolor="#ffffff"
     bordercolor="#666666"
     borderopacity="1.0"
     inkscape:pageopacity="0.0"
     inkscape:pageshadow="2"
     inkscape:zoom="0.35"
     inkscape:cx="-75.455568"
     inkscape:cy="102.85714"
     inkscape:document-units="mm"
     inkscape:current-layer="layer1"
     showgrid="false"
     inkscape:pagecheckerboard="true"
     inkscape:window-width="1009"
     inkscape:window-height="717"
     inkscape:window-x="47"
     inkscape:window-y="141"
     inkscape:window-maximized="0" />
  <metadata
     id="metadata17712">
    <rdf:RDF>
      <cc:Work
         rdf:about="">
        <dc:format>image/svg+xml</dc:format>
        <dc:type
           rdf:resource="http://purl.org/dc/dcmitype/StillImage" />
        <dc:title></dc:title>
      </cc:Work>
    </rdf:RDF>
  </metadata>
  <g
     inkscape:label="Layer 1"
     inkscape:groupmode="layer"
     id="layer1"
     transform="translate(0,-268)">
    <g
       aria-label="By Liam Larsen"
       transform="matrix(0.47362298,0,0,0.47362298,27.096325,224.8906)"
       style="font-style:normal;font-variant:normal;font-weight:normal;font-stretch:normal;font-size:40px;line-height:1.25;font-family:'Facebook Letter Faces';-inkscape-font-specification:'Facebook Letter Faces, Normal';font-variant-ligatures:normal;font-variant-caps:normal;font-variant-numeric:normal;font-feature-settings:normal;text-align:start;letter-spacing:0px;word-spacing:0px;writing-mode:lr-tb;text-anchor:start;opacity:1;fill:#000000;fill-opacity:1;stroke:none"
       id="flowRoot28220">
      <path
         d="m 22.979375,115.70852 c 1.6,-1.28 2.76,-3.04 2.76,-5.4 v -0.76 c 0,-6.36 -4.64,-8.36 -9.64,-8.56 -0.52,0 -3.68,0 -6.76,0.12 -1.8,0.04 -3.84,0.08 -6.04,0.12 v 29.92 c 0.44,0 12.32,0.36 13.56,0.36 4.48,0 9.76,-2.52 9.76,-8.48 v -0.72 c 0,-2.88 -1.04,-4.96 -3.64,-6.6 z m -6.28,-2.36 h -5.76 v -6.28 l 3.96,-0.08 c 3.16,-0.16 4.28,1.28 4.28,3.2 0,2.44 -0.88,2.84 -2.48,3.16 z m -1.08,12.12 -4.56,-0.16 -0.12,-0.04 v -6.48 h 6.2 c 1.76,0.28 2.76,1.56 2.76,3.48 0,1.92 -1.4,3.32 -4.28,3.2 z"
         style=""
         id="path28825" />
      <path
         d="m 52.080625,109.94852 h -7.2 l -4.24,13.16 -4.96,-13.16 h -7.32 l 8.84,21.28 c 0,1.48 -0.48,2.36 -1.4,2.6 -0.48,0.16 -1.24,0.36 -2.32,0.36 h -0.44 c -0.64,0 -1.24,-0.04 -1.84,-0.08 v 5.48 c 0.84,0.04 1.76,0.08 2.72,0.08 2.08,0 3.76,-0.28 5.2,-0.88 3.4,-1.6 4.52,-5.08 5.4,-7.56 0.44,-1.2 2.32,-6.6 4.12,-11.56 1.04,-2.92 2.2,-6.16 3.44,-9.72 z"
         style=""
         id="path28827" />
      <path
         d="m 87.450625,125.38852 h -9.76 v -24.16 h -7.6 v 30 h 17.96 z"
         style=""
         id="path28829" />
      <path
         d="m 96.325,102.14852 c -0.6,-0.6 -1.68,-0.68 -2.6,-0.68 -0.92,0 -1.96,0.08 -2.72,0.68 -0.64,0.6 -0.72,1.72 -0.72,2.4 0,0.76 0.08,1.76 0.72,2.36 0.76,0.6 1.92,0.68 2.72,0.68 0.76,0 2,-0.08 2.6,-0.68 0.76,-0.6 0.84,-1.56 0.84,-2.36 0,-0.76 -0.08,-1.8 -0.84,-2.4 z m -5.92,7.8 h 6.6 v 21.28 h -6.6 z"
         style=""
         id="path28831" />
      <path
         d="m 116.62563,113.06852 c -1,-2.08 -3.6,-3.12 -7.8,-3.12 h -6.60001 l -0.59999,5.44 h 6.15999 c 1.16001,0 2,0.16 2.48001,0.52 0.43999,0.24 0.64,1.08 0.64,2.56 v 0.72 h -3.08 c -3,0 -4.88,0.24 -5.64,0.76 -1.8,0.84 -2.720005,2.52 -2.720005,5.12 v 0.16 c 0,1.48 0.4,2.8 1.160005,3.96 1.15999,1.52 2.71999,2.28 4.67999,2.28 h 0.56 c 2.04001,0 3.96001,-0.56 5.88001,-1.56 0.04,0.32 0.08,0.64 0.2,0.92 0.04,0.12 0.08,0.28 0.11999,0.4 h 5.44 v -13.12 c 0,-2.12 -0.27999,-3.8 -0.87999,-5.04 z m -5.72,10.48 v 2.4 c -1.16,0.52 -2.20001,0.88 -3.04001,0.88 -1.19999,0 -1.8,-0.6 -1.8,-1.76 0,-0.56 0.12001,-0.92 0.32001,-1.12 0.28,-0.28 1.03999,-0.4 2.31999,-0.4 z"
         style=""
         id="path28833" />
      <path
         d="m 151.05437,112.54852 c -0.84,-2 -3.2,-3 -7,-3 -2.56,0 -4.88,0.76 -6.76,1.44 -0.04,-0.04 -0.08,-0.04 -0.12,-0.04 -1.4,-1.16 -3.07999,-1.4 -4.84,-1.36 h -0.36 c -3.2,0.12 -5.39999,1.44 -5.8,1.64 -0.12,-0.44 -0.28,-0.72 -0.4,-1 -0.08,-0.12 -0.16,-0.28 -0.24,-0.4 h -1.15999 -4.24 v 21.4 h 6.56 v -15.2 h 0.04 c 1.07999,-0.64 2.03999,-0.8 2.79999,-0.92 0.44,-0.04 0.88,0 1.28,0.04 1.24,0.28 1.84001,1.08 1.84001,2.4 v 13.68 h 6.63999 v -15.2 c 1.08,-0.6 2.64,-1.16 4.12,-0.88 1.24001,0.28 1.84,1.08 1.84,2.4 v 13.68 h 6.64 v -12.48 c 0,-3.28 -0.28,-5.36 -0.84,-6.2 z"
         style=""
         id="path28835" />
      <path
         d="m 188.07562,125.38852 h -9.76 v -24.16 h -7.6 v 30 h 17.96 z"
         style=""
         id="path28837" />
      <path
         d="m 208.11,113.06852 c -1,-2.08 -3.6,-3.12 -7.8,-3.12 h -6.6 l -0.6,5.44 h 6.16 c 1.16,0 2,0.16 2.48,0.52 0.44,0.24 0.64,1.08 0.64,2.56 v 0.72 h -3.08 c -3,0 -4.88,0.24 -5.64,0.76 -1.8,0.84 -2.72,2.52 -2.72,5.12 v 0.16 c 0,1.48 0.4,2.8 1.16,3.96 1.16,1.52 2.72,2.28 4.68,2.28 h 0.56 c 2.04,0 3.96,-0.56 5.88,-1.56 0.04,0.32 0.08,0.64 0.2,0.92 0.04,0.12 0.08,0.28 0.12,0.4 h 5.44 v -13.12 c 0,-2.12 -0.28,-3.8 -0.88,-5.04 z m -5.72,10.48 v 2.4 c -1.16,0.52 -2.2,0.88 -3.04,0.88 -1.2,0 -1.8,-0.6 -1.8,-1.76 0,-0.56 0.12,-0.92 0.32,-1.12 0.28,-0.28 1.04,-0.4 2.32,-0.4 z"
         style=""
         id="path28839" />
      <path
         d="m 222.25875,109.86852 c -1.24,0.28 -2.24,0.56 -3.16,0.88 -0.76,0.28 -1,0.36 -1.52,0.56 -0.12,-0.44 -0.24,-0.8 -0.36,-1.08 -0.08,-0.16 -0.16,-0.32 -0.2,-0.48 h -5.4 v 21.48 h 6.52 v -13.4 -1.08 c 1.76,-0.64 3.08,-1.08 4.04,-1.28 l 0.44,-0.08 c 0.52,-0.12 2,-0.24 2.8,-0.2 l -0.64,-5.64 c -0.84,0.04 -1.68,0.12 -2.52,0.32 z"
         style=""
         id="path28841" />
      <path
         d="m 244.95625,125.42852 c 0.12,-1.48 0.08,-3.2 -1.44,-4.72 -2.84,-2.68 -10.36,-2.52 -9.44,-4.68 0.76,-1.8 7.92,-0.68 9.96,-0.24 l -0.6,-5.64 c -1.64,-0.28 -4.48,-0.64 -7.36,-0.52 -3.08,0.12 -8.36,0.56 -9,6.12 -0.12,1.4 -0.08,3.24 1.52,4.64 3.16,3 10.24,2.56 9.44,4.68 -0.84,2 -9.32,0.32 -10.8,0 l 0.6,5.72 c 1.64,0.32 5,0.72 8.16,0.72 3.12,-0.12 8.32,-0.6 8.96,-6.08 z"
         style=""
         id="path28843" />
      <path
         d="m 265.12375,113.86852 c -1.32,-2.88 -4.2,-4.32 -8.6,-4.32 -1.56,0 -3,0.2 -4.48,0.68 -3.16,1.24 -4.72,3.72 -4.72,7.48 v 5.12 c 0,1.32 0.24,2.64 0.76,3.92 1.36,3.16 4.4,4.76 9.08,4.76 1.8,0 3.44,-0.08 4.84,-0.24 2.24,-0.36 3.36,-0.56 3.36,-0.64 v -5.36 h -0.04 c -2.52,0.52 -4.92,0.76 -7.2,0.76 h -0.52 c -1.08,0 -1.76,-0.12 -2.36,-0.28 -0.88,-0.32 -1.32,-1.2 -1.32,-2.64 v -0.64 h 11.96 v -0.12 -3.68 c 0,-2.04 -0.24,-3.64 -0.76,-4.8 z m -5.84,3.8 v 0.36 h -5.36 v -1 c 0,-1.64 0.76,-2.48 2.64,-2.48 0.68,0 1.28,0.16 1.76,0.48 0.64,0.28 0.96,1.16 0.96,2.64 z"
         style=""
         id="path28845" />
      <path
         d="m 286.89,112.54852 c -1.64,-2.72 -3.92,-3.04 -6.48,-2.92 -3.24,0.12 -5.36,1.44 -5.8,1.64 -0.12,-0.44 -0.28,-0.72 -0.4,-1 l -0.2,-0.4 h -5.44 v 21.36 h 6.56 v -15.2 c 1.08,-0.64 2.04,-0.8 2.8,-0.92 0.44,-0.04 0.88,0 1.28,0.04 1.24,0.28 1.88,1.08 1.88,2.4 v 13.68 h 6.6 v -12.48 c 0,-3.32 -0.2,-5.08 -0.8,-6.2 z"
         style=""
         id="path28847" />
    </g>
  </g>
</svg>
