<?xml version="1.0" encoding="UTF-8" standalone="no"?>
<!-- Created with Inkscape (http://www.inkscape.org/) -->

<svg
   xmlns:osb="http://www.openswatchbook.org/uri/2009/osb"
   xmlns:dc="http://purl.org/dc/elements/1.1/"
   xmlns:cc="http://creativecommons.org/ns#"
   xmlns:rdf="http://www.w3.org/1999/02/22-rdf-syntax-ns#"
   xmlns:svg="http://www.w3.org/2000/svg"
   xmlns="http://www.w3.org/2000/svg"
   xmlns:sodipodi="http://sodipodi.sourceforge.net/DTD/sodipodi-0.dtd"
   xmlns:inkscape="http://www.inkscape.org/namespaces/inkscape"
   width="210mm"
   height="297mm"
   viewBox="0 0 210 297"
   version="1.1"
   id="svg11452"
   inkscape:version="0.92.2 (5c3e80d, 2017-08-06)"
   sodipodi:docname="others.svg">
  <defs
     id="defs11446">
    <linearGradient
       id="linearGradient11355"
       osb:paint="solid"
       gradientTransform="matrix(1.0003923,0,0,1.0003923,-1496.8299,-1597.5039)">
      <stop
         style="stop-color:#000000;stop-opacity:1;"
         offset="0"
         id="stop11353" />
    </linearGradient>
    <linearGradient
       id="FB_1"
       osb:paint="solid"
       gradientTransform="matrix(-0.0369506,0,0,-0.09249722,-1828.7655,3014.5314)">
      <stop
         style="stop-color:#3b5998;stop-opacity:1;"
         offset="0"
         id="stop840" />
    </linearGradient>
  </defs>
  <sodipodi:namedview
     id="base"
     pagecolor="#ffffff"
     bordercolor="#666666"
     borderopacity="1.0"
     inkscape:pageopacity="0.0"
     inkscape:pageshadow="2"
     inkscape:zoom="0.35"
     inkscape:cx="396.85039"
     inkscape:cy="560"
     inkscape:document-units="mm"
     inkscape:current-layer="layer1"
     showgrid="false"
     inkscape:pagecheckerboard="true"
     inkscape:window-width="727"
     inkscape:window-height="620"
     inkscape:window-x="492"
     inkscape:window-y="140"
     inkscape:window-maximized="0" />
  <metadata
     id="metadata11449">
    <rdf:RDF>
      <cc:Work
         rdf:about="">
        <dc:format>image/svg+xml</dc:format>
        <dc:type
           rdf:resource="http://purl.org/dc/dcmitype/StillImage" />
        <dc:title></dc:title>
      </cc:Work>
    </rdf:RDF>
  </metadata>
  <g
     inkscape:label="Layer 1"
     inkscape:groupmode="layer"
     id="layer1">
    <g
       id="g9102"
       transform="matrix(5.3312844,0,0,5.3312844,-195.3332,-901.27776)"
       style="opacity:1">
      <path
         d="m 71.834548,189.88805 c -0.005,0 -0.464489,0.003 -0.466505,0.007 l -2.110658,5.70841 -0.54671,-3.88329 0.962501,-0.91535 -0.868666,-1.15219 h -0.587153 -0.587376 l -0.868435,1.15219 0.962494,0.91535 -0.513194,3.64513 -1.807036,-5.46935 c -0.0017,-0.005 -0.0066,-0.008 -0.01178,-0.008 h -0.402154 c -1.506308,0 -2.727311,1.221 -2.727311,2.7273 v 9.8062 c 0,0.007 0.0058,0.0124 0.01253,0.0124 h 12.274331 c 0.0066,0 0.01228,-0.005 0.01228,-0.0124 v -9.8062 c 0,-1.5063 -1.220995,-2.7273 -2.727079,-2.7273"
         style="display:inline;opacity:1;fill:url(#linearGradient11355);fill-opacity:1;fill-rule:nonzero;stroke:url(#FB_1);stroke-width:0.02234214"
         id="path7025"
         inkscape:connector-curvature="0" />
      <path
         d="m 47.508872,189.88805 c -0.005,0 -0.464273,0.003 -0.466281,0.007 l -2.110882,5.70841 -0.546718,-3.88329 0.962501,-0.91535 -0.868442,-1.15214 h -0.587368 -0.587153 l -0.868443,1.15219 0.962278,0.91537 -0.512978,3.64511 -1.807028,-5.46935 c -0.0017,-0.005 -0.0066,-0.008 -0.01178,-0.008 h -0.40222 c -1.506308,0 -2.727302,1.22099 -2.727302,2.7273 v 9.80619 c 0,0.007 0.0058,0.0124 0.01253,0.0124 h 12.274099 c 0.0066,0 0.01253,-0.005 0.01253,-0.0124 v -9.80619 c 0,-1.50631 -1.220995,-2.7273 -2.727303,-2.7273"
         style="display:inline;opacity:1;fill:url(#linearGradient11355);fill-opacity:1;fill-rule:nonzero;stroke:url(#FB_1);stroke-width:0.02234214"
         id="path7029"
         inkscape:connector-curvature="0" />
      <path
         d="m 60.909466,189.57862 c -0.0066,0 -0.636978,0.004 -0.639657,0.0106 l -2.895096,7.82914 -0.749803,-5.32592 1.320197,-1.25563 -1.191278,-1.58003 h -0.805435 -0.805435 l -1.191287,1.58003 1.319982,1.25563 -0.703786,4.99928 -2.478408,-7.50137 c -0.0025,-0.007 -0.009,-0.0115 -0.01626,-0.0115 h -0.551414 c -2.065976,0 -3.740741,1.67476 -3.740741,3.74074 v 13.44976 c 0,0.009 0.0075,0.0169 0.01701,0.0169 h 16.835026 c 0.0095,0 0.01701,-0.007 0.01701,-0.0169 v -13.44976 c 0,-2.06598 -1.674766,-3.74074 -3.740518,-3.74074"
         style="display:inline;opacity:1;fill:url(#linearGradient11355);fill-opacity:1;fill-rule:nonzero;stroke:url(#FB_1);stroke-width:0.02234214"
         id="path7037"
         inkscape:connector-curvature="0" />
      <g
         transform="matrix(0.03957422,0,0,0.03957422,50.551321,176.60694)"
         id="g7853">
        <path
           style="fill:#000000"
           inkscape:connector-curvature="0"
           d="m 213.80339,167.03094 c 0.44181,47.57871 41.73909,63.4117 42.19661,63.61379 -0.34919,1.11663 -6.59862,22.56356 -21.75737,44.71672 -13.10408,19.15252 -26.70438,38.23488 -48.12887,38.63009 -21.05171,0.3879 -27.82101,-12.48371 -51.88907,-12.48371 -24.06079,0 -31.58179,12.08847 -51.509577,12.87161 C 62.035041,315.16201 46.287383,293.66852 33.074408,274.58616 6.0752932,235.55254 -14.557617,164.28633 13.147166,116.18047 26.910311,92.290905 51.506092,77.163036 78.202612,76.77511 98.509914,76.387746 117.67759,90.437185 130.0917,90.437185 c 12.40624,0 35.69905,-16.895682 60.18593,-14.414338 10.25104,0.426658 39.02588,4.140841 57.50299,31.186543 -1.4888,0.92294 -34.33427,20.04402 -33.97723,59.8216 M 174.23914,50.198703 C 185.21833,36.908832 192.60796,18.408102 190.59199,0 c -15.82568,0.63605022 -34.96248,10.545791 -46.31388,23.828351 -10.17304,11.762325 -19.08234,30.588677 -16.67845,48.632442 17.63957,1.36475 35.65975,-8.963767 46.63948,-22.262068"
           id="path7851" />
      </g>
      <path
         style="stroke-width:0.18864724"
         inkscape:connector-curvature="0"
         d="m 68.224253,179.66858 c -2.565412,0 -4.645247,2.07983 -4.645247,4.64543 0,2.56598 2.079644,4.64545 4.645247,4.64545 2.56598,0 4.645433,-2.07947 4.645433,-4.64545 0,-2.5656 -2.079638,-4.64543 -4.645433,-4.64543 z m -1.744799,2.23829 c 0.410118,-0.16771 0.743654,-0.23466 1.022088,-0.23977 0.0025,0 0.0043,0 0.0064,0 0.163188,0 0.310889,0.0192 0.44182,0.0502 0.273724,0.0696 0.667245,0.30581 0.667245,0.30581 v 0.001 c -0.112815,0.38654 -0.44653,1.53144 -0.558962,1.91193 -0.293729,-0.19449 -0.609334,-0.37295 -1.054536,-0.37654 -0.0049,0 -0.01,0 -0.01512,0 -0.287126,0 -0.628766,0.0751 -1.050204,0.24752 z m -0.183742,4.03177 c -0.281836,0 -0.617069,0.0669 -1.03228,0.23469 l 0.54916,-1.90459 c 0.0626,-0.0258 0.123745,-0.0487 0.182982,-0.07 0.200347,-0.0707 0.485577,-0.1511 0.798732,-0.17657 0.03562,-0.002 0.07116,-0.005 0.106395,-0.005 0.312401,0 0.597255,0.10941 0.802132,0.21449 0.08734,0.0471 0.170163,0.0983 0.252405,0.1496 -0.07263,0.249 -0.455769,1.55708 -0.568578,1.93873 -0.304284,-0.20186 -0.626494,-0.38165 -1.090948,-0.38165 z m 3.68447,0.71687 c -0.455017,0.18787 -0.81873,0.26278 -1.123015,0.26278 -0.481237,0 -1.122268,-0.39578 -1.121132,-0.39465 l 0.547456,-1.90194 c 0.166576,0.13337 0.552733,0.38654 1.187529,0.38654 0.291841,0 0.636685,-0.0537 1.037187,-0.19752 z m 0.670645,-2.34961 c -0.0013,3.8e-4 -0.0031,6.1e-4 -0.0037,6.1e-4 0,0.001 0,0.002 0,0.004 -0.38428,0.18092 -0.736105,0.25316 -1.052278,0.25316 -0.478602,0 -0.875887,-0.16543 -1.180931,-0.36918 -0.0025,-0.001 -0.0043,-0.002 -0.0056,-0.004 l 0.554813,-1.92004 c 0.175816,0.13639 0.572164,0.39239 1.17395,0.39239 0.302778,0 0.656492,-0.0649 1.060759,-0.24091 z"
         id="path8650" />
      <path
         style="stroke-width:0.17971483"
         inkscape:connector-curvature="0"
         d="m 43.824229,180.28052 c -2.44412,0 -4.425475,1.98171 -4.425475,4.42546 0,2.44413 1.981179,4.42513 4.425475,4.42513 2.444126,0 4.425482,-1.981 4.425482,-4.42513 0,-2.44375 -1.981539,-4.42546 -4.425482,-4.42546 z m 2.27232,5.4705 v 1.12 h -6.79e-4 l 6.79e-4,0.10135 c -1.086739,0.54867 -2.890535,0.70484 -3.930726,0.004 -0.630256,-0.42503 -1.251352,-1.26986 -1.21739,-2.33916 0.03234,-1.01503 0.690465,-1.92403 1.595508,-2.38159 1.040728,-0.52655 2.611796,-0.42682 3.527625,0.3314 l -0.539864,0.5501 -0.349543,0.0994 0.186003,-0.33769 c -0.266696,-0.26884 -0.573473,-0.4633 -0.910796,-0.57148 -0.538424,-0.172 -1.034797,-0.0769 -1.448677,0.12561 -0.847715,0.41496 -1.348945,1.42029 -1.154493,2.48349 0.205416,1.12033 1.072,2.01892 2.209056,2.11344 0.33481,0.0284 0.701605,0.0114 1.026355,-0.074 0.230574,-0.0744 0.229134,-0.0969 0.229134,-0.23686 v -0.987 l -1.138674,0.0338 0.58623,-0.33032 h 1.582751 z"
         id="path9083" />
    </g>
  </g>
</svg>
