<?xml version="1.0" encoding="UTF-8" standalone="no"?>
<svg
   xmlns:osb="http://www.openswatchbook.org/uri/2009/osb"
   xmlns:dc="http://purl.org/dc/elements/1.1/"
   xmlns:cc="http://creativecommons.org/ns#"
   xmlns:rdf="http://www.w3.org/1999/02/22-rdf-syntax-ns#"
   xmlns:svg="http://www.w3.org/2000/svg"
   xmlns="http://www.w3.org/2000/svg"
   xmlns:sodipodi="http://sodipodi.sourceforge.net/DTD/sodipodi-0.dtd"
   xmlns:inkscape="http://www.inkscape.org/namespaces/inkscape"
   id="svg6250"
   version="1.1"
   viewBox="0 0 210 297"
   height="297mm"
   width="210mm"
   sodipodi:docname="padlock_open.svg"
   inkscape:version="0.92.2 (5c3e80d, 2017-08-06)">
  <sodipodi:namedview
     pagecolor="#ffffff"
     bordercolor="#666666"
     borderopacity="1"
     objecttolerance="10"
     gridtolerance="10"
     guidetolerance="10"
     inkscape:pageopacity="0"
     inkscape:pageshadow="2"
     inkscape:window-width="1751"
     inkscape:window-height="856"
     id="namedview998"
     showgrid="false"
     inkscape:zoom="0.2658297"
     inkscape:cx="-37.307891"
     inkscape:cy="566.92068"
     inkscape:window-x="73"
     inkscape:window-y="194"
     inkscape:window-maximized="0"
     inkscape:current-layer="svg6250"
     inkscape:pagecheckerboard="true"
     inkscape:object-nodes="false" />
  <defs
     id="defs6244">
    <filter
       height="1.2481984"
       y="-0.12409921"
       width="1.3948441"
       x="-0.19742206"
       id="filter5350"
       style="color-interpolation-filters:sRGB">
      <feGaussianBlur
         id="feGaussianBlur5352"
         stdDeviation="3.0134002" />
    </filter>
    <linearGradient
       gradientTransform="matrix(1.693186,0,0,1.693186,-223.84645,-752.16017)"
       osb:paint="solid"
       id="FB_2-3">
      <stop
         id="stop870"
         offset="0"
         style="stop-color:#8b9dc3;stop-opacity:1;" />
    </linearGradient>
    <linearGradient
       id="FB_1"
       osb:paint="solid"
       gradientTransform="matrix(2.0617978,0,0,2.0617978,483.61308,-122.09659)">
      <stop
         style="stop-color:#3b5998;stop-opacity:1;"
         offset="0"
         id="stop840" />
    </linearGradient>
    <linearGradient
       id="linearGradient11355"
       osb:paint="solid"
       gradientTransform="matrix(0.5796296,0,0,0.5796296,1.9282932,109.66302)">
      <stop
         style="stop-color:#041235;stop-opacity:1;"
         offset="0"
         id="stop11353" />
    </linearGradient>
  </defs>
  <metadata
     id="metadata6247">
    <rdf:RDF>
      <cc:Work
         rdf:about="">
        <dc:format>image/svg+xml</dc:format>
        <dc:type
           rdf:resource="http://purl.org/dc/dcmitype/StillImage" />
        <dc:title />
      </cc:Work>
    </rdf:RDF>
  </metadata>
  <g
     transform="matrix(2.3240105,0,0,2.3240105,-37.579344,-394.77627)"
     style="opacity:1"
     id="g15167">
    <path
       sodipodi:nodetypes="sccccccscccccs"
       inkscape:connector-curvature="0"
       id="path7265-7"
       d="m 33.538677,231.12752 c 16.732009,0.64534 49.458891,0.0424 49.458891,0.0424 -1.563332,-0.67003 9.588871,-49.08567 -21.647096,-48.75144 -15.826034,0.90954 -20.988343,12.30814 -20.461447,23.20108 -4.066303,2.93453 -3.050181,4.31258 -3.004724,5.31303 0.04557,1.00055 2.592194,-1.40977 2.728627,2.09196 0.136438,3.50173 -9.002865,2.03873 -9.002865,2.03873 0,0 -8.73179,-41.49443 31.385372,-42.70466 39.934915,-1.20479 30.148809,58.05685 30.613607,59.68365 h 5.402401 l 0.514492,61.74171 -76.66262,0.51451 0.41805,-61.03424 c 0.536194,-1.10568 -2.421676,-2.62562 10.257312,-2.13658 z"
       style="opacity:1;fill:url(#FB_2-3);fill-opacity:1;stroke:#000000;stroke-width:0.20972949;stroke-linecap:butt;stroke-linejoin:miter;stroke-miterlimit:4;stroke-dasharray:none;stroke-opacity:1" />
    <path
       sodipodi:nodetypes="ccsccccc"
       style="fill:url(#FB_1);stroke:#000000;stroke-width:0.18698268px;stroke-linecap:butt;stroke-linejoin:miter;stroke-opacity:1"
       d="m 55.539815,262.28752 -0.708766,15.52208 c 0,0 -1.461225,1.74183 6.095508,1.74183 7.556719,0 5.693251,-1.59563 5.693251,-1.59563 l -0.644575,-15.50991 c 0,0 7.196888,-9.65157 -1.079524,-14.46384 -11.155173,-5.15598 -17.632376,9.49324 -9.355951,14.30547 z"
       id="path15117-2"
       inkscape:connector-curvature="0" />
    <path
       sodipodi:nodetypes="ccscccc"
       inkscape:connector-curvature="0"
       id="path15115-2"
       d="m 56.901279,261.55755 -0.76673,14.61105 c 0,0 -0.511166,1.54758 4.855968,1.54758 5.367147,0 4.364621,-1.33581 4.364621,-1.33581 l -1.042106,-14.15968 c 0,0 5.111572,-9.00624 -0.766722,-13.09939 -7.922927,-4.38552 -12.523326,8.3431 -6.645031,12.43625 z"
       style="fill:url(#linearGradient11355);stroke:#000000;stroke-width:0.1453315px;stroke-linecap:butt;stroke-linejoin:miter;stroke-opacity:1" />
  </g>
</svg>
