<?xml version="1.0" encoding="UTF-8" standalone="no"?>
<!-- Created with Inkscape (http://www.inkscape.org/) -->

<svg
   xmlns:dc="http://purl.org/dc/elements/1.1/"
   xmlns:cc="http://creativecommons.org/ns#"
   xmlns:rdf="http://www.w3.org/1999/02/22-rdf-syntax-ns#"
   xmlns:svg="http://www.w3.org/2000/svg"
   xmlns="http://www.w3.org/2000/svg"
   xmlns:sodipodi="http://sodipodi.sourceforge.net/DTD/sodipodi-0.dtd"
   xmlns:inkscape="http://www.inkscape.org/namespaces/inkscape"
   width="210mm"
   height="29mm"
   viewBox="0 0 210 29"
   version="1.1"
   id="svg17715"
   sodipodi:docname="text11.svg"
   inkscape:version="0.92.2 (5c3e80d, 2017-08-06)">
  <defs
     id="defs17709" />
  <sodipodi:namedview
     id="base"
     pagecolor="#ffffff"
     bordercolor="#666666"
     borderopacity="1.0"
     inkscape:pageopacity="0.0"
     inkscape:pageshadow="2"
     inkscape:zoom="0.35"
     inkscape:cx="-91.577789"
     inkscape:cy="102.85714"
     inkscape:document-units="mm"
     inkscape:current-layer="layer1"
     showgrid="false"
     inkscape:pagecheckerboard="true"
     inkscape:window-width="1009"
     inkscape:window-height="717"
     inkscape:window-x="755"
     inkscape:window-y="107"
     inkscape:window-maximized="0" />
  <metadata
     id="metadata17712">
    <rdf:RDF>
      <cc:Work
         rdf:about="">
        <dc:format>image/svg+xml</dc:format>
        <dc:type
           rdf:resource="http://purl.org/dc/dcmitype/StillImage" />
        <dc:title />
      </cc:Work>
    </rdf:RDF>
  </metadata>
  <g
     inkscape:label="Layer 1"
     inkscape:groupmode="layer"
     id="layer1"
     transform="translate(0,-268)">
    <g
       aria-label="Zucc gave away personal secrets of 50 million people."
       transform="matrix(0.2334667,0,0,0.2334667,2.3209616,247.35873)"
       style="font-style:normal;font-variant:normal;font-weight:normal;font-stretch:normal;font-size:40px;line-height:1.25;font-family:'Facebook Letter Faces';-inkscape-font-specification:'Facebook Letter Faces, Normal';font-variant-ligatures:normal;font-variant-caps:normal;font-variant-numeric:normal;font-feature-settings:normal;text-align:start;letter-spacing:0px;word-spacing:0px;writing-mode:lr-tb;text-anchor:start;opacity:1;fill:#000000;fill-opacity:1;stroke:none"
       id="flowRoot17657">
      <path
         d="m 25.259375,131.22852 0.84,-6 h -12 l 12.96,-23.96 h -22.28 l -0.6,5.8 h 11.32 l -13.16,24.16 z"
         style=""
         id="path10764" />
      <path
         d="m 29.724375,128.50852 c 1.72,2.76 4,3.12 6.64,3 3.24,-0.12 5.4,-1.4 5.92,-1.6 0.12,0.44 0.24,0.68 0.36,0.96 l 0.24,0.36 h 5.48 v -21.32 h -6.64 l -0.04,15.08 c -1.08,0.68 -2.12,0.88 -2.88,0.92 -0.44,0.04 -0.88,0 -1.28,-0.04 -1.28,-0.28 -1.92,-1.12 -1.92,-2.44 v -13.52 h -6.68 v 12.32 c 0,3.36 0.2,5.04 0.8,6.28 z"
         style=""
         id="path10766" />
      <path
         d="m 60.828125,109.62852 c -4.04,0 -6.84,1.32 -8.4,3.96 -0.8,1.12 -1.2,3.2 -1.2,6.24 v 1.44 c 0,2.52 0.24,4.28 0.72,5.32 1.4,3.28 4.36,4.92 8.88,4.92 1.24,0 2.32,-0.08 3.24,-0.2 2.36,-0.36 3.52,-0.6 3.52,-0.72 v -5.28 h -0.04 c -2.6,0.48 -4.44,0.76 -5.6,0.76 h -0.48 c -1.56,0 -2.6,-0.32 -3.08,-0.92 -0.4,-0.32 -0.6,-1.36 -0.6,-3.16 v -2.72 c 0,-1.96 0.24,-3.08 0.68,-3.36 0.52,-0.52 1.56,-0.8 3.12,-0.8 1.32,0 3.64,0.28 6,0.72 v -5.32 c -2.36,-0.6 -4.6,-0.88 -6.76,-0.88 z"
         style=""
         id="path10768" />
      <path
         d="m 79.96875,109.62852 c -4.04,0 -6.84,1.32 -8.4,3.96 -0.8,1.12 -1.2,3.2 -1.2,6.24 v 1.44 c 0,2.52 0.24,4.28 0.72,5.32 1.4,3.28 4.36,4.92 8.88,4.92 1.24,0 2.32,-0.08 3.24,-0.2 2.36,-0.36 3.52,-0.6 3.52,-0.72 v -5.28 h -0.04 c -2.6,0.48 -4.44,0.76 -5.6,0.76 h -0.48 c -1.56,0 -2.6,-0.32 -3.08,-0.92 -0.4,-0.32 -0.6,-1.36 -0.6,-3.16 v -2.72 c 0,-1.96 0.24,-3.08 0.68,-3.36 0.52,-0.52 1.56,-0.8 3.12,-0.8 1.32,0 3.64,0.28 6,0.72 v -5.32 c -2.36,-0.6 -4.6,-0.88 -6.76,-0.88 z"
         style=""
         id="path10770" />
      <path
         d="m 124.84125,130.70852 v -20.88 h -5.44 c -0.04,0.16 -0.08,0.32 -0.12,0.44 -0.12,0.28 -0.16,0.6 -0.16,0.92 -2.12,-1.16 -5.28,-2.16 -8.84,-1.2 -2.44,0.76 -3.36,2.6 -3.8,3.6 -0.6,1.32 -0.8,3.04 -0.8,6.44 v 2.12 c 0,3.32 0.28,5.4 0.8,6.16 0.92,1.96 3.24,2.96 7.04,2.96 1.4,0 2.6,-0.16 3.44,-0.36 0.48,-0.12 0.92,-0.24 1.32,-0.4 v 0.72 c 0,1.4 -0.48,2.24 -1.4,2.6 -0.52,0.2 -1.28,0.32 -2.36,0.32 h -0.52 c -2.2,0 -4.56,-0.2 -7.16,-0.72 l -0.04,0.04 v 5.28 c 0,0.08 1.12,0.28 3.36,0.64 1.36,0.16 2.96,0.24 4.76,0.24 4.72,0 7.76,-1.6 9.16,-4.8 0.36,-0.92 0.6,-1.88 0.72,-2.84 v -0.76 c 0,-0.16 0,-0.32 0.04,-0.52 z m -6.56,-14.64 v 8.76 c -1.08,0.64 -2.16,0.96 -3.16,0.96 h -0.4 l -0.52,-0.08 c -1.28,-0.24 -1.92,-1.04 -1.92,-2.4 v -5.08 c 0,-0.44 0.08,-0.84 0.2,-1.24 0.36,-1.28 1.48,-1.8 3.28,-1.56 0.2,0.04 0.44,0.08 0.72,0.12 0.44,0.12 1.04,0.24 1.8,0.52 z"
         style=""
         id="path10772" />
      <path
         d="m 144.6725,113.06852 c -1,-2.08 -3.6,-3.12 -7.8,-3.12 h -6.6 l -0.6,5.44 h 6.16 c 1.16,0 2,0.16 2.48,0.52 0.44,0.24 0.64,1.08 0.64,2.56 v 0.72 h -3.08 c -3,0 -4.88,0.24 -5.64,0.76 -1.8,0.84 -2.72,2.52 -2.72,5.12 v 0.16 c 0,1.48 0.4,2.8 1.16,3.96 1.16,1.52 2.72,2.28 4.68,2.28 h 0.56 c 2.04,0 3.96,-0.56 5.88,-1.56 0.04,0.32 0.08,0.64 0.2,0.92 0.04,0.12 0.08,0.28 0.12,0.4 h 5.44 v -13.12 c 0,-2.12 -0.28,-3.8 -0.88,-5.04 z m -5.72,10.48 v 2.4 c -1.16,0.52 -2.2,0.88 -3.04,0.88 -1.2,0 -1.8,-0.6 -1.8,-1.76 0,-0.56 0.12,-0.92 0.32,-1.12 0.28,-0.28 1.04,-0.4 2.32,-0.4 z"
         style=""
         id="path10774" />
      <path
         d="m 170.06125,109.90852 h -7.12 l -4.44,14.32 -4.56,-14.32 h -7.16 l 7.56,21.32 h 8.4 z"
         style=""
         id="path10776" />
      <path
         d="m 189.3425,113.86852 c -1.32,-2.88 -4.2,-4.32 -8.6,-4.32 -1.56,0 -3,0.2 -4.48,0.68 -3.16,1.24 -4.72,3.72 -4.72,7.48 v 5.12 c 0,1.32 0.24,2.64 0.76,3.92 1.36,3.16 4.4,4.76 9.08,4.76 1.8,0 3.44,-0.08 4.84,-0.24 2.24,-0.36 3.36,-0.56 3.36,-0.64 v -5.36 h -0.04 c -2.52,0.52 -4.92,0.76 -7.2,0.76 h -0.52 c -1.08,0 -1.76,-0.12 -2.36,-0.28 -0.88,-0.32 -1.32,-1.2 -1.32,-2.64 v -0.64 h 11.96 v -0.12 -3.68 c 0,-2.04 -0.24,-3.64 -0.76,-4.8 z m -5.84,3.8 v 0.36 h -5.36 v -1 c 0,-1.64 0.76,-2.48 2.64,-2.48 0.68,0 1.28,0.16 1.76,0.48 0.64,0.28 0.96,1.16 0.96,2.64 z"
         style=""
         id="path10778" />
      <path
         d="m 226.00063,113.06852 c -1,-2.08 -3.60001,-3.12 -7.80001,-3.12 h -6.6 l -0.59999,5.44 h 6.15999 c 1.16,0 2,0.16 2.48,0.52 0.44,0.24 0.64,1.08 0.64,2.56 v 0.72 h -3.08 c -3,0 -4.88,0.24 -5.64,0.76 -1.8,0.84 -2.72,2.52 -2.72,5.12 v 0.16 c 0,1.48 0.4,2.8 1.16001,3.96 1.15999,1.52 2.71999,2.28 4.67999,2.28 h 0.56 c 2.04,0 3.96,-0.56 5.88,-1.56 0.04,0.32 0.08,0.64 0.2,0.92 0.04,0.12 0.08,0.28 0.12,0.4 h 5.44 v -13.12 c 0,-2.12 -0.28,-3.8 -0.87999,-5.04 z m -5.72001,10.48 v 2.4 c -1.16,0.52 -2.2,0.88 -3.04,0.88 -1.2,0 -1.8,-0.6 -1.8,-1.76 0,-0.56 0.12,-0.92 0.32,-1.12 0.28,-0.28 1.04,-0.4 2.32,-0.4 z"
         style=""
         id="path10780" />
      <path
         d="m 261.02938,109.94852 h -6.76001 l -3.4,13.4 -3.12,-13.4 h -5.88 l -3.12,13.4 -3.44,-13.4 h -6.72 l 6.24,21.28 h 7.16 l 2.84,-9.44 2.76,9.44 h 7.2 z"
         style=""
         id="path10782" />
      <path
         d="m 279.985,113.06852 c -1,-2.08 -3.6,-3.12 -7.8,-3.12 h -6.6 l -0.6,5.44 h 6.16 c 1.16,0 2,0.16 2.48,0.52 0.44,0.24 0.64,1.08 0.64,2.56 v 0.72 h -3.08 c -3,0 -4.88,0.24 -5.64,0.76 -1.8,0.84 -2.72,2.52 -2.72,5.12 v 0.16 c 0,1.48 0.4,2.8 1.16,3.96 1.16,1.52 2.72,2.28 4.68,2.28 h 0.56 c 2.04,0 3.96,-0.56 5.88,-1.56 0.04,0.32 0.08,0.64 0.2,0.92 0.04,0.12 0.08,0.28 0.12,0.4 h 5.44 v -13.12 c 0,-2.12 -0.28,-3.8 -0.88,-5.04 z m -5.72,10.48 v 2.4 c -1.16,0.52 -2.2,0.88 -3.04,0.88 -1.2,0 -1.8,-0.6 -1.8,-1.76 0,-0.56 0.12,-0.92 0.32,-1.12 0.28,-0.28 1.04,-0.4 2.32,-0.4 z"
         style=""
         id="path10784" />
      <path
         d="m 306.53375,109.94852 h -7.2 l -4.24,13.16 -4.96,-13.16 h -7.32 l 8.84,21.28 c 0,1.48 -0.48,2.36 -1.4,2.6 -0.48,0.16 -1.24,0.36 -2.32,0.36 h -0.44 c -0.64,0 -1.24,-0.04 -1.84,-0.08 v 5.48 c 0.84,0.04 1.76,0.08 2.72,0.08 2.08,0 3.76,-0.28 5.2,-0.88 3.4,-1.6 4.52,-5.08 5.4,-7.56 0.44,-1.2 2.32,-6.6 4.12,-11.56 1.04,-2.92 2.2,-6.16 3.44,-9.72 z"
         style=""
         id="path10786" />
      <path
         d="m 324.70375,110.30852 v 4.56 26 l 6.6,-1.2 v -8.4 -0.72 c 0.4,0.16 0.84,0.28 1.32,0.4 0.84,0.2 2,0.4 3.4,0.4 3.8,0 6.16,-1 7,-3 0.52,-0.92 0.8,-2.96 0.8,-6.2 v -2.08 c 0,-3.44 -0.28,-5.04 -0.8,-6.44 -0.44,-0.96 -1.48,-2.84 -3.8,-3.6 -3.52,-1.08 -6.68,0.12 -8.76,1.2 -0.04,-0.28 -0.08,-0.6 -0.2,-0.96 -0.04,-0.12 -0.08,-0.28 -0.12,-0.44 h -5.44 z m 6.6,14.56 v -8.72 c 0.68,-0.28 1.32,-0.4 1.76,-0.52 0.28,-0.04 0.52,-0.08 0.72,-0.12 1.76,-0.28 2.88,0.32 3.24,1.56 0.12,0.32 0.16,0.76 0.16,1.32 v 4.96 c 0,1.32 -0.6,2.12 -1.84,2.4 l -0.56,0.04 h -0.4 c -0.96,0 -2,-0.32 -3.08,-0.92 z"
         style=""
         id="path10788" />
      <path
         d="m 364.49875,113.86852 c -1.32,-2.88 -4.2,-4.32 -8.6,-4.32 -1.56,0 -3,0.2 -4.48,0.68 -3.16,1.24 -4.72,3.72 -4.72,7.48 v 5.12 c 0,1.32 0.24,2.64 0.76,3.92 1.36,3.16 4.4,4.76 9.08,4.76 1.8,0 3.44,-0.08 4.84,-0.24 2.24,-0.36 3.36,-0.56 3.36,-0.64 v -5.36 h -0.04 c -2.52,0.52 -4.92,0.76 -7.2,0.76 h -0.52 c -1.08,0 -1.76,-0.12 -2.36,-0.28 -0.88,-0.32 -1.32,-1.2 -1.32,-2.64 v -0.64 h 11.96 v -0.12 -3.68 c 0,-2.04 -0.24,-3.64 -0.76,-4.8 z m -5.84,3.8 v 0.36 h -5.36 v -1 c 0,-1.64 0.76,-2.48 2.64,-2.48 0.68,0 1.28,0.16 1.76,0.48 0.64,0.28 0.96,1.16 0.96,2.64 z"
         style=""
         id="path10790" />
      <path
         d="m 378.665,109.86852 c -1.24,0.28 -2.24,0.56 -3.16,0.88 -0.76,0.28 -1,0.36 -1.52,0.56 -0.12,-0.44 -0.24,-0.8 -0.36,-1.08 -0.08,-0.16 -0.16,-0.32 -0.2,-0.48 h -5.4 v 21.48 h 6.52 v -13.4 -1.08 c 1.76,-0.64 3.08,-1.08 4.04,-1.28 l 0.44,-0.08 c 0.52,-0.12 2,-0.24 2.8,-0.2 l -0.64,-5.64 c -0.84,0.04 -1.68,0.12 -2.52,0.32 z"
         style=""
         id="path10792" />
      <path
         d="m 401.3625,125.42852 c 0.12,-1.48 0.08,-3.2 -1.44,-4.72 -2.84,-2.68 -10.36,-2.52 -9.44,-4.68 0.76,-1.8 7.92,-0.68 9.96,-0.24 l -0.6,-5.64 c -1.64,-0.28 -4.48,-0.64 -7.36,-0.52 -3.08,0.12 -8.36,0.56 -9,6.12 -0.12,1.4 -0.08,3.24 1.52,4.64 3.16,3 10.24,2.56 9.44,4.68 -0.84,2 -9.32,0.32 -10.8,0 l 0.6,5.72 c 1.64,0.32 5,0.72 8.16,0.72 3.12,-0.12 8.32,-0.6 8.96,-6.08 z"
         style=""
         id="path10794" />
      <path
         d="m 421.33,114.70852 c -1.28,-3.36 -4.08,-5.12 -8.68,-5.12 h -0.64 c -1.4,0 -2.6,0.24 -3.84,0.6 -3.6,1.16 -5.4,3.84 -5.4,8 v 4.68 c 0,1.76 0.32,3.2 0.92,4.36 1.32,2.84 4.2,4.28 8.56,4.28 2.04,0 3.76,-0.32 5.2,-0.92 2.92,-1.28 4.4,-3.96 4.4,-8.08 v -3.92 c 0,-1.52 -0.16,-2.8 -0.52,-3.88 z m -6.04,3.64 v 4.36 c 0,0.6 -0.04,1 -0.04,1.36 -0.36,1.32 -1.32,2 -2.84,2 h -0.16 c -1.92,0 -2.88,-0.92 -2.88,-2.76 v -5.36 c 0,-0.6 0.08,-1 0.2,-1.36 0.48,-0.96 1.32,-1.44 2.48,-1.44 h 0.52 c 0.48,0 0.92,0.04 1.28,0.24 0.96,0.28 1.44,1.28 1.44,2.96 z"
         style=""
         id="path10796" />
      <path
         d="m 442.12437,112.54852 c -1.64,-2.72 -3.91999,-3.04 -6.47999,-2.92 -3.24,0.12 -5.36001,1.44 -5.8,1.64 -0.12001,-0.44 -0.28001,-0.72 -0.40001,-1 l -0.2,-0.4 h -5.44 v 21.36 h 6.56 v -15.2 c 1.08,-0.64 2.04001,-0.8 2.8,-0.92 0.44,-0.04 0.88,0 1.28,0.04 1.24,0.28 1.88,1.08 1.88,2.4 v 13.68 h 6.6 v -12.48 c 0,-3.32 -0.2,-5.08 -0.8,-6.2 z"
         style=""
         id="path10798" />
      <path
         d="m 462.71938,113.06852 c -1,-2.08 -3.60001,-3.12 -7.80001,-3.12 h -6.6 l -0.59999,5.44 h 6.15999 c 1.16,0 2,0.16 2.48,0.52 0.44,0.24 0.64,1.08 0.64,2.56 v 0.72 h -3.08 c -3,0 -4.88,0.24 -5.63999,0.76 -1.80001,0.84 -2.72001,2.52 -2.72001,5.12 v 0.16 c 0,1.48 0.40001,2.8 1.16001,3.96 1.15999,1.52 2.71999,2.28 4.68,2.28 h 0.56 c 2.03999,0 3.95999,-0.56 5.88,-1.56 0.04,0.32 0.08,0.64 0.19999,0.92 0.04,0.12 0.08,0.28 0.12,0.4 h 5.44 v -13.12 c 0,-2.12 -0.28,-3.8 -0.87999,-5.04 z m -5.72001,10.48 v 2.4 c -1.15999,0.52 -2.2,0.88 -3.03999,0.88 -1.20001,0 -1.80001,-0.6 -1.80001,-1.76 0,-0.56 0.12001,-0.92 0.32,-1.12 0.28,-0.28 1.04001,-0.4 2.32,-0.4 z"
         style=""
         id="path10800" />
      <path
         d="m 472.82812,100.06852 -6.6,1.16 v 21.12 0.28 c 0,0.32 0,0.68 0.04,1.04 0.08,0.92 0.32,1.84 0.68,2.76 1.44,3.28 4.48001,4.92 9.12,4.92 0.6,0 1,0 1.6,-0.04 v -5.52 c -0.28,0 -2.28,0.04 -3.44,-0.28 -0.91999,-0.32 -1.4,-1.2 -1.4,-2.64 v -0.8 z"
         style=""
         id="path10802" />
      <path
         d="m 513.2375,125.42852 c 0.12,-1.48 0.08,-3.2 -1.44,-4.72 -2.84,-2.68 -10.36,-2.52 -9.44,-4.68 0.76,-1.8 7.92,-0.68 9.96,-0.24 l -0.6,-5.64 c -1.64,-0.28 -4.48,-0.64 -7.36,-0.52 -3.08,0.12 -8.36,0.56 -9,6.12 -0.12,1.4 -0.08,3.24 1.52,4.64 3.16,3 10.24,2.56 9.44,4.68 -0.84,2 -9.32,0.32 -10.8,0 l 0.6,5.72 c 1.64,0.32 5,0.72 8.16,0.72 3.12,-0.12 8.32,-0.6 8.96,-6.08 z"
         style=""
         id="path10804" />
      <path
         d="m 533.405,113.86852 c -1.32,-2.88 -4.2,-4.32 -8.6,-4.32 -1.56,0 -3,0.2 -4.48,0.68 -3.16,1.24 -4.72,3.72 -4.72,7.48 v 5.12 c 0,1.32 0.24,2.64 0.76,3.92 1.36,3.16 4.4,4.76 9.08,4.76 1.8,0 3.44,-0.08 4.84,-0.24 2.24,-0.36 3.36,-0.56 3.36,-0.64 v -5.36 h -0.04 c -2.52,0.52 -4.92,0.76 -7.2,0.76 h -0.52 c -1.08,0 -1.76,-0.12 -2.36,-0.28 -0.88,-0.32 -1.32,-1.2 -1.32,-2.64 v -0.64 h 11.96 v -0.12 -3.68 c 0,-2.04 -0.24,-3.64 -0.76,-4.8 z m -5.84,3.8 v 0.36 h -5.36 v -1 c 0,-1.64 0.76,-2.48 2.64,-2.48 0.68,0 1.28,0.16 1.76,0.48 0.64,0.28 0.96,1.16 0.96,2.64 z"
         style=""
         id="path10806" />
      <path
         d="m 546.53125,109.62852 c -4.04,0 -6.84,1.32 -8.4,3.96 -0.8,1.12 -1.2,3.2 -1.2,6.24 v 1.44 c 0,2.52 0.24,4.28 0.72,5.32 1.4,3.28 4.36,4.92 8.88,4.92 1.24,0 2.32,-0.08 3.24,-0.2 2.36,-0.36 3.52,-0.6 3.52,-0.72 v -5.28 h -0.04 c -2.6,0.48 -4.44,0.76 -5.6,0.76 h -0.48 c -1.56,0 -2.6,-0.32 -3.08,-0.92 -0.4,-0.32 -0.6,-1.36 -0.6,-3.16 v -2.72 c 0,-1.96 0.24,-3.08 0.68,-3.36 0.52,-0.52 1.56,-0.8 3.12,-0.8 1.32,0 3.64,0.28 6,0.72 v -5.32 c -2.36,-0.6 -4.6,-0.88 -6.76,-0.88 z"
         style=""
         id="path10808" />
      <path
         d="m 566.71187,109.86852 c -1.24,0.28 -2.24,0.56 -3.16,0.88 -0.76,0.28 -1,0.36 -1.51999,0.56 -0.12001,-0.44 -0.24001,-0.8 -0.36001,-1.08 -0.08,-0.16 -0.15999,-0.32 -0.2,-0.48 h -5.4 v 21.48 h 6.52 v -13.4 -1.08 c 1.76,-0.64 3.08,-1.08 4.04001,-1.28 l 0.43999,-0.08 c 0.52,-0.12 2,-0.24 2.80001,-0.2 l -0.64001,-5.64 c -0.83999,0.04 -1.68,0.12 -2.52,0.32 z"
         style=""
         id="path10810" />
      <path
         d="m 589.88937,113.86852 c -1.31999,-2.88 -4.19999,-4.32 -8.6,-4.32 -1.56,0 -3,0.2 -4.47999,0.68 -3.16001,1.24 -4.72,3.72 -4.72,7.48 v 5.12 c 0,1.32 0.24,2.64 0.75999,3.92 1.36001,3.16 4.4,4.76 9.08001,4.76 1.79999,0 3.43999,-0.08 4.83999,-0.24 2.24,-0.36 3.36,-0.56 3.36,-0.64 v -5.36 h -0.04 c -2.52,0.52 -4.92001,0.76 -7.20001,0.76 h -0.52 c -1.08,0 -1.76,-0.12 -2.36,-0.28 -0.88,-0.32 -1.31999,-1.2 -1.31999,-2.64 v -0.64 h 11.95999 v -0.12 -3.68 c 0,-2.04 -0.24,-3.64 -0.76,-4.8 z m -5.83999,3.8 v 0.36 h -5.36 v -1 c 0,-1.64 0.76,-2.48 2.64,-2.48 0.67999,0 1.27999,0.16 1.76,0.48 0.63999,0.28 0.96,1.16 0.96,2.64 z"
         style=""
         id="path10812" />
      <path
         d="m 608.13562,126.50852 c -0.2,0 -2.27999,-0.12 -3.44,-0.64 -1.44,-0.44 -1.44,-1.52 -1.44,-2.92 v -7.56 6.08 -6.08 h 4.32 l 0.68,-5.48 h -5 v -6.44 l -6.56,1.12 v 5.32 h -3.19999 v 5.48 h 3.19999 v 4.08 c 0,2.08 0.04,4.24 0.04,4.36 0,7.88 5.15999,7.48 9.83999,7.48 h 1.56 z"
         style=""
         id="path10814" />
      <path
         d="m 628.47187,125.42852 c 0.12,-1.48 0.08,-3.2 -1.43999,-4.72 -2.84001,-2.68 -10.36001,-2.52 -9.44001,-4.68 0.76,-1.8 7.92001,-0.68 9.96,-0.24 l -0.6,-5.64 c -1.64,-0.28 -4.48,-0.64 -7.36,-0.52 -3.07999,0.12 -8.36,0.56 -9,6.12 -0.12,1.4 -0.08,3.24 1.52001,4.64 3.16,3 10.23999,2.56 9.43999,4.68 -0.84,2 -9.32,0.32 -10.79999,0 l 0.59999,5.72 c 1.64001,0.32 5,0.72 8.16001,0.72 3.12,-0.12 8.31999,-0.6 8.95999,-6.08 z"
         style=""
         id="path10816" />
      <path
         d="m 664.61125,114.70852 c -1.28,-3.36 -4.08,-5.12 -8.68,-5.12 h -0.64 c -1.4,0 -2.6,0.24 -3.84,0.6 -3.6,1.16 -5.4,3.84 -5.4,8 v 4.68 c 0,1.76 0.32,3.2 0.92,4.36 1.32,2.84 4.2,4.28 8.56,4.28 2.04,0 3.76,-0.32 5.2,-0.92 2.92,-1.28 4.4,-3.96 4.4,-8.08 v -3.92 c 0,-1.52 -0.16,-2.8 -0.52,-3.88 z m -6.04,3.64 v 4.36 c 0,0.6 -0.04,1 -0.04,1.36 -0.36,1.32 -1.32,2 -2.84,2 h -0.16 c -1.92,0 -2.88,-0.92 -2.88,-2.76 v -5.36 c 0,-0.6 0.08,-1 0.2,-1.36 0.48,-0.96 1.32,-1.44 2.48,-1.44 h 0.52 c 0.48,0 0.92,0.04 1.28,0.24 0.96,0.28 1.44,1.28 1.44,2.96 z"
         style=""
         id="path10818" />
      <path
         d="m 676.72563,99.668516 c -1,0 -1.96001,0.12 -3.08001,0.560004 -2.27999,0.92 -3.43999,3.08 -3.43999,6.44 v 3.28 h -3.20001 v 5.48 h 3.20001 v 15.8 h 6.52 v -15.8 h 4.43999 l 0.6,-5.48 h -5.03999 v -2.48 c 0,-0.76 0.08,-1.32 0.27999,-1.64 0.28,-0.48 0.84001,-0.72 1.72001,-0.72 h 2.95999 v -5.440004 z"
         style=""
         id="path10820" />
      <path
         d="m 719.97625,101.26852 h -17.32 l -1.8,15.68 c 1.28,-0.2 2.28,-0.28 4,-0.28 6.28,0 8.88,1.84 8.88,5 0,3.16 -3.28,3.88 -6.28,3.88 -2.56,0 -5.84,-0.96 -7.44,-1.6 l -0.72,6.24 c 1.92,0.76 5.16,1.52 8.48,1.52 8.44,0 13.48,-4.92 13.48,-10.56 0,-3.52 -1.44,-5.92 -3.84,-7.48 -2.2,-1.56 -5.2,-2.16 -8.24,-2.16 -0.76,0 -0.8,0 -1.48,0.12 l 0.68,-4.28 h 10.84 z"
         style=""
         id="path10822" />
      <path
         d="m 735.97,100.86852 c -9.36,-0.2 -13,5.96 -12.88,15.4 0,9.2 3.28,15.6 12.76,15.4 9.2,0.2 12.84,-5.68 12.84,-15.56 0,-8.84 -2.92,-15.56 -12.72,-15.24 z m -0.04,24.76 c -3.68,0 -5.72,-2.92 -5.72,-9.36 0,-6.52 2.24,-9.4 5.72,-9.4 3.84,0 5.52,3.16 5.52,9.36 0,6.28 -1.84,9.4 -5.52,9.4 z"
         style=""
         id="path10824" />
      <path
         d="m 798.08563,112.54852 c -0.84,-2 -3.20001,-3 -7,-3 -2.56001,0 -4.88,0.76 -6.76001,1.44 -0.04,-0.04 -0.08,-0.04 -0.11999,-0.04 -1.40001,-1.16 -3.08,-1.4 -4.84,-1.36 h -0.36001 c -3.2,0.12 -5.39999,1.44 -5.79999,1.64 -0.12,-0.44 -0.28001,-0.72 -0.40001,-1 -0.08,-0.12 -0.16,-0.28 -0.24,-0.4 h -1.16 -4.24 v 21.4 h 6.56001 v -15.2 h 0.04 c 1.08001,-0.64 2.04,-0.8 2.8,-0.92 0.44,-0.04 0.88,0 1.28001,0.04 1.24,0.28 1.83999,1.08 1.83999,2.4 v 13.68 h 6.64 v -15.2 c 1.08,-0.6 2.64001,-1.16 4.12,-0.88 1.24,0.28 1.84,1.08 1.84,2.4 v 13.68 h 6.64 v -12.48 c 0,-3.28 -0.28,-5.36 -0.83999,-6.2 z"
         style=""
         id="path10826" />
      <path
         d="m 807.575,102.14852 c -0.6,-0.6 -1.68,-0.68 -2.6,-0.68 -0.92,0 -1.96,0.08 -2.72,0.68 -0.64,0.6 -0.72,1.72 -0.72,2.4 0,0.76 0.08,1.76 0.72,2.36 0.76,0.6 1.92,0.68 2.72,0.68 0.76,0 2,-0.08 2.6,-0.68 0.76,-0.6 0.84,-1.56 0.84,-2.36 0,-0.76 -0.08,-1.8 -0.84,-2.4 z m -5.92,7.8 h 6.6 v 21.28 h -6.6 z"
         style=""
         id="path10828" />
      <path
         d="m 817.51562,100.06852 -6.6,1.16 v 21.12 0.28 c 0,0.32 0,0.68 0.04,1.04 0.08,0.92 0.31999,1.84 0.67999,2.76 1.44,3.28 4.48001,4.92 9.12,4.92 0.60001,0 1,0 1.60001,-0.04 v -5.52 c -0.28001,0 -2.28001,0.04 -3.44001,-0.28 -0.91999,-0.32 -1.4,-1.2 -1.4,-2.64 v -0.8 z"
         style=""
         id="path10830" />
      <path
         d="m 830.95312,100.06852 -6.6,1.16 v 21.12 0.28 c 0,0.32 0,0.68 0.04,1.04 0.08,0.92 0.31999,1.84 0.67999,2.76 1.44,3.28 4.48001,4.92 9.12,4.92 0.60001,0 1,0 1.60001,-0.04 v -5.52 c -0.28001,0 -2.28001,0.04 -3.44001,-0.28 -0.91999,-0.32 -1.4,-1.2 -1.4,-2.64 v -0.8 z"
         style=""
         id="path10832" />
      <path
         d="m 843.59063,102.14852 c -0.6,-0.6 -1.68001,-0.68 -2.6,-0.68 -0.92001,0 -1.96001,0.08 -2.72001,0.68 -0.64,0.6 -0.72,1.72 -0.72,2.4 0,0.76 0.08,1.76 0.72,2.36 0.76,0.6 1.92,0.68 2.72001,0.68 0.76,0 2,-0.08 2.6,-0.68 0.76,-0.6 0.83999,-1.56 0.83999,-2.36 0,-0.76 -0.08,-1.8 -0.83999,-2.4 z m -5.92001,7.8 h 6.6 v 21.28 h -6.6 z"
         style=""
         id="path10834" />
      <path
         d="m 864.61125,114.70852 c -1.28,-3.36 -4.08,-5.12 -8.68,-5.12 h -0.64 c -1.4,0 -2.6,0.24 -3.84,0.6 -3.6,1.16 -5.4,3.84 -5.4,8 v 4.68 c 0,1.76 0.32,3.2 0.92,4.36 1.32,2.84 4.2,4.28 8.56,4.28 2.04,0 3.76,-0.32 5.2,-0.92 2.92,-1.28 4.4,-3.96 4.4,-8.08 v -3.92 c 0,-1.52 -0.16,-2.8 -0.52,-3.88 z m -6.04,3.64 v 4.36 c 0,0.6 -0.04,1 -0.04,1.36 -0.36,1.32 -1.32,2 -2.84,2 h -0.16 c -1.92,0 -2.88,-0.92 -2.88,-2.76 v -5.36 c 0,-0.6 0.08,-1 0.2,-1.36 0.48,-0.96 1.32,-1.44 2.48,-1.44 h 0.52 c 0.48,0 0.92,0.04 1.28,0.24 0.96,0.28 1.44,1.28 1.44,2.96 z"
         style=""
         id="path10836" />
      <path
         d="m 885.40562,112.54852 c -1.64,-2.72 -3.91999,-3.04 -6.48,-2.92 -3.24,0.12 -5.36,1.44 -5.79999,1.64 -0.12001,-0.44 -0.28,-0.72 -0.4,-1 l -0.20001,-0.4 h -5.43999 v 21.36 h 6.55999 v -15.2 c 1.08001,-0.64 2.04,-0.8 2.8,-0.92 0.44,-0.04 0.88,0 1.28001,0.04 1.24,0.28 1.88,1.08 1.88,2.4 v 13.68 h 6.6 v -12.48 c 0,-3.32 -0.20001,-5.08 -0.80001,-6.2 z"
         style=""
         id="path10838" />
      <path
         d="m 3.219375,160.30852 v 4.56 26 l 6.6,-1.2 v -8.4 -0.72 c 0.4,0.16 0.84,0.28 1.32,0.4 0.84,0.2 2,0.4 3.4,0.4 3.8,0 6.16,-1 7,-3 0.52,-0.92 0.8,-2.96 0.8,-6.2 v -2.08 c 0,-3.44 -0.28,-5.04 -0.8,-6.44 -0.44,-0.96 -1.48,-2.84 -3.8,-3.6 -3.52,-1.08 -6.68,0.12 -8.76,1.2 -0.04,-0.28 -0.08,-0.6 -0.2,-0.96 -0.04,-0.12 -0.08,-0.28 -0.12,-0.44 h -5.44 z m 6.6,14.56 v -8.72 c 0.68,-0.28 1.32,-0.4 1.76,-0.52 0.28,-0.04 0.52,-0.08 0.72,-0.12 1.76,-0.28 2.88,0.32 3.24,1.56 0.12,0.32 0.16,0.76 0.16,1.32 v 4.96 c 0,1.32 -0.6,2.12 -1.84,2.4 l -0.56,0.04 h -0.4 c -0.96,0 -2,-0.32 -3.08,-0.92 z"
         style=""
         id="path10840" />
      <path
         d="m 43.014375,163.86852 c -1.32,-2.88 -4.2,-4.32 -8.6,-4.32 -1.56,0 -3,0.2 -4.48,0.68 -3.16,1.24 -4.72,3.72 -4.72,7.48 v 5.12 c 0,1.32 0.24,2.64 0.76,3.92 1.36,3.16 4.4,4.76 9.08,4.76 1.8,0 3.44,-0.08 4.84,-0.24 2.24,-0.36 3.36,-0.56 3.36,-0.64 v -5.36 h -0.04 c -2.52,0.52 -4.92,0.76 -7.2,0.76 h -0.52 c -1.08,0 -1.76,-0.12 -2.36,-0.28 -0.88,-0.32 -1.32,-1.2 -1.32,-2.64 v -0.64 h 11.96 v -0.12 -3.68 c 0,-2.04 -0.24,-3.64 -0.76,-4.8 z m -5.84,3.8 v 0.36 h -5.36 v -1 c 0,-1.64 0.76,-2.48 2.64,-2.48 0.68,0 1.28,0.16 1.76,0.48 0.64,0.28 0.96,1.16 0.96,2.64 z"
         style=""
         id="path10842" />
      <path
         d="m 64.220625,164.70852 c -1.28,-3.36 -4.08,-5.12 -8.68,-5.12 h -0.64 c -1.4,0 -2.6,0.24 -3.84,0.6 -3.6,1.16 -5.4,3.84 -5.4,8 v 4.68 c 0,1.76 0.32,3.2 0.92,4.36 1.32,2.84 4.2,4.28 8.56,4.28 2.04,0 3.76,-0.32 5.2,-0.92 2.92,-1.28 4.4,-3.96 4.4,-8.08 v -3.92 c 0,-1.52 -0.16,-2.8 -0.52,-3.88 z m -6.04,3.64 v 4.36 c 0,0.6 -0.04,1 -0.04,1.36 -0.36,1.32 -1.32,2 -2.84,2 h -0.16 c -1.92,0 -2.88,-0.92 -2.88,-2.76 v -5.36 c 0,-0.6 0.08,-1 0.2,-1.36 0.48,-0.96 1.32,-1.44 2.48,-1.44 h 0.52 c 0.48,0 0.92,0.04 1.28,0.24 0.96,0.28 1.44,1.28 1.44,2.96 z"
         style=""
         id="path10844" />
      <path
         d="m 66.735,160.30852 v 4.56 26 l 6.6,-1.2 v -8.4 -0.72 c 0.4,0.16 0.84,0.28 1.32,0.4 0.84,0.2 2,0.4 3.4,0.4 3.8,0 6.16,-1 7,-3 0.52,-0.92 0.8,-2.96 0.8,-6.2 v -2.08 c 0,-3.44 -0.28,-5.04 -0.8,-6.44 -0.44,-0.96 -1.48,-2.84 -3.8,-3.6 -3.52,-1.08 -6.68,0.12 -8.76,1.2 -0.04,-0.28 -0.08,-0.6 -0.2,-0.96 -0.04,-0.12 -0.08,-0.28 -0.12,-0.44 h -5.44 z m 6.6,14.56 v -8.72 c 0.68,-0.28 1.32,-0.4 1.76,-0.52 0.28,-0.04 0.52,-0.08 0.72,-0.12 1.76,-0.28 2.88,0.32 3.24,1.56 0.12,0.32 0.16,0.76 0.16,1.32 v 4.96 c 0,1.32 -0.6,2.12 -1.84,2.4 l -0.56,0.04 h -0.4 c -0.96,0 -2,-0.32 -3.08,-0.92 z"
         style=""
         id="path10846" />
      <path
         d="m 95.25,150.06852 -6.6,1.16 v 21.12 0.28 c 0,0.32 0,0.68 0.04,1.04 0.08,0.92 0.32,1.84 0.68,2.76 1.44,3.28 4.48,4.92 9.12,4.92 0.6,0 1,0 1.6,-0.04 v -5.52 c -0.28,0 -2.28,0.04 -3.44,-0.28 -0.92,-0.32 -1.4,-1.2 -1.4,-2.64 v -0.8 z"
         style=""
         id="path10848" />
      <path
         d="m 119.9675,163.86852 c -1.32,-2.88 -4.2,-4.32 -8.6,-4.32 -1.56,0 -3,0.2 -4.48,0.68 -3.16,1.24 -4.72,3.72 -4.72,7.48 v 5.12 c 0,1.32 0.24,2.64 0.76,3.92 1.36,3.16 4.4,4.76 9.08,4.76 1.8,0 3.44,-0.08 4.84,-0.24 2.24,-0.36 3.36,-0.56 3.36,-0.64 v -5.36 h -0.04 c -2.52,0.52 -4.92,0.76 -7.2,0.76 h -0.52 c -1.08,0 -1.76,-0.12 -2.36,-0.28 -0.88,-0.32 -1.32,-1.2 -1.32,-2.64 v -0.64 h 11.96 v -0.12 -3.68 c 0,-2.04 -0.24,-3.64 -0.76,-4.8 z m -5.84,3.8 v 0.36 h -5.36 v -1 c 0,-1.64 0.76,-2.48 2.64,-2.48 0.68,0 1.28,0.16 1.76,0.48 0.64,0.28 0.96,1.16 0.96,2.64 z"
         style=""
         id="path10850" />
      <path
         d="m 127.01375,175.26852 c -0.92,0 -2,0.04 -2.6,0.68 -0.76,0.6 -0.88,1.68 -0.88,2.36 0,0.8 0.12,1.92 0.88,2.44 0.6,0.6 1.84,0.72 2.6,0.72 0.76,0 2,-0.12 2.64,-0.72 0.76,-0.52 0.84,-1.64 0.84,-2.44 0,-0.68 -0.08,-1.76 -0.84,-2.36 -0.64,-0.64 -1.72,-0.68 -2.64,-0.68 z"
         style=""
         id="path10852" />
    </g>
  </g>
</svg>
