<?xml version="1.0" encoding="UTF-8" standalone="no"?>
<!-- Created with Inkscape (http://www.inkscape.org/) -->

<svg
   xmlns:dc="http://purl.org/dc/elements/1.1/"
   xmlns:cc="http://creativecommons.org/ns#"
   xmlns:rdf="http://www.w3.org/1999/02/22-rdf-syntax-ns#"
   xmlns:svg="http://www.w3.org/2000/svg"
   xmlns="http://www.w3.org/2000/svg"
   xmlns:sodipodi="http://sodipodi.sourceforge.net/DTD/sodipodi-0.dtd"
   xmlns:inkscape="http://www.inkscape.org/namespaces/inkscape"
   width="210mm"
   height="29mm"
   viewBox="0 0 210 29"
   version="1.1"
   id="svg17715"
   sodipodi:docname="text12.svg"
   inkscape:version="0.92.2 (5c3e80d, 2017-08-06)">
  <defs
     id="defs17709" />
  <sodipodi:namedview
     id="base"
     pagecolor="#ffffff"
     bordercolor="#666666"
     borderopacity="1.0"
     inkscape:pageopacity="0.0"
     inkscape:pageshadow="2"
     inkscape:zoom="0.35"
     inkscape:cx="-91.577789"
     inkscape:cy="102.85714"
     inkscape:document-units="mm"
     inkscape:current-layer="layer1"
     showgrid="false"
     inkscape:pagecheckerboard="true"
     inkscape:window-width="1009"
     inkscape:window-height="717"
     inkscape:window-x="755"
     inkscape:window-y="107"
     inkscape:window-maximized="0" />
  <metadata
     id="metadata17712">
    <rdf:RDF>
      <cc:Work
         rdf:about="">
        <dc:format>image/svg+xml</dc:format>
        <dc:type
           rdf:resource="http://purl.org/dc/dcmitype/StillImage" />
        <dc:title />
      </cc:Work>
    </rdf:RDF>
  </metadata>
  <g
     inkscape:label="Layer 1"
     inkscape:groupmode="layer"
     id="layer1"
     transform="translate(0,-268)">
    <g
       aria-label="People do not like Zucc"
       transform="matrix(0.42154538,0,0,0.42154538,8.7378531,232.81323)"
       style="font-style:normal;font-variant:normal;font-weight:normal;font-stretch:normal;font-size:40px;line-height:1.25;font-family:'Facebook Letter Faces';-inkscape-font-specification:'Facebook Letter Faces, Normal';font-variant-ligatures:normal;font-variant-caps:normal;font-variant-numeric:normal;font-feature-settings:normal;text-align:start;letter-spacing:0px;word-spacing:0px;writing-mode:lr-tb;text-anchor:start;opacity:1;fill:#000000;fill-opacity:1;stroke:none"
       id="flowRoot17665">
      <path
         d="m 24.699375,105.02852 c -1.48,-2.68 -3.92,-3.96 -8.48,-3.96 -3.84,0 -7,0.08 -9.28,0.12 -1.32,0.04 -2.52,0.04 -3.6,0.08 v 29.96 h 7.48 v -8.8 c 0.8,0.08 1.56,0.16 2.24,0.24 1.24,0.12 2.56,0.2 3.16,0.16 4.96,0 7.56,-1.52 9,-4.84 0.48,-0.96 0.68,-2.76 0.68,-5.32 v -1.4 c 0,-3.04 -0.52,-4.84 -1.2,-6.24 z m -5.6,5.68 v 2.68 c 0,1.88 -0.32,2.44 -0.92,3.08 -0.64,0.76 -1.72,1.12 -7.36,0.48 v -10.24 c 5,-0.44 6.64,-0.12 7.56,0.8 0.44,0.52 0.72,1.24 0.72,3.2 z"
         style=""
         id="path11407" />
      <path
         d="m 46.37375,113.86852 c -1.32,-2.88 -4.2,-4.32 -8.6,-4.32 -1.56,0 -3,0.2 -4.48,0.68 -3.16,1.24 -4.72,3.72 -4.72,7.48 v 5.12 c 0,1.32 0.24,2.64 0.76,3.92 1.36,3.16 4.4,4.76 9.08,4.76 1.8,0 3.44,-0.08 4.84,-0.24 2.24,-0.36 3.36,-0.56 3.36,-0.64 v -5.36 h -0.04 c -2.52,0.52 -4.92,0.76 -7.2,0.76 h -0.52 c -1.08,0 -1.76,-0.12 -2.36,-0.28 -0.88,-0.32 -1.32,-1.2 -1.32,-2.64 v -0.64 h 11.96 v -0.12 -3.68 c 0,-2.04 -0.24,-3.64 -0.76,-4.8 z m -5.84,3.8 v 0.36 h -5.36 v -1 c 0,-1.64 0.76,-2.48 2.64,-2.48 0.68,0 1.28,0.16 1.76,0.48 0.64,0.28 0.96,1.16 0.96,2.64 z"
         style=""
         id="path11409" />
      <path
         d="m 67.58,114.70852 c -1.28,-3.36 -4.08,-5.12 -8.68,-5.12 h -0.64 c -1.4,0 -2.6,0.24 -3.84,0.6 -3.6,1.16 -5.4,3.84 -5.4,8 v 4.68 c 0,1.76 0.32,3.2 0.92,4.36 1.32,2.84 4.2,4.28 8.56,4.28 2.04,0 3.76,-0.32 5.2,-0.92 2.92,-1.28 4.4,-3.96 4.4,-8.08 v -3.92 c 0,-1.52 -0.16,-2.8 -0.52,-3.88 z m -6.04,3.64 v 4.36 c 0,0.6 -0.04,1 -0.04,1.36 -0.36,1.32 -1.32,2 -2.84,2 H 58.5 c -1.92,0 -2.88,-0.92 -2.88,-2.76 v -5.36 c 0,-0.6 0.08,-1 0.2,-1.36 0.48,-0.96 1.32,-1.44 2.48,-1.44 h 0.52 c 0.48,0 0.92,0.04 1.28,0.24 0.96,0.28 1.44,1.28 1.44,2.96 z"
         style=""
         id="path11411" />
      <path
         d="m 70.094375,110.30852 v 4.56 26 l 6.6,-1.2 v -8.4 -0.72 c 0.4,0.16 0.84,0.28 1.32,0.4 0.84,0.2 2,0.4 3.4,0.4 3.8,0 6.16,-1 7,-3 0.52,-0.92 0.8,-2.96 0.8,-6.2 v -2.08 c 0,-3.44 -0.28,-5.04 -0.8,-6.44 -0.44,-0.96 -1.48,-2.84 -3.8,-3.6 -3.52,-1.08 -6.68,0.12 -8.76,1.2 -0.04,-0.28 -0.08,-0.6 -0.2,-0.96 -0.04,-0.12 -0.08,-0.28 -0.12,-0.44 h -5.44 z m 6.6,14.56 v -8.72 c 0.68,-0.28 1.32,-0.4 1.76,-0.52 0.28,-0.04 0.52,-0.08 0.72,-0.12 1.76,-0.28 2.88,0.32 3.24,1.56 0.12,0.32 0.16,0.76 0.16,1.32 v 4.96 c 0,1.32 -0.6,2.12 -1.84,2.4 l -0.56,0.04 h -0.4 c -0.96,0 -2,-0.32 -3.08,-0.92 z"
         style=""
         id="path11413" />
      <path
         d="m 98.609375,100.06852 -6.6,1.16 v 21.12 0.28 c 0,0.32 0,0.68 0.04,1.04 0.08,0.92 0.32,1.84 0.68,2.76 1.44,3.28 4.48,4.92 9.120005,4.92 0.6,0 0.99999,0 1.6,-0.04 v -5.52 c -0.28,0 -2.28,0.04 -3.44,-0.28 -0.920005,-0.32 -1.400005,-1.2 -1.400005,-2.64 v -0.8 z"
         style=""
         id="path11415" />
      <path
         d="m 123.32688,113.86852 c -1.32,-2.88 -4.20001,-4.32 -8.6,-4.32 -1.56,0 -3,0.2 -4.48,0.68 -3.16,1.24 -4.72,3.72 -4.72,7.48 v 5.12 c 0,1.32 0.24,2.64 0.75999,3.92 1.36,3.16 4.40001,4.76 9.08,4.76 1.80001,0 3.44001,-0.08 4.84,-0.24 2.24001,-0.36 3.36,-0.56 3.36,-0.64 v -5.36 h -0.04 c -2.52,0.52 -4.92,0.76 -7.2,0.76 h -0.52 c -1.08,0 -1.76,-0.12 -2.36,-0.28 -0.88001,-0.32 -1.32001,-1.2 -1.32001,-2.64 v -0.64 h 11.96 v -0.12 -3.68 c 0,-2.04 -0.24,-3.64 -0.75999,-4.8 z m -5.84001,3.8 v 0.36 h -5.36 v -1 c 0,-1.64 0.76001,-2.48 2.64001,-2.48 0.68,0 1.28,0.16 1.76,0.48 0.64,0.28 0.95999,1.16 0.95999,2.64 z"
         style=""
         id="path11417" />
      <path
         d="m 142.945,118.74852 v 2.12 c 0,3.44 0.28,5.6 0.8,6.44 0.16,0.52 0.6,1.16 1.36,1.96 1.6,1.48 4.32,2.24 8.2,2.24 2.72,0 5.56,-0.32 8.76,-0.84 v -30.56 l -6.52,1.16 c -0.04,2.04 -0.04,3.76 -0.04,5.24 0,2.52 -0.04,4.8 -0.04,3.88 -1.4,-0.44 -3.28,-0.76 -4.68,-0.8 -3.8,0 -6.16,1 -7.04,2.96 -0.52,0.92 -0.8,2.96 -0.8,6.2 z m 6.6,4.2 v -5.36 c 0,-1.36 0.64,-2.16 1.92,-2.4 l 0.48,-0.04 h 0.48 c 1.08,0 2.08,0.32 3.04,0.92 v 9.96 l -1.92,0.08 h -0.44 c -1.92,0 -3.04,-0.6 -3.4,-1.84 -0.12,-0.44 -0.16,-0.84 -0.16,-1.32 z"
         style=""
         id="path11419" />
      <path
         d="m 182.50187,114.70852 c -1.28,-3.36 -4.08,-5.12 -8.68,-5.12 h -0.64 c -1.39999,0 -2.6,0.24 -3.84,0.6 -3.6,1.16 -5.4,3.84 -5.4,8 v 4.68 c 0,1.76 0.32,3.2 0.92,4.36 1.32,2.84 4.2,4.28 8.56,4.28 2.04,0 3.76,-0.32 5.2,-0.92 2.92,-1.28 4.4,-3.96 4.4,-8.08 v -3.92 c 0,-1.52 -0.16,-2.8 -0.52,-3.88 z m -6.04,3.64 v 4.36 c 0,0.6 -0.04,1 -0.04,1.36 -0.36,1.32 -1.32,2 -2.84,2 h -0.16 c -1.92,0 -2.88,-0.92 -2.88,-2.76 v -5.36 c 0,-0.6 0.08,-1 0.2,-1.36 0.48,-0.96 1.32,-1.44 2.48,-1.44 h 0.52 c 0.48,0 0.92,0.04 1.28,0.24 0.96,0.28 1.44,1.28 1.44,2.96 z"
         style=""
         id="path11421" />
      <path
         d="m 219.46812,112.54852 c -1.64,-2.72 -3.92,-3.04 -6.48,-2.92 -3.24,0.12 -5.36,1.44 -5.79999,1.64 -0.12001,-0.44 -0.28001,-0.72 -0.40001,-1 l -0.2,-0.4 h -5.44 v 21.36 h 6.56 v -15.2 c 1.08,-0.64 2.04,-0.8 2.8,-0.92 0.44,-0.04 0.88,0 1.28,0.04 1.24,0.28 1.88,1.08 1.88,2.4 v 13.68 h 6.6 v -12.48 c 0,-3.32 -0.2,-5.08 -0.8,-6.2 z"
         style=""
         id="path11423" />
      <path
         d="m 240.78312,114.70852 c -1.28,-3.36 -4.08,-5.12 -8.68,-5.12 h -0.64 c -1.39999,0 -2.6,0.24 -3.84,0.6 -3.6,1.16 -5.4,3.84 -5.4,8 v 4.68 c 0,1.76 0.32,3.2 0.92,4.36 1.32,2.84 4.2,4.28 8.56,4.28 2.04,0 3.76,-0.32 5.2,-0.92 2.92,-1.28 4.4,-3.96 4.4,-8.08 v -3.92 c 0,-1.52 -0.16,-2.8 -0.52,-3.88 z m -6.04,3.64 v 4.36 c 0,0.6 -0.04,1 -0.04,1.36 -0.36,1.32 -1.32,2 -2.84,2 h -0.16 c -1.92,0 -2.88,-0.92 -2.88,-2.76 v -5.36 c 0,-0.6 0.08,-1 0.2,-1.36 0.48,-0.96 1.32,-1.44 2.48,-1.44 h 0.52 c 0.48,0 0.92,0.04 1.28,0.24 0.96,0.28 1.44,1.28 1.44,2.96 z"
         style=""
         id="path11425" />
      <path
         d="m 258.0575,126.50852 c -0.2,0 -2.28,-0.12 -3.44,-0.64 -1.44,-0.44 -1.44,-1.52 -1.44,-2.92 v -7.56 6.08 -6.08 h 4.32 l 0.68,-5.48 h -5 v -6.44 l -6.56,1.12 v 5.32 h -3.2 v 5.48 h 3.2 v 4.08 c 0,2.08 0.04,4.24 0.04,4.36 0,7.88 5.16,7.48 9.84,7.48 h 1.56 z"
         style=""
         id="path11427" />
      <path
         d="m 283.76562,100.06852 -6.6,1.16 v 21.12 0.28 c 0,0.32 0,0.68 0.04,1.04 0.08,0.92 0.32,1.84 0.68,2.76 1.44,3.28 4.48001,4.92 9.12,4.92 0.6,0 1,0 1.6,-0.04 v -5.52 c -0.28,0 -2.28,0.04 -3.44,-0.28 -0.91999,-0.32 -1.4,-1.2 -1.4,-2.64 v -0.8 z"
         style=""
         id="path11429" />
      <path
         d="m 296.40312,102.14852 c -0.59999,-0.6 -1.68,-0.68 -2.59999,-0.68 -0.92001,0 -1.96001,0.08 -2.72001,0.68 -0.64,0.6 -0.71999,1.72 -0.71999,2.4 0,0.76 0.08,1.76 0.71999,2.36 0.76,0.6 1.92,0.68 2.72001,0.68 0.76,0 2,-0.08 2.59999,-0.68 0.76,-0.6 0.84001,-1.56 0.84001,-2.36 0,-0.76 -0.08,-1.8 -0.84001,-2.4 z m -5.92,7.8 h 6.6 v 21.28 h -6.6 z"
         style=""
         id="path11431" />
      <path
         d="m 306.30375,100.10852 -6.56,1.16 v 29.96 h 6.56 v -9.92 h 0.04 l 5.96,9.92 h 7.08 l -6.52,-11 6.52,-10.32 h -7.08 l -5.96,9.4 h -0.04 z"
         style=""
         id="path11433" />
      <path
         d="m 339.81125,113.86852 c -1.32,-2.88 -4.2,-4.32 -8.6,-4.32 -1.56,0 -3,0.2 -4.48,0.68 -3.16,1.24 -4.72,3.72 -4.72,7.48 v 5.12 c 0,1.32 0.24,2.64 0.76,3.92 1.36,3.16 4.4,4.76 9.08,4.76 1.8,0 3.44,-0.08 4.84,-0.24 2.24,-0.36 3.36,-0.56 3.36,-0.64 v -5.36 h -0.04 c -2.52,0.52 -4.92,0.76 -7.2,0.76 h -0.52 c -1.08,0 -1.76,-0.12 -2.36,-0.28 -0.88,-0.32 -1.32,-1.2 -1.32,-2.64 v -0.64 h 11.96 v -0.12 -3.68 c 0,-2.04 -0.24,-3.64 -0.76,-4.8 z m -5.84,3.8 v 0.36 h -5.36 v -1 c 0,-1.64 0.76,-2.48 2.64,-2.48 0.68,0 1.28,0.16 1.76,0.48 0.64,0.28 0.96,1.16 0.96,2.64 z"
         style=""
         id="path11435" />
      <path
         d="m 381.50937,131.22852 0.84,-6 h -12 l 12.96,-23.96 h -22.27999 l -0.60001,5.8 h 11.32 l -13.15999,24.16 z"
         style=""
         id="path11437" />
      <path
         d="m 385.97437,128.50852 c 1.72,2.76 4,3.12 6.64,3 3.24,-0.12 5.4,-1.4 5.92,-1.6 0.12001,0.44 0.24001,0.68 0.36001,0.96 l 0.23999,0.36 h 5.48 v -21.32 h -6.64 l -0.04,15.08 c -1.08,0.68 -2.12,0.88 -2.88,0.92 -0.44,0.04 -0.88,0 -1.27999,-0.04 -1.28001,-0.28 -1.92001,-1.12 -1.92001,-2.44 v -13.52 h -6.68 v 12.32 c 0,3.36 0.2,5.04 0.8,6.28 z"
         style=""
         id="path11439" />
      <path
         d="m 417.07812,109.62852 c -4.04,0 -6.83999,1.32 -8.39999,3.96 -0.80001,1.12 -1.20001,3.2 -1.20001,6.24 v 1.44 c 0,2.52 0.24,4.28 0.72,5.32 1.4,3.28 4.36001,4.92 8.88,4.92 1.24,0 2.32,-0.08 3.24,-0.2 2.36001,-0.36 3.52,-0.6 3.52,-0.72 v -5.28 h -0.04 c -2.60001,0.48 -4.44001,0.76 -5.60001,0.76 h -0.48 c -1.56,0 -2.59999,-0.32 -3.08,-0.92 -0.39999,-0.32 -0.6,-1.36 -0.6,-3.16 v -2.72 c 0,-1.96 0.24,-3.08 0.68,-3.36 0.52001,-0.52 1.56,-0.8 3.12,-0.8 1.32,0 3.64,0.28 6,0.72 v -5.32 c -2.36,-0.6 -4.59999,-0.88 -6.76,-0.88 z"
         style=""
         id="path11441" />
      <path
         d="m 436.21875,109.62852 c -4.04,0 -6.84,1.32 -8.4,3.96 -0.8,1.12 -1.2,3.2 -1.2,6.24 v 1.44 c 0,2.52 0.24,4.28 0.72,5.32 1.4,3.28 4.36,4.92 8.88,4.92 1.24,0 2.32,-0.08 3.24,-0.2 2.36,-0.36 3.52,-0.6 3.52,-0.72 v -5.28 h -0.04 c -2.6,0.48 -4.44,0.76 -5.6,0.76 h -0.48 c -1.56,0 -2.6,-0.32 -3.08,-0.92 -0.4,-0.32 -0.6,-1.36 -0.6,-3.16 v -2.72 c 0,-1.96 0.24,-3.08 0.68,-3.36 0.52,-0.52 1.56,-0.8 3.12,-0.8 1.32,0 3.64,0.28 6,0.72 v -5.32 c -2.36,-0.6 -4.6,-0.88 -6.76,-0.88 z"
         style=""
         id="path11443" />
    </g>
  </g>
</svg>
