<?xml version="1.0" encoding="UTF-8" standalone="no"?>
<!-- Created with Inkscape (http://www.inkscape.org/) -->

<svg
   xmlns:dc="http://purl.org/dc/elements/1.1/"
   xmlns:cc="http://creativecommons.org/ns#"
   xmlns:rdf="http://www.w3.org/1999/02/22-rdf-syntax-ns#"
   xmlns:svg="http://www.w3.org/2000/svg"
   xmlns="http://www.w3.org/2000/svg"
   xmlns:sodipodi="http://sodipodi.sourceforge.net/DTD/sodipodi-0.dtd"
   xmlns:inkscape="http://www.inkscape.org/namespaces/inkscape"
   width="210mm"
   height="29mm"
   viewBox="0 0 210 29"
   version="1.1"
   id="svg17715"
   sodipodi:docname="text7.svg"
   inkscape:version="0.92.2 (5c3e80d, 2017-08-06)">
  <defs
     id="defs17709" />
  <sodipodi:namedview
     id="base"
     pagecolor="#ffffff"
     bordercolor="#666666"
     borderopacity="1.0"
     inkscape:pageopacity="0.0"
     inkscape:pageshadow="2"
     inkscape:zoom="0.35"
     inkscape:cx="-91.577789"
     inkscape:cy="102.85714"
     inkscape:document-units="mm"
     inkscape:current-layer="layer1"
     showgrid="false"
     inkscape:pagecheckerboard="true"
     inkscape:window-width="1009"
     inkscape:window-height="717"
     inkscape:window-x="755"
     inkscape:window-y="107"
     inkscape:window-maximized="0" />
  <metadata
     id="metadata17712">
    <rdf:RDF>
      <cc:Work
         rdf:about="">
        <dc:format>image/svg+xml</dc:format>
        <dc:type
           rdf:resource="http://purl.org/dc/dcmitype/StillImage" />
        <dc:title />
      </cc:Work>
    </rdf:RDF>
  </metadata>
  <g
     inkscape:label="Layer 1"
     inkscape:groupmode="layer"
     id="layer1"
     transform="translate(0,-268)">
    <g
       aria-label="Eventually others saw they too could make money with secrets"
       transform="matrix(0.25144332,0,0,0.25144332,1.6509625,246.43308)"
       style="font-style:normal;font-variant:normal;font-weight:normal;font-stretch:normal;font-size:40px;line-height:1.25;font-family:'Facebook Letter Faces';-inkscape-font-specification:'Facebook Letter Faces, Normal';font-variant-ligatures:normal;font-variant-caps:normal;font-variant-numeric:normal;font-feature-settings:normal;text-align:start;letter-spacing:0px;word-spacing:0px;writing-mode:lr-tb;text-anchor:start;opacity:1;fill:#000000;fill-opacity:1;stroke:none"
       id="flowRoot17625">
      <path
         d="m 10.979375,107.02852 h 9.8 v -5.8 h -17.52 v 30 h 17.52 v -5.92 h -9.8 v -6.44 h 7.32 l 0.48,-5.48 h -7.8 z"
         style=""
         id="path8267" />
      <path
         d="m 45.451875,109.90852 h -7.12 l -4.44,14.32 -4.56,-14.32 h -7.16 l 7.56,21.32 h 8.4 z"
         style=""
         id="path8269" />
      <path
         d="m 64.733125,113.86852 c -1.32,-2.88 -4.2,-4.32 -8.6,-4.32 -1.56,0 -3,0.2 -4.48,0.68 -3.16,1.24 -4.72,3.72 -4.72,7.48 v 5.12 c 0,1.32 0.24,2.64 0.76,3.92 1.36,3.16 4.4,4.76 9.08,4.76 1.8,0 3.44,-0.08 4.84,-0.24 2.24,-0.36 3.36,-0.56 3.36,-0.64 v -5.36 h -0.04 c -2.52,0.52 -4.92,0.76 -7.2,0.76 h -0.52 c -1.08,0 -1.76,-0.12 -2.36,-0.28 -0.88,-0.32 -1.32,-1.2 -1.32,-2.64 v -0.64 h 11.96 v -0.12 -3.68 c 0,-2.04 -0.24,-3.64 -0.76,-4.8 z m -5.84,3.8 v 0.36 h -5.36 v -1 c 0,-1.64 0.76,-2.48 2.64,-2.48 0.68,0 1.28,0.16 1.76,0.48 0.64,0.28 0.96,1.16 0.96,2.64 z"
         style=""
         id="path8271" />
      <path
         d="m 86.499375,112.54852 c -1.64,-2.72 -3.92,-3.04 -6.48,-2.92 -3.24,0.12 -5.36,1.44 -5.8,1.64 -0.12,-0.44 -0.28,-0.72 -0.4,-1 l -0.2,-0.4 h -5.44 v 21.36 h 6.56 v -15.2 c 1.08,-0.64 2.04,-0.8 2.8,-0.92 0.44,-0.04 0.88,0 1.28,0.04 1.24,0.28 1.88,1.08 1.88,2.4 v 13.68 h 6.6 v -12.48 c 0,-3.32 -0.2,-5.08 -0.8,-6.2 z"
         style=""
         id="path8273" />
      <path
         d="m 104.85438,126.50852 c -0.2,0 -2.28,-0.12 -3.44,-0.64 -1.440005,-0.44 -1.440005,-1.52 -1.440005,-2.92 v -7.56 6.08 -6.08 h 4.320005 l 0.68,-5.48 h -5.000005 v -6.44 l -6.56,1.12 v 5.32 h -3.2 v 5.48 h 3.2 v 4.08 c 0,2.08 0.04,4.24 0.04,4.36 0,7.88 5.16,7.48 9.840005,7.48 h 1.56 z"
         style=""
         id="path8275" />
      <path
         d="m 108.63062,128.50852 c 1.72,2.76 4,3.12 6.64,3 3.24001,-0.12 5.40001,-1.4 5.92,-1.6 0.12001,0.44 0.24,0.68 0.36,0.96 l 0.24001,0.36 h 5.47999 v -21.32 h -6.64 l -0.04,15.08 c -1.08,0.68 -2.12001,0.88 -2.88001,0.92 -0.44,0.04 -0.88,0 -1.28,-0.04 -1.27999,-0.28 -1.91999,-1.12 -1.91999,-2.44 v -13.52 h -6.68001 v 12.32 c 0,3.36 0.20001,5.04 0.8,6.28 z"
         style=""
         id="path8277" />
      <path
         d="m 147.09438,113.06852 c -1,-2.08 -3.60001,-3.12 -7.80001,-3.12 h -6.6 l -0.59999,5.44 h 6.15999 c 1.16,0 2,0.16 2.48,0.52 0.44,0.24 0.64,1.08 0.64,2.56 v 0.72 h -3.08 c -3,0 -4.88,0.24 -5.64,0.76 -1.8,0.84 -2.72,2.52 -2.72,5.12 v 0.16 c 0,1.48 0.4,2.8 1.16001,3.96 1.15999,1.52 2.71999,2.28 4.67999,2.28 h 0.56 c 2.04,0 3.96,-0.56 5.88,-1.56 0.04,0.32 0.08,0.64 0.2,0.92 0.04,0.12 0.08,0.28 0.12,0.4 h 5.44 v -13.12 c 0,-2.12 -0.28,-3.8 -0.87999,-5.04 z m -5.72001,10.48 v 2.4 c -1.16,0.52 -2.2,0.88 -3.04,0.88 -1.2,0 -1.8,-0.6 -1.8,-1.76 0,-0.56 0.12,-0.92 0.32,-1.12 0.28,-0.28 1.04,-0.4 2.32,-0.4 z"
         style=""
         id="path8279" />
      <path
         d="m 157.20312,100.06852 -6.6,1.16 v 21.12 0.28 c 0,0.32 0,0.68 0.04,1.04 0.08,0.92 0.32,1.84 0.68,2.76 1.44,3.28 4.48,4.92 9.12,4.92 0.6,0 1,0 1.6,-0.04 v -5.52 c -0.28,0 -2.28,0.04 -3.44,-0.28 -0.92,-0.32 -1.4,-1.2 -1.4,-2.64 v -0.8 z"
         style=""
         id="path8281" />
      <path
         d="m 170.64062,100.06852 -6.6,1.16 v 21.12 0.28 c 0,0.32 0,0.68 0.04,1.04 0.08,0.92 0.32,1.84 0.68,2.76 1.44,3.28 4.48,4.92 9.12,4.92 0.6,0 1,0 1.6,-0.04 v -5.52 c -0.28,0 -2.28,0.04 -3.44,-0.28 -0.92,-0.32 -1.4,-1.2 -1.4,-2.64 v -0.8 z"
         style=""
         id="path8283" />
      <path
         d="m 200.51812,109.94852 h -7.2 l -4.24,13.16 -4.96,-13.16 h -7.32 l 8.84,21.28 c 0,1.48 -0.48,2.36 -1.4,2.6 -0.48,0.16 -1.24,0.36 -2.32,0.36 h -0.44 c -0.64,0 -1.24,-0.04 -1.84,-0.08 v 5.48 c 0.84,0.04 1.76,0.08 2.72,0.08 2.08001,0 3.76,-0.28 5.2,-0.88 3.4,-1.6 4.52,-5.08 5.4,-7.56 0.44,-1.2 2.32,-6.6 4.12,-11.56 1.04,-2.92 2.2,-6.16 3.44,-9.72 z"
         style=""
         id="path8285" />
      <path
         d="m 236.40812,114.70852 c -1.28,-3.36 -4.08,-5.12 -8.68,-5.12 h -0.64 c -1.39999,0 -2.6,0.24 -3.84,0.6 -3.6,1.16 -5.4,3.84 -5.4,8 v 4.68 c 0,1.76 0.32,3.2 0.92,4.36 1.32,2.84 4.2,4.28 8.56,4.28 2.04,0 3.76,-0.32 5.2,-0.92 2.92,-1.28 4.4,-3.96 4.4,-8.08 v -3.92 c 0,-1.52 -0.16,-2.8 -0.52,-3.88 z m -6.04,3.64 v 4.36 c 0,0.6 -0.04,1 -0.04,1.36 -0.36,1.32 -1.32,2 -2.84,2 h -0.16 c -1.92,0 -2.88,-0.92 -2.88,-2.76 v -5.36 c 0,-0.6 0.08,-1 0.2,-1.36 0.48,-0.96 1.32,-1.44 2.48,-1.44 h 0.52 c 0.48,0 0.92,0.04 1.28,0.24 0.96,0.28 1.44,1.28 1.44,2.96 z"
         style=""
         id="path8287" />
      <path
         d="m 253.6825,126.50852 c -0.2,0 -2.28,-0.12 -3.44,-0.64 -1.44,-0.44 -1.44,-1.52 -1.44,-2.92 v -7.56 6.08 -6.08 h 4.32 l 0.68,-5.48 h -5 v -6.44 l -6.56,1.12 v 5.32 h -3.2 v 5.48 h 3.2 v 4.08 c 0,2.08 0.04,4.24 0.04,4.36 0,7.88 5.16,7.48 9.84,7.48 h 1.56 z"
         style=""
         id="path8289" />
      <path
         d="m 274.93875,112.62852 c -0.92,-1.96 -3.28,-2.96 -7.08,-2.96 -1.08,0 -2.92,0.2 -4.68,0.8 v -10.32 l -6.6,1.12 v 30 h 6.6 v -15.16 c 1.08,-0.6 2.08,-0.92 3.04,-0.92 h 0.44 l 0.6,0.04 c 1.2,0.24 1.8,1.04 1.8,2.4 v 13.64 h 6.64 v -12.48 c 0,-3.32 -0.24,-5.4 -0.76,-6.16 z"
         style=""
         id="path8291" />
      <path
         d="m 296.37375,113.86852 c -1.32,-2.88 -4.2,-4.32 -8.6,-4.32 -1.56,0 -3,0.2 -4.48,0.68 -3.16,1.24 -4.72,3.72 -4.72,7.48 v 5.12 c 0,1.32 0.24,2.64 0.76,3.92 1.36,3.16 4.4,4.76 9.08,4.76 1.8,0 3.44,-0.08 4.84,-0.24 2.24,-0.36 3.36,-0.56 3.36,-0.64 v -5.36 h -0.04 c -2.52,0.52 -4.92,0.76 -7.2,0.76 h -0.52 c -1.08,0 -1.76,-0.12 -2.36,-0.28 -0.88,-0.32 -1.32,-1.2 -1.32,-2.64 v -0.64 h 11.96 v -0.12 -3.68 c 0,-2.04 -0.24,-3.64 -0.76,-4.8 z m -5.84,3.8 v 0.36 h -5.36 v -1 c 0,-1.64 0.76,-2.48 2.64,-2.48 0.68,0 1.28,0.16 1.76,0.48 0.64,0.28 0.96,1.16 0.96,2.64 z"
         style=""
         id="path8293" />
      <path
         d="m 310.54,109.86852 c -1.24,0.28 -2.24,0.56 -3.16,0.88 -0.76,0.28 -1,0.36 -1.52,0.56 -0.12,-0.44 -0.24,-0.8 -0.36,-1.08 -0.08,-0.16 -0.16,-0.32 -0.2,-0.48 h -5.4 v 21.48 h 6.52 v -13.4 -1.08 c 1.76,-0.64 3.08,-1.08 4.04,-1.28 l 0.44,-0.08 c 0.52,-0.12 2,-0.24 2.8,-0.2 l -0.64,-5.64 c -0.84,0.04 -1.68,0.12 -2.52,0.32 z"
         style=""
         id="path8295" />
      <path
         d="m 333.2375,125.42852 c 0.12,-1.48 0.08,-3.2 -1.44,-4.72 -2.84,-2.68 -10.36,-2.52 -9.44,-4.68 0.76,-1.8 7.92,-0.68 9.96,-0.24 l -0.6,-5.64 c -1.64,-0.28 -4.48,-0.64 -7.36,-0.52 -3.08,0.12 -8.36,0.56 -9,6.12 -0.12,1.4 -0.08,3.24 1.52,4.64 3.16,3 10.24,2.56 9.44,4.68 -0.84,2 -9.32,0.32 -10.8,0 l 0.6,5.72 c 1.64,0.32 5,0.72 8.16,0.72 3.12,-0.12 8.32,-0.6 8.96,-6.08 z"
         style=""
         id="path8297" />
      <path
         d="m 369.09687,125.42852 c 0.12001,-1.48 0.08,-3.2 -1.43999,-4.72 -2.84001,-2.68 -10.36001,-2.52 -9.44,-4.68 0.75999,-1.8 7.91999,-0.68 9.95999,-0.24 l -0.6,-5.64 c -1.64,-0.28 -4.48,-0.64 -7.35999,-0.52 -3.08001,0.12 -8.36001,0.56 -9,6.12 -0.12001,1.4 -0.08,3.24 1.51999,4.64 3.16001,3 10.24,2.56 9.44,4.68 -0.83999,2 -9.32,0.32 -10.8,0 l 0.6,5.72 c 1.64,0.32 5,0.72 8.16,0.72 3.12,-0.12 8.32001,-0.6 8.96,-6.08 z"
         style=""
         id="path8299" />
      <path
         d="m 388.34438,113.06852 c -1,-2.08 -3.60001,-3.12 -7.80001,-3.12 h -6.6 l -0.59999,5.44 h 6.15999 c 1.16,0 2,0.16 2.48,0.52 0.44,0.24 0.64,1.08 0.64,2.56 v 0.72 h -3.08 c -3,0 -4.88,0.24 -5.63999,0.76 -1.80001,0.84 -2.72001,2.52 -2.72001,5.12 v 0.16 c 0,1.48 0.40001,2.8 1.16001,3.96 1.15999,1.52 2.71999,2.28 4.68,2.28 h 0.56 c 2.03999,0 3.95999,-0.56 5.88,-1.56 0.04,0.32 0.08,0.64 0.19999,0.92 0.04,0.12 0.08,0.28 0.12,0.4 h 5.44 v -13.12 c 0,-2.12 -0.28,-3.8 -0.87999,-5.04 z m -5.72001,10.48 v 2.4 c -1.15999,0.52 -2.2,0.88 -3.03999,0.88 -1.20001,0 -1.80001,-0.6 -1.80001,-1.76 0,-0.56 0.12001,-0.92 0.32,-1.12 0.28,-0.28 1.04001,-0.4 2.32,-0.4 z"
         style=""
         id="path8301" />
      <path
         d="m 423.37313,109.94852 h -6.76 l -3.40001,13.4 -3.12,-13.4 h -5.88 l -3.12,13.4 -3.44,-13.4 h -6.71999 l 6.24,21.28 h 7.15999 l 2.84001,-9.44 2.76,9.44 h 7.19999 z"
         style=""
         id="path8303" />
      <path
         d="m 456.26062,126.50852 c -0.19999,0 -2.28,-0.12 -3.44,-0.64 -1.44,-0.44 -1.44,-1.52 -1.44,-2.92 v -7.56 6.08 -6.08 h 4.32 l 0.68,-5.48 h -5 v -6.44 l -6.56,1.12 v 5.32 h -3.19999 v 5.48 h 3.19999 v 4.08 c 0,2.08 0.04,4.24 0.04,4.36 0,7.88 5.15999,7.48 9.83999,7.48 h 1.56 z"
         style=""
         id="path8305" />
      <path
         d="m 477.51688,112.62852 c -0.92001,-1.96 -3.28001,-2.96 -7.08001,-2.96 -1.08,0 -2.91999,0.2 -4.68,0.8 v -10.32 l -6.59999,1.12 v 30 h 6.59999 v -15.16 c 1.08001,-0.6 2.08001,-0.92 3.04,-0.92 h 0.44 l 0.60001,0.04 c 1.19999,0.24 1.79999,1.04 1.79999,2.4 v 13.64 h 6.64001 v -12.48 c 0,-3.32 -0.24001,-5.4 -0.76,-6.16 z"
         style=""
         id="path8307" />
      <path
         d="m 498.95187,113.86852 c -1.32,-2.88 -4.2,-4.32 -8.6,-4.32 -1.56,0 -3,0.2 -4.48,0.68 -3.15999,1.24 -4.71999,3.72 -4.71999,7.48 v 5.12 c 0,1.32 0.24,2.64 0.75999,3.92 1.36001,3.16 4.4,4.76 9.08,4.76 1.8,0 3.44,-0.08 4.84001,-0.24 2.23999,-0.36 3.35999,-0.56 3.35999,-0.64 v -5.36 h -0.04 c -2.52001,0.52 -4.92001,0.76 -7.20001,0.76 h -0.52 c -1.08,0 -1.76,-0.12 -2.36,-0.28 -0.88,-0.32 -1.32,-1.2 -1.32,-2.64 v -0.64 h 11.96001 v -0.12 -3.68 c 0,-2.04 -0.24001,-3.64 -0.76001,-4.8 z m -5.84,3.8 v 0.36 h -5.36 v -1 c 0,-1.64 0.76,-2.48 2.64001,-2.48 0.67999,0 1.27999,0.16 1.76,0.48 0.63999,0.28 0.95999,1.16 0.95999,2.64 z"
         style=""
         id="path8309" />
      <path
         d="m 525.51813,109.94852 h -7.20001 l -4.24,13.16 -4.95999,-13.16 h -7.32 l 8.83999,21.28 c 0,1.48 -0.48,2.36 -1.39999,2.6 -0.48001,0.16 -1.24,0.36 -2.32001,0.36 h -0.44 c -0.64,0 -1.23999,-0.04 -1.84,-0.08 v 5.48 c 0.84,0.04 1.76,0.08 2.72,0.08 2.08001,0 3.76001,-0.28 5.20001,-0.88 3.39999,-1.6 4.51999,-5.08 5.39999,-7.56 0.44001,-1.2 2.32001,-6.6 4.12,-11.56 1.04,-2.92 2.20001,-6.16 3.44001,-9.72 z"
         style=""
         id="path8311" />
      <path
         d="m 559.40813,126.50852 c -0.20001,0 -2.28001,-0.12 -3.32001,-0.64 -1.36,-0.44 -1.15999,-1.52 -0.88,-2.92 l 1.52,-7.56 -1.19999,6.08 1.19999,-6.08 h 4.32001 l 1.79999,-5.48 h -5 l 1.28,-6.44 -6.8,1.12 -1.03999,5.32 h -3.20001 l -1.12,5.48 h 3.20001 l -0.80001,4.08 c -0.43999,2.08 -0.8,4.24 -0.83999,4.36 -1.56001,7.88 3.67999,7.48 8.35999,7.48 h 1.56 z"
         style="font-style:italic"
         id="path8313" />
      <path
         d="m 582.38437,114.70852 c -0.64,-3.36 -3.07999,-5.12 -7.67999,-5.12 h -0.64 c -1.40001,0 -2.64,0.24 -3.96001,0.6 -3.84,1.16 -6.15999,3.84 -7,8 l -0.91999,4.68 c -0.36,1.76 -0.32001,3.2 0.04,4.36 0.76,2.84 3.36001,4.28 7.72001,4.28 2.03999,0 3.79999,-0.32 5.36,-0.92 3.19999,-1.28 5.19999,-3.96 6.04,-8.08 l 0.75999,-3.92 c 0.32001,-1.52 0.4,-2.8 0.28,-3.88 z m -6.79999,3.64 -0.84001,4.36 c -0.12,0.6 -0.24,1 -0.31999,1.36 -0.64001,1.32 -1.72,2 -3.24,2 h -0.16001 c -1.92,0 -2.71999,-0.92 -2.31999,-2.76 l 1.03999,-5.36 c 0.12,-0.6 0.28,-1 0.48,-1.36 0.68,-0.96 1.60001,-1.44 2.76,-1.44 h 0.52 c 0.48,0 0.92001,0.04 1.24,0.24 0.92,0.28 1.20001,1.28 0.84001,2.96 z"
         style="font-style:italic"
         id="path8315" />
      <path
         d="m 602.61875,114.70852 c -0.64,-3.36 -3.08,-5.12 -7.68,-5.12 h -0.64 c -1.4,0 -2.64,0.24 -3.96,0.6 -3.84,1.16 -6.16,3.84 -7,8 l -0.92,4.68 c -0.36,1.76 -0.32,3.2 0.04,4.36 0.76,2.84 3.36,4.28 7.72,4.28 2.04,0 3.8,-0.32 5.36,-0.92 3.2,-1.28 5.2,-3.96 6.04,-8.08 l 0.76,-3.92 c 0.32,-1.52 0.4,-2.8 0.28,-3.88 z m -6.8,3.64 -0.84,4.36 c -0.12,0.6 -0.24,1 -0.32,1.36 -0.64,1.32 -1.72,2 -3.24,2 h -0.16 c -1.92,0 -2.72,-0.92 -2.32,-2.76 l 1.04,-5.36 c 0.12,-0.6 0.28,-1 0.48,-1.36 0.68,-0.96 1.6,-1.44 2.76,-1.44 h 0.52 c 0.48,0 0.92,0.04 1.24,0.24 0.92,0.28 1.2,1.28 0.84,2.96 z"
         style="font-style:italic"
         id="path8317" />
      <path
         d="m 627.625,109.62852 c -4.04,0 -6.84,1.32 -8.4,3.96 -0.8,1.12 -1.2,3.2 -1.2,6.24 v 1.44 c 0,2.52 0.24,4.28 0.72,5.32 1.4,3.28 4.36,4.92 8.88,4.92 1.24,0 2.32,-0.08 3.24,-0.2 2.36,-0.36 3.52,-0.6 3.52,-0.72 v -5.28 h -0.04 c -2.6,0.48 -4.44,0.76 -5.6,0.76 h -0.48 c -1.56,0 -2.6,-0.32 -3.08,-0.92 -0.4,-0.32 -0.6,-1.36 -0.6,-3.16 v -2.72 c 0,-1.96 0.24,-3.08 0.68,-3.36 0.52,-0.52 1.56,-0.8 3.12,-0.8 1.32,0 3.64,0.28 6,0.72 v -5.32 c -2.36,-0.6 -4.6,-0.88 -6.76,-0.88 z"
         style=""
         id="path8319" />
      <path
         d="m 654.84563,114.70852 c -1.28001,-3.36 -4.08001,-5.12 -8.68001,-5.12 h -0.64 c -1.39999,0 -2.6,0.24 -3.84,0.6 -3.59999,1.16 -5.4,3.84 -5.4,8 v 4.68 c 0,1.76 0.32001,3.2 0.92001,4.36 1.31999,2.84 4.19999,4.28 8.55999,4.28 2.04,0 3.76,-0.32 5.20001,-0.92 2.91999,-1.28 4.4,-3.96 4.4,-8.08 v -3.92 c 0,-1.52 -0.16,-2.8 -0.52,-3.88 z m -6.04001,3.64 v 4.36 c 0,0.6 -0.04,1 -0.04,1.36 -0.36,1.32 -1.32,2 -2.84,2 h -0.16 c -1.91999,0 -2.88,-0.92 -2.88,-2.76 v -5.36 c 0,-0.6 0.08,-1 0.20001,-1.36 0.47999,-0.96 1.31999,-1.44 2.47999,-1.44 h 0.52001 c 0.47999,0 0.91999,0.04 1.28,0.24 0.95999,0.28 1.43999,1.28 1.43999,2.96 z"
         style=""
         id="path8321" />
      <path
         d="m 658.24,128.50852 c 1.72,2.76 4,3.12 6.64,3 3.24,-0.12 5.4,-1.4 5.92,-1.6 0.12,0.44 0.24,0.68 0.36,0.96 l 0.24,0.36 h 5.48 v -21.32 h -6.64 l -0.04,15.08 c -1.08,0.68 -2.12,0.88 -2.88,0.92 -0.44,0.04 -0.88,0 -1.28,-0.04 -1.28,-0.28 -1.92,-1.12 -1.92,-2.44 v -13.52 h -6.68 v 12.32 c 0,3.36 0.2,5.04 0.8,6.28 z"
         style=""
         id="path8323" />
      <path
         d="m 686.34375,100.06852 -6.6,1.16 v 21.12 0.28 c 0,0.32 0,0.68 0.04,1.04 0.08,0.92 0.32,1.84 0.68,2.76 1.44,3.28 4.48,4.92 9.12,4.92 0.6,0 1,0 1.6,-0.04 v -5.52 c -0.28,0 -2.28,0.04 -3.44,-0.28 -0.92,-0.32 -1.4,-1.2 -1.4,-2.64 v -0.8 z"
         style=""
         id="path8325" />
      <path
         d="m 693.10125,118.74852 v 2.12 c 0,3.44 0.28,5.6 0.8,6.44 0.16,0.52 0.6,1.16 1.36,1.96 1.6,1.48 4.32,2.24 8.2,2.24 2.72,0 5.56,-0.32 8.76,-0.84 v -30.56 l -6.52,1.16 c -0.04,2.04 -0.04,3.76 -0.04,5.24 0,2.52 -0.04,4.8 -0.04,3.88 -1.4,-0.44 -3.28,-0.76 -4.68,-0.8 -3.8,0 -6.16,1 -7.04,2.96 -0.52,0.92 -0.8,2.96 -0.8,6.2 z m 6.6,4.2 v -5.36 c 0,-1.36 0.64,-2.16 1.92,-2.4 l 0.48,-0.04 h 0.48 c 1.08,0 2.08,0.32 3.04,0.92 v 9.96 l -1.92,0.08 h -0.44 c -1.92,0 -3.04,-0.6 -3.4,-1.84 -0.12,-0.44 -0.16,-0.84 -0.16,-1.32 z"
         style=""
         id="path8327" />
      <path
         d="m 762.07,112.54852 c -0.84,-2 -3.2,-3 -7,-3 -2.56,0 -4.88,0.76 -6.76,1.44 -0.04,-0.04 -0.08,-0.04 -0.12,-0.04 -1.4,-1.16 -3.08,-1.4 -4.84,-1.36 h -0.36 c -3.2,0.12 -5.4,1.44 -5.8,1.64 -0.12,-0.44 -0.28,-0.72 -0.4,-1 -0.08,-0.12 -0.16,-0.28 -0.24,-0.4 h -1.16 -4.24 v 21.4 h 6.56 v -15.2 h 0.04 c 1.08,-0.64 2.04,-0.8 2.8,-0.92 0.44,-0.04 0.88,0 1.28,0.04 1.24,0.28 1.84,1.08 1.84,2.4 v 13.68 h 6.64 v -15.2 c 1.08,-0.6 2.64,-1.16 4.12,-0.88 1.24,0.28 1.84,1.08 1.84,2.4 v 13.68 h 6.64 v -12.48 c 0,-3.28 -0.28,-5.36 -0.84,-6.2 z"
         style=""
         id="path8329" />
      <path
         d="m 782.71938,113.06852 c -1,-2.08 -3.60001,-3.12 -7.80001,-3.12 h -6.59999 l -0.6,5.44 h 6.15999 c 1.16,0 2,0.16 2.48,0.52 0.44001,0.24 0.64,1.08 0.64,2.56 v 0.72 h -3.08 c -3,0 -4.88,0.24 -5.64,0.76 -1.8,0.84 -2.71999,2.52 -2.71999,5.12 v 0.16 c 0,1.48 0.4,2.8 1.16,3.96 1.15999,1.52 2.72,2.28 4.67999,2.28 h 0.56001 c 2.03999,0 3.95999,-0.56 5.88,-1.56 0.04,0.32 0.08,0.64 0.19999,0.92 0.04,0.12 0.08,0.28 0.12,0.4 h 5.44 v -13.12 c 0,-2.12 -0.27999,-3.8 -0.87999,-5.04 z m -5.72001,10.48 v 2.4 c -1.15999,0.52 -2.19999,0.88 -3.03999,0.88 -1.20001,0 -1.80001,-0.6 -1.80001,-1.76 0,-0.56 0.12,-0.92 0.32,-1.12 0.28,-0.28 1.04,-0.4 2.32001,-0.4 z"
         style=""
         id="path8331" />
      <path
         d="m 792.78813,100.10852 -6.56001,1.16 v 29.96 h 6.56001 v -9.92 h 0.04 l 5.96001,9.92 h 7.07999 l -6.52,-11 6.52,-10.32 h -7.07999 l -5.96001,9.4 h -0.04 z"
         style=""
         id="path8333" />
      <path
         d="m 826.29562,113.86852 c -1.31999,-2.88 -4.19999,-4.32 -8.6,-4.32 -1.56,0 -3,0.2 -4.47999,0.68 -3.16001,1.24 -4.72,3.72 -4.72,7.48 v 5.12 c 0,1.32 0.24,2.64 0.75999,3.92 1.36001,3.16 4.4,4.76 9.08001,4.76 1.79999,0 3.43999,-0.08 4.83999,-0.24 2.24,-0.36 3.36,-0.56 3.36,-0.64 v -5.36 h -0.04 c -2.52,0.52 -4.92001,0.76 -7.20001,0.76 h -0.52 c -1.08,0 -1.76,-0.12 -2.36,-0.28 -0.88,-0.32 -1.31999,-1.2 -1.31999,-2.64 v -0.64 h 11.95999 v -0.12 -3.68 c 0,-2.04 -0.24,-3.64 -0.76,-4.8 z m -5.83999,3.8 v 0.36 h -5.36 v -1 c 0,-1.64 0.76,-2.48 2.64,-2.48 0.67999,0 1.27999,0.16 1.76,0.48 0.63999,0.28 0.96,1.16 0.96,2.64 z"
         style=""
         id="path8335" />
      <path
         d="m 34.179375,162.54852 c -0.84,-2 -3.2,-3 -7,-3 -2.56,0 -4.88,0.76 -6.76,1.44 -0.04,-0.04 -0.08,-0.04 -0.12,-0.04 -1.4,-1.16 -3.08,-1.4 -4.84,-1.36 h -0.36 c -3.2,0.12 -5.4,1.44 -5.8,1.64 -0.12,-0.44 -0.28,-0.72 -0.4,-1 -0.08,-0.12 -0.16,-0.28 -0.24,-0.4 h -1.16 -4.24 v 21.4 h 6.56 v -15.2 h 0.04 c 1.08,-0.64 2.04,-0.8 2.8,-0.92 0.44,-0.04 0.88,0 1.28,0.04 1.24,0.28 1.84,1.08 1.84,2.4 v 13.68 h 6.64 v -15.2 c 1.08,-0.6 2.64,-1.16 4.12,-0.88 1.24,0.28 1.84,1.08 1.84,2.4 v 13.68 h 6.64 v -12.48 c 0,-3.28 -0.28,-5.36 -0.84,-6.2 z"
         style=""
         id="path8337" />
      <path
         d="m 55.54875,164.70852 c -1.28,-3.36 -4.08,-5.12 -8.68,-5.12 h -0.64 c -1.4,0 -2.6,0.24 -3.84,0.6 -3.6,1.16 -5.4,3.84 -5.4,8 v 4.68 c 0,1.76 0.32,3.2 0.92,4.36 1.32,2.84 4.2,4.28 8.56,4.28 2.04,0 3.76,-0.32 5.2,-0.92 2.92,-1.28 4.4,-3.96 4.4,-8.08 v -3.92 c 0,-1.52 -0.16,-2.8 -0.52,-3.88 z m -6.04,3.64 v 4.36 c 0,0.6 -0.04,1 -0.04,1.36 -0.36,1.32 -1.32,2 -2.84,2 h -0.16 c -1.92,0 -2.88,-0.92 -2.88,-2.76 v -5.36 c 0,-0.6 0.08,-1 0.2,-1.36 0.48,-0.96 1.32,-1.44 2.48,-1.44 h 0.52 c 0.48,0 0.92,0.04 1.28,0.24 0.96,0.28 1.44,1.28 1.44,2.96 z"
         style=""
         id="path8339" />
      <path
         d="m 76.343125,162.54852 c -1.64,-2.72 -3.92,-3.04 -6.48,-2.92 -3.24,0.12 -5.36,1.44 -5.8,1.64 -0.12,-0.44 -0.28,-0.72 -0.4,-1 l -0.2,-0.4 h -5.44 v 21.36 h 6.56 v -15.2 c 1.08,-0.64 2.04,-0.8 2.8,-0.92 0.44,-0.04 0.88,0 1.28,0.04 1.24,0.28 1.88,1.08 1.88,2.4 v 13.68 h 6.6 v -12.48 c 0,-3.32 -0.2,-5.08 -0.8,-6.2 z"
         style=""
         id="path8341" />
      <path
         d="m 97.858125,163.86852 c -1.32,-2.88 -4.2,-4.32 -8.6,-4.32 -1.56,0 -3,0.2 -4.48,0.68 -3.16,1.24 -4.72,3.72 -4.72,7.48 v 5.12 c 0,1.32 0.24,2.64 0.76,3.92 1.36,3.16 4.4,4.76 9.08,4.76 1.8,0 3.44,-0.08 4.84,-0.24 2.24,-0.36 3.36,-0.56 3.36,-0.64 v -5.36 h -0.04 c -2.52,0.52 -4.92,0.76 -7.2,0.76 h -0.52 c -1.08,0 -1.76,-0.12 -2.36,-0.28 -0.88,-0.32 -1.32,-1.2 -1.32,-2.64 v -0.64 h 11.96 v -0.12 -3.68 c 0,-2.04 -0.24,-3.64 -0.76,-4.8 z m -5.84,3.8 v 0.36 h -5.36 v -1 c 0,-1.64 0.76,-2.48 2.64,-2.48 0.68,0 1.28,0.16 1.76,0.48 0.64,0.28 0.96,1.16 0.96,2.64 z"
         style=""
         id="path8343" />
      <path
         d="m 124.42437,159.94852 h -7.2 l -4.23999,13.16 -4.96,-13.16 h -7.32 l 8.84,21.28 c 0,1.48 -0.48001,2.36 -1.40001,2.6 -0.47999,0.16 -1.23999,0.36 -2.31999,0.36 h -0.44 c -0.64,0 -1.24001,-0.04 -1.84,-0.08 v 5.48 c 0.84,0.04 1.75999,0.08 2.72,0.08 2.08,0 3.75999,-0.28 5.2,-0.88 3.39999,-1.6 4.52,-5.08 5.39999,-7.56 0.44,-1.2 2.32001,-6.6 4.12001,-11.56 1.04,-2.92 2.2,-6.16 3.43999,-9.72 z"
         style=""
         id="path8345" />
      <path
         d="m 174.15438,159.94852 h -6.76001 l -3.4,13.4 -3.12,-13.4 h -5.88 l -3.12,13.4 -3.44,-13.4 h -6.72 l 6.24,21.28 h 7.16 l 2.84,-9.44 2.76,9.44 h 7.2 z"
         style=""
         id="path8347" />
      <path
         d="m 181.95,152.14852 c -0.6,-0.6 -1.68,-0.68 -2.6,-0.68 -0.92,0 -1.96,0.08 -2.72,0.68 -0.64,0.6 -0.72,1.72 -0.72,2.4 0,0.76 0.08,1.76 0.72,2.36 0.76,0.6 1.92,0.68 2.72,0.68 0.76,0 2,-0.08 2.6,-0.68 0.76,-0.6 0.84,-1.56 0.84,-2.36 0,-0.76 -0.08,-1.8 -0.84,-2.4 z m -5.92,7.8 h 6.6 v 21.28 h -6.6 z"
         style=""
         id="path8349" />
      <path
         d="m 200.01062,176.50852 c -0.19999,0 -2.28,-0.12 -3.44,-0.64 -1.44,-0.44 -1.44,-1.52 -1.44,-2.92 v -7.56 6.08 -6.08 h 4.32 l 0.68,-5.48 h -5 v -6.44 l -6.56,1.12 v 5.32 h -3.2 v 5.48 h 3.2 v 4.08 c 0,2.08 0.04,4.24 0.04,4.36 0,7.88 5.16,7.48 9.84,7.48 h 1.56 z"
         style=""
         id="path8351" />
      <path
         d="m 221.26687,162.62852 c -0.92,-1.96 -3.28,-2.96 -7.08,-2.96 -1.08,0 -2.92,0.2 -4.68,0.8 v -10.32 l -6.59999,1.12 v 30 h 6.59999 v -15.16 c 1.08,-0.6 2.08,-0.92 3.04,-0.92 h 0.44 l 0.6,0.04 c 1.2,0.24 1.8,1.04 1.8,2.4 v 13.64 h 6.64 v -12.48 c 0,-3.32 -0.24,-5.4 -0.76,-6.16 z"
         style=""
         id="path8353" />
      <path
         d="m 258.39375,175.42852 c 0.12,-1.48 0.08,-3.2 -1.44,-4.72 -2.84,-2.68 -10.36,-2.52 -9.44,-4.68 0.76,-1.8 7.92,-0.68 9.96,-0.24 l -0.6,-5.64 c -1.64,-0.28 -4.48,-0.64 -7.36,-0.52 -3.08,0.12 -8.36,0.56 -9,6.12 -0.12,1.4 -0.08,3.24 1.52,4.64 3.16,3 10.24,2.56 9.44,4.68 -0.84,2 -9.32,0.32 -10.8,0 l 0.6,5.72 c 1.64,0.32 5,0.72 8.16,0.72 3.12,-0.12 8.32,-0.6 8.96,-6.08 z"
         style=""
         id="path8355" />
      <path
         d="m 278.56125,163.86852 c -1.32,-2.88 -4.2,-4.32 -8.6,-4.32 -1.56,0 -3,0.2 -4.48,0.68 -3.16,1.24 -4.72,3.72 -4.72,7.48 v 5.12 c 0,1.32 0.24,2.64 0.76,3.92 1.36,3.16 4.4,4.76 9.08,4.76 1.8,0 3.44,-0.08 4.84,-0.24 2.24,-0.36 3.36,-0.56 3.36,-0.64 v -5.36 h -0.04 c -2.52,0.52 -4.92,0.76 -7.2,0.76 h -0.52 c -1.08,0 -1.76,-0.12 -2.36,-0.28 -0.88,-0.32 -1.32,-1.2 -1.32,-2.64 v -0.64 h 11.96 v -0.12 -3.68 c 0,-2.04 -0.24,-3.64 -0.76,-4.8 z m -5.84,3.8 v 0.36 h -5.36 v -1 c 0,-1.64 0.76,-2.48 2.64,-2.48 0.68,0 1.28,0.16 1.76,0.48 0.64,0.28 0.96,1.16 0.96,2.64 z"
         style=""
         id="path8357" />
      <path
         d="m 291.6875,159.62852 c -4.04,0 -6.84,1.32 -8.4,3.96 -0.8,1.12 -1.2,3.2 -1.2,6.24 v 1.44 c 0,2.52 0.24,4.28 0.72,5.32 1.4,3.28 4.36,4.92 8.88,4.92 1.24,0 2.32,-0.08 3.24,-0.2 2.36,-0.36 3.52,-0.6 3.52,-0.72 v -5.28 h -0.04 c -2.6,0.48 -4.44,0.76 -5.6,0.76 h -0.48 c -1.56,0 -2.6,-0.32 -3.08,-0.92 -0.4,-0.32 -0.6,-1.36 -0.6,-3.16 v -2.72 c 0,-1.96 0.24,-3.08 0.68,-3.36 0.52,-0.52 1.56,-0.8 3.12,-0.8 1.32,0 3.64,0.28 6,0.72 v -5.32 c -2.36,-0.6 -4.6,-0.88 -6.76,-0.88 z"
         style=""
         id="path8359" />
      <path
         d="m 311.86813,159.86852 c -1.24001,0.28 -2.24001,0.56 -3.16001,0.88 -0.76,0.28 -1,0.36 -1.51999,0.56 -0.12001,-0.44 -0.24001,-0.8 -0.36001,-1.08 -0.08,-0.16 -0.16,-0.32 -0.2,-0.48 h -5.4 v 21.48 h 6.52001 v -13.4 -1.08 c 1.75999,-0.64 3.07999,-1.08 4.03999,-1.28 l 0.44,-0.08 c 0.52001,-0.12 2,-0.24 2.8,-0.2 l -0.64,-5.64 c -0.83999,0.04 -1.68,0.12 -2.51999,0.32 z"
         style=""
         id="path8361" />
      <path
         d="m 335.04562,163.86852 c -1.32,-2.88 -4.2,-4.32 -8.6,-4.32 -1.56,0 -3,0.2 -4.48,0.68 -3.15999,1.24 -4.71999,3.72 -4.71999,7.48 v 5.12 c 0,1.32 0.24,2.64 0.75999,3.92 1.36001,3.16 4.4,4.76 9.08,4.76 1.8,0 3.44,-0.08 4.84001,-0.24 2.23999,-0.36 3.35999,-0.56 3.35999,-0.64 v -5.36 h -0.04 c -2.52001,0.52 -4.92001,0.76 -7.20001,0.76 h -0.52 c -1.08,0 -1.76,-0.12 -2.36,-0.28 -0.88,-0.32 -1.32,-1.2 -1.32,-2.64 v -0.64 h 11.96001 v -0.12 -3.68 c 0,-2.04 -0.24001,-3.64 -0.76001,-4.8 z m -5.84,3.8 v 0.36 h -5.36 v -1 c 0,-1.64 0.76,-2.48 2.64001,-2.48 0.67999,0 1.27999,0.16 1.76,0.48 0.63999,0.28 0.95999,1.16 0.95999,2.64 z"
         style=""
         id="path8363" />
      <path
         d="m 353.29187,176.50852 c -0.19999,0 -2.28,-0.12 -3.44,-0.64 -1.44,-0.44 -1.44,-1.52 -1.44,-2.92 v -7.56 6.08 -6.08 h 4.32 l 0.68,-5.48 h -5 v -6.44 l -6.56,1.12 v 5.32 h -3.19999 v 5.48 h 3.19999 v 4.08 c 0,2.08 0.04,4.24 0.04,4.36 0,7.88 5.15999,7.48 9.83999,7.48 h 1.56 z"
         style=""
         id="path8365" />
      <path
         d="m 373.62812,175.42852 c 0.12001,-1.48 0.08,-3.2 -1.43999,-4.72 -2.84001,-2.68 -10.36001,-2.52 -9.44,-4.68 0.75999,-1.8 7.91999,-0.68 9.95999,-0.24 l -0.6,-5.64 c -1.64,-0.28 -4.48,-0.64 -7.35999,-0.52 -3.08001,0.12 -8.36001,0.56 -9,6.12 -0.12001,1.4 -0.08,3.24 1.51999,4.64 3.16001,3 10.24,2.56 9.44,4.68 -0.83999,2 -9.32,0.32 -10.8,0 l 0.6,5.72 c 1.64,0.32 5,0.72 8.16,0.72 3.12,-0.12 8.32001,-0.6 8.96,-6.08 z"
         style=""
         id="path8367" />
    </g>
  </g>
</svg>
