<?xml version="1.0" encoding="UTF-8" standalone="no"?>
<!-- Created with Inkscape (http://www.inkscape.org/) -->

<svg
   xmlns:dc="http://purl.org/dc/elements/1.1/"
   xmlns:cc="http://creativecommons.org/ns#"
   xmlns:rdf="http://www.w3.org/1999/02/22-rdf-syntax-ns#"
   xmlns:svg="http://www.w3.org/2000/svg"
   xmlns="http://www.w3.org/2000/svg"
   xmlns:sodipodi="http://sodipodi.sourceforge.net/DTD/sodipodi-0.dtd"
   xmlns:inkscape="http://www.inkscape.org/namespaces/inkscape"
   width="210mm"
   height="29mm"
   viewBox="0 0 210 29"
   version="1.1"
   id="svg17715"
   sodipodi:docname="text9.svg"
   inkscape:version="0.92.2 (5c3e80d, 2017-08-06)">
  <defs
     id="defs17709" />
  <sodipodi:namedview
     id="base"
     pagecolor="#ffffff"
     bordercolor="#666666"
     borderopacity="1.0"
     inkscape:pageopacity="0.0"
     inkscape:pageshadow="2"
     inkscape:zoom="0.35"
     inkscape:cx="-91.577789"
     inkscape:cy="102.85714"
     inkscape:document-units="mm"
     inkscape:current-layer="layer1"
     showgrid="false"
     inkscape:pagecheckerboard="true"
     inkscape:window-width="1009"
     inkscape:window-height="717"
     inkscape:window-x="296"
     inkscape:window-y="112"
     inkscape:window-maximized="0" />
  <metadata
     id="metadata17712">
    <rdf:RDF>
      <cc:Work
         rdf:about="">
        <dc:format>image/svg+xml</dc:format>
        <dc:type
           rdf:resource="http://purl.org/dc/dcmitype/StillImage" />
        <dc:title />
      </cc:Work>
    </rdf:RDF>
  </metadata>
  <g
     inkscape:label="Layer 1"
     inkscape:groupmode="layer"
     id="layer1"
     transform="translate(0,-268)">
    <g
       aria-label="Zucc collected and collected people's secrets"
       transform="matrix(0.22629646,0,0,0.22629646,7.0165623,253.10745)"
       style="font-style:normal;font-variant:normal;font-weight:normal;font-stretch:normal;font-size:40px;line-height:1.25;font-family:'Facebook Letter Faces';-inkscape-font-specification:'Facebook Letter Faces, Normal';font-variant-ligatures:normal;font-variant-caps:normal;font-variant-numeric:normal;font-feature-settings:normal;text-align:start;letter-spacing:0px;word-spacing:0px;writing-mode:lr-tb;text-anchor:start;opacity:1;fill:#000000;fill-opacity:1;stroke:none"
       id="flowRoot17641">
      <path
         d="m 25.259375,131.22852 0.84,-6 h -12 l 12.96,-23.96 h -22.28 l -0.6,5.8 h 11.32 l -13.16,24.16 z"
         style=""
         id="path9526" />
      <path
         d="m 29.724375,128.50852 c 1.72,2.76 4,3.12 6.64,3 3.24,-0.12 5.4,-1.4 5.92,-1.6 0.12,0.44 0.24,0.68 0.36,0.96 l 0.24,0.36 h 5.48 v -21.32 h -6.64 l -0.04,15.08 c -1.08,0.68 -2.12,0.88 -2.88,0.92 -0.44,0.04 -0.88,0 -1.28,-0.04 -1.28,-0.28 -1.92,-1.12 -1.92,-2.44 v -13.52 h -6.68 v 12.32 c 0,3.36 0.2,5.04 0.8,6.28 z"
         style=""
         id="path9528" />
      <path
         d="m 60.828125,109.62852 c -4.04,0 -6.84,1.32 -8.4,3.96 -0.8,1.12 -1.2,3.2 -1.2,6.24 v 1.44 c 0,2.52 0.24,4.28 0.72,5.32 1.4,3.28 4.36,4.92 8.88,4.92 1.24,0 2.32,-0.08 3.24,-0.2 2.36,-0.36 3.52,-0.6 3.52,-0.72 v -5.28 h -0.04 c -2.6,0.48 -4.44,0.76 -5.6,0.76 h -0.48 c -1.56,0 -2.6,-0.32 -3.08,-0.92 -0.4,-0.32 -0.6,-1.36 -0.6,-3.16 v -2.72 c 0,-1.96 0.24,-3.08 0.68,-3.36 0.52,-0.52 1.56,-0.8 3.12,-0.8 1.32,0 3.64,0.28 6,0.72 v -5.32 c -2.36,-0.6 -4.6,-0.88 -6.76,-0.88 z"
         style=""
         id="path9530" />
      <path
         d="m 79.96875,109.62852 c -4.04,0 -6.84,1.32 -8.4,3.96 -0.8,1.12 -1.2,3.2 -1.2,6.24 v 1.44 c 0,2.52 0.24,4.28 0.72,5.32 1.4,3.28 4.36,4.92 8.88,4.92 1.24,0 2.32,-0.08 3.24,-0.2 2.36,-0.36 3.52,-0.6 3.52,-0.72 v -5.28 h -0.04 c -2.6,0.48 -4.44,0.76 -5.6,0.76 h -0.48 c -1.56,0 -2.6,-0.32 -3.08,-0.92 -0.4,-0.32 -0.6,-1.36 -0.6,-3.16 v -2.72 c 0,-1.96 0.24,-3.08 0.68,-3.36 0.52,-0.52 1.56,-0.8 3.12,-0.8 1.32,0 3.64,0.28 6,0.72 v -5.32 c -2.36,-0.6 -4.6,-0.88 -6.76,-0.88 z"
         style=""
         id="path9532" />
      <path
         d="m 115.28125,109.62852 c -4.04,0 -6.84,1.32 -8.4,3.96 -0.8,1.12 -1.2,3.2 -1.2,6.24 v 1.44 c 0,2.52 0.24,4.28 0.72,5.32 1.4,3.28 4.36,4.92 8.88,4.92 1.24,0 2.32,-0.08 3.24,-0.2 2.36,-0.36 3.52,-0.6 3.52,-0.72 v -5.28 h -0.04 c -2.6,0.48 -4.44,0.76 -5.6,0.76 h -0.48 c -1.56,0 -2.6,-0.32 -3.08,-0.92 -0.4,-0.32 -0.6,-1.36 -0.6,-3.16 v -2.72 c 0,-1.96 0.24,-3.08 0.68,-3.36 0.52,-0.52 1.56,-0.8 3.12,-0.8 1.32,0 3.64,0.28 6,0.72 v -5.32 c -2.36,-0.6 -4.6,-0.88 -6.76,-0.88 z"
         style=""
         id="path9534" />
      <path
         d="m 142.50187,114.70852 c -1.28,-3.36 -4.08,-5.12 -8.68,-5.12 h -0.64 c -1.39999,0 -2.6,0.24 -3.84,0.6 -3.6,1.16 -5.4,3.84 -5.4,8 v 4.68 c 0,1.76 0.32001,3.2 0.92,4.36 1.32001,2.84 4.2,4.28 8.56,4.28 2.04,0 3.76,-0.32 5.2,-0.92 2.92,-1.28 4.4,-3.96 4.4,-8.08 v -3.92 c 0,-1.52 -0.16,-2.8 -0.52,-3.88 z m -6.04,3.64 v 4.36 c 0,0.6 -0.04,1 -0.04,1.36 -0.36,1.32 -1.32,2 -2.84,2 h -0.16 c -1.92,0 -2.88,-0.92 -2.88,-2.76 v -5.36 c 0,-0.6 0.08,-1 0.2,-1.36 0.48,-0.96 1.32,-1.44 2.48,-1.44 h 0.52 c 0.48,0 0.92,0.04 1.28,0.24 0.96,0.28 1.44,1.28 1.44,2.96 z"
         style=""
         id="path9536" />
      <path
         d="m 151.65625,100.06852 -6.6,1.16 v 21.12 0.28 c 0,0.32 0,0.68 0.04,1.04 0.08,0.92 0.32,1.84 0.68,2.76 1.44,3.28 4.48,4.92 9.12,4.92 0.6,0 1,0 1.6,-0.04 v -5.52 c -0.28,0 -2.28,0.04 -3.44,-0.28 -0.92,-0.32 -1.4,-1.2 -1.4,-2.64 v -0.8 z"
         style=""
         id="path9538" />
      <path
         d="m 165.09375,100.06852 -6.6,1.16 v 21.12 0.28 c 0,0.32 0,0.68 0.04,1.04 0.08,0.92 0.32,1.84 0.68,2.76 1.44,3.28 4.48,4.92 9.12,4.92 0.6,0 1,0 1.6,-0.04 v -5.52 c -0.28,0 -2.28,0.04 -3.44,-0.28 -0.92,-0.32 -1.4,-1.2 -1.4,-2.64 v -0.8 z"
         style=""
         id="path9540" />
      <path
         d="m 189.81125,113.86852 c -1.32,-2.88 -4.2,-4.32 -8.6,-4.32 -1.56,0 -3,0.2 -4.48,0.68 -3.16,1.24 -4.72,3.72 -4.72,7.48 v 5.12 c 0,1.32 0.24,2.64 0.76,3.92 1.36,3.16 4.4,4.76 9.08,4.76 1.8,0 3.44,-0.08 4.84,-0.24 2.24,-0.36 3.36,-0.56 3.36,-0.64 v -5.36 h -0.04 c -2.52,0.52 -4.92,0.76 -7.2,0.76 h -0.52 c -1.08,0 -1.76,-0.12 -2.36,-0.28 -0.88,-0.32 -1.32,-1.2 -1.32,-2.64 v -0.64 h 11.96 v -0.12 -3.68 c 0,-2.04 -0.24,-3.64 -0.76,-4.8 z m -5.84,3.8 v 0.36 h -5.36 v -1 c 0,-1.64 0.76,-2.48 2.64,-2.48 0.68,0 1.28,0.16 1.76,0.48 0.64,0.28 0.96,1.16 0.96,2.64 z"
         style=""
         id="path9542" />
      <path
         d="m 202.9375,109.62852 c -4.04,0 -6.84,1.32 -8.4,3.96 -0.8,1.12 -1.2,3.2 -1.2,6.24 v 1.44 c 0,2.52 0.24,4.28 0.72,5.32 1.4,3.28 4.36,4.92 8.88,4.92 1.24,0 2.32,-0.08 3.24,-0.2 2.36,-0.36 3.52,-0.6 3.52,-0.72 v -5.28 h -0.04 c -2.6,0.48 -4.44,0.76 -5.6,0.76 h -0.48 c -1.56,0 -2.6,-0.32 -3.08,-0.92 -0.4,-0.32 -0.6,-1.36 -0.6,-3.16 v -2.72 c 0,-1.96 0.24,-3.08 0.68,-3.36 0.52,-0.52 1.56,-0.8 3.12,-0.8 1.32,0 3.64,0.28 6,0.72 v -5.32 c -2.36,-0.6 -4.6,-0.88 -6.76,-0.88 z"
         style=""
         id="path9544" />
      <path
         d="m 227.19812,126.50852 c -0.19999,0 -2.28,-0.12 -3.44,-0.64 -1.44,-0.44 -1.44,-1.52 -1.44,-2.92 v -7.56 6.08 -6.08 h 4.32 l 0.68,-5.48 h -5 v -6.44 l -6.56,1.12 v 5.32 h -3.2 v 5.48 h 3.2 v 4.08 c 0,2.08 0.04,4.24 0.04,4.36 0,7.88 5.16,7.48 9.84,7.48 h 1.56 z"
         style=""
         id="path9546" />
      <path
         d="m 248.01437,113.86852 c -1.32,-2.88 -4.2,-4.32 -8.6,-4.32 -1.56,0 -3,0.2 -4.48,0.68 -3.16,1.24 -4.72,3.72 -4.72,7.48 v 5.12 c 0,1.32 0.24,2.64 0.76,3.92 1.36,3.16 4.4,4.76 9.08,4.76 1.8,0 3.44,-0.08 4.84,-0.24 2.24,-0.36 3.36,-0.56 3.36,-0.64 v -5.36 h -0.04 c -2.52,0.52 -4.92,0.76 -7.2,0.76 h -0.52 c -1.08,0 -1.76,-0.12 -2.36,-0.28 -0.88,-0.32 -1.32,-1.2 -1.32,-2.64 v -0.64 h 11.96 v -0.12 -3.68 c 0,-2.04 -0.24,-3.64 -0.76,-4.8 z m -5.84,3.8 v 0.36 h -5.36 v -1 c 0,-1.64 0.76,-2.48 2.64,-2.48 0.68,0 1.28,0.16 1.76,0.48 0.64,0.28 0.96,1.16 0.96,2.64 z"
         style=""
         id="path9548" />
      <path
         d="m 251.46062,118.74852 v 2.12 c 0,3.44 0.28,5.6 0.8,6.44 0.16,0.52 0.6,1.16 1.36,1.96 1.6,1.48 4.32,2.24 8.2,2.24 2.72,0 5.56,-0.32 8.76,-0.84 v -30.56 l -6.51999,1.16 c -0.04,2.04 -0.04,3.76 -0.04,5.24 0,2.52 -0.04,4.8 -0.04,3.88 -1.4,-0.44 -3.28,-0.76 -4.67999,-0.8 -3.8,0 -6.16001,1 -7.04001,2.96 -0.52,0.92 -0.8,2.96 -0.8,6.2 z m 6.60001,4.2 v -5.36 c 0,-1.36 0.63999,-2.16 1.91999,-2.4 l 0.48,-0.04 h 0.48 c 1.08,0 2.08,0.32 3.04,0.92 v 9.96 l -1.91999,0.08 h -0.44 c -1.92001,0 -3.04001,-0.6 -3.40001,-1.84 -0.12,-0.44 -0.15999,-0.84 -0.15999,-1.32 z"
         style=""
         id="path9550" />
      <path
         d="m 306.46938,113.06852 c -1,-2.08 -3.60001,-3.12 -7.80001,-3.12 h -6.6 l -0.59999,5.44 h 6.15999 c 1.16,0 2,0.16 2.48,0.52 0.44,0.24 0.64,1.08 0.64,2.56 v 0.72 h -3.08 c -3,0 -4.88,0.24 -5.63999,0.76 -1.80001,0.84 -2.72001,2.52 -2.72001,5.12 v 0.16 c 0,1.48 0.40001,2.8 1.16001,3.96 1.15999,1.52 2.71999,2.28 4.68,2.28 h 0.56 c 2.03999,0 3.95999,-0.56 5.88,-1.56 0.04,0.32 0.08,0.64 0.19999,0.92 0.04,0.12 0.08,0.28 0.12,0.4 h 5.44 v -13.12 c 0,-2.12 -0.28,-3.8 -0.87999,-5.04 z m -5.72001,10.48 v 2.4 c -1.15999,0.52 -2.2,0.88 -3.03999,0.88 -1.20001,0 -1.80001,-0.6 -1.80001,-1.76 0,-0.56 0.12001,-0.92 0.32,-1.12 0.28,-0.28 1.04001,-0.4 2.32,-0.4 z"
         style=""
         id="path9552" />
      <path
         d="m 328.21812,112.54852 c -1.64,-2.72 -3.91999,-3.04 -6.47999,-2.92 -3.24,0.12 -5.36001,1.44 -5.8,1.64 -0.12001,-0.44 -0.28001,-0.72 -0.40001,-1 l -0.2,-0.4 h -5.44 v 21.36 h 6.56 v -15.2 c 1.08,-0.64 2.04001,-0.8 2.8,-0.92 0.44,-0.04 0.88,0 1.28,0.04 1.24,0.28 1.88,1.08 1.88,2.4 v 13.68 h 6.6 v -12.48 c 0,-3.32 -0.2,-5.08 -0.8,-6.2 z"
         style=""
         id="path9554" />
      <path
         d="m 331.77312,118.74852 v 2.12 c 0,3.44 0.28001,5.6 0.8,6.44 0.16,0.52 0.60001,1.16 1.36001,1.96 1.59999,1.48 4.31999,2.24 8.19999,2.24 2.72,0 5.56,-0.32 8.76,-0.84 v -30.56 l -6.51999,1.16 c -0.04,2.04 -0.04,3.76 -0.04,5.24 0,2.52 -0.04,4.8 -0.04,3.88 -1.4,-0.44 -3.28,-0.76 -4.67999,-0.8 -3.8,0 -6.16001,1 -7.04001,2.96 -0.51999,0.92 -0.8,2.96 -0.8,6.2 z m 6.60001,4.2 v -5.36 c 0,-1.36 0.63999,-2.16 1.91999,-2.4 l 0.48,-0.04 h 0.48 c 1.08,0 2.08,0.32 3.04,0.92 v 9.96 l -1.91999,0.08 h -0.44 c -1.92001,0 -3.04001,-0.6 -3.40001,-1.84 -0.12,-0.44 -0.15999,-0.84 -0.15999,-1.32 z"
         style=""
         id="path9556" />
      <path
         d="m 379.42187,109.62852 c -4.04,0 -6.83999,1.32 -8.39999,3.96 -0.80001,1.12 -1.20001,3.2 -1.20001,6.24 v 1.44 c 0,2.52 0.24,4.28 0.72,5.32 1.4,3.28 4.36001,4.92 8.88,4.92 1.24,0 2.32,-0.08 3.24,-0.2 2.36001,-0.36 3.52,-0.6 3.52,-0.72 v -5.28 h -0.04 c -2.60001,0.48 -4.44001,0.76 -5.60001,0.76 h -0.48 c -1.56,0 -2.59999,-0.32 -3.08,-0.92 -0.39999,-0.32 -0.6,-1.36 -0.6,-3.16 v -2.72 c 0,-1.96 0.24,-3.08 0.68,-3.36 0.52001,-0.52 1.56,-0.8 3.12,-0.8 1.32,0 3.64,0.28 6,0.72 v -5.32 c -2.36,-0.6 -4.59999,-0.88 -6.76,-0.88 z"
         style=""
         id="path9558" />
      <path
         d="m 406.6425,114.70852 c -1.28,-3.36 -4.08,-5.12 -8.68,-5.12 h -0.64 c -1.4,0 -2.6,0.24 -3.84,0.6 -3.6,1.16 -5.4,3.84 -5.4,8 v 4.68 c 0,1.76 0.32,3.2 0.92,4.36 1.32,2.84 4.2,4.28 8.56,4.28 2.04,0 3.76,-0.32 5.2,-0.92 2.92,-1.28 4.4,-3.96 4.4,-8.08 v -3.92 c 0,-1.52 -0.16,-2.8 -0.52,-3.88 z m -6.04,3.64 v 4.36 c 0,0.6 -0.04,1 -0.04,1.36 -0.36,1.32 -1.32,2 -2.84,2 h -0.16 c -1.92,0 -2.88,-0.92 -2.88,-2.76 v -5.36 c 0,-0.6 0.08,-1 0.2,-1.36 0.48,-0.96 1.32,-1.44 2.48,-1.44 h 0.52 c 0.48,0 0.92,0.04 1.28,0.24 0.96,0.28 1.44,1.28 1.44,2.96 z"
         style=""
         id="path9560" />
      <path
         d="m 415.79687,100.06852 -6.6,1.16 v 21.12 0.28 c 0,0.32 0,0.68 0.04,1.04 0.08,0.92 0.32,1.84 0.68,2.76 1.44,3.28 4.48001,4.92 9.12,4.92 0.6,0 1,0 1.6,-0.04 v -5.52 c -0.28,0 -2.28,0.04 -3.44,-0.28 -0.91999,-0.32 -1.4,-1.2 -1.4,-2.64 v -0.8 z"
         style=""
         id="path9562" />
      <path
         d="m 429.23437,100.06852 -6.6,1.16 v 21.12 0.28 c 0,0.32 0,0.68 0.04,1.04 0.08,0.92 0.32,1.84 0.68,2.76 1.44,3.28 4.48001,4.92 9.12,4.92 0.6,0 1,0 1.6,-0.04 v -5.52 c -0.28,0 -2.28,0.04 -3.44,-0.28 -0.91999,-0.32 -1.4,-1.2 -1.4,-2.64 v -0.8 z"
         style=""
         id="path9564" />
      <path
         d="m 453.95187,113.86852 c -1.32,-2.88 -4.2,-4.32 -8.6,-4.32 -1.56,0 -3,0.2 -4.48,0.68 -3.15999,1.24 -4.71999,3.72 -4.71999,7.48 v 5.12 c 0,1.32 0.24,2.64 0.75999,3.92 1.36001,3.16 4.4,4.76 9.08,4.76 1.8,0 3.44,-0.08 4.84001,-0.24 2.23999,-0.36 3.35999,-0.56 3.35999,-0.64 v -5.36 h -0.04 c -2.52001,0.52 -4.92001,0.76 -7.20001,0.76 h -0.52 c -1.08,0 -1.76,-0.12 -2.36,-0.28 -0.88,-0.32 -1.32,-1.2 -1.32,-2.64 v -0.64 h 11.96001 v -0.12 -3.68 c 0,-2.04 -0.24001,-3.64 -0.76001,-4.8 z m -5.84,3.8 v 0.36 h -5.36 v -1 c 0,-1.64 0.76,-2.48 2.64001,-2.48 0.67999,0 1.27999,0.16 1.76,0.48 0.63999,0.28 0.95999,1.16 0.95999,2.64 z"
         style=""
         id="path9566" />
      <path
         d="m 467.07812,109.62852 c -4.04,0 -6.83999,1.32 -8.39999,3.96 -0.80001,1.12 -1.20001,3.2 -1.20001,6.24 v 1.44 c 0,2.52 0.24,4.28 0.72,5.32 1.4,3.28 4.36001,4.92 8.88,4.92 1.24,0 2.32,-0.08 3.24,-0.2 2.36001,-0.36 3.52,-0.6 3.52,-0.72 v -5.28 h -0.04 c -2.60001,0.48 -4.44001,0.76 -5.60001,0.76 h -0.48 c -1.56,0 -2.59999,-0.32 -3.08,-0.92 -0.39999,-0.32 -0.6,-1.36 -0.6,-3.16 v -2.72 c 0,-1.96 0.24,-3.08 0.68,-3.36 0.52001,-0.52 1.56,-0.8 3.12,-0.8 1.32,0 3.64,0.28 6,0.72 v -5.32 c -2.36,-0.6 -4.59999,-0.88 -6.76,-0.88 z"
         style=""
         id="path9568" />
      <path
         d="m 491.33875,126.50852 c -0.2,0 -2.28,-0.12 -3.44,-0.64 -1.44,-0.44 -1.44,-1.52 -1.44,-2.92 v -7.56 6.08 -6.08 h 4.32 l 0.68,-5.48 h -5 v -6.44 l -6.56,1.12 v 5.32 h -3.2 v 5.48 h 3.2 v 4.08 c 0,2.08 0.04,4.24 0.04,4.36 0,7.88 5.16,7.48 9.84,7.48 h 1.56 z"
         style=""
         id="path9570" />
      <path
         d="m 512.155,113.86852 c -1.32,-2.88 -4.2,-4.32 -8.6,-4.32 -1.56,0 -3,0.2 -4.48,0.68 -3.16,1.24 -4.72,3.72 -4.72,7.48 v 5.12 c 0,1.32 0.24,2.64 0.76,3.92 1.36,3.16 4.4,4.76 9.08,4.76 1.8,0 3.44,-0.08 4.84,-0.24 2.24,-0.36 3.36,-0.56 3.36,-0.64 v -5.36 h -0.04 c -2.52,0.52 -4.92,0.76 -7.2,0.76 h -0.52 c -1.08,0 -1.76,-0.12 -2.36,-0.28 -0.88,-0.32 -1.32,-1.2 -1.32,-2.64 v -0.64 h 11.96 v -0.12 -3.68 c 0,-2.04 -0.24,-3.64 -0.76,-4.8 z m -5.84,3.8 v 0.36 h -5.36 v -1 c 0,-1.64 0.76,-2.48 2.64,-2.48 0.68,0 1.28,0.16 1.76,0.48 0.64,0.28 0.96,1.16 0.96,2.64 z"
         style=""
         id="path9572" />
      <path
         d="m 515.60125,118.74852 v 2.12 c 0,3.44 0.28,5.6 0.8,6.44 0.16,0.52 0.6,1.16 1.36,1.96 1.6,1.48 4.32,2.24 8.2,2.24 2.72,0 5.56,-0.32 8.76,-0.84 v -30.56 l -6.52,1.16 c -0.04,2.04 -0.04,3.76 -0.04,5.24 0,2.52 -0.04,4.8 -0.04,3.88 -1.4,-0.44 -3.28,-0.76 -4.68,-0.8 -3.8,0 -6.16,1 -7.04,2.96 -0.52,0.92 -0.8,2.96 -0.8,6.2 z m 6.6,4.2 v -5.36 c 0,-1.36 0.64,-2.16 1.92,-2.4 l 0.48,-0.04 h 0.48 c 1.08,0 2.08,0.32 3.04,0.92 v 9.96 l -1.92,0.08 h -0.44 c -1.92,0 -3.04,-0.6 -3.4,-1.84 -0.12,-0.44 -0.16,-0.84 -0.16,-1.32 z"
         style=""
         id="path9574" />
      <path
         d="m 553.61,110.30852 v 4.56 26 l 6.6,-1.2 v -8.4 -0.72 c 0.4,0.16 0.84,0.28 1.32,0.4 0.84,0.2 2,0.4 3.4,0.4 3.8,0 6.16,-1 7,-3 0.52,-0.92 0.8,-2.96 0.8,-6.2 v -2.08 c 0,-3.44 -0.28,-5.04 -0.8,-6.44 -0.44,-0.96 -1.48,-2.84 -3.8,-3.6 -3.52,-1.08 -6.68,0.12 -8.76,1.2 -0.04,-0.28 -0.08,-0.6 -0.2,-0.96 -0.04,-0.12 -0.08,-0.28 -0.12,-0.44 h -5.44 z m 6.6,14.56 v -8.72 c 0.68,-0.28 1.32,-0.4 1.76,-0.52 0.28,-0.04 0.52,-0.08 0.72,-0.12 1.76,-0.28 2.88,0.32 3.24,1.56 0.12,0.32 0.16,0.76 0.16,1.32 v 4.96 c 0,1.32 -0.6,2.12 -1.84,2.4 l -0.56,0.04 h -0.4 c -0.96,0 -2,-0.32 -3.08,-0.92 z"
         style=""
         id="path9576" />
      <path
         d="m 593.405,113.86852 c -1.32,-2.88 -4.2,-4.32 -8.6,-4.32 -1.56,0 -3,0.2 -4.48,0.68 -3.16,1.24 -4.72,3.72 -4.72,7.48 v 5.12 c 0,1.32 0.24,2.64 0.76,3.92 1.36,3.16 4.4,4.76 9.08,4.76 1.8,0 3.44,-0.08 4.84,-0.24 2.24,-0.36 3.36,-0.56 3.36,-0.64 v -5.36 h -0.04 c -2.52,0.52 -4.92,0.76 -7.2,0.76 h -0.52 c -1.08,0 -1.76,-0.12 -2.36,-0.28 -0.88,-0.32 -1.32,-1.2 -1.32,-2.64 v -0.64 h 11.96 v -0.12 -3.68 c 0,-2.04 -0.24,-3.64 -0.76,-4.8 z m -5.84,3.8 v 0.36 h -5.36 v -1 c 0,-1.64 0.76,-2.48 2.64,-2.48 0.68,0 1.28,0.16 1.76,0.48 0.64,0.28 0.96,1.16 0.96,2.64 z"
         style=""
         id="path9578" />
      <path
         d="m 614.61125,114.70852 c -1.28,-3.36 -4.08,-5.12 -8.68,-5.12 h -0.64 c -1.4,0 -2.6,0.24 -3.84,0.6 -3.6,1.16 -5.4,3.84 -5.4,8 v 4.68 c 0,1.76 0.32,3.2 0.92,4.36 1.32,2.84 4.2,4.28 8.56,4.28 2.04,0 3.76,-0.32 5.2,-0.92 2.92,-1.28 4.4,-3.96 4.4,-8.08 v -3.92 c 0,-1.52 -0.16,-2.8 -0.52,-3.88 z m -6.04,3.64 v 4.36 c 0,0.6 -0.04,1 -0.04,1.36 -0.36,1.32 -1.32,2 -2.84,2 h -0.16 c -1.92,0 -2.88,-0.92 -2.88,-2.76 v -5.36 c 0,-0.6 0.08,-1 0.2,-1.36 0.48,-0.96 1.32,-1.44 2.48,-1.44 h 0.52 c 0.48,0 0.92,0.04 1.28,0.24 0.96,0.28 1.44,1.28 1.44,2.96 z"
         style=""
         id="path9580" />
      <path
         d="m 617.12563,110.30852 v 4.56 26 l 6.6,-1.2 v -8.4 -0.72 c 0.4,0.16 0.83999,0.28 1.31999,0.4 0.84,0.2 2,0.4 3.4,0.4 3.80001,0 6.16001,-1 7,-3 0.52001,-0.92 0.80001,-2.96 0.80001,-6.2 v -2.08 c 0,-3.44 -0.28,-5.04 -0.80001,-6.44 -0.44,-0.96 -1.47999,-2.84 -3.8,-3.6 -3.51999,-1.08 -6.67999,0.12 -8.76,1.2 -0.04,-0.28 -0.08,-0.6 -0.2,-0.96 -0.04,-0.12 -0.08,-0.28 -0.12,-0.44 h -5.43999 z m 6.6,14.56 v -8.72 c 0.67999,-0.28 1.31999,-0.4 1.76,-0.52 0.27999,-0.04 0.51999,-0.08 0.72,-0.12 1.76,-0.28 2.88,0.32 3.23999,1.56 0.12,0.32 0.16001,0.76 0.16001,1.32 v 4.96 c 0,1.32 -0.60001,2.12 -1.84001,2.4 l -0.55999,0.04 h -0.40001 c -0.95999,0 -2,-0.32 -3.07999,-0.92 z"
         style=""
         id="path9582" />
      <path
         d="m 645.64062,100.06852 -6.6,1.16 v 21.12 0.28 c 0,0.32 0,0.68 0.04,1.04 0.08,0.92 0.31999,1.84 0.67999,2.76 1.44,3.28 4.48001,4.92 9.12,4.92 0.60001,0 1,0 1.60001,-0.04 v -5.52 c -0.28001,0 -2.28001,0.04 -3.44001,-0.28 -0.91999,-0.32 -1.4,-1.2 -1.4,-2.64 v -0.8 z"
         style=""
         id="path9584" />
      <path
         d="m 670.35812,113.86852 c -1.31999,-2.88 -4.19999,-4.32 -8.6,-4.32 -1.56,0 -3,0.2 -4.47999,0.68 -3.16001,1.24 -4.72,3.72 -4.72,7.48 v 5.12 c 0,1.32 0.24,2.64 0.75999,3.92 1.36001,3.16 4.4,4.76 9.08001,4.76 1.79999,0 3.43999,-0.08 4.83999,-0.24 2.24,-0.36 3.36,-0.56 3.36,-0.64 v -5.36 h -0.04 c -2.52,0.52 -4.92001,0.76 -7.20001,0.76 h -0.52 c -1.08,0 -1.76,-0.12 -2.36,-0.28 -0.88,-0.32 -1.31999,-1.2 -1.31999,-2.64 v -0.64 h 11.95999 v -0.12 -3.68 c 0,-2.04 -0.24,-3.64 -0.76,-4.8 z m -5.83999,3.8 v 0.36 h -5.36 v -1 c 0,-1.64 0.76,-2.48 2.64,-2.48 0.67999,0 1.27999,0.16 1.76,0.48 0.63999,0.28 0.96,1.16 0.96,2.64 z"
         style=""
         id="path9586" />
      <path
         d="m 680.24437,106.54852 c 0.08,-0.16 0.16,-0.36 0.24,-0.56 0.12,-0.36 0.28,-0.88 0.28,-1.64 0,-0.92 0,-1.84 -0.76,-2.44 -0.67999,-0.56 -1.91999,-0.64 -2.67999,-0.64 -0.68001,0 -2.04001,0.12 -2.64,0.64 -0.76,0.6 -0.80001,1.52 -0.80001,2.44 0,0.92 0.04,1.76 0.80001,2.36 0.59999,0.6 1.52,0.68 2.28,0.8 l -1.4,3.8 1.91999,-0.08 z"
         style=""
         id="path9588" />
      <path
         d="m 700.97187,125.42852 c 0.12,-1.48 0.08,-3.2 -1.43999,-4.72 -2.84001,-2.68 -10.36001,-2.52 -9.44001,-4.68 0.76,-1.8 7.92001,-0.68 9.96,-0.24 l -0.6,-5.64 c -1.64,-0.28 -4.48,-0.64 -7.36,-0.52 -3.07999,0.12 -8.36,0.56 -9,6.12 -0.12,1.4 -0.08,3.24 1.52001,4.64 3.16,3 10.23999,2.56 9.43999,4.68 -0.84,2 -9.32,0.32 -10.79999,0 l 0.59999,5.72 c 1.64001,0.32 5,0.72 8.16001,0.72 3.12,-0.12 8.31999,-0.6 8.95999,-6.08 z"
         style=""
         id="path9590" />
      <path
         d="m 736.83125,125.42852 c 0.12,-1.48 0.08,-3.2 -1.44,-4.72 -2.84,-2.68 -10.36,-2.52 -9.44,-4.68 0.76,-1.8 7.92,-0.68 9.96,-0.24 l -0.6,-5.64 c -1.64,-0.28 -4.48,-0.64 -7.36,-0.52 -3.08,0.12 -8.36,0.56 -9,6.12 -0.12,1.4 -0.08,3.24 1.52,4.64 3.16,3 10.24,2.56 9.44,4.68 -0.84,2 -9.32,0.32 -10.8,0 l 0.6,5.72 c 1.64,0.32 5,0.72 8.16,0.72 3.12,-0.12 8.32,-0.6 8.96,-6.08 z"
         style=""
         id="path9592" />
      <path
         d="m 756.99875,113.86852 c -1.32,-2.88 -4.2,-4.32 -8.6,-4.32 -1.56,0 -3,0.2 -4.48,0.68 -3.16,1.24 -4.72,3.72 -4.72,7.48 v 5.12 c 0,1.32 0.24,2.64 0.76,3.92 1.36,3.16 4.4,4.76 9.08,4.76 1.8,0 3.44,-0.08 4.84,-0.24 2.24,-0.36 3.36,-0.56 3.36,-0.64 v -5.36 h -0.04 c -2.52,0.52 -4.92,0.76 -7.2,0.76 h -0.52 c -1.08,0 -1.76,-0.12 -2.36,-0.28 -0.88,-0.32 -1.32,-1.2 -1.32,-2.64 v -0.64 h 11.96 v -0.12 -3.68 c 0,-2.04 -0.24,-3.64 -0.76,-4.8 z m -5.84,3.8 v 0.36 h -5.36 v -1 c 0,-1.64 0.76,-2.48 2.64,-2.48 0.68,0 1.28,0.16 1.76,0.48 0.64,0.28 0.96,1.16 0.96,2.64 z"
         style=""
         id="path9594" />
      <path
         d="m 770.125,109.62852 c -4.04,0 -6.84,1.32 -8.4,3.96 -0.8,1.12 -1.2,3.2 -1.2,6.24 v 1.44 c 0,2.52 0.24,4.28 0.72,5.32 1.4,3.28 4.36,4.92 8.88,4.92 1.24,0 2.32,-0.08 3.24,-0.2 2.36,-0.36 3.52,-0.6 3.52,-0.72 v -5.28 h -0.04 c -2.6,0.48 -4.44,0.76 -5.6,0.76 h -0.48 c -1.56,0 -2.6,-0.32 -3.08,-0.92 -0.4,-0.32 -0.6,-1.36 -0.6,-3.16 v -2.72 c 0,-1.96 0.24,-3.08 0.68,-3.36 0.52,-0.52 1.56,-0.8 3.12,-0.8 1.32,0 3.64,0.28 6,0.72 v -5.32 c -2.36,-0.6 -4.6,-0.88 -6.76,-0.88 z"
         style=""
         id="path9596" />
      <path
         d="m 790.30562,109.86852 c -1.24,0.28 -2.24,0.56 -3.16,0.88 -0.76,0.28 -1,0.36 -1.51999,0.56 -0.12001,-0.44 -0.24001,-0.8 -0.36001,-1.08 -0.08,-0.16 -0.15999,-0.32 -0.2,-0.48 h -5.4 v 21.48 h 6.52 v -13.4 -1.08 c 1.76,-0.64 3.08,-1.08 4.04001,-1.28 l 0.43999,-0.08 c 0.52,-0.12 2,-0.24 2.80001,-0.2 l -0.64001,-5.64 c -0.83999,0.04 -1.68,0.12 -2.52,0.32 z"
         style=""
         id="path9598" />
      <path
         d="m 813.48312,113.86852 c -1.31999,-2.88 -4.19999,-4.32 -8.6,-4.32 -1.56,0 -3,0.2 -4.47999,0.68 -3.16001,1.24 -4.72,3.72 -4.72,7.48 v 5.12 c 0,1.32 0.24,2.64 0.75999,3.92 1.36001,3.16 4.4,4.76 9.08001,4.76 1.79999,0 3.43999,-0.08 4.83999,-0.24 2.24,-0.36 3.36,-0.56 3.36,-0.64 v -5.36 h -0.04 c -2.52,0.52 -4.92001,0.76 -7.20001,0.76 h -0.52 c -1.08,0 -1.76,-0.12 -2.36,-0.28 -0.88,-0.32 -1.31999,-1.2 -1.31999,-2.64 v -0.64 h 11.95999 v -0.12 -3.68 c 0,-2.04 -0.24,-3.64 -0.76,-4.8 z m -5.83999,3.8 v 0.36 h -5.36 v -1 c 0,-1.64 0.76,-2.48 2.64,-2.48 0.67999,0 1.27999,0.16 1.76,0.48 0.63999,0.28 0.96,1.16 0.96,2.64 z"
         style=""
         id="path9600" />
      <path
         d="m 831.72937,126.50852 c -0.2,0 -2.27999,-0.12 -3.44,-0.64 -1.44,-0.44 -1.44,-1.52 -1.44,-2.92 v -7.56 6.08 -6.08 h 4.32 l 0.68,-5.48 h -5 v -6.44 l -6.56,1.12 v 5.32 h -3.19999 v 5.48 h 3.19999 v 4.08 c 0,2.08 0.04,4.24 0.04,4.36 0,7.88 5.15999,7.48 9.83999,7.48 h 1.56 z"
         style=""
         id="path9602" />
      <path
         d="m 852.06562,125.42852 c 0.12,-1.48 0.08,-3.2 -1.43999,-4.72 -2.84001,-2.68 -10.36001,-2.52 -9.44001,-4.68 0.76,-1.8 7.92001,-0.68 9.96,-0.24 l -0.6,-5.64 c -1.64,-0.28 -4.48,-0.64 -7.36,-0.52 -3.07999,0.12 -8.36,0.56 -9,6.12 -0.12,1.4 -0.08,3.24 1.52001,4.64 3.16,3 10.23999,2.56 9.43999,4.68 -0.84,2 -9.32,0.32 -10.79999,0 l 0.59999,5.72 c 1.64001,0.32 5,0.72 8.16001,0.72 3.12,-0.12 8.31999,-0.6 8.95999,-6.08 z"
         style=""
         id="path9604" />
    </g>
  </g>
</svg>
