<?xml version="1.0" encoding="UTF-8" standalone="no"?>
<!-- Created with Inkscape (http://www.inkscape.org/) -->

<svg
   xmlns:dc="http://purl.org/dc/elements/1.1/"
   xmlns:cc="http://creativecommons.org/ns#"
   xmlns:rdf="http://www.w3.org/1999/02/22-rdf-syntax-ns#"
   xmlns:svg="http://www.w3.org/2000/svg"
   xmlns="http://www.w3.org/2000/svg"
   xmlns:sodipodi="http://sodipodi.sourceforge.net/DTD/sodipodi-0.dtd"
   xmlns:inkscape="http://www.inkscape.org/namespaces/inkscape"
   width="210mm"
   height="29mm"
   viewBox="0 0 210 29"
   version="1.1"
   id="svg17715"
   sodipodi:docname="text1.svg"
   inkscape:version="0.92.3 (unknown)">
  <defs
     id="defs17709" />
  <sodipodi:namedview
     id="base"
     pagecolor="#ffffff"
     bordercolor="#666666"
     borderopacity="1.0"
     inkscape:pageopacity="0.0"
     inkscape:pageshadow="2"
     inkscape:zoom="0.35"
     inkscape:cx="610.87535"
     inkscape:cy="-11.428571"
     inkscape:document-units="mm"
     inkscape:current-layer="layer1"
     showgrid="false"
     inkscape:pagecheckerboard="true"
     inkscape:window-width="1009"
     inkscape:window-height="717"
     inkscape:window-x="90"
     inkscape:window-y="46"
     inkscape:window-maximized="0" />
  <metadata
     id="metadata17712">
    <rdf:RDF>
      <cc:Work
         rdf:about="">
        <dc:format>image/svg+xml</dc:format>
        <dc:type
           rdf:resource="http://purl.org/dc/dcmitype/StillImage" />
        <dc:title />
      </cc:Work>
    </rdf:RDF>
  </metadata>
  <g
     inkscape:label="Layer 1"
     inkscape:groupmode="layer"
     id="layer1"
     transform="translate(0,-268)">
    <path
       inkscape:connector-curvature="0"
       id="path819"
       style="font-style:normal;font-variant:normal;font-weight:normal;font-stretch:normal;font-size:medium;line-height:1.25;font-family:'Facebook Letter Faces';-inkscape-font-specification:'Facebook Letter Faces, Normal';font-variant-ligatures:normal;font-variant-caps:normal;font-variant-numeric:normal;font-feature-settings:normal;text-align:start;letter-spacing:0px;word-spacing:0px;writing-mode:lr-tb;text-anchor:start;fill:#000000;fill-opacity:1;stroke:none;stroke-width:0.22629645"
       d="m 15.792351,279.60454 v -1.31252 h -1.620283 -1.737957 -1.602179 v 1.31252 h 1.602179 v 5.46732 h 1.737957 v -3.06858 -2.39874 z" />
    <path
       inkscape:connector-curvature="0"
       id="path821"
       style="font-style:normal;font-variant:normal;font-weight:normal;font-stretch:normal;font-size:medium;line-height:1.25;font-family:'Facebook Letter Faces';-inkscape-font-specification:'Facebook Letter Faces, Normal';font-variant-ligatures:normal;font-variant-caps:normal;font-variant-numeric:normal;font-feature-settings:normal;text-align:start;letter-spacing:0px;word-spacing:0px;writing-mode:lr-tb;text-anchor:start;fill:#000000;fill-opacity:1;stroke:none;stroke-width:0.22629645"
       d="m 20.634246,280.86275 c -0.208192,-0.44355 -0.742252,-0.66984 -1.602178,-0.66984 -0.244401,0 -0.660786,0.0453 -1.059068,0.18104 v -2.33538 l -1.493557,0.25345 v 6.78889 H 17.973 v -3.43065 c 0.2444,-0.13578 0.470697,-0.2082 0.687941,-0.2082 h 0.09957 l 0.135778,0.009 c 0.271555,0.0543 0.407333,0.23534 0.407333,0.54311 v 3.08668 h 1.502609 v -2.82418 c 0,-0.7513 -0.05431,-1.222 -0.171986,-1.39398 z" />
    <path
       inkscape:connector-curvature="0"
       id="path823"
       style="font-style:normal;font-variant:normal;font-weight:normal;font-stretch:normal;font-size:medium;line-height:1.25;font-family:'Facebook Letter Faces';-inkscape-font-specification:'Facebook Letter Faces, Normal';font-variant-ligatures:normal;font-variant-caps:normal;font-variant-numeric:normal;font-feature-settings:normal;text-align:start;letter-spacing:0px;word-spacing:0px;writing-mode:lr-tb;text-anchor:start;fill:#000000;fill-opacity:1;stroke:none;stroke-width:0.22629645"
       d="m 25.484911,281.14335 c -0.298711,-0.65173 -0.950445,-0.9776 -1.946149,-0.9776 -0.353023,0 -0.67889,0.0453 -1.013809,0.15388 -0.715096,0.28061 -1.068119,0.84183 -1.068119,1.6927 v 1.15864 c 0,0.29871 0.05431,0.59742 0.171985,0.88708 0.307764,0.7151 0.995705,1.07717 2.054772,1.07717 0.407334,0 0.77846,-0.0181 1.095275,-0.0543 0.506904,-0.0815 0.760356,-0.12672 0.760356,-0.14483 v -1.21295 h -0.0091 c -0.570267,0.11768 -1.113378,0.17199 -1.629334,0.17199 h -0.117674 c -0.2444,0 -0.398282,-0.0272 -0.53406,-0.0634 -0.199141,-0.0724 -0.298711,-0.27155 -0.298711,-0.59742 v -0.14483 h 2.706505 v -0.0272 -0.83277 c 0,-0.46165 -0.05431,-0.82372 -0.171985,-1.08623 z m -1.321571,0.85993 v 0.0815 h -1.212949 v -0.2263 c 0,-0.37113 0.171985,-0.56122 0.597422,-0.56122 0.153882,0 0.28966,0.0362 0.398282,0.10863 0.14483,0.0634 0.217245,0.2625 0.217245,0.59742 z" />
    <path
       inkscape:connector-curvature="0"
       id="path825"
       style="font-style:normal;font-variant:normal;font-weight:normal;font-stretch:normal;font-size:medium;line-height:1.25;font-family:'Facebook Letter Faces';-inkscape-font-specification:'Facebook Letter Faces, Normal';font-variant-ligatures:normal;font-variant-caps:normal;font-variant-numeric:normal;font-feature-settings:normal;text-align:start;letter-spacing:0px;word-spacing:0px;writing-mode:lr-tb;text-anchor:start;fill:#000000;fill-opacity:1;stroke:none;stroke-width:0.22629645"
       d="m 28.690683,280.23817 c -0.280607,0.0634 -0.506904,0.12672 -0.715096,0.19914 -0.171986,0.0634 -0.226297,0.0815 -0.343971,0.12672 -0.02716,-0.0996 -0.05431,-0.18103 -0.08147,-0.2444 -0.0181,-0.0362 -0.03621,-0.0724 -0.04526,-0.10862 h -1.222001 v 4.86085 h 1.475453 v -3.03237 -0.2444 c 0.398282,-0.14483 0.696993,-0.2444 0.914238,-0.28966 l 0.09957,-0.0181 c 0.117674,-0.0272 0.452593,-0.0543 0.63363,-0.0453 l -0.14483,-1.27631 c -0.190089,0.009 -0.380178,0.0272 -0.570267,0.0724 z" />
    <path
       inkscape:connector-curvature="0"
       id="path827"
       style="font-style:normal;font-variant:normal;font-weight:normal;font-stretch:normal;font-size:medium;line-height:1.25;font-family:'Facebook Letter Faces';-inkscape-font-specification:'Facebook Letter Faces, Normal';font-variant-ligatures:normal;font-variant-caps:normal;font-variant-numeric:normal;font-feature-settings:normal;text-align:start;letter-spacing:0px;word-spacing:0px;writing-mode:lr-tb;text-anchor:start;fill:#000000;fill-opacity:1;stroke:none;stroke-width:0.22629645"
       d="m 33.935671,281.14335 c -0.298712,-0.65173 -0.950448,-0.9776 -1.946151,-0.9776 -0.353022,0 -0.678889,0.0453 -1.013808,0.15388 -0.715097,0.28061 -1.068119,0.84183 -1.068119,1.6927 v 1.15864 c 0,0.29871 0.05431,0.59742 0.171985,0.88708 0.307763,0.7151 0.995704,1.07717 2.054772,1.07717 0.407333,0 0.778461,-0.0181 1.095273,-0.0543 0.506907,-0.0815 0.760357,-0.12672 0.760357,-0.14483 v -1.21295 h -0.0091 c -0.570267,0.11768 -1.113379,0.17199 -1.629336,0.17199 H 32.23387 c -0.2444,0 -0.398282,-0.0272 -0.53406,-0.0634 -0.199141,-0.0724 -0.298711,-0.27155 -0.298711,-0.59742 v -0.14483 h 2.706504 v -0.0272 -0.83277 c 0,-0.46165 -0.05431,-0.82372 -0.171983,-1.08623 z m -1.321573,0.85993 v 0.0815 h -1.212949 v -0.2263 c 0,-0.37113 0.171985,-0.56122 0.597423,-0.56122 0.153881,0 0.289659,0.0362 0.398282,0.10863 0.144829,0.0634 0.217244,0.2625 0.217244,0.59742 z" />
    <path
       inkscape:connector-curvature="0"
       id="path829"
       style="font-style:normal;font-variant:normal;font-weight:normal;font-stretch:normal;font-size:medium;line-height:1.25;font-family:'Facebook Letter Faces';-inkscape-font-specification:'Facebook Letter Faces, Normal';font-variant-ligatures:normal;font-variant-caps:normal;font-variant-numeric:normal;font-feature-settings:normal;text-align:start;letter-spacing:0px;word-spacing:0px;writing-mode:lr-tb;text-anchor:start;fill:#000000;fill-opacity:1;stroke:none;stroke-width:0.22629645"
       d="m 42.394207,281.33344 c -0.28966,-0.76035 -0.92329,-1.15864 -1.964253,-1.15864 h -0.14483 c -0.316815,0 -0.588371,0.0543 -0.868979,0.13578 -0.814667,0.26251 -1.222,0.86898 -1.222,1.81037 v 1.05907 c 0,0.39828 0.07241,0.72415 0.208192,0.98665 0.298712,0.64269 0.950445,0.96855 1.937098,0.96855 0.461645,0 0.850875,-0.0724 1.176742,-0.20819 0.660785,-0.28966 0.995704,-0.89613 0.995704,-1.82848 v -0.88708 c 0,-0.34397 -0.03621,-0.63363 -0.117674,-0.87803 z m -1.366831,0.82372 v 0.98665 c 0,0.13578 -0.0091,0.2263 -0.0091,0.30777 -0.08147,0.29871 -0.298711,0.45259 -0.642682,0.45259 h -0.03621 c -0.434489,0 -0.651734,-0.20819 -0.651734,-0.62458 v -1.21295 c 0,-0.13578 0.0181,-0.22629 0.04526,-0.30776 0.108622,-0.21725 0.298711,-0.32587 0.561215,-0.32587 h 0.117674 c 0.108622,0 0.208193,0.009 0.289659,0.0543 0.217245,0.0634 0.325867,0.28966 0.325867,0.66984 z" />
    <path
       inkscape:connector-curvature="0"
       id="path831"
       style="font-style:normal;font-variant:normal;font-weight:normal;font-stretch:normal;font-size:medium;line-height:1.25;font-family:'Facebook Letter Faces';-inkscape-font-specification:'Facebook Letter Faces, Normal';font-variant-ligatures:normal;font-variant-caps:normal;font-variant-numeric:normal;font-feature-settings:normal;text-align:start;letter-spacing:0px;word-spacing:0px;writing-mode:lr-tb;text-anchor:start;fill:#000000;fill-opacity:1;stroke:none;stroke-width:0.22629645"
       d="m 47.099899,280.84464 c -0.371126,-0.61552 -0.887082,-0.68794 -1.466401,-0.66078 -0.7332,0.0272 -1.212949,0.32586 -1.312517,0.37112 -0.02716,-0.0996 -0.06337,-0.16293 -0.09052,-0.22629 l -0.04526,-0.0905 h -1.231053 v 4.83369 h 1.484505 v -3.43971 c 0.2444,-0.14483 0.461645,-0.18103 0.63363,-0.20819 0.09957,-0.009 0.199141,0 0.289659,0.009 0.280608,0.0634 0.425438,0.2444 0.425438,0.54311 v 3.09574 h 1.493556 v -2.82418 c 0,-0.7513 -0.04526,-1.14959 -0.181037,-1.40304 z" />
    <path
       inkscape:connector-curvature="0"
       id="path833"
       style="font-style:normal;font-variant:normal;font-weight:normal;font-stretch:normal;font-size:medium;line-height:1.25;font-family:'Facebook Letter Faces';-inkscape-font-specification:'Facebook Letter Faces, Normal';font-variant-ligatures:normal;font-variant-caps:normal;font-variant-numeric:normal;font-feature-settings:normal;text-align:start;letter-spacing:0px;word-spacing:0px;writing-mode:lr-tb;text-anchor:start;fill:#000000;fill-opacity:1;stroke:none;stroke-width:0.22629645"
       d="m 50.094933,280.18386 c -0.914238,0 -1.547868,0.29871 -1.90089,0.89613 -0.181038,0.25345 -0.271556,0.72415 -0.271556,1.41209 v 0.32587 c 0,0.57026 0.05431,0.96855 0.162933,1.20389 0.316815,0.74226 0.986653,1.11338 2.009513,1.11338 0.280607,0 0.525008,-0.0181 0.7332,-0.0453 0.53406,-0.0815 0.796564,-0.13577 0.796564,-0.16293 v -1.19485 h -0.0091 c -0.588371,0.10863 -1.004756,0.17199 -1.26726,0.17199 h -0.108622 c -0.353023,0 -0.588371,-0.0724 -0.696993,-0.20819 -0.09052,-0.0724 -0.135778,-0.30777 -0.135778,-0.7151 v -0.61553 c 0,-0.44354 0.05431,-0.69699 0.153881,-0.76035 0.117674,-0.11768 0.353023,-0.18104 0.706045,-0.18104 0.298712,0 0.823719,0.0634 1.357779,0.16293 V 280.383 c -0.53406,-0.13578 -1.040964,-0.19914 -1.529764,-0.19914 z" />
    <path
       inkscape:connector-curvature="0"
       id="path835"
       style="font-style:normal;font-variant:normal;font-weight:normal;font-stretch:normal;font-size:medium;line-height:1.25;font-family:'Facebook Letter Faces';-inkscape-font-specification:'Facebook Letter Faces, Normal';font-variant-ligatures:normal;font-variant-caps:normal;font-variant-numeric:normal;font-feature-settings:normal;text-align:start;letter-spacing:0px;word-spacing:0px;writing-mode:lr-tb;text-anchor:start;fill:#000000;fill-opacity:1;stroke:none;stroke-width:0.22629645"
       d="m 56.300124,281.14335 c -0.298711,-0.65173 -0.950445,-0.9776 -1.946149,-0.9776 -0.353023,0 -0.67889,0.0453 -1.013808,0.15388 -0.715097,0.28061 -1.06812,0.84183 -1.06812,1.6927 v 1.15864 c 0,0.29871 0.05431,0.59742 0.171986,0.88708 0.307763,0.7151 0.995704,1.07717 2.054772,1.07717 0.407333,0 0.778459,-0.0181 1.095274,-0.0543 0.506904,-0.0815 0.760357,-0.12672 0.760357,-0.14483 v -1.21295 h -0.0091 c -0.570267,0.11768 -1.113379,0.17199 -1.629335,0.17199 h -0.117674 c -0.2444,0 -0.398282,-0.0272 -0.53406,-0.0634 -0.199141,-0.0724 -0.298711,-0.27155 -0.298711,-0.59742 v -0.14483 h 2.706506 v -0.0272 -0.83277 c 0,-0.46165 -0.05431,-0.82372 -0.171986,-1.08623 z m -1.321571,0.85993 v 0.0815 h -1.212949 v -0.2263 c 0,-0.37113 0.171985,-0.56122 0.597423,-0.56122 0.153881,0 0.289659,0.0362 0.398281,0.10863 0.14483,0.0634 0.217245,0.2625 0.217245,0.59742 z" />
    <path
       inkscape:connector-curvature="0"
       id="path837"
       style="font-style:normal;font-variant:normal;font-weight:normal;font-stretch:normal;font-size:medium;line-height:1.25;font-family:'Facebook Letter Faces';-inkscape-font-specification:'Facebook Letter Faces, Normal';font-variant-ligatures:normal;font-variant-caps:normal;font-variant-numeric:normal;font-feature-settings:normal;text-align:start;letter-spacing:0px;word-spacing:0px;writing-mode:lr-tb;text-anchor:start;fill:#000000;fill-opacity:1;stroke:none;stroke-width:0.22629645"
       d="M 67.890606,280.25627 H 66.36084 l -0.769408,3.03237 -0.706045,-3.03237 h -1.330624 l -0.706045,3.03237 -0.778459,-3.03237 h -1.520713 l 1.41209,4.81559 h 1.620283 l 0.642682,-2.13624 0.624578,2.13624 h 1.629335 z" />
    <path
       inkscape:connector-curvature="0"
       id="path839"
       style="font-style:normal;font-variant:normal;font-weight:normal;font-stretch:normal;font-size:medium;line-height:1.25;font-family:'Facebook Letter Faces';-inkscape-font-specification:'Facebook Letter Faces, Normal';font-variant-ligatures:normal;font-variant-caps:normal;font-variant-numeric:normal;font-feature-settings:normal;text-align:start;letter-spacing:0px;word-spacing:0px;writing-mode:lr-tb;text-anchor:start;fill:#000000;fill-opacity:1;stroke:none;stroke-width:0.22629645"
       d="m 72.180196,280.96232 c -0.226297,-0.4707 -0.814668,-0.70605 -1.765113,-0.70605 h -1.493556 l -0.135778,1.23105 h 1.393986 c 0.262504,0 0.452593,0.0362 0.561215,0.11768 0.09957,0.0543 0.14483,0.2444 0.14483,0.57932 v 0.16293 h -0.696993 c -0.67889,0 -1.104327,0.0543 -1.276312,0.17199 -0.407334,0.19008 -0.615527,0.57026 -0.615527,1.15863 v 0.0362 c 0,0.33492 0.09052,0.63363 0.262504,0.89613 0.262504,0.34398 0.615527,0.51596 1.059068,0.51596 h 0.126726 c 0.461644,0 0.896134,-0.12673 1.330623,-0.35302 0.0091,0.0724 0.0181,0.14483 0.04526,0.20819 0.0091,0.0272 0.0181,0.0634 0.02716,0.0905 h 1.231052 v -2.96901 c 0,-0.47975 -0.06336,-0.85993 -0.19914,-1.14053 z m -1.294416,2.37158 v 0.54311 c -0.262504,0.11768 -0.497852,0.19915 -0.687941,0.19915 -0.271556,0 -0.407334,-0.13578 -0.407334,-0.39829 0,-0.12672 0.02716,-0.20819 0.07242,-0.25345 0.06336,-0.0634 0.235348,-0.0905 0.525008,-0.0905 z" />
    <path
       inkscape:connector-curvature="0"
       id="path841"
       style="font-style:normal;font-variant:normal;font-weight:normal;font-stretch:normal;font-size:medium;line-height:1.25;font-family:'Facebook Letter Faces';-inkscape-font-specification:'Facebook Letter Faces, Normal';font-variant-ligatures:normal;font-variant-caps:normal;font-variant-numeric:normal;font-feature-settings:normal;text-align:start;letter-spacing:0px;word-spacing:0px;writing-mode:lr-tb;text-anchor:start;fill:#000000;fill-opacity:1;stroke:none;stroke-width:0.22629645"
       d="m 76.911772,283.75934 c 0.02716,-0.33492 0.0181,-0.72415 -0.325867,-1.06812 -0.642682,-0.60647 -2.344432,-0.57027 -2.136239,-1.05907 0.171986,-0.40733 1.792268,-0.15388 2.253913,-0.0543 l -0.135778,-1.27631 c -0.371126,-0.0634 -1.013808,-0.14483 -1.665542,-0.11767 -0.696993,0.0272 -1.891838,0.12672 -2.036668,1.38493 -0.02716,0.31682 -0.0181,0.7332 0.343971,1.05002 0.715096,0.67889 2.317275,0.57931 2.136238,1.05906 -0.190089,0.4526 -2.109083,0.0724 -2.444002,0 l 0.135778,1.29442 c 0.371126,0.0724 1.131483,0.16293 1.846579,0.16293 0.706045,-0.0272 1.882787,-0.13578 2.027617,-1.37588 z" />
    <path
       inkscape:connector-curvature="0"
       id="path843"
       style="font-style:normal;font-variant:normal;font-weight:normal;font-stretch:normal;font-size:medium;line-height:1.25;font-family:'Facebook Letter Faces';-inkscape-font-specification:'Facebook Letter Faces, Normal';font-variant-ligatures:normal;font-variant-caps:normal;font-variant-numeric:normal;font-feature-settings:normal;text-align:start;letter-spacing:0px;word-spacing:0px;writing-mode:lr-tb;text-anchor:start;fill:#000000;fill-opacity:1;stroke:none;stroke-width:0.22629645"
       d="m 84.927052,280.96232 c -0.226296,-0.4707 -0.81467,-0.70605 -1.765115,-0.70605 h -1.493556 l -0.135776,1.23105 h 1.393984 c 0.262504,0 0.452593,0.0362 0.561215,0.11768 0.09957,0.0543 0.14483,0.2444 0.14483,0.57932 v 0.16293 h -0.696993 c -0.678889,0 -1.104327,0.0543 -1.27631,0.17199 -0.407336,0.19008 -0.615529,0.57026 -0.615529,1.15863 v 0.0362 c 0,0.33492 0.09052,0.63363 0.262507,0.89613 0.262501,0.34398 0.615524,0.51596 1.059067,0.51596 h 0.126726 c 0.461643,0 0.896132,-0.12673 1.330623,-0.35302 0.0091,0.0724 0.0181,0.14483 0.04526,0.20819 0.0091,0.0272 0.0181,0.0634 0.02716,0.0905 h 1.231053 v -2.96901 c 0,-0.47975 -0.06336,-0.85993 -0.199139,-1.14053 z m -1.294418,2.37158 v 0.54311 c -0.262502,0.11768 -0.497852,0.19915 -0.687939,0.19915 -0.271558,0 -0.407336,-0.13578 -0.407336,-0.39829 0,-0.12672 0.02716,-0.20819 0.07242,-0.25345 0.06336,-0.0634 0.235351,-0.0905 0.525008,-0.0905 z" />
    <path
       inkscape:connector-curvature="0"
       id="path845"
       style="font-style:normal;font-variant:normal;font-weight:normal;font-stretch:normal;font-size:medium;line-height:1.25;font-family:'Facebook Letter Faces';-inkscape-font-specification:'Facebook Letter Faces, Normal';font-variant-ligatures:normal;font-variant-caps:normal;font-variant-numeric:normal;font-feature-settings:normal;text-align:start;letter-spacing:0px;word-spacing:0px;writing-mode:lr-tb;text-anchor:start;fill:#000000;fill-opacity:1;stroke:none;stroke-width:0.22629645"
       d="m 92.711791,284.00374 c -0.04526,0 -0.515956,-0.0272 -0.77846,-0.14483 -0.325867,-0.0996 -0.325867,-0.34397 -0.325867,-0.66079 v -1.7108 1.37589 -1.37589 h 0.977601 l 0.153881,-1.2401 h -1.131482 v -1.45735 l -1.484505,0.25345 v 1.2039 H 89.39881 v 1.2401 h 0.724149 v 0.92329 c 0,0.4707 0.0091,0.9595 0.0091,0.98666 0,1.78321 1.16769,1.69269 2.226757,1.69269 h 0.353023 z" />
    <path
       inkscape:connector-curvature="0"
       id="path847"
       style="font-style:normal;font-variant:normal;font-weight:normal;font-stretch:normal;font-size:medium;line-height:1.25;font-family:'Facebook Letter Faces';-inkscape-font-specification:'Facebook Letter Faces, Normal';font-variant-ligatures:normal;font-variant-caps:normal;font-variant-numeric:normal;font-feature-settings:normal;text-align:start;letter-spacing:0px;word-spacing:0px;writing-mode:lr-tb;text-anchor:start;fill:#000000;fill-opacity:1;stroke:none;stroke-width:0.22629645"
       d="m 97.522005,280.86275 c -0.208193,-0.44355 -0.742253,-0.66984 -1.602179,-0.66984 -0.2444,0 -0.660786,0.0453 -1.059068,0.18104 v -2.33538 l -1.493556,0.25345 v 6.78889 h 1.493556 v -3.43065 c 0.2444,-0.13578 0.470697,-0.2082 0.687942,-0.2082 h 0.09957 l 0.135778,0.009 c 0.271556,0.0543 0.407333,0.23534 0.407333,0.54311 v 3.08668 h 1.502609 v -2.82418 c 0,-0.7513 -0.05431,-1.222 -0.171985,-1.39398 z" />
    <path
       inkscape:connector-curvature="0"
       id="path849"
       style="font-style:normal;font-variant:normal;font-weight:normal;font-stretch:normal;font-size:medium;line-height:1.25;font-family:'Facebook Letter Faces';-inkscape-font-specification:'Facebook Letter Faces, Normal';font-variant-ligatures:normal;font-variant-caps:normal;font-variant-numeric:normal;font-feature-settings:normal;text-align:start;letter-spacing:0px;word-spacing:0px;writing-mode:lr-tb;text-anchor:start;fill:#000000;fill-opacity:1;stroke:none;stroke-width:0.22629645"
       d="m 99.639008,278.49116 c -0.135778,-0.13578 -0.380178,-0.15388 -0.588371,-0.15388 -0.208192,0 -0.443541,0.0181 -0.615526,0.15388 -0.14483,0.13578 -0.162934,0.38923 -0.162934,0.54311 0,0.17199 0.0181,0.39828 0.162934,0.53406 0.171985,0.13578 0.434489,0.15388 0.615526,0.15388 0.171986,0 0.452593,-0.0181 0.588371,-0.15388 0.171985,-0.13578 0.190089,-0.35302 0.190089,-0.53406 0,-0.17199 -0.0181,-0.40733 -0.190089,-0.54311 z m -1.339675,1.76511 h 1.493557 v 4.81559 h -1.493557 z" />
    <path
       inkscape:connector-curvature="0"
       id="path851"
       style="font-style:normal;font-variant:normal;font-weight:normal;font-stretch:normal;font-size:medium;line-height:1.25;font-family:'Facebook Letter Faces';-inkscape-font-specification:'Facebook Letter Faces, Normal';font-variant-ligatures:normal;font-variant-caps:normal;font-variant-numeric:normal;font-feature-settings:normal;text-align:start;letter-spacing:0px;word-spacing:0px;writing-mode:lr-tb;text-anchor:start;fill:#000000;fill-opacity:1;stroke:none;stroke-width:0.22629645"
       d="m 104.52263,280.84464 c -0.37113,-0.61552 -0.88708,-0.68794 -1.4664,-0.66078 -0.7332,0.0272 -1.21295,0.32586 -1.31252,0.37112 -0.0272,-0.0996 -0.0634,-0.16293 -0.0905,-0.22629 l -0.0453,-0.0905 h -1.23106 v 4.83369 h 1.48451 v -3.43971 c 0.2444,-0.14483 0.46165,-0.18103 0.63363,-0.20819 0.0996,-0.009 0.19914,0 0.28966,0.009 0.28061,0.0634 0.42544,0.2444 0.42544,0.54311 v 3.09574 h 1.49355 v -2.82418 c 0,-0.7513 -0.0453,-1.14959 -0.18103,-1.40304 z" />
    <path
       inkscape:connector-curvature="0"
       id="path853"
       style="font-style:normal;font-variant:normal;font-weight:normal;font-stretch:normal;font-size:medium;line-height:1.25;font-family:'Facebook Letter Faces';-inkscape-font-specification:'Facebook Letter Faces, Normal';font-variant-ligatures:normal;font-variant-caps:normal;font-variant-numeric:normal;font-feature-settings:normal;text-align:start;letter-spacing:0px;word-spacing:0px;writing-mode:lr-tb;text-anchor:start;fill:#000000;fill-opacity:1;stroke:none;stroke-width:0.22629645"
       d="m 109.68105,284.95419 v -4.72507 H 108.45 c -0.009,0.0362 -0.0181,0.0724 -0.0272,0.0996 -0.0272,0.0634 -0.0362,0.13577 -0.0362,0.20819 -0.47975,-0.26251 -1.19485,-0.4888 -2.00046,-0.27156 -0.55217,0.17199 -0.76036,0.58837 -0.85993,0.81467 -0.13577,0.29871 -0.18104,0.68794 -0.18104,1.45735 v 0.47975 c 0,0.7513 0.0634,1.222 0.18104,1.39398 0.20819,0.44354 0.7332,0.66984 1.59313,0.66984 0.31681,0 0.58837,-0.0362 0.77846,-0.0815 0.10862,-0.0272 0.20819,-0.0543 0.29871,-0.0905 v 0.16293 c 0,0.31681 -0.10862,0.5069 -0.31681,0.58837 -0.11768,0.0453 -0.28967,0.0724 -0.53407,0.0724 H 107.228 c -0.49785,0 -1.03191,-0.0453 -1.62028,-0.16294 l -0.009,0.009 v 1.19485 c 0,0.0181 0.25345,0.0634 0.76035,0.14483 0.30776,0.0362 0.66984,0.0543 1.07717,0.0543 1.06812,0 1.75606,-0.36207 2.07288,-1.08622 0.0815,-0.2082 0.13578,-0.42544 0.16293,-0.64269 v -0.17198 c 0,-0.0362 0,-0.0724 0.009,-0.11767 z m -1.4845,-3.31298 v 1.98235 c -0.2444,0.14483 -0.4888,0.21725 -0.7151,0.21725 h -0.0905 l -0.11767,-0.0181 c -0.28966,-0.0543 -0.43449,-0.23535 -0.43449,-0.54311 v -1.14958 c 0,-0.0996 0.0181,-0.19009 0.0453,-0.28061 0.0815,-0.28966 0.33492,-0.40734 0.74225,-0.35302 0.0453,0.009 0.0996,0.0181 0.16294,0.0272 0.0996,0.0272 0.23534,0.0543 0.40733,0.11768 z" />
    <path
       inkscape:connector-curvature="0"
       id="path855"
       style="font-style:normal;font-variant:normal;font-weight:normal;font-stretch:normal;font-size:medium;line-height:1.25;font-family:'Facebook Letter Faces';-inkscape-font-specification:'Facebook Letter Faces, Normal';font-variant-ligatures:normal;font-variant-caps:normal;font-variant-numeric:normal;font-feature-settings:normal;text-align:start;letter-spacing:0px;word-spacing:0px;writing-mode:lr-tb;text-anchor:start;fill:#000000;fill-opacity:1;stroke:none;stroke-width:0.22629645"
       d="m 116.16289,280.18386 c -0.91424,0 -1.54787,0.29871 -1.90089,0.89613 -0.18103,0.25345 -0.27155,0.72415 -0.27155,1.41209 v 0.32587 c 0,0.57026 0.0543,0.96855 0.16293,1.20389 0.31682,0.74226 0.98665,1.11338 2.00951,1.11338 0.28061,0 0.52501,-0.0181 0.7332,-0.0453 0.53406,-0.0815 0.79657,-0.13577 0.79657,-0.16293 v -1.19485 h -0.009 c -0.58837,0.10863 -1.00475,0.17199 -1.26726,0.17199 h -0.10862 c -0.35302,0 -0.58837,-0.0724 -0.69699,-0.20819 -0.0905,-0.0724 -0.13578,-0.30777 -0.13578,-0.7151 v -0.61553 c 0,-0.44354 0.0543,-0.69699 0.15388,-0.76035 0.11768,-0.11768 0.35303,-0.18104 0.70605,-0.18104 0.29871,0 0.82372,0.0634 1.35778,0.16293 V 280.383 c -0.53406,-0.13578 -1.04097,-0.19914 -1.52977,-0.19914 z" />
    <path
       inkscape:connector-curvature="0"
       id="path857"
       style="font-style:normal;font-variant:normal;font-weight:normal;font-stretch:normal;font-size:medium;line-height:1.25;font-family:'Facebook Letter Faces';-inkscape-font-specification:'Facebook Letter Faces, Normal';font-variant-ligatures:normal;font-variant-caps:normal;font-variant-numeric:normal;font-feature-settings:normal;text-align:start;letter-spacing:0px;word-spacing:0px;writing-mode:lr-tb;text-anchor:start;fill:#000000;fill-opacity:1;stroke:none;stroke-width:0.22629645"
       d="m 122.15989,280.96232 c -0.2263,-0.4707 -0.81467,-0.70605 -1.76511,-0.70605 h -1.49356 l -0.13578,1.23105 h 1.39399 c 0.2625,0 0.45259,0.0362 0.56121,0.11768 0.0996,0.0543 0.14483,0.2444 0.14483,0.57932 v 0.16293 h -0.69699 c -0.67889,0 -1.10433,0.0543 -1.27631,0.17199 -0.40734,0.19008 -0.61553,0.57026 -0.61553,1.15863 v 0.0362 c 0,0.33492 0.0905,0.63363 0.26251,0.89613 0.2625,0.34398 0.61552,0.51596 1.05907,0.51596 h 0.12672 c 0.46164,0 0.89613,-0.12673 1.33062,-0.35302 0.009,0.0724 0.0181,0.14483 0.0453,0.20819 0.009,0.0272 0.0181,0.0634 0.0272,0.0905 h 1.23105 v -2.96901 c 0,-0.47975 -0.0634,-0.85993 -0.19914,-1.14053 z m -1.29442,2.37158 v 0.54311 c -0.2625,0.11768 -0.49785,0.19915 -0.68794,0.19915 -0.27155,0 -0.40733,-0.13578 -0.40733,-0.39829 0,-0.12672 0.0272,-0.20819 0.0724,-0.25345 0.0634,-0.0634 0.23535,-0.0905 0.52501,-0.0905 z" />
    <path
       inkscape:connector-curvature="0"
       id="path859"
       style="font-style:normal;font-variant:normal;font-weight:normal;font-stretch:normal;font-size:medium;line-height:1.25;font-family:'Facebook Letter Faces';-inkscape-font-specification:'Facebook Letter Faces, Normal';font-variant-ligatures:normal;font-variant-caps:normal;font-variant-numeric:normal;font-feature-settings:normal;text-align:start;letter-spacing:0px;word-spacing:0px;writing-mode:lr-tb;text-anchor:start;fill:#000000;fill-opacity:1;stroke:none;stroke-width:0.22629645"
       d="m 124.44746,278.02046 -1.49355,0.26251 v 4.77938 0.0634 c 0,0.0724 0,0.15388 0.009,0.23535 0.0181,0.20819 0.0724,0.41638 0.15388,0.62458 0.32587,0.74225 1.01381,1.11338 2.06382,1.11338 0.13578,0 0.2263,0 0.36208,-0.009 v -1.24915 c -0.0634,0 -0.51596,0.009 -0.77846,-0.0634 -0.20819,-0.0724 -0.31682,-0.27155 -0.31682,-0.59742 v -0.18104 z" />
    <path
       inkscape:connector-curvature="0"
       id="path861"
       style="font-style:normal;font-variant:normal;font-weight:normal;font-stretch:normal;font-size:medium;line-height:1.25;font-family:'Facebook Letter Faces';-inkscape-font-specification:'Facebook Letter Faces, Normal';font-variant-ligatures:normal;font-variant-caps:normal;font-variant-numeric:normal;font-feature-settings:normal;text-align:start;letter-spacing:0px;word-spacing:0px;writing-mode:lr-tb;text-anchor:start;fill:#000000;fill-opacity:1;stroke:none;stroke-width:0.22629645"
       d="m 127.48832,278.02046 -1.49355,0.26251 v 4.77938 0.0634 c 0,0.0724 0,0.15388 0.009,0.23535 0.0181,0.20819 0.0724,0.41638 0.15388,0.62458 0.32586,0.74225 1.01381,1.11338 2.06382,1.11338 0.13578,0 0.2263,0 0.36208,-0.009 v -1.24915 c -0.0634,0 -0.51596,0.009 -0.77847,-0.0634 -0.20819,-0.0724 -0.31681,-0.27155 -0.31681,-0.59742 v -0.18104 z" />
    <path
       inkscape:connector-curvature="0"
       id="path863"
       style="font-style:normal;font-variant:normal;font-weight:normal;font-stretch:normal;font-size:medium;line-height:1.25;font-family:'Facebook Letter Faces';-inkscape-font-specification:'Facebook Letter Faces, Normal';font-variant-ligatures:normal;font-variant-caps:normal;font-variant-numeric:normal;font-feature-settings:normal;text-align:start;letter-spacing:0px;word-spacing:0px;writing-mode:lr-tb;text-anchor:start;fill:#000000;fill-opacity:1;stroke:none;stroke-width:0.22629645"
       d="m 133.0818,281.14335 c -0.2987,-0.65173 -0.95044,-0.9776 -1.94614,-0.9776 -0.35303,0 -0.67889,0.0453 -1.01381,0.15388 -0.7151,0.28061 -1.06812,0.84183 -1.06812,1.6927 v 1.15864 c 0,0.29871 0.0543,0.59742 0.17198,0.88708 0.30777,0.7151 0.99571,1.07717 2.05478,1.07717 0.40733,0 0.77845,-0.0181 1.09527,-0.0543 0.5069,-0.0815 0.76036,-0.12672 0.76036,-0.14483 v -1.21295 h -0.009 c -0.57026,0.11768 -1.11338,0.17199 -1.62933,0.17199 h -0.11768 c -0.2444,0 -0.39828,-0.0272 -0.53406,-0.0634 -0.19914,-0.0724 -0.29871,-0.27155 -0.29871,-0.59742 v -0.14483 h 2.70651 v -0.0272 -0.83277 c 0,-0.46165 -0.0543,-0.82372 -0.17199,-1.08623 z m -1.32156,0.85993 v 0.0815 h -1.21295 v -0.2263 c 0,-0.37113 0.17198,-0.56122 0.59742,-0.56122 0.15388,0 0.28966,0.0362 0.39828,0.10863 0.14483,0.0634 0.21725,0.2625 0.21725,0.59742 z" />
    <path
       inkscape:connector-curvature="0"
       id="path865"
       style="font-style:normal;font-variant:normal;font-weight:normal;font-stretch:normal;font-size:medium;line-height:1.25;font-family:'Facebook Letter Faces';-inkscape-font-specification:'Facebook Letter Faces, Normal';font-variant-ligatures:normal;font-variant-caps:normal;font-variant-numeric:normal;font-feature-settings:normal;text-align:start;letter-spacing:0px;word-spacing:0px;writing-mode:lr-tb;text-anchor:start;fill:#000000;fill-opacity:1;stroke:none;stroke-width:0.22629645"
       d="m 133.86168,282.24768 v 0.47975 c 0,0.77846 0.0634,1.26726 0.18104,1.45735 0.0362,0.11767 0.13578,0.2625 0.30776,0.44354 0.36208,0.33492 0.9776,0.5069 1.85563,0.5069 0.61553,0 1.25821,-0.0724 1.98236,-0.19009 v -6.91562 l -1.47546,0.26251 c -0.009,0.46164 -0.009,0.85087 -0.009,1.18579 0,0.57027 -0.009,1.08622 -0.009,0.87803 -0.31681,-0.0996 -0.74225,-0.17198 -1.05907,-0.18104 -0.85992,0 -1.39399,0.2263 -1.59313,0.66984 -0.11767,0.20819 -0.18103,0.66984 -0.18103,1.40304 z m 1.49356,0.95044 v -1.21294 c 0,-0.30777 0.14483,-0.4888 0.43449,-0.54312 l 0.10862,-0.009 h 0.10862 c 0.2444,0 0.4707,0.0724 0.68794,0.2082 v 2.25391 l -0.43449,0.0181 h -0.0996 c -0.43449,0 -0.68794,-0.13578 -0.7694,-0.41638 -0.0272,-0.0996 -0.0362,-0.19009 -0.0362,-0.29872 z" />
    <path
       inkscape:connector-curvature="0"
       id="path867"
       style="font-style:normal;font-variant:normal;font-weight:normal;font-stretch:normal;font-size:medium;line-height:1.25;font-family:'Facebook Letter Faces';-inkscape-font-specification:'Facebook Letter Faces, Normal';font-variant-ligatures:normal;font-variant-caps:normal;font-variant-numeric:normal;font-feature-settings:normal;text-align:start;letter-spacing:0px;word-spacing:0px;writing-mode:lr-tb;text-anchor:start;fill:#000000;fill-opacity:1;stroke:none;stroke-width:0.22629645"
       d="m 146.4729,281.33344 c -0.28966,-0.76035 -0.92329,-1.15864 -1.96426,-1.15864 h -0.14483 c -0.31681,0 -0.58837,0.0543 -0.86897,0.13578 -0.81467,0.26251 -1.222,0.86898 -1.222,1.81037 v 1.05907 c 0,0.39828 0.0724,0.72415 0.20819,0.98665 0.29871,0.64269 0.95044,0.96855 1.9371,0.96855 0.46164,0 0.85087,-0.0724 1.17674,-0.20819 0.66078,-0.28966 0.9957,-0.89613 0.9957,-1.82848 v -0.88708 c 0,-0.34397 -0.0362,-0.63363 -0.11767,-0.87803 z m -1.36683,0.82372 v 0.98665 c 0,0.13578 -0.009,0.2263 -0.009,0.30777 -0.0815,0.29871 -0.29872,0.45259 -0.64269,0.45259 h -0.0362 c -0.43449,0 -0.65174,-0.20819 -0.65174,-0.62458 v -1.21295 c 0,-0.13578 0.0181,-0.22629 0.0453,-0.30776 0.10862,-0.21725 0.29871,-0.32587 0.56122,-0.32587 h 0.11767 c 0.10862,0 0.20819,0.009 0.28966,0.0543 0.21725,0.0634 0.32587,0.28966 0.32587,0.66984 z" />
    <path
       inkscape:connector-curvature="0"
       id="path869"
       style="font-style:normal;font-variant:normal;font-weight:normal;font-stretch:normal;font-size:medium;line-height:1.25;font-family:'Facebook Letter Faces';-inkscape-font-specification:'Facebook Letter Faces, Normal';font-variant-ligatures:normal;font-variant-caps:normal;font-variant-numeric:normal;font-feature-settings:normal;text-align:start;letter-spacing:0px;word-spacing:0px;writing-mode:lr-tb;text-anchor:start;fill:#000000;fill-opacity:1;stroke:none;stroke-width:0.22629645"
       d="m 151.17859,280.84464 c -0.37112,-0.61552 -0.88708,-0.68794 -1.4664,-0.66078 -0.7332,0.0272 -1.21295,0.32586 -1.31252,0.37112 -0.0271,-0.0996 -0.0634,-0.16293 -0.0905,-0.22629 l -0.0453,-0.0905 h -1.23105 v 4.83369 h 1.48451 v -3.43971 c 0.2444,-0.14483 0.46164,-0.18103 0.63363,-0.20819 0.0996,-0.009 0.19914,0 0.28966,0.009 0.2806,0.0634 0.42543,0.2444 0.42543,0.54311 v 3.09574 h 1.49356 v -2.82418 c 0,-0.7513 -0.0453,-1.14959 -0.18104,-1.40304 z" />
    <path
       inkscape:connector-curvature="0"
       id="path871"
       style="font-style:normal;font-variant:normal;font-weight:normal;font-stretch:normal;font-size:medium;line-height:1.25;font-family:'Facebook Letter Faces';-inkscape-font-specification:'Facebook Letter Faces, Normal';font-variant-ligatures:normal;font-variant-caps:normal;font-variant-numeric:normal;font-feature-settings:normal;text-align:start;letter-spacing:0px;word-spacing:0px;writing-mode:lr-tb;text-anchor:start;fill:#000000;fill-opacity:1;stroke:none;stroke-width:0.22629645"
       d="m 153.49474,278.02046 -1.49356,0.26251 v 4.77938 0.0634 c 0,0.0724 0,0.15388 0.009,0.23535 0.0181,0.20819 0.0724,0.41638 0.15388,0.62458 0.32587,0.74225 1.01381,1.11338 2.06383,1.11338 0.13578,0 0.22629,0 0.36207,-0.009 v -1.24915 c -0.0634,0 -0.51595,0.009 -0.77846,-0.0634 -0.20819,-0.0724 -0.31681,-0.27155 -0.31681,-0.59742 v -0.18104 z" />
    <path
       inkscape:connector-curvature="0"
       id="path873"
       style="font-style:normal;font-variant:normal;font-weight:normal;font-stretch:normal;font-size:medium;line-height:1.25;font-family:'Facebook Letter Faces';-inkscape-font-specification:'Facebook Letter Faces, Normal';font-variant-ligatures:normal;font-variant-caps:normal;font-variant-numeric:normal;font-feature-settings:normal;text-align:start;letter-spacing:0px;word-spacing:0px;writing-mode:lr-tb;text-anchor:start;fill:#000000;fill-opacity:1;stroke:none;stroke-width:0.22629645"
       d="m 156.35456,278.49116 c -0.13578,-0.13578 -0.38018,-0.15388 -0.58837,-0.15388 -0.2082,0 -0.44354,0.0181 -0.61553,0.15388 -0.14483,0.13578 -0.16293,0.38923 -0.16293,0.54311 0,0.17199 0.0181,0.39828 0.16293,0.53406 0.17199,0.13578 0.43449,0.15388 0.61553,0.15388 0.17198,0 0.45259,-0.0181 0.58837,-0.15388 0.17198,-0.13578 0.19009,-0.35302 0.19009,-0.53406 0,-0.17199 -0.0181,-0.40733 -0.19009,-0.54311 z m -1.33968,1.76511 h 1.49356 v 4.81559 h -1.49356 z" />
    <path
       inkscape:connector-curvature="0"
       id="path875"
       style="font-style:normal;font-variant:normal;font-weight:normal;font-stretch:normal;font-size:medium;line-height:1.25;font-family:'Facebook Letter Faces';-inkscape-font-specification:'Facebook Letter Faces, Normal';font-variant-ligatures:normal;font-variant-caps:normal;font-variant-numeric:normal;font-feature-settings:normal;text-align:start;letter-spacing:0px;word-spacing:0px;writing-mode:lr-tb;text-anchor:start;fill:#000000;fill-opacity:1;stroke:none;stroke-width:0.22629645"
       d="m 161.23818,280.84464 c -0.37113,-0.61552 -0.88708,-0.68794 -1.4664,-0.66078 -0.73321,0.0272 -1.21295,0.32586 -1.31252,0.37112 -0.0272,-0.0996 -0.0634,-0.16293 -0.0905,-0.22629 l -0.0453,-0.0905 h -1.23105 v 4.83369 h 1.4845 v -3.43971 c 0.2444,-0.14483 0.46164,-0.18103 0.63363,-0.20819 0.0996,-0.009 0.19914,0 0.28966,0.009 0.28061,0.0634 0.42544,0.2444 0.42544,0.54311 v 3.09574 h 1.49356 v -2.82418 c 0,-0.7513 -0.0453,-1.14959 -0.18104,-1.40304 z" />
    <path
       inkscape:connector-curvature="0"
       id="path877"
       style="font-style:normal;font-variant:normal;font-weight:normal;font-stretch:normal;font-size:medium;line-height:1.25;font-family:'Facebook Letter Faces';-inkscape-font-specification:'Facebook Letter Faces, Normal';font-variant-ligatures:normal;font-variant-caps:normal;font-variant-numeric:normal;font-feature-settings:normal;text-align:start;letter-spacing:0px;word-spacing:0px;writing-mode:lr-tb;text-anchor:start;fill:#000000;fill-opacity:1;stroke:none;stroke-width:0.22629645"
       d="m 166.10694,281.14335 c -0.2987,-0.65173 -0.95044,-0.9776 -1.94614,-0.9776 -0.35303,0 -0.67889,0.0453 -1.01381,0.15388 -0.7151,0.28061 -1.06812,0.84183 -1.06812,1.6927 v 1.15864 c 0,0.29871 0.0543,0.59742 0.17198,0.88708 0.30777,0.7151 0.99571,1.07717 2.05478,1.07717 0.40733,0 0.77845,-0.0181 1.09527,-0.0543 0.5069,-0.0815 0.76036,-0.12672 0.76036,-0.14483 v -1.21295 h -0.009 c -0.57026,0.11768 -1.11338,0.17199 -1.62933,0.17199 h -0.11768 c -0.2444,0 -0.39828,-0.0272 -0.53406,-0.0634 -0.19914,-0.0724 -0.29871,-0.27155 -0.29871,-0.59742 v -0.14483 h 2.70651 v -0.0272 -0.83277 c 0,-0.46165 -0.0543,-0.82372 -0.17199,-1.08623 z m -1.32156,0.85993 v 0.0815 h -1.21295 v -0.2263 c 0,-0.37113 0.17198,-0.56122 0.59742,-0.56122 0.15388,0 0.28966,0.0362 0.39828,0.10863 0.14483,0.0634 0.21725,0.2625 0.21725,0.59742 z" />
    <path
       inkscape:connector-curvature="0"
       id="path879"
       style="font-style:normal;font-variant:normal;font-weight:normal;font-stretch:normal;font-size:medium;line-height:1.25;font-family:'Facebook Letter Faces';-inkscape-font-specification:'Facebook Letter Faces, Normal';font-variant-ligatures:normal;font-variant-caps:normal;font-variant-numeric:normal;font-feature-settings:normal;text-align:start;letter-spacing:0px;word-spacing:0px;writing-mode:lr-tb;text-anchor:start;fill:#000000;fill-opacity:1;stroke:none;stroke-width:0.22629645"
       d="m 170.55551,280.33774 v 1.03191 5.88371 l 1.49356,-0.27156 v -1.90089 -0.16293 c 0.0905,0.0362 0.19009,0.0634 0.29871,0.0905 0.19009,0.0453 0.45259,0.0905 0.76941,0.0905 0.85992,0 1.39398,-0.2263 1.58407,-0.67889 0.11768,-0.2082 0.18104,-0.66984 0.18104,-1.40304 v -0.4707 c 0,-0.77846 -0.0634,-1.14053 -0.18104,-1.45735 -0.0996,-0.21724 -0.33492,-0.64268 -0.85993,-0.81467 -0.79656,-0.2444 -1.51166,0.0272 -1.98235,0.27156 -0.009,-0.0634 -0.0181,-0.13578 -0.0453,-0.21724 -0.009,-0.0272 -0.0181,-0.0634 -0.0272,-0.0996 h -1.23105 z m 1.49356,3.29487 v -1.9733 c 0.15388,-0.0634 0.29871,-0.0905 0.39828,-0.11768 0.0634,-0.009 0.11767,-0.0181 0.16293,-0.0272 0.39828,-0.0634 0.65174,0.0724 0.7332,0.35302 0.0272,0.0724 0.0362,0.17199 0.0362,0.29871 v 1.12243 c 0,0.29871 -0.13578,0.47975 -0.41639,0.54311 l -0.12672,0.009 h -0.0905 c -0.21725,0 -0.45259,-0.0724 -0.69699,-0.2082 z" />
    <path
       inkscape:connector-curvature="0"
       id="path881"
       style="font-style:normal;font-variant:normal;font-weight:normal;font-stretch:normal;font-size:medium;line-height:1.25;font-family:'Facebook Letter Faces';-inkscape-font-specification:'Facebook Letter Faces, Normal';font-variant-ligatures:normal;font-variant-caps:normal;font-variant-numeric:normal;font-feature-settings:normal;text-align:start;letter-spacing:0px;word-spacing:0px;writing-mode:lr-tb;text-anchor:start;fill:#000000;fill-opacity:1;stroke:none;stroke-width:0.22629645"
       d="m 177.92259,280.23817 c -0.28061,0.0634 -0.5069,0.12672 -0.7151,0.19914 -0.17198,0.0634 -0.22629,0.0815 -0.34397,0.12672 -0.0272,-0.0996 -0.0543,-0.18103 -0.0815,-0.2444 -0.0181,-0.0362 -0.0362,-0.0724 -0.0453,-0.10862 h -1.222 v 4.86085 h 1.47545 v -3.03237 -0.2444 c 0.39828,-0.14483 0.69699,-0.2444 0.91424,-0.28966 l 0.0996,-0.0181 c 0.11767,-0.0272 0.45259,-0.0543 0.63363,-0.0453 l -0.14483,-1.27631 c -0.19009,0.009 -0.38018,0.0272 -0.57027,0.0724 z" />
    <path
       inkscape:connector-curvature="0"
       id="path883"
       style="font-style:normal;font-variant:normal;font-weight:normal;font-stretch:normal;font-size:medium;line-height:1.25;font-family:'Facebook Letter Faces';-inkscape-font-specification:'Facebook Letter Faces, Normal';font-variant-ligatures:normal;font-variant-caps:normal;font-variant-numeric:normal;font-feature-settings:normal;text-align:start;letter-spacing:0px;word-spacing:0px;writing-mode:lr-tb;text-anchor:start;fill:#000000;fill-opacity:1;stroke:none;stroke-width:0.22629645"
       d="m 180.43392,278.49116 c -0.13578,-0.13578 -0.38018,-0.15388 -0.58837,-0.15388 -0.2082,0 -0.44355,0.0181 -0.61553,0.15388 -0.14483,0.13578 -0.16293,0.38923 -0.16293,0.54311 0,0.17199 0.0181,0.39828 0.16293,0.53406 0.17198,0.13578 0.43449,0.15388 0.61553,0.15388 0.17198,0 0.45259,-0.0181 0.58837,-0.15388 0.17198,-0.13578 0.19009,-0.35302 0.19009,-0.53406 0,-0.17199 -0.0181,-0.40733 -0.19009,-0.54311 z m -1.33968,1.76511 h 1.49356 v 4.81559 h -1.49356 z" />
    <path
       inkscape:connector-curvature="0"
       id="path885"
       style="font-style:normal;font-variant:normal;font-weight:normal;font-stretch:normal;font-size:medium;line-height:1.25;font-family:'Facebook Letter Faces';-inkscape-font-specification:'Facebook Letter Faces, Normal';font-variant-ligatures:normal;font-variant-caps:normal;font-variant-numeric:normal;font-feature-settings:normal;text-align:start;letter-spacing:0px;word-spacing:0px;writing-mode:lr-tb;text-anchor:start;fill:#000000;fill-opacity:1;stroke:none;stroke-width:0.22629645"
       d="m 186.14125,280.24722 h -1.61123 l -1.00475,3.24056 -1.03192,-3.24056 h -1.62028 l 1.7108,4.82464 h 1.9009 z" />
    <path
       inkscape:connector-curvature="0"
       id="path887"
       style="font-style:normal;font-variant:normal;font-weight:normal;font-stretch:normal;font-size:medium;line-height:1.25;font-family:'Facebook Letter Faces';-inkscape-font-specification:'Facebook Letter Faces, Normal';font-variant-ligatures:normal;font-variant-caps:normal;font-variant-numeric:normal;font-feature-settings:normal;text-align:start;letter-spacing:0px;word-spacing:0px;writing-mode:lr-tb;text-anchor:start;fill:#000000;fill-opacity:1;stroke:none;stroke-width:0.22629645"
       d="m 190.29634,280.96232 c -0.2263,-0.4707 -0.81467,-0.70605 -1.76511,-0.70605 h -1.49356 l -0.13578,1.23105 h 1.39399 c 0.2625,0 0.45259,0.0362 0.56121,0.11768 0.0996,0.0543 0.14483,0.2444 0.14483,0.57932 v 0.16293 h -0.69699 c -0.67889,0 -1.10433,0.0543 -1.27631,0.17199 -0.40734,0.19008 -0.61553,0.57026 -0.61553,1.15863 v 0.0362 c 0,0.33492 0.0905,0.63363 0.26251,0.89613 0.2625,0.34398 0.61552,0.51596 1.05906,0.51596 h 0.12673 c 0.46164,0 0.89613,-0.12673 1.33062,-0.35302 0.009,0.0724 0.0181,0.14483 0.0453,0.20819 0.009,0.0272 0.0181,0.0634 0.0272,0.0905 h 1.23105 v -2.96901 c 0,-0.47975 -0.0634,-0.85993 -0.19914,-1.14053 z m -1.29442,2.37158 v 0.54311 c -0.2625,0.11768 -0.49785,0.19915 -0.68794,0.19915 -0.27155,0 -0.40733,-0.13578 -0.40733,-0.39829 0,-0.12672 0.0271,-0.20819 0.0724,-0.25345 0.0634,-0.0634 0.23535,-0.0905 0.52501,-0.0905 z" />
    <path
       inkscape:connector-curvature="0"
       id="path889"
       style="font-style:normal;font-variant:normal;font-weight:normal;font-stretch:normal;font-size:medium;line-height:1.25;font-family:'Facebook Letter Faces';-inkscape-font-specification:'Facebook Letter Faces, Normal';font-variant-ligatures:normal;font-variant-caps:normal;font-variant-numeric:normal;font-feature-settings:normal;text-align:start;letter-spacing:0px;word-spacing:0px;writing-mode:lr-tb;text-anchor:start;fill:#000000;fill-opacity:1;stroke:none;stroke-width:0.22629645"
       d="m 193.2628,280.18386 c -0.91423,0 -1.54787,0.29871 -1.90089,0.89613 -0.18103,0.25345 -0.27155,0.72415 -0.27155,1.41209 v 0.32587 c 0,0.57026 0.0543,0.96855 0.16293,1.20389 0.31682,0.74226 0.98665,1.11338 2.00951,1.11338 0.28061,0 0.52501,-0.0181 0.7332,-0.0453 0.53407,-0.0815 0.79657,-0.13577 0.79657,-0.16293 v -1.19485 h -0.009 c -0.58837,0.10863 -1.00475,0.17199 -1.26726,0.17199 h -0.10862 c -0.35302,0 -0.58837,-0.0724 -0.69699,-0.20819 -0.0905,-0.0724 -0.13578,-0.30777 -0.13578,-0.7151 v -0.61553 c 0,-0.44354 0.0543,-0.69699 0.15388,-0.76035 0.11767,-0.11768 0.35303,-0.18104 0.70605,-0.18104 0.29871,0 0.82371,0.0634 1.35777,0.16293 V 280.383 c -0.53406,-0.13578 -1.04096,-0.19914 -1.52976,-0.19914 z" />
    <path
       inkscape:connector-curvature="0"
       id="path891"
       style="font-style:normal;font-variant:normal;font-weight:normal;font-stretch:normal;font-size:medium;line-height:1.25;font-family:'Facebook Letter Faces';-inkscape-font-specification:'Facebook Letter Faces, Normal';font-variant-ligatures:normal;font-variant-caps:normal;font-variant-numeric:normal;font-feature-settings:normal;text-align:start;letter-spacing:0px;word-spacing:0px;writing-mode:lr-tb;text-anchor:start;fill:#000000;fill-opacity:1;stroke:none;stroke-width:0.22629645"
       d="m 200.63568,280.25627 h -1.62933 l -0.9595,2.97806 -1.12243,-2.97806 h -1.65649 l 2.00046,4.81559 c 0,0.33492 -0.10862,0.53406 -0.31681,0.58837 -0.10862,0.0362 -0.28061,0.0815 -0.52501,0.0815 h -0.0996 c -0.14483,0 -0.28061,-0.009 -0.41639,-0.0181 v 1.24011 c 0.19009,0.009 0.39829,0.0181 0.61553,0.0181 0.4707,0 0.85087,-0.0634 1.17674,-0.19914 0.76941,-0.36207 1.02286,-1.14959 1.222,-1.7108 0.0996,-0.27156 0.52501,-1.49356 0.93234,-2.61599 0.23535,-0.66078 0.49786,-1.39398 0.77846,-2.1996 z" />
    <path
       inkscape:connector-curvature="0"
       id="path893"
       style="font-style:normal;font-variant:normal;font-weight:normal;font-stretch:normal;font-size:medium;line-height:1.25;font-family:'Facebook Letter Faces';-inkscape-font-specification:'Facebook Letter Faces, Normal';font-variant-ligatures:normal;font-variant-caps:normal;font-variant-numeric:normal;font-feature-settings:normal;text-align:start;letter-spacing:0px;word-spacing:0px;writing-mode:lr-tb;text-anchor:start;fill:#000000;fill-opacity:1;stroke:none;stroke-width:0.22629645"
       d="m 201.89347,283.72313 c -0.2082,0 -0.4526,0.009 -0.58837,0.15388 -0.17199,0.13578 -0.19914,0.38018 -0.19914,0.53406 0,0.18104 0.0271,0.43449 0.19914,0.55217 0.13577,0.13578 0.41638,0.16293 0.58837,0.16293 0.17198,0 0.45259,-0.0272 0.59742,-0.16293 0.17199,-0.11768 0.19009,-0.37113 0.19009,-0.55217 0,-0.15388 -0.0181,-0.39828 -0.19009,-0.53406 -0.14483,-0.14483 -0.38923,-0.15388 -0.59742,-0.15388 z" />
  </g>
</svg>
