<?xml version="1.0" encoding="UTF-8" standalone="no"?>
<!-- Created with Inkscape (http://www.inkscape.org/) -->

<svg
   xmlns:dc="http://purl.org/dc/elements/1.1/"
   xmlns:cc="http://creativecommons.org/ns#"
   xmlns:rdf="http://www.w3.org/1999/02/22-rdf-syntax-ns#"
   xmlns:svg="http://www.w3.org/2000/svg"
   xmlns="http://www.w3.org/2000/svg"
   xmlns:sodipodi="http://sodipodi.sourceforge.net/DTD/sodipodi-0.dtd"
   xmlns:inkscape="http://www.inkscape.org/namespaces/inkscape"
   width="210mm"
   height="29mm"
   viewBox="0 0 210 29"
   version="1.1"
   id="svg17715"
   sodipodi:docname="text5.svg"
   inkscape:version="0.92.2 (5c3e80d, 2017-08-06)">
  <defs
     id="defs17709" />
  <sodipodi:namedview
     id="base"
     pagecolor="#ffffff"
     bordercolor="#666666"
     borderopacity="1.0"
     inkscape:pageopacity="0.0"
     inkscape:pageshadow="2"
     inkscape:zoom="0.35"
     inkscape:cx="-75.455568"
     inkscape:cy="-11.428571"
     inkscape:document-units="mm"
     inkscape:current-layer="layer1"
     showgrid="false"
     inkscape:pagecheckerboard="true"
     inkscape:window-width="1009"
     inkscape:window-height="717"
     inkscape:window-x="465"
     inkscape:window-y="150"
     inkscape:window-maximized="0" />
  <metadata
     id="metadata17712">
    <rdf:RDF>
      <cc:Work
         rdf:about="">
        <dc:format>image/svg+xml</dc:format>
        <dc:type
           rdf:resource="http://purl.org/dc/dcmitype/StillImage" />
        <dc:title />
      </cc:Work>
    </rdf:RDF>
  </metadata>
  <g
     inkscape:label="Layer 1"
     inkscape:groupmode="layer"
     id="layer1"
     transform="translate(0,-268)">
    <g
       aria-label="Zucc realized he could use these secrets to make money"
       transform="matrix(0.22960508,0,0,0.22960508,3.1236986,249.37436)"
       style="font-style:normal;font-variant:normal;font-weight:normal;font-stretch:normal;font-size:40px;line-height:1.25;font-family:'Facebook Letter Faces';-inkscape-font-specification:'Facebook Letter Faces, Normal';font-variant-ligatures:normal;font-variant-caps:normal;font-variant-numeric:normal;font-feature-settings:normal;text-align:start;letter-spacing:0px;word-spacing:0px;writing-mode:lr-tb;text-anchor:start;opacity:1;fill:#000000;fill-opacity:1;stroke:none"
       id="flowRoot17609">
      <path
         d="m 25.259375,131.22852 0.84,-6 h -12 l 12.96,-23.96 h -22.28 l -0.6,5.8 h 11.32 l -13.16,24.16 z"
         style=""
         id="path7044" />
      <path
         d="m 29.724375,128.50852 c 1.72,2.76 4,3.12 6.64,3 3.24,-0.12 5.4,-1.4 5.92,-1.6 0.12,0.44 0.24,0.68 0.36,0.96 l 0.24,0.36 h 5.48 v -21.32 h -6.64 l -0.04,15.08 c -1.08,0.68 -2.12,0.88 -2.88,0.92 -0.44,0.04 -0.88,0 -1.28,-0.04 -1.28,-0.28 -1.92,-1.12 -1.92,-2.44 v -13.52 h -6.68 v 12.32 c 0,3.36 0.2,5.04 0.8,6.28 z"
         style=""
         id="path7046" />
      <path
         d="m 60.828125,109.62852 c -4.04,0 -6.84,1.32 -8.4,3.96 -0.8,1.12 -1.2,3.2 -1.2,6.24 v 1.44 c 0,2.52 0.24,4.28 0.72,5.32 1.4,3.28 4.36,4.92 8.88,4.92 1.24,0 2.32,-0.08 3.24,-0.2 2.36,-0.36 3.52,-0.6 3.52,-0.72 v -5.28 h -0.04 c -2.6,0.48 -4.44,0.76 -5.6,0.76 h -0.48 c -1.56,0 -2.6,-0.32 -3.08,-0.92 -0.4,-0.32 -0.6,-1.36 -0.6,-3.16 v -2.72 c 0,-1.96 0.24,-3.08 0.68,-3.36 0.52,-0.52 1.56,-0.8 3.12,-0.8 1.32,0 3.64,0.28 6,0.72 v -5.32 c -2.36,-0.6 -4.6,-0.88 -6.76,-0.88 z"
         style=""
         id="path7048" />
      <path
         d="m 79.96875,109.62852 c -4.04,0 -6.84,1.32 -8.4,3.96 -0.8,1.12 -1.2,3.2 -1.2,6.24 v 1.44 c 0,2.52 0.24,4.28 0.72,5.32 1.4,3.28 4.36,4.92 8.88,4.92 1.24,0 2.32,-0.08 3.24,-0.2 2.36,-0.36 3.52,-0.6 3.52,-0.72 v -5.28 h -0.04 c -2.6,0.48 -4.44,0.76 -5.6,0.76 h -0.48 c -1.56,0 -2.6,-0.32 -3.08,-0.92 -0.4,-0.32 -0.6,-1.36 -0.6,-3.16 v -2.72 c 0,-1.96 0.24,-3.08 0.68,-3.36 0.52,-0.52 1.56,-0.8 3.12,-0.8 1.32,0 3.64,0.28 6,0.72 v -5.32 c -2.36,-0.6 -4.6,-0.88 -6.76,-0.88 z"
         style=""
         id="path7050" />
      <path
         d="m 116.32125,109.86852 c -1.24,0.28 -2.24,0.56 -3.16,0.88 -0.76,0.28 -1,0.36 -1.52,0.56 -0.12,-0.44 -0.24,-0.8 -0.36,-1.08 -0.08,-0.16 -0.16,-0.32 -0.2,-0.48 h -5.4 v 21.48 h 6.52 v -13.4 -1.08 c 1.76,-0.64 3.08,-1.08 4.04,-1.28 l 0.44,-0.08 c 0.52,-0.12 2,-0.24 2.8,-0.2 l -0.64,-5.64 c -0.84,0.04 -1.68,0.12 -2.52,0.32 z"
         style=""
         id="path7052" />
      <path
         d="m 139.49875,113.86852 c -1.32,-2.88 -4.2,-4.32 -8.6,-4.32 -1.56,0 -3,0.2 -4.48,0.68 -3.16,1.24 -4.72,3.72 -4.72,7.48 v 5.12 c 0,1.32 0.24,2.64 0.76,3.92 1.36,3.16 4.4,4.76 9.08,4.76 1.8,0 3.44,-0.08 4.84,-0.24 2.24,-0.36 3.36,-0.56 3.36,-0.64 v -5.36 h -0.04 c -2.52,0.52 -4.92,0.76 -7.2,0.76 h -0.52 c -1.08,0 -1.76,-0.12 -2.36,-0.28 -0.88,-0.32 -1.32,-1.2 -1.32,-2.64 v -0.64 h 11.96 v -0.12 -3.68 c 0,-2.04 -0.24,-3.64 -0.76,-4.8 z m -5.84,3.8 v 0.36 h -5.36 v -1 c 0,-1.64 0.76,-2.48 2.64,-2.48 0.68,0 1.28,0.16 1.76,0.48 0.64,0.28 0.96,1.16 0.96,2.64 z"
         style=""
         id="path7054" />
      <path
         d="m 159.985,113.06852 c -1,-2.08 -3.6,-3.12 -7.8,-3.12 h -6.6 l -0.6,5.44 h 6.16 c 1.16,0 2,0.16 2.48,0.52 0.44,0.24 0.64,1.08 0.64,2.56 v 0.72 h -3.08 c -3,0 -4.88,0.24 -5.64,0.76 -1.8,0.84 -2.72,2.52 -2.72,5.12 v 0.16 c 0,1.48 0.4,2.8 1.16,3.96 1.16,1.52 2.72,2.28 4.68,2.28 h 0.56 c 2.04,0 3.96,-0.56 5.88,-1.56 0.04,0.32 0.08,0.64 0.2,0.92 0.04,0.12 0.08,0.28 0.12,0.4 h 5.44 v -13.12 c 0,-2.12 -0.28,-3.8 -0.88,-5.04 z m -5.72,10.48 v 2.4 c -1.16,0.52 -2.2,0.88 -3.04,0.88 -1.2,0 -1.8,-0.6 -1.8,-1.76 0,-0.56 0.12,-0.92 0.32,-1.12 0.28,-0.28 1.04,-0.4 2.32,-0.4 z"
         style=""
         id="path7056" />
      <path
         d="m 170.09375,100.06852 -6.6,1.16 v 21.12 0.28 c 0,0.32 0,0.68 0.04,1.04 0.08,0.92 0.32,1.84 0.68,2.76 1.44,3.28 4.48,4.92 9.12,4.92 0.6,0 1,0 1.6,-0.04 v -5.52 c -0.28,0 -2.28,0.04 -3.44,-0.28 -0.92,-0.32 -1.4,-1.2 -1.4,-2.64 v -0.8 z"
         style=""
         id="path7058" />
      <path
         d="m 182.73125,102.14852 c -0.6,-0.6 -1.68,-0.68 -2.6,-0.68 -0.92,0 -1.96,0.08 -2.72,0.68 -0.64,0.6 -0.72,1.72 -0.72,2.4 0,0.76 0.08,1.76 0.72,2.36 0.76,0.6 1.92,0.68 2.72,0.68 0.76,0 2,-0.08 2.6,-0.68 0.76,-0.6 0.84,-1.56 0.84,-2.36 0,-0.76 -0.08,-1.8 -0.84,-2.4 z m -5.92,7.8 h 6.6 v 21.28 h -6.6 z"
         style=""
         id="path7060" />
      <path
         d="m 195.91187,125.78852 9.08,-15.84 h -17.72 l -0.76,5.52 h 8.36 l -9.64,15.76 h 18.32 l 0.6,-5.44 z"
         style=""
         id="path7062" />
      <path
         d="m 224.73312,113.86852 c -1.32,-2.88 -4.2,-4.32 -8.6,-4.32 -1.56,0 -3,0.2 -4.48,0.68 -3.16,1.24 -4.72,3.72 -4.72,7.48 v 5.12 c 0,1.32 0.24,2.64 0.76,3.92 1.36,3.16 4.4,4.76 9.08,4.76 1.8,0 3.44,-0.08 4.84,-0.24 2.24,-0.36 3.36,-0.56 3.36,-0.64 v -5.36 h -0.04 c -2.52,0.52 -4.92,0.76 -7.2,0.76 h -0.52 c -1.08,0 -1.76,-0.12 -2.36,-0.28 -0.88,-0.32 -1.32,-1.2 -1.32,-2.64 v -0.64 h 11.96 v -0.12 -3.68 c 0,-2.04 -0.24,-3.64 -0.76,-4.8 z m -5.84,3.8 v 0.36 h -5.36 v -1 c 0,-1.64 0.76,-2.48 2.64,-2.48 0.68,0 1.28,0.16 1.76,0.48 0.64,0.28 0.96,1.16 0.96,2.64 z"
         style=""
         id="path7064" />
      <path
         d="m 228.17937,118.74852 v 2.12 c 0,3.44 0.28,5.6 0.8,6.44 0.16,0.52 0.6,1.16 1.36,1.96 1.6,1.48 4.32,2.24 8.2,2.24 2.72,0 5.56,-0.32 8.76,-0.84 v -30.56 l -6.51999,1.16 c -0.04,2.04 -0.04,3.76 -0.04,5.24 0,2.52 -0.04,4.8 -0.04,3.88 -1.4,-0.44 -3.28,-0.76 -4.68,-0.8 -3.79999,0 -6.16,1 -7.04,2.96 -0.52,0.92 -0.8,2.96 -0.8,6.2 z m 6.6,4.2 v -5.36 c 0,-1.36 0.64,-2.16 1.92,-2.4 l 0.48,-0.04 h 0.48 c 1.08,0 2.08,0.32 3.04,0.92 v 9.96 l -1.92,0.08 h -0.44 c -1.92,0 -3.04,-0.6 -3.4,-1.84 -0.12,-0.44 -0.16,-0.84 -0.16,-1.32 z"
         style=""
         id="path7066" />
      <path
         d="m 284.54813,112.62852 c -0.92001,-1.96 -3.28001,-2.96 -7.08001,-2.96 -1.08,0 -2.91999,0.2 -4.68,0.8 v -10.32 l -6.59999,1.12 v 30 h 6.59999 v -15.16 c 1.08001,-0.6 2.08001,-0.92 3.04,-0.92 h 0.44 l 0.60001,0.04 c 1.19999,0.24 1.79999,1.04 1.79999,2.4 v 13.64 h 6.64001 v -12.48 c 0,-3.32 -0.24001,-5.4 -0.76,-6.16 z"
         style=""
         id="path7068" />
      <path
         d="m 305.98312,113.86852 c -1.32,-2.88 -4.2,-4.32 -8.6,-4.32 -1.56,0 -3,0.2 -4.48,0.68 -3.15999,1.24 -4.71999,3.72 -4.71999,7.48 v 5.12 c 0,1.32 0.24,2.64 0.75999,3.92 1.36001,3.16 4.4,4.76 9.08,4.76 1.8,0 3.44,-0.08 4.84001,-0.24 2.23999,-0.36 3.35999,-0.56 3.35999,-0.64 v -5.36 h -0.04 c -2.52001,0.52 -4.92001,0.76 -7.20001,0.76 h -0.52 c -1.08,0 -1.76,-0.12 -2.36,-0.28 -0.88,-0.32 -1.32,-1.2 -1.32,-2.64 v -0.64 h 11.96001 v -0.12 -3.68 c 0,-2.04 -0.24001,-3.64 -0.76001,-4.8 z m -5.84,3.8 v 0.36 h -5.36 v -1 c 0,-1.64 0.76,-2.48 2.64001,-2.48 0.67999,0 1.27999,0.16 1.76,0.48 0.63999,0.28 0.95999,1.16 0.95999,2.64 z"
         style=""
         id="path7070" />
      <path
         d="m 335.28125,109.62852 c -4.04,0 -6.84,1.32 -8.4,3.96 -0.8,1.12 -1.2,3.2 -1.2,6.24 v 1.44 c 0,2.52 0.24,4.28 0.72,5.32 1.4,3.28 4.36,4.92 8.88,4.92 1.24,0 2.32,-0.08 3.24,-0.2 2.36,-0.36 3.52,-0.6 3.52,-0.72 v -5.28 h -0.04 c -2.6,0.48 -4.44,0.76 -5.6,0.76 h -0.48 c -1.56,0 -2.6,-0.32 -3.08,-0.92 -0.4,-0.32 -0.6,-1.36 -0.6,-3.16 v -2.72 c 0,-1.96 0.24,-3.08 0.68,-3.36 0.52,-0.52 1.56,-0.8 3.12,-0.8 1.32,0 3.64,0.28 6,0.72 v -5.32 c -2.36,-0.6 -4.6,-0.88 -6.76,-0.88 z"
         style=""
         id="path7072" />
      <path
         d="m 362.50187,114.70852 c -1.28,-3.36 -4.08,-5.12 -8.68,-5.12 h -0.64 c -1.39999,0 -2.59999,0.24 -3.83999,0.6 -3.60001,1.16 -5.40001,3.84 -5.40001,8 v 4.68 c 0,1.76 0.32,3.2 0.92,4.36 1.32,2.84 4.2,4.28 8.56,4.28 2.04001,0 3.76,-0.32 5.2,-0.92 2.92,-1.28 4.40001,-3.96 4.40001,-8.08 v -3.92 c 0,-1.52 -0.16001,-2.8 -0.52001,-3.88 z m -6.03999,3.64 v 4.36 c 0,0.6 -0.04,1 -0.04,1.36 -0.36,1.32 -1.32,2 -2.83999,2 h -0.16001 c -1.92,0 -2.88,-0.92 -2.88,-2.76 v -5.36 c 0,-0.6 0.08,-1 0.2,-1.36 0.48,-0.96 1.32,-1.44 2.48,-1.44 h 0.52 c 0.48,0 0.92,0.04 1.28001,0.24 0.95999,0.28 1.44,1.28 1.44,2.96 z"
         style=""
         id="path7074" />
      <path
         d="m 365.89625,128.50852 c 1.72,2.76 4,3.12 6.64,3 3.24,-0.12 5.4,-1.4 5.92,-1.6 0.12,0.44 0.24,0.68 0.36,0.96 l 0.24,0.36 h 5.48 v -21.32 h -6.64 l -0.04,15.08 c -1.08,0.68 -2.12,0.88 -2.88,0.92 -0.44,0.04 -0.88,0 -1.28,-0.04 -1.28,-0.28 -1.92,-1.12 -1.92,-2.44 v -13.52 h -6.68 v 12.32 c 0,3.36 0.2,5.04 0.8,6.28 z"
         style=""
         id="path7076" />
      <path
         d="m 394,100.06852 -6.6,1.16 v 21.12 0.28 c 0,0.32 0,0.68 0.04,1.04 0.08,0.92 0.32,1.84 0.68,2.76 1.44,3.28 4.48,4.92 9.12,4.92 0.6,0 1,0 1.6,-0.04 v -5.52 c -0.28,0 -2.28,0.04 -3.44,-0.28 -0.92,-0.32 -1.4,-1.2 -1.4,-2.64 v -0.8 z"
         style=""
         id="path7078" />
      <path
         d="m 400.7575,118.74852 v 2.12 c 0,3.44 0.28,5.6 0.8,6.44 0.16,0.52 0.6,1.16 1.36,1.96 1.6,1.48 4.32,2.24 8.2,2.24 2.72,0 5.56,-0.32 8.76,-0.84 v -30.56 l -6.52,1.16 c -0.04,2.04 -0.04,3.76 -0.04,5.24 0,2.52 -0.04,4.8 -0.04,3.88 -1.4,-0.44 -3.28,-0.76 -4.68,-0.8 -3.8,0 -6.16,1 -7.04,2.96 -0.52,0.92 -0.8,2.96 -0.8,6.2 z m 6.6,4.2 v -5.36 c 0,-1.36 0.64,-2.16 1.92,-2.4 l 0.48,-0.04 h 0.48 c 1.08,0 2.08,0.32 3.04,0.92 v 9.96 l -1.92,0.08 h -0.44 c -1.92,0 -3.04,-0.6 -3.4,-1.84 -0.12,-0.44 -0.16,-0.84 -0.16,-1.32 z"
         style=""
         id="path7080" />
      <path
         d="m 439.64625,128.50852 c 1.72,2.76 4,3.12 6.64,3 3.24,-0.12 5.4,-1.4 5.92,-1.6 0.12,0.44 0.24,0.68 0.36,0.96 l 0.24,0.36 h 5.48 v -21.32 h -6.64 l -0.04,15.08 c -1.08,0.68 -2.12,0.88 -2.88,0.92 -0.44,0.04 -0.88,0 -1.28,-0.04 -1.28,-0.28 -1.92,-1.12 -1.92,-2.44 v -13.52 h -6.68 v 12.32 c 0,3.36 0.2,5.04 0.8,6.28 z"
         style=""
         id="path7082" />
      <path
         d="m 478.55,125.42852 c 0.12,-1.48 0.08,-3.2 -1.44,-4.72 -2.84,-2.68 -10.36,-2.52 -9.44,-4.68 0.76,-1.8 7.92,-0.68 9.96,-0.24 l -0.6,-5.64 c -1.64,-0.28 -4.48,-0.64 -7.36,-0.52 -3.08,0.12 -8.36,0.56 -9,6.12 -0.12,1.4 -0.08,3.24 1.52,4.64 3.16,3 10.24,2.56 9.44,4.68 -0.84,2 -9.32,0.32 -10.8,0 l 0.6,5.72 c 1.64,0.32 5,0.72 8.16,0.72 3.12,-0.12 8.32,-0.6 8.96,-6.08 z"
         style=""
         id="path7084" />
      <path
         d="m 498.7175,113.86852 c -1.32,-2.88 -4.2,-4.32 -8.6,-4.32 -1.56,0 -3,0.2 -4.48,0.68 -3.16,1.24 -4.72,3.72 -4.72,7.48 v 5.12 c 0,1.32 0.24,2.64 0.76,3.92 1.36,3.16 4.4,4.76 9.08,4.76 1.8,0 3.44,-0.08 4.84,-0.24 2.24,-0.36 3.36,-0.56 3.36,-0.64 v -5.36 h -0.04 c -2.52,0.52 -4.92,0.76 -7.2,0.76 h -0.52 c -1.08,0 -1.76,-0.12 -2.36,-0.28 -0.88,-0.32 -1.32,-1.2 -1.32,-2.64 v -0.64 h 11.96 v -0.12 -3.68 c 0,-2.04 -0.24,-3.64 -0.76,-4.8 z m -5.84,3.8 v 0.36 h -5.36 v -1 c 0,-1.64 0.76,-2.48 2.64,-2.48 0.68,0 1.28,0.16 1.76,0.48 0.64,0.28 0.96,1.16 0.96,2.64 z"
         style=""
         id="path7086" />
      <path
         d="m 533.13562,126.50852 c -0.2,0 -2.27999,-0.12 -3.44,-0.64 -1.44,-0.44 -1.44,-1.52 -1.44,-2.92 v -7.56 6.08 -6.08 h 4.32 l 0.68,-5.48 h -5 v -6.44 l -6.56,1.12 v 5.32 h -3.19999 v 5.48 h 3.19999 v 4.08 c 0,2.08 0.04,4.24 0.04,4.36 0,7.88 5.15999,7.48 9.83999,7.48 h 1.56 z"
         style=""
         id="path7088" />
      <path
         d="m 554.39188,112.62852 c -0.92001,-1.96 -3.28,-2.96 -7.08001,-2.96 -1.08,0 -2.91999,0.2 -4.67999,0.8 v -10.32 l -6.6,1.12 v 30 h 6.6 v -15.16 c 1.07999,-0.6 2.07999,-0.92 3.03999,-0.92 h 0.44001 l 0.59999,0.04 c 1.2,0.24 1.80001,1.04 1.80001,2.4 v 13.64 h 6.64 v -12.48 c 0,-3.32 -0.24001,-5.4 -0.76,-6.16 z"
         style=""
         id="path7090" />
      <path
         d="m 575.82687,113.86852 c -1.31999,-2.88 -4.19999,-4.32 -8.6,-4.32 -1.56,0 -3,0.2 -4.47999,0.68 -3.16001,1.24 -4.72,3.72 -4.72,7.48 v 5.12 c 0,1.32 0.24,2.64 0.75999,3.92 1.36001,3.16 4.4,4.76 9.08001,4.76 1.79999,0 3.43999,-0.08 4.83999,-0.24 2.24,-0.36 3.36,-0.56 3.36,-0.64 v -5.36 h -0.04 c -2.52,0.52 -4.92001,0.76 -7.20001,0.76 h -0.52 c -1.08,0 -1.76,-0.12 -2.36,-0.28 -0.88,-0.32 -1.31999,-1.2 -1.31999,-2.64 v -0.64 h 11.95999 v -0.12 -3.68 c 0,-2.04 -0.24,-3.64 -0.76,-4.8 z m -5.83999,3.8 v 0.36 h -5.36 v -1 c 0,-1.64 0.76,-2.48 2.64,-2.48 0.67999,0 1.27999,0.16 1.76,0.48 0.63999,0.28 0.96,1.16 0.96,2.64 z"
         style=""
         id="path7092" />
      <path
         d="m 596.75312,125.42852 c 0.12,-1.48 0.08,-3.2 -1.43999,-4.72 -2.84001,-2.68 -10.36001,-2.52 -9.44001,-4.68 0.76,-1.8 7.92001,-0.68 9.96,-0.24 l -0.6,-5.64 c -1.64,-0.28 -4.48,-0.64 -7.36,-0.52 -3.07999,0.12 -8.36,0.56 -9,6.12 -0.12,1.4 -0.08,3.24 1.52001,4.64 3.16,3 10.23999,2.56 9.43999,4.68 -0.84,2 -9.32,0.32 -10.79999,0 l 0.59999,5.72 c 1.64001,0.32 5,0.72 8.16001,0.72 3.12,-0.12 8.31999,-0.6 8.95999,-6.08 z"
         style=""
         id="path7094" />
      <path
         d="m 616.92062,113.86852 c -1.31999,-2.88 -4.19999,-4.32 -8.6,-4.32 -1.56,0 -3,0.2 -4.47999,0.68 -3.16001,1.24 -4.72,3.72 -4.72,7.48 v 5.12 c 0,1.32 0.24,2.64 0.75999,3.92 1.36001,3.16 4.4,4.76 9.08001,4.76 1.79999,0 3.43999,-0.08 4.83999,-0.24 2.24,-0.36 3.36,-0.56 3.36,-0.64 v -5.36 h -0.04 c -2.52,0.52 -4.92001,0.76 -7.20001,0.76 h -0.52 c -1.08,0 -1.76,-0.12 -2.36,-0.28 -0.88,-0.32 -1.31999,-1.2 -1.31999,-2.64 v -0.64 h 11.95999 v -0.12 -3.68 c 0,-2.04 -0.24,-3.64 -0.76,-4.8 z m -5.83999,3.8 v 0.36 h -5.36 v -1 c 0,-1.64 0.76,-2.48 2.64,-2.48 0.67999,0 1.27999,0.16 1.76,0.48 0.63999,0.28 0.96,1.16 0.96,2.64 z"
         style=""
         id="path7096" />
      <path
         d="m 654.01875,125.42852 c 0.12,-1.48 0.08,-3.2 -1.44,-4.72 -2.84,-2.68 -10.36,-2.52 -9.44,-4.68 0.76,-1.8 7.92,-0.68 9.96,-0.24 l -0.6,-5.64 c -1.64,-0.28 -4.48,-0.64 -7.36,-0.52 -3.08,0.12 -8.36,0.56 -9,6.12 -0.12,1.4 -0.08,3.24 1.52,4.64 3.16,3 10.24,2.56 9.44,4.68 -0.84,2 -9.32,0.32 -10.8,0 l 0.6,5.72 c 1.64,0.32 5,0.72 8.16,0.72 3.12,-0.12 8.32,-0.6 8.96,-6.08 z"
         style=""
         id="path7098" />
      <path
         d="m 674.18625,113.86852 c -1.32,-2.88 -4.2,-4.32 -8.6,-4.32 -1.56,0 -3,0.2 -4.48,0.68 -3.16,1.24 -4.72,3.72 -4.72,7.48 v 5.12 c 0,1.32 0.24,2.64 0.76,3.92 1.36,3.16 4.4,4.76 9.08,4.76 1.8,0 3.44,-0.08 4.84,-0.24 2.24,-0.36 3.36,-0.56 3.36,-0.64 v -5.36 h -0.04 c -2.52,0.52 -4.92,0.76 -7.2,0.76 h -0.52 c -1.08,0 -1.76,-0.12 -2.36,-0.28 -0.88,-0.32 -1.32,-1.2 -1.32,-2.64 v -0.64 h 11.96 v -0.12 -3.68 c 0,-2.04 -0.24,-3.64 -0.76,-4.8 z m -5.84,3.8 v 0.36 h -5.36 v -1 c 0,-1.64 0.76,-2.48 2.64,-2.48 0.68,0 1.28,0.16 1.76,0.48 0.64,0.28 0.96,1.16 0.96,2.64 z"
         style=""
         id="path7100" />
      <path
         d="m 687.3125,109.62852 c -4.04,0 -6.84,1.32 -8.4,3.96 -0.8,1.12 -1.2,3.2 -1.2,6.24 v 1.44 c 0,2.52 0.24,4.28 0.72,5.32 1.4,3.28 4.36,4.92 8.88,4.92 1.24,0 2.32,-0.08 3.24,-0.2 2.36,-0.36 3.52,-0.6 3.52,-0.72 v -5.28 h -0.04 c -2.6,0.48 -4.44,0.76 -5.6,0.76 h -0.48 c -1.56,0 -2.6,-0.32 -3.08,-0.92 -0.4,-0.32 -0.6,-1.36 -0.6,-3.16 v -2.72 c 0,-1.96 0.24,-3.08 0.68,-3.36 0.52,-0.52 1.56,-0.8 3.12,-0.8 1.32,0 3.64,0.28 6,0.72 v -5.32 c -2.36,-0.6 -4.6,-0.88 -6.76,-0.88 z"
         style=""
         id="path7102" />
      <path
         d="m 707.49312,109.86852 c -1.24,0.28 -2.24,0.56 -3.16,0.88 -0.76,0.28 -1,0.36 -1.51999,0.56 -0.12001,-0.44 -0.24001,-0.8 -0.36001,-1.08 -0.08,-0.16 -0.15999,-0.32 -0.2,-0.48 h -5.4 v 21.48 h 6.52 v -13.4 -1.08 c 1.76,-0.64 3.08,-1.08 4.04001,-1.28 l 0.43999,-0.08 c 0.52,-0.12 2,-0.24 2.80001,-0.2 l -0.64001,-5.64 c -0.83999,0.04 -1.68,0.12 -2.52,0.32 z"
         style=""
         id="path7104" />
      <path
         d="m 730.67062,113.86852 c -1.31999,-2.88 -4.19999,-4.32 -8.6,-4.32 -1.56,0 -3,0.2 -4.47999,0.68 -3.16001,1.24 -4.72,3.72 -4.72,7.48 v 5.12 c 0,1.32 0.24,2.64 0.75999,3.92 1.36001,3.16 4.4,4.76 9.08001,4.76 1.79999,0 3.43999,-0.08 4.83999,-0.24 2.24,-0.36 3.36,-0.56 3.36,-0.64 v -5.36 h -0.04 c -2.52,0.52 -4.92001,0.76 -7.20001,0.76 h -0.52 c -1.08,0 -1.76,-0.12 -2.36,-0.28 -0.88,-0.32 -1.31999,-1.2 -1.31999,-2.64 v -0.64 h 11.95999 v -0.12 -3.68 c 0,-2.04 -0.24,-3.64 -0.76,-4.8 z m -5.83999,3.8 v 0.36 h -5.36 v -1 c 0,-1.64 0.76,-2.48 2.64,-2.48 0.67999,0 1.27999,0.16 1.76,0.48 0.63999,0.28 0.96,1.16 0.96,2.64 z"
         style=""
         id="path7106" />
      <path
         d="m 748.91687,126.50852 c -0.2,0 -2.27999,-0.12 -3.44,-0.64 -1.44,-0.44 -1.44,-1.52 -1.44,-2.92 v -7.56 6.08 -6.08 h 4.32 l 0.68,-5.48 h -5 v -6.44 l -6.56,1.12 v 5.32 h -3.19999 v 5.48 h 3.19999 v 4.08 c 0,2.08 0.04,4.24 0.04,4.36 0,7.88 5.15999,7.48 9.83999,7.48 h 1.56 z"
         style=""
         id="path7108" />
      <path
         d="m 769.25312,125.42852 c 0.12,-1.48 0.08,-3.2 -1.43999,-4.72 -2.84001,-2.68 -10.36001,-2.52 -9.44001,-4.68 0.76,-1.8 7.92001,-0.68 9.96,-0.24 l -0.6,-5.64 c -1.64,-0.28 -4.48,-0.64 -7.36,-0.52 -3.07999,0.12 -8.36,0.56 -9,6.12 -0.12,1.4 -0.08,3.24 1.52001,4.64 3.16,3 10.23999,2.56 9.43999,4.68 -0.84,2 -9.32,0.32 -10.79999,0 l 0.59999,5.72 c 1.64001,0.32 5,0.72 8.16001,0.72 3.12,-0.12 8.31999,-0.6 8.95999,-6.08 z"
         style=""
         id="path7110" />
      <path
         d="m 802.4325,126.50852 c -0.2,0 -2.28,-0.12 -3.44,-0.64 -1.44,-0.44 -1.44,-1.52 -1.44,-2.92 v -7.56 6.08 -6.08 h 4.32 l 0.68,-5.48 h -5 v -6.44 l -6.56,1.12 v 5.32 h -3.2 v 5.48 h 3.2 v 4.08 c 0,2.08 0.04,4.24 0.04,4.36 0,7.88 5.16,7.48 9.84,7.48 h 1.56 z"
         style=""
         id="path7112" />
      <path
         d="m 823.04875,114.70852 c -1.28,-3.36 -4.08,-5.12 -8.68,-5.12 h -0.64 c -1.4,0 -2.6,0.24 -3.84,0.6 -3.6,1.16 -5.4,3.84 -5.4,8 v 4.68 c 0,1.76 0.32,3.2 0.92,4.36 1.32,2.84 4.2,4.28 8.56,4.28 2.04,0 3.76,-0.32 5.2,-0.92 2.92,-1.28 4.4,-3.96 4.4,-8.08 v -3.92 c 0,-1.52 -0.16,-2.8 -0.52,-3.88 z m -6.04,3.64 v 4.36 c 0,0.6 -0.04,1 -0.04,1.36 -0.36,1.32 -1.32,2 -2.84,2 h -0.16 c -1.92,0 -2.88,-0.92 -2.88,-2.76 v -5.36 c 0,-0.6 0.08,-1 0.2,-1.36 0.48,-0.96 1.32,-1.44 2.48,-1.44 h 0.52 c 0.48,0 0.92,0.04 1.28,0.24 0.96,0.28 1.44,1.28 1.44,2.96 z"
         style=""
         id="path7114" />
      <path
         d="m 34.179375,162.54852 c -0.84,-2 -3.2,-3 -7,-3 -2.56,0 -4.88,0.76 -6.76,1.44 -0.04,-0.04 -0.08,-0.04 -0.12,-0.04 -1.4,-1.16 -3.08,-1.4 -4.84,-1.36 h -0.36 c -3.2,0.12 -5.4,1.44 -5.8,1.64 -0.12,-0.44 -0.28,-0.72 -0.4,-1 -0.08,-0.12 -0.16,-0.28 -0.24,-0.4 h -1.16 -4.24 v 21.4 h 6.56 v -15.2 h 0.04 c 1.08,-0.64 2.04,-0.8 2.8,-0.92 0.44,-0.04 0.88,0 1.28,0.04 1.24,0.28 1.84,1.08 1.84,2.4 v 13.68 h 6.64 v -15.2 c 1.08,-0.6 2.64,-1.16 4.12,-0.88 1.24,0.28 1.84,1.08 1.84,2.4 v 13.68 h 6.64 v -12.48 c 0,-3.28 -0.28,-5.36 -0.84,-6.2 z"
         style=""
         id="path7116" />
      <path
         d="m 54.82875,163.06852 c -1,-2.08 -3.6,-3.12 -7.8,-3.12 h -6.6 l -0.6,5.44 h 6.16 c 1.16,0 2,0.16 2.48,0.52 0.44,0.24 0.64,1.08 0.64,2.56 v 0.72 h -3.08 c -3,0 -4.88,0.24 -5.64,0.76 -1.8,0.84 -2.72,2.52 -2.72,5.12 v 0.16 c 0,1.48 0.4,2.8 1.16,3.96 1.16,1.52 2.72,2.28 4.68,2.28 h 0.56 c 2.04,0 3.96,-0.56 5.88,-1.56 0.04,0.32 0.08,0.64 0.2,0.92 0.04,0.12 0.08,0.28 0.12,0.4 h 5.44 v -13.12 c 0,-2.12 -0.28,-3.8 -0.88,-5.04 z m -5.72,10.48 v 2.4 c -1.16,0.52 -2.2,0.88 -3.04,0.88 -1.2,0 -1.8,-0.6 -1.8,-1.76 0,-0.56 0.12,-0.92 0.32,-1.12 0.28,-0.28 1.04,-0.4 2.32,-0.4 z"
         style=""
         id="path7118" />
      <path
         d="m 64.8975,150.10852 -6.56,1.16 v 29.96 h 6.56 v -9.92 h 0.04 l 5.96,9.92 h 7.08 l -6.52,-11 6.52,-10.32 h -7.08 l -5.96,9.4 h -0.04 z"
         style=""
         id="path7120" />
      <path
         d="m 98.405,163.86852 c -1.32,-2.88 -4.2,-4.32 -8.6,-4.32 -1.56,0 -3,0.2 -4.48,0.68 -3.16,1.24 -4.72,3.72 -4.72,7.48 v 5.12 c 0,1.32 0.24,2.64 0.76,3.92 1.36,3.16 4.4,4.76 9.08,4.76 1.8,0 3.44,-0.08 4.84,-0.24 2.24,-0.36 3.36,-0.56 3.36,-0.64 v -5.36 h -0.04 c -2.52,0.52 -4.92,0.76 -7.2,0.76 h -0.52 c -1.08,0 -1.76,-0.12 -2.36,-0.28 -0.88,-0.32 -1.32,-1.2 -1.32,-2.64 v -0.64 h 11.96 v -0.12 -3.68 c 0,-2.04 -0.24,-3.64 -0.76,-4.8 z m -5.84,3.8 v 0.36 h -5.36 v -1 c 0,-1.64 0.76,-2.48 2.64,-2.48 0.68,0 1.28,0.16 1.76,0.48 0.64,0.28 0.96,1.16 0.96,2.64 z"
         style=""
         id="path7122" />
      <path
         d="m 149.02312,162.54852 c -0.84,-2 -3.2,-3 -7,-3 -2.56,0 -4.88,0.76 -6.76,1.44 -0.04,-0.04 -0.08,-0.04 -0.12,-0.04 -1.4,-1.16 -3.07999,-1.4 -4.84,-1.36 h -0.36 c -3.2,0.12 -5.39999,1.44 -5.8,1.64 -0.12,-0.44 -0.28,-0.72 -0.4,-1 -0.08,-0.12 -0.16,-0.28 -0.24,-0.4 h -1.15999 -4.24 v 21.4 h 6.56 v -15.2 h 0.04 c 1.07999,-0.64 2.03999,-0.8 2.79999,-0.92 0.44001,-0.04 0.88,0 1.28,0.04 1.24,0.28 1.84001,1.08 1.84001,2.4 v 13.68 h 6.63999 v -15.2 c 1.08,-0.6 2.64,-1.16 4.12,-0.88 1.24001,0.28 1.84,1.08 1.84,2.4 v 13.68 h 6.64 v -12.48 c 0,-3.28 -0.28,-5.36 -0.84,-6.2 z"
         style=""
         id="path7124" />
      <path
         d="m 170.3925,164.70852 c -1.28,-3.36 -4.08,-5.12 -8.68,-5.12 h -0.64 c -1.4,0 -2.6,0.24 -3.84,0.6 -3.6,1.16 -5.4,3.84 -5.4,8 v 4.68 c 0,1.76 0.32,3.2 0.92,4.36 1.32,2.84 4.2,4.28 8.56,4.28 2.04,0 3.76,-0.32 5.2,-0.92 2.92,-1.28 4.4,-3.96 4.4,-8.08 v -3.92 c 0,-1.52 -0.16,-2.8 -0.52,-3.88 z m -6.04,3.64 v 4.36 c 0,0.6 -0.04,1 -0.04,1.36 -0.36,1.32 -1.32,2 -2.84,2 h -0.16 c -1.92,0 -2.88,-0.92 -2.88,-2.76 v -5.36 c 0,-0.6 0.08,-1 0.2,-1.36 0.48,-0.96 1.32,-1.44 2.48,-1.44 h 0.52 c 0.48,0 0.92,0.04 1.28,0.24 0.96,0.28 1.44,1.28 1.44,2.96 z"
         style=""
         id="path7126" />
      <path
         d="m 191.18687,162.54852 c -1.64,-2.72 -3.92,-3.04 -6.48,-2.92 -3.24,0.12 -5.36,1.44 -5.79999,1.64 -0.12001,-0.44 -0.28001,-0.72 -0.40001,-1 l -0.2,-0.4 h -5.44 v 21.36 h 6.56 v -15.2 c 1.08,-0.64 2.04,-0.8 2.8,-0.92 0.44,-0.04 0.88,0 1.28,0.04 1.24,0.28 1.88,1.08 1.88,2.4 v 13.68 h 6.6 v -12.48 c 0,-3.32 -0.2,-5.08 -0.8,-6.2 z"
         style=""
         id="path7128" />
      <path
         d="m 212.70187,163.86852 c -1.32,-2.88 -4.2,-4.32 -8.6,-4.32 -1.56,0 -3,0.2 -4.48,0.68 -3.16,1.24 -4.72,3.72 -4.72,7.48 v 5.12 c 0,1.32 0.24,2.64 0.76,3.92 1.36,3.16 4.4,4.76 9.08,4.76 1.8,0 3.44,-0.08 4.84,-0.24 2.24,-0.36 3.36,-0.56 3.36,-0.64 v -5.36 h -0.04 c -2.52,0.52 -4.92,0.76 -7.2,0.76 h -0.52 c -1.08,0 -1.76,-0.12 -2.36,-0.28 -0.88,-0.32 -1.32,-1.2 -1.32,-2.64 v -0.64 h 11.96 v -0.12 -3.68 c 0,-2.04 -0.24,-3.64 -0.76,-4.8 z m -5.84,3.8 v 0.36 h -5.36 v -1 c 0,-1.64 0.76,-2.48 2.64,-2.48 0.68,0 1.28,0.16 1.76,0.48 0.64,0.28 0.96,1.16 0.96,2.64 z"
         style=""
         id="path7130" />
      <path
         d="m 239.26812,159.94852 h -7.2 l -4.24,13.16 -4.96,-13.16 h -7.32 l 8.84,21.28 c 0,1.48 -0.48,2.36 -1.4,2.6 -0.48,0.16 -1.24,0.36 -2.32,0.36 h -0.44 c -0.64,0 -1.24,-0.04 -1.84,-0.08 v 5.48 c 0.84,0.04 1.76,0.08 2.72,0.08 2.08001,0 3.76,-0.28 5.2,-0.88 3.4,-1.6 4.52,-5.08 5.4,-7.56 0.44,-1.2 2.32,-6.6 4.12,-11.56 1.04,-2.92 2.2,-6.16 3.44,-9.72 z"
         style=""
         id="path7132" />
    </g>
  </g>
</svg>
