<?xml version="1.0" encoding="UTF-8" standalone="no"?>
<!-- Created with Inkscape (http://www.inkscape.org/) -->

<svg
   xmlns:dc="http://purl.org/dc/elements/1.1/"
   xmlns:cc="http://creativecommons.org/ns#"
   xmlns:rdf="http://www.w3.org/1999/02/22-rdf-syntax-ns#"
   xmlns:svg="http://www.w3.org/2000/svg"
   xmlns="http://www.w3.org/2000/svg"
   xmlns:sodipodi="http://sodipodi.sourceforge.net/DTD/sodipodi-0.dtd"
   xmlns:inkscape="http://www.inkscape.org/namespaces/inkscape"
   width="210mm"
   height="29mm"
   viewBox="0 0 210 29"
   version="1.1"
   id="svg17715"
   sodipodi:docname="text10.svg"
   inkscape:version="0.92.2 (5c3e80d, 2017-08-06)">
  <defs
     id="defs17709" />
  <sodipodi:namedview
     id="base"
     pagecolor="#ffffff"
     bordercolor="#666666"
     borderopacity="1.0"
     inkscape:pageopacity="0.0"
     inkscape:pageshadow="2"
     inkscape:zoom="0.35"
     inkscape:cx="412.51567"
     inkscape:cy="84.285711"
     inkscape:document-units="mm"
     inkscape:current-layer="layer1"
     showgrid="false"
     inkscape:pagecheckerboard="true"
     inkscape:window-width="1009"
     inkscape:window-height="717"
     inkscape:window-x="411"
     inkscape:window-y="171"
     inkscape:window-maximized="0" />
  <metadata
     id="metadata17712">
    <rdf:RDF>
      <cc:Work
         rdf:about="">
        <dc:format>image/svg+xml</dc:format>
        <dc:type
           rdf:resource="http://purl.org/dc/dcmitype/StillImage" />
        <dc:title></dc:title>
      </cc:Work>
    </rdf:RDF>
  </metadata>
  <g
     inkscape:label="Layer 1"
     inkscape:groupmode="layer"
     id="layer1"
     transform="translate(0,-268)">
    <g
       aria-label="How The Zucc Stole Online Privacy"
       transform="matrix(0.30662406,0,0,0.30662406,1.4872786,241.88217)"
       style="font-style:normal;font-variant:normal;font-weight:normal;font-stretch:normal;font-size:39.99934006px;line-height:1.25;font-family:'Facebook Letter Faces';-inkscape-font-specification:'Facebook Letter Faces, Normal';font-variant-ligatures:normal;font-variant-caps:normal;font-variant-numeric:normal;font-feature-settings:normal;text-align:start;letter-spacing:0px;word-spacing:0px;writing-mode:lr-tb;text-anchor:start;opacity:1;fill:#000000;fill-opacity:1;stroke:none"
       id="flowRoot27527">
      <path
         d="m 26.698965,101.22843 h -7.719872 v 12.1598 h -8.079867 v -12.1598 H 3.2593519 v 29.99951 h 7.6398741 v -12.3998 h 8.079867 v 12.3998 h 7.719872 v -13.59978 z"
         style=""
         id="path28138" />
      <path
         d="m 47.110504,114.70821 c -1.279979,-3.35994 -4.079933,-5.11991 -8.679857,-5.11991 h -0.639989 c -1.399977,0 -2.599957,0.23999 -3.839937,0.59999 -3.59994,1.15998 -5.399911,3.83993 -5.399911,7.99986 v 4.67993 c 0,1.75997 0.319995,3.19994 0.919985,4.35992 1.319978,2.83996 4.199931,4.27993 8.559859,4.27993 2.039966,0 3.759938,-0.31999 5.199914,-0.91998 2.919952,-1.27998 4.399928,-3.95994 4.399928,-8.07987 v -3.91993 c 0,-1.51998 -0.159998,-2.79996 -0.519992,-3.87994 z m -6.0399,3.63994 v 4.35993 c 0,0.59999 -0.04,0.99998 -0.04,1.35998 -0.359994,1.31997 -1.319978,1.99996 -2.839953,1.99996 h -0.159997 c -1.919968,0 -2.879953,-0.91998 -2.879953,-2.75995 v -5.35991 c 0,-0.59999 0.08,-0.99999 0.199997,-1.35998 0.479992,-0.95998 1.319978,-1.43998 2.479959,-1.43998 h 0.519992 c 0.479992,0 0.919984,0.04 1.279979,0.24 0.959984,0.27999 1.439976,1.27998 1.439976,2.95995 z"
         style=""
         id="path28140" />
      <path
         d="M 81.184319,109.94829 H 74.42443 l -3.399943,13.39978 -3.119949,-13.39978 h -5.879903 l -3.119948,13.39978 -3.439944,-13.39978 h -6.719889 l 6.239897,21.27965 h 7.159882 l 2.839953,-9.43985 2.759955,9.43985 h 7.199881 z"
         style=""
         id="path28142" />
      <path
         d="m 121.43115,107.06834 v -5.79991 h -7.15988 -7.67987 -7.079888 v 5.79991 h 7.079888 v 24.1596 h 7.67987 v -13.55978 -10.59982 z"
         style=""
         id="path28144" />
      <path
         d="m 142.82705,112.62825 c -0.91998,-1.95997 -3.27995,-2.95996 -7.07988,-2.95996 -1.07998,0 -2.91995,0.2 -4.67993,0.79999 v -10.31983 l -6.59989,1.11998 v 29.99951 h 6.59989 v -15.15975 c 1.07999,-0.59999 2.07997,-0.91999 3.03995,-0.91999 h 0.44 l 0.59999,0.04 c 1.19998,0.24 1.79997,1.03998 1.79997,2.39996 v 13.63978 h 6.63989 v -12.4798 c 0,-3.31994 -0.24,-5.39991 -0.75999,-6.15989 z"
         style=""
         id="path28146" />
      <path
         d="m 164.26169,113.86822 c -1.31998,-2.87995 -4.19993,-4.31992 -8.59986,-4.31992 -1.55997,0 -2.99995,0.19999 -4.47992,0.67998 -3.15995,1.23998 -4.71992,3.71994 -4.71992,7.47988 v 5.11992 c 0,1.31997 0.23999,2.63995 0.75998,3.91993 1.35998,3.15995 4.39993,4.75992 9.07985,4.75992 1.79997,0 3.43995,-0.08 4.83992,-0.23999 2.23997,-0.36 3.35995,-0.55999 3.35995,-0.63999 v -5.35991 h -0.04 c -2.51996,0.51999 -4.91992,0.75998 -7.19988,0.75998 h -0.51999 c -1.07999,0 -1.75998,-0.11999 -2.35997,-0.27999 -0.87998,-0.32 -1.31997,-1.19998 -1.31997,-2.63996 v -0.63999 h 11.9598 v -0.12 -3.67993 c 0,-2.03997 -0.24,-3.63994 -0.75999,-4.79993 z m -5.8399,3.79994 v 0.36 h -5.35991 v -0.99999 c 0,-1.63997 0.75998,-2.47996 2.63995,-2.47996 0.67999,0 1.27998,0.16 1.75997,0.48 0.63999,0.27999 0.95999,1.15998 0.95999,2.63995 z"
         style=""
         id="path28148" />
      <path
         d="m 205.95914,131.22794 0.83998,-5.9999 h -11.9998 l 12.95979,-23.95961 h -22.27963 l -0.59999,5.79991 h 11.31981 l -13.15978,24.1596 z"
         style=""
         id="path28150" />
      <path
         d="m 210.42406,128.50798 c 1.71997,2.75996 3.99993,3.11995 6.63989,2.99995 3.23995,-0.11999 5.39991,-1.39997 5.9199,-1.59997 0.12,0.43999 0.24,0.67999 0.36,0.95998 l 0.23999,0.36 h 5.47991 v -21.31965 h -6.63989 l -0.04,15.07975 c -1.07998,0.67999 -2.11996,0.87999 -2.87995,0.91999 -0.43999,0.04 -0.87998,0 -1.27998,-0.04 -1.27998,-0.28 -1.91997,-1.11998 -1.91997,-2.43996 v -13.51978 h -6.67989 v 12.3198 c 0,3.35994 0.2,5.03991 0.79999,6.27989 z"
         style=""
         id="path28152" />
      <path
         d="m 241.5273,109.62829 c -4.03993,0 -6.83989,1.31998 -8.39986,3.95994 -0.79999,1.11998 -1.19998,3.19995 -1.19998,6.2399 v 1.43997 c 0,2.51996 0.23999,4.27993 0.71999,5.31991 1.39997,3.27995 4.35992,4.91992 8.87985,4.91992 1.23998,0 2.31996,-0.08 3.23995,-0.19999 2.35996,-0.36 3.51994,-0.59999 3.51994,-0.71999 v -5.27991 h -0.04 c -2.59996,0.47999 -4.43993,0.75998 -5.59991,0.75998 h -0.47999 c -1.55998,0 -2.59996,-0.31999 -3.07995,-0.91998 -0.39999,-0.32 -0.59999,-1.35998 -0.59999,-3.15995 v -2.71995 c 0,-1.95997 0.24,-3.07995 0.67999,-3.35995 0.51999,-0.51999 1.55997,-0.79999 3.11995,-0.79999 1.31998,0 3.63994,0.28 5.9999,0.71999 v -5.31991 c -2.35996,-0.59999 -4.59993,-0.87999 -6.75989,-0.87999 z"
         style=""
         id="path28154" />
      <path
         d="m 260.6676,109.62829 c -4.03993,0 -6.83988,1.31998 -8.39986,3.95994 -0.79998,1.11998 -1.19998,3.19995 -1.19998,6.2399 v 1.43997 c 0,2.51996 0.24,4.27993 0.71999,5.31991 1.39998,3.27995 4.35993,4.91992 8.87985,4.91992 1.23998,0 2.31997,-0.08 3.23995,-0.19999 2.35996,-0.36 3.51994,-0.59999 3.51994,-0.71999 v -5.27991 h -0.04 c -2.59995,0.47999 -4.43992,0.75998 -5.5999,0.75998 h -0.48 c -1.55997,0 -2.59995,-0.31999 -3.07995,-0.91998 -0.39999,-0.32 -0.59999,-1.35998 -0.59999,-3.15995 v -2.71995 c 0,-1.95997 0.24,-3.07995 0.67999,-3.35995 0.51999,-0.51999 1.55998,-0.79999 3.11995,-0.79999 1.31998,0 3.63994,0.28 5.9999,0.71999 v -5.31991 c -2.35996,-0.59999 -4.59992,-0.87999 -6.75989,-0.87999 z"
         style=""
         id="path28156" />
      <path
         d="m 296.45952,131.46793 h 0.95998 c 2.23996,-0.11999 4.71992,-0.23999 6.79989,-1.35997 2.43996,-1.23998 3.87993,-3.51995 4.23993,-6.79989 0.2,-1.63997 0.2,-4.31993 -1.71997,-6.2399 -1.63998,-1.75997 -4.55993,-2.63995 -7.27988,-3.39994 -2.55996,-0.75999 -4.55993,-1.35998 -5.19992,-2.67996 -0.23999,-0.51999 -0.23999,-1.03998 -0.04,-1.59997 0.51999,-1.31998 2.23997,-1.99997 5.23992,-1.99997 2.99995,0 6.39989,0.59999 7.67987,0.91999 l -0.63999,-6.5599 c -1.87997,-0.27999 -4.83992,-0.67998 -7.75987,-0.67998 h -1.11998 c -2.19997,0.11999 -4.67993,0.27999 -6.75989,1.39997 -2.47996,1.23998 -3.87994,3.47995 -4.23993,6.79989 -0.2,1.75997 -0.2,4.31993 1.63997,6.2799 1.91997,1.91997 5.15992,2.91995 7.67987,3.55994 2.39997,0.67999 4.23994,1.23998 4.83993,2.47996 0.27999,0.51999 0.27999,1.03998 0.04,1.55997 -0.43999,1.27998 -2.07996,1.91997 -4.91991,1.91997 -3.35995,0 -7.51988,-0.83999 -8.99986,-1.15998 l 0.59999,6.71989 c 1.95997,0.31999 5.47991,0.83998 8.95986,0.83998 z"
         style=""
         id="path28158" />
      <path
         d="m 326.33339,126.50802 c -0.2,0 -2.27996,-0.12 -3.43995,-0.63999 -1.43997,-0.44 -1.43997,-1.51998 -1.43997,-2.91996 v -7.55987 6.0799 -6.0799 h 4.31993 l 0.67999,-5.47991 h -4.99992 v -6.43989 l -6.55989,1.11998 v 5.31991 h -3.19995 v 5.47991 h 3.19995 v 4.07993 c 0,2.07997 0.04,4.23993 0.04,4.35993 0,7.87987 5.15991,7.47988 9.83983,7.47988 h 1.55998 z"
         style=""
         id="path28160" />
      <path
         d="m 346.94931,114.70821 c -1.27997,-3.35994 -4.07993,-5.11991 -8.67985,-5.11991 h -0.63999 c -1.39998,0 -2.59996,0.23999 -3.83994,0.59999 -3.59994,1.15998 -5.39991,3.83993 -5.39991,7.99986 v 4.67993 c 0,1.75997 0.32,3.19994 0.91999,4.35992 1.31997,2.83996 4.19993,4.27993 8.55985,4.27993 2.03997,0 3.75994,-0.31999 5.19992,-0.91998 2.91995,-1.27998 4.39993,-3.95994 4.39993,-8.07987 v -3.91993 c 0,-1.51998 -0.16,-2.79996 -0.52,-3.87994 z m -6.0399,3.63994 v 4.35993 c 0,0.59999 -0.04,0.99998 -0.04,1.35998 -0.35999,1.31997 -1.31997,1.99996 -2.83995,1.99996 h -0.16 c -1.91996,0 -2.87995,-0.91998 -2.87995,-2.75995 v -5.35991 c 0,-0.59999 0.08,-0.99999 0.2,-1.35998 0.47999,-0.95998 1.31998,-1.43998 2.47996,-1.43998 h 0.51999 c 0.47999,0 0.91998,0.04 1.27998,0.24 0.95998,0.27999 1.43997,1.27998 1.43997,2.95995 z"
         style=""
         id="path28162" />
      <path
         d="m 356.10354,100.06845 -6.59989,1.15998 v 21.11965 0.28 c 0,0.31999 0,0.67999 0.04,1.03998 0.08,0.91999 0.32,1.83997 0.67999,2.75996 1.43998,3.27994 4.47993,4.91992 9.11985,4.91992 0.59999,0 0.99999,0 1.59998,-0.04 v -5.51991 c -0.28,0 -2.27997,0.04 -3.43995,-0.28 -0.91998,-0.31999 -1.39997,-1.19998 -1.39997,-2.63995 v -0.79999 z"
         style=""
         id="path28164" />
      <path
         d="m 380.82064,113.86822 c -1.31998,-2.87995 -4.19993,-4.31992 -8.59986,-4.31992 -1.55998,0 -2.99995,0.19999 -4.47993,0.67998 -3.15995,1.23998 -4.71992,3.71994 -4.71992,7.47988 v 5.11992 c 0,1.31997 0.24,2.63995 0.75999,3.91993 1.35998,3.15995 4.39993,4.75992 9.07985,4.75992 1.79997,0 3.43994,-0.08 4.83992,-0.23999 2.23996,-0.36 3.35994,-0.55999 3.35994,-0.63999 v -5.35991 h -0.04 c -2.51996,0.51999 -4.91992,0.75998 -7.19988,0.75998 h -0.51999 c -1.07998,0 -1.75997,-0.11999 -2.35996,-0.27999 -0.87999,-0.32 -1.31998,-1.19998 -1.31998,-2.63996 v -0.63999 h 11.9598 v -0.12 -3.67993 c 0,-2.03997 -0.23999,-3.63994 -0.75998,-4.79993 z m -5.83991,3.79994 v 0.36 h -5.35991 v -0.99999 c 0,-1.63997 0.75999,-2.47996 2.63996,-2.47996 0.67999,0 1.27998,0.16 1.75997,0.48 0.63999,0.27999 0.95998,1.15998 0.95998,2.63995 z"
         style=""
         id="path28166" />
      <path
         d="m 424.79802,106.58834 c -0.99999,-1.63997 -2.23997,-2.91995 -3.95994,-3.83993 -2.03997,-1.11998 -4.59992,-1.67997 -7.63987,-1.67997 -3.07995,0 -5.59991,0.55999 -7.63988,1.67997 -1.71997,0.91998 -2.99995,2.19996 -3.95993,3.83993 -1.15998,1.55998 -1.71997,4.47993 -1.71997,8.67986 v 1.95997 c 0,3.43994 0.31999,5.8799 0.99998,7.35988 0.99998,2.35996 2.55996,4.07993 4.67992,5.23991 1.99997,1.07998 4.55993,1.63997 7.63988,1.63997 3.07995,0 5.6399,-0.55999 7.63987,-1.63997 2.11997,-1.11998 3.67994,-2.87995 4.67992,-5.23991 0.63999,-1.39998 0.95999,-3.83994 0.95999,-7.35988 v -1.95997 c 0,-4.19993 -0.55999,-7.07988 -1.67997,-8.67986 z m -16.23974,17.39972 c -0.63999,-0.51999 -1.23998,-2.27996 -1.23998,-5.31991 v -4.59993 c 0,-3.35994 0.63999,-5.15991 1.39998,-5.63991 0.79999,-0.79998 2.27996,-1.23998 4.47993,-1.31997 2.19996,0.08 3.67994,0.51999 4.47992,1.31997 0.75999,0.48 1.23998,2.47996 1.23998,5.79991 v 4.55992 c 0,3.07995 -0.47999,4.67993 -1.11998,5.19992 -0.63999,0.91998 -2.15996,1.39997 -4.59992,1.43997 -2.43996,-0.04 -3.99994,-0.51999 -4.63993,-1.43997 z"
         style=""
         id="path28168" />
      <path
         d="m 446.80453,112.54825 c -1.63997,-2.71996 -3.91993,-3.03995 -6.47989,-2.91996 -3.23995,0.12 -5.35991,1.43998 -5.79991,1.63998 -0.11999,-0.44 -0.27999,-0.71999 -0.39999,-0.99999 l -0.2,-0.39999 h -5.43991 v 21.35965 h 6.5599 v -15.19975 c 1.07998,-0.63999 2.03996,-0.79999 2.79995,-0.91999 0.43999,-0.04 0.87999,0 1.27998,0.04 1.23998,0.28 1.87997,1.07999 1.87997,2.39996 v 13.67978 h 6.59989 v -12.4798 c 0,-3.31994 -0.2,-5.07991 -0.79999,-6.19989 z"
         style=""
         id="path28170" />
      <path
         d="m 457.03936,100.06845 -6.59989,1.15998 v 21.11965 0.28 c 0,0.31999 0,0.67999 0.04,1.03998 0.08,0.91999 0.31999,1.83997 0.67998,2.75996 1.43998,3.27994 4.47993,4.91992 9.11985,4.91992 0.59999,0 0.99999,0 1.59998,-0.04 v -5.51991 c -0.28,0 -2.27996,0.04 -3.43995,-0.28 -0.91998,-0.31999 -1.39997,-1.19998 -1.39997,-2.63995 v -0.79999 z"
         style=""
         id="path28172" />
      <path
         d="m 469.67666,102.14842 c -0.59999,-0.59999 -1.67997,-0.67999 -2.59996,-0.67999 -0.91998,0 -1.95997,0.08 -2.71995,0.67999 -0.63999,0.59999 -0.71999,1.71997 -0.71999,2.39996 0,0.75999 0.08,1.75997 0.71999,2.35996 0.75998,0.59999 1.91996,0.67999 2.71995,0.67999 0.75999,0 1.99997,-0.08 2.59996,-0.67999 0.75998,-0.59999 0.83998,-1.55997 0.83998,-2.35996 0,-0.75999 -0.08,-1.79997 -0.83998,-2.39996 z m -5.9199,7.79987 h 6.59989 v 21.27965 h -6.59989 z"
         style=""
         id="path28174" />
      <path
         d="m 491.25692,112.54825 c -1.63997,-2.71996 -3.91993,-3.03995 -6.47989,-2.91996 -3.23995,0.12 -5.35991,1.43998 -5.7999,1.63998 -0.12,-0.44 -0.28,-0.71999 -0.4,-0.99999 l -0.19999,-0.39999 h -5.43991 v 21.35965 h 6.55989 v -15.19975 c 1.07998,-0.63999 2.03996,-0.79999 2.79995,-0.91999 0.44,-0.04 0.87999,0 1.27998,0.04 1.23998,0.28 1.87997,1.07999 1.87997,2.39996 v 13.67978 h 6.59989 v -12.4798 c 0,-3.31994 -0.2,-5.07991 -0.79999,-6.19989 z"
         style=""
         id="path28176" />
      <path
         d="m 512.77156,113.86822 c -1.31997,-2.87995 -4.19993,-4.31992 -8.59985,-4.31992 -1.55998,0 -2.99995,0.19999 -4.47993,0.67998 -3.15995,1.23998 -4.71992,3.71994 -4.71992,7.47988 v 5.11992 c 0,1.31997 0.23999,2.63995 0.75999,3.91993 1.35997,3.15995 4.39992,4.75992 9.07985,4.75992 1.79997,0 3.43994,-0.08 4.83992,-0.23999 2.23996,-0.36 3.35994,-0.55999 3.35994,-0.63999 v -5.35991 h -0.04 c -2.51996,0.51999 -4.91992,0.75998 -7.19988,0.75998 h -0.51999 c -1.07998,0 -1.75997,-0.11999 -2.35996,-0.27999 -0.87999,-0.32 -1.31998,-1.19998 -1.31998,-2.63996 v -0.63999 h 11.9598 v -0.12 -3.67993 c 0,-2.03997 -0.23999,-3.63994 -0.75999,-4.79993 z m -5.8399,3.79994 v 0.36 h -5.35991 v -0.99999 c 0,-1.63997 0.75999,-2.47996 2.63996,-2.47996 0.67998,0 1.27997,0.16 1.75997,0.48 0.63999,0.27999 0.95998,1.15998 0.95998,2.63995 z"
         style=""
         id="path28178" />
      <path
         d="m 553.90902,105.02837 c -1.47998,-2.67996 -3.91994,-3.95993 -8.47986,-3.95993 -3.83994,0 -6.99988,0.08 -9.27985,0.11999 -1.31998,0.04 -2.51996,0.04 -3.59994,0.08 v 29.95951 h 7.47988 v -8.79986 c 0.79999,0.08 1.55997,0.16 2.23996,0.24 1.23998,0.12 2.55996,0.2 3.15995,0.16 4.95992,0 7.55988,-1.51998 8.99985,-4.83992 0.47999,-0.95999 0.67999,-2.75996 0.67999,-5.31992 v -1.39997 c 0,-3.03995 -0.51999,-4.83992 -1.19998,-6.2399 z m -5.59991,5.67991 v 2.67995 c 0,1.87997 -0.31999,2.43996 -0.91998,3.07995 -0.63999,0.75999 -1.71997,1.11998 -7.35988,0.47999 v -10.23983 c 4.99992,-0.43999 6.63989,-0.12 7.55987,0.79999 0.44,0.51999 0.71999,1.23998 0.71999,3.19995 z"
         style=""
         id="path28180" />
      <path
         d="m 568.34315,109.86829 c -1.23998,0.28 -2.23997,0.55999 -3.15995,0.87999 -0.75999,0.27999 -0.99999,0.35999 -1.51998,0.55999 -0.11999,-0.44 -0.23999,-0.79999 -0.35999,-1.07999 -0.08,-0.15999 -0.16,-0.31999 -0.2,-0.47999 h -5.39991 v 21.47965 h 6.51989 v -13.39978 -1.07998 c 1.75998,-0.63999 3.07995,-1.07999 4.03994,-1.27998 l 0.43999,-0.08 c 0.51999,-0.12 1.99997,-0.24 2.79995,-0.2 l -0.63999,-5.6399 c -0.83998,0.04 -1.67997,0.11999 -2.51995,0.31999 z"
         style=""
         id="path28182" />
      <path
         d="m 579.44048,102.14842 c -0.59999,-0.59999 -1.67997,-0.67999 -2.59996,-0.67999 -0.91998,0 -1.95996,0.08 -2.71995,0.67999 -0.63999,0.59999 -0.71999,1.71997 -0.71999,2.39996 0,0.75999 0.08,1.75997 0.71999,2.35996 0.75999,0.59999 1.91997,0.67999 2.71995,0.67999 0.75999,0 1.99997,-0.08 2.59996,-0.67999 0.75999,-0.59999 0.83999,-1.55997 0.83999,-2.35996 0,-0.75999 -0.08,-1.79997 -0.83999,-2.39996 z m -5.9199,7.79987 h 6.59989 v 21.27965 h -6.59989 z"
         style=""
         id="path28184" />
      <path
         d="m 604.66066,109.90829 h -7.11988 l -4.43993,14.31976 -4.55993,-14.31976 h -7.15988 l 7.55988,21.31965 h 8.39986 z"
         style=""
         id="path28186" />
      <path
         d="m 623.02162,113.06824 c -0.99998,-2.07997 -3.59994,-3.11995 -7.79987,-3.11995 h -6.59989 l -0.59999,5.43991 h 6.1599 c 1.15998,0 1.99997,0.16 2.47996,0.51999 0.43999,0.24 0.63999,1.07998 0.63999,2.55996 v 0.71999 h -3.07995 c -2.99995,0 -4.87992,0.23999 -5.63991,0.75998 -1.79997,0.83999 -2.71995,2.51996 -2.71995,5.11992 v 0.16 c 0,1.47997 0.39999,2.79995 1.15998,3.95993 1.15998,1.51998 2.71995,2.27996 4.67992,2.27996 h 0.55999 c 2.03997,0 3.95994,-0.55999 5.8799,-1.55997 0.04,0.31999 0.08,0.63999 0.2,0.91998 0.04,0.12 0.08,0.28 0.12,0.4 h 5.43991 v -13.11979 c 0,-2.11996 -0.28,-3.79993 -0.87999,-5.03991 z m -5.7199,10.47982 v 2.39997 c -1.15998,0.51999 -2.19997,0.87998 -3.03995,0.87998 -1.19998,0 -1.79997,-0.59999 -1.79997,-1.75997 0,-0.55999 0.12,-0.91999 0.31999,-1.11998 0.28,-0.28 1.03999,-0.4 2.31996,-0.4 z"
         style=""
         id="path28188" />
      <path
         d="m 636.13019,109.62829 c -4.03993,0 -6.83989,1.31998 -8.39986,3.95994 -0.79999,1.11998 -1.19998,3.19995 -1.19998,6.2399 v 1.43997 c 0,2.51996 0.23999,4.27993 0.71999,5.31991 1.39997,3.27995 4.35992,4.91992 8.87985,4.91992 1.23998,0 2.31996,-0.08 3.23995,-0.19999 2.35996,-0.36 3.51994,-0.59999 3.51994,-0.71999 v -5.27991 h -0.04 c -2.59996,0.47999 -4.43993,0.75998 -5.59991,0.75998 h -0.47999 c -1.55998,0 -2.59996,-0.31999 -3.07995,-0.91998 -0.39999,-0.32 -0.59999,-1.35998 -0.59999,-3.15995 v -2.71995 c 0,-1.95997 0.24,-3.07995 0.67999,-3.35995 0.51999,-0.51999 1.55997,-0.79999 3.11995,-0.79999 1.31998,0 3.63994,0.28 5.9999,0.71999 v -5.31991 c -2.35996,-0.59999 -4.59993,-0.87999 -6.75989,-0.87999 z"
         style=""
         id="path28190" />
      <path
         d="m 668.71023,109.94829 h -7.19988 l -4.23993,13.15978 -4.95992,-13.15978 h -7.31988 l 8.83985,21.27965 c 0,1.47997 -0.47999,2.35996 -1.39997,2.59996 -0.48,0.15999 -1.23998,0.35999 -2.31997,0.35999 h -0.43999 c -0.63999,0 -1.23998,-0.04 -1.83997,-0.08 v 5.47991 c 0.83999,0.04 1.75997,0.08 2.71996,0.08 2.07996,0 3.75993,-0.28 5.19991,-0.87999 3.39994,-1.59997 4.51993,-5.07991 5.39991,-7.55987 0.43999,-1.19998 2.31996,-6.59989 4.11993,-11.55981 1.03999,-2.91995 2.19997,-6.1599 3.43995,-9.71984 z"
         style=""
         id="path28192" />
    </g>
  </g>
</svg>
