<?xml version="1.0" encoding="UTF-8" standalone="no"?>
<svg
   xmlns:dc="http://purl.org/dc/elements/1.1/"
   xmlns:cc="http://creativecommons.org/ns#"
   xmlns:rdf="http://www.w3.org/1999/02/22-rdf-syntax-ns#"
   xmlns:svg="http://www.w3.org/2000/svg"
   xmlns="http://www.w3.org/2000/svg"
   id="svg8"
   version="1.1"
   viewBox="0 0 101.6 101.6"
   height="4in"
   width="4in">
  <defs
     id="defs2">
    <filter
       id="filter7526"
       style="color-interpolation-filters:sRGB;">
      <feFlood
         id="feFlood7516"
         result="flood"
         flood-color="rgb(0,0,0)"
         flood-opacity="0.498039" />
      <feComposite
         id="feComposite7518"
         result="composite1"
         operator="in"
         in2="SourceGraphic"
         in="flood" />
      <feGaussianBlur
         id="feGaussianBlur7520"
         result="blur"
         stdDeviation="1.4"
         in="composite1" />
      <feOffset
         id="feOffset7522"
         result="offset"
         dy="2.2"
         dx="-5" />
      <feComposite
         id="feComposite7524"
         result="composite2"
         operator="over"
         in2="offset"
         in="SourceGraphic" />
    </filter>
    <filter
       id="filter7814"
       style="color-interpolation-filters:sRGB;">
      <feFlood
         id="feFlood7804"
         result="flood"
         flood-color="rgb(0,0,0)"
         flood-opacity="0.498039" />
      <feComposite
         id="feComposite7806"
         result="composite1"
         operator="in"
         in2="SourceGraphic"
         in="flood" />
      <feGaussianBlur
         id="feGaussianBlur7808"
         result="blur"
         stdDeviation="1.4"
         in="composite1" />
      <feOffset
         id="feOffset7810"
         result="offset"
         dy="1.8"
         dx="-0.4" />
      <feComposite
         id="feComposite7812"
         result="composite2"
         operator="over"
         in2="offset"
         in="SourceGraphic" />
    </filter>
    <filter
       height="1.4303019"
       y="-0.21515093"
       width="1.1441897"
       x="-0.072094839"
       id="filter11583"
       style="color-interpolation-filters:sRGB">
      <feGaussianBlur
         id="feGaussianBlur11585"
         stdDeviation="2.2781656" />
    </filter>
  </defs>
  <metadata
     id="metadata5">
    <rdf:RDF>
      <cc:Work
         rdf:about="">
        <dc:format>image/svg+xml</dc:format>
        <dc:type
           rdf:resource="http://purl.org/dc/dcmitype/StillImage" />
        <dc:title></dc:title>
      </cc:Work>
    </rdf:RDF>
  </metadata>
  <g
     transform="translate(0,-195.39999)"
     id="layer1" />
  <g
     style="display:inline;opacity:1"
     id="layer4">
    <flowRoot
       transform="scale(0.26458333)"
       style="font-style:normal;font-weight:normal;font-size:40px;line-height:1.25;font-family:sans-serif;letter-spacing:0px;word-spacing:0px;fill:#000000;fill-opacity:1;stroke:none"
       id="flowRoot9306"
       xml:space="preserve"><flowRegion
         id="flowRegion9308"><rect
           y="331.6741"
           x="-422.84985"
           height="115.96552"
           width="384.66608"
           id="rect9310" /></flowRegion><flowPara
         id="flowPara9312" /></flowRoot>  </g>
  <g
     style="display:inline"
     id="layer5" />
  <g
     style="display:inline;opacity:1"
     id="layer3">
    <path
       id="path8914"
       d="m 67.043,9.588514 c 1.15432,1.386168 3.45083,5.661512 3.77434,9.975046 2.64204,1.779333 6.30855,25.018497 6.30855,26.959587 0,1.94109 -3.60728,6.373075 -3.60728,6.373075 l 12.65803,6.100258 0.0347,42.52081 H 15.936423 l 0.0873,-40.995745 c 0,0 14.0306,-8.387854 15.09814,-7.320309 1.06755,1.067545 -2.83671,-5.197432 -3.59699,-8.227685 -1.72064,-12.801291 5.63349,-26.329698 5.63349,-26.329698 0,0 0.40361,-7.534399 5.588817,-11.499566 0,0 -5.337717,6.710283 -4.422677,17.080722 0.915037,10.370439 1.715017,-1.695894 2.092457,9.14186 0.37743,10.837754 2.6283,16.461839 4.87123,18.481193 2.20842,1.988297 5.07059,7.260829 11.16125,7.602604 5.50076,0.308671 7.351,-3.758388 10.76151,-7.819867 2.70695,-3.223646 5.07223,-16.592436 5.07223,-16.592436 0,0 0.53919,-12.40141 1.18622,-8.087876 0.64703,4.313534 1.4019,-13.04844 -2.42636,-17.361973 z"
       style="display:inline;opacity:1;fill:#0b1728;fill-opacity:1;stroke:none;stroke-width:0.15250644px;stroke-linecap:butt;stroke-linejoin:miter;stroke-opacity:1" />
    <path
       id="path8977"
       d="m 33.158059,19.702188 c 0,0 -1.515154,44.329147 18.267199,44.374047 19.782346,0.04491 22.093044,-36.15319 19.015975,-43.463519"
       style="display:inline;opacity:1;fill:#152334;fill-opacity:1;stroke:none;stroke-width:0.15098436px;stroke-linecap:butt;stroke-linejoin:miter;stroke-opacity:1" />
    <path
       transform="matrix(0.57640235,0,0,0.57640235,87.732941,20.116547)"
       id="path8946"
       d="m -96.67592,55.229026 c 0,0 -8.09908,9.59389 9.628004,21.764723 18.520834,8.73125 27.78125,-1.852083 27.78125,-1.852083 0,0 12.170833,10.847916 26.19375,0.79375 14.022916,-10.054167 9.789583,-20.902083 9.789583,-20.902083"
       style="display:inline;opacity:0.55899999;fill:#0b172f;fill-opacity:1;stroke:none;stroke-width:0.26458332px;stroke-linecap:butt;stroke-linejoin:miter;stroke-opacity:1;filter:url(#filter11583)" />
    <path
       id="path9327"
       d="m 36.453842,79.368267 v -6.456624 l 1.25847,-1.017407 2.656766,0.03913 1.30508,1.017407 -0.04661,6.495754 -1.165245,0.978279 -2.843207,-0.03915 z"
       style="fill:#ffffff;stroke:#000000;stroke-width:0.06039695px;stroke-linecap:butt;stroke-linejoin:miter;stroke-opacity:1" />
    <path
       id="path9325"
       d="m 33.42142,80.133314 h -2.673857 l -1.095318,-0.973659 v -6.382864 l 1.063101,-0.892519 2.802717,-0.02705 1.063105,0.946612 v 1.406394 l -1.481902,0.02705 v -1.135934 l -2.029553,-0.02705 -0.03222,5.868992 2.061771,0.02705 0.03222,-1.217069 h 1.417473 l 0.06442,1.460484 z"
       style="fill:#ffffff;stroke:#000000;stroke-width:0.05903536px;stroke-linecap:butt;stroke-linejoin:miter;stroke-opacity:1" />
    <path
       id="path9329"
       d="m 42.979226,71.894236 1.538135,0.03913 v 7.160985 l 3.682181,0.07826 -0.04661,1.21306 -5.17371,-0.03911 z"
       style="fill:#ffffff;stroke:#000000;stroke-width:0.06039695px;stroke-linecap:butt;stroke-linejoin:miter;stroke-opacity:1" />
    <path
       id="path9331"
       d="m 37.945359,79.172613 h 2.190665 l -0.09322,-5.987052 h -2.050837 z"
       style="opacity:1;fill:#0b1728;fill-opacity:1;stroke:#000000;stroke-width:0.06039695px;stroke-linecap:butt;stroke-linejoin:miter;stroke-opacity:1" />
    <path
       style="fill:#ffffff;stroke:#000000;stroke-width:0.06039695px;stroke-linecap:butt;stroke-linejoin:miter;stroke-opacity:1"
       d="m 49.504615,71.894236 1.538135,0.03913 v 7.160985 l 3.682181,0.07826 -0.04661,1.21306 -5.173708,-0.03911 z"
       id="path9343" />
    <path
       id="path9345"
       d="m 61.110498,80.385673 -5.127097,-0.03911 0.04661,-8.413178 5.033876,-0.03913 0.04661,1.213064 h -3.682191 l 0.04661,2.465252 h 2.144064 l 0.04661,1.252195 h -2.14406 v 2.347865 l 3.542355,-0.03911 z"
       style="fill:#ffffff;stroke:#000000;stroke-width:0.06039695px;stroke-linecap:butt;stroke-linejoin:miter;stroke-opacity:1" />
    <path
       style="fill:#ffffff;stroke:#000000;stroke-width:0.06039695px;stroke-linecap:butt;stroke-linejoin:miter;stroke-opacity:1"
       d="m 74.114673,80.385673 -5.127098,-0.03911 0.04661,-8.413178 5.03388,-0.03913 0.04661,1.213064 h -3.682193 l 0.04661,2.465252 h 2.144065 l 0.04661,1.252195 h -2.144058 v 2.347865 l 3.542357,-0.03911 z"
       id="path9347" />
    <path
       id="path9349"
       d="m 67.542665,74.320361 v -1.526112 l -1.11864,-0.939144 -2.749983,0.03913 -1.165245,0.978277 v 6.53489 l 1.118634,0.978271 h 2.796594 l 1.165251,-1.056537 v -3.795713 l -2.144057,0.03915 -0.04661,1.134802 h 0.699151 v 2.386996 h -2.097446 l -0.04661,-6.065316 2.190669,0.03913 0.04661,1.213061 z"
       style="fill:#ffffff;stroke:#000000;stroke-width:0.06039695px;stroke-linecap:butt;stroke-linejoin:miter;stroke-opacity:1" />
    <path
       id="path8954"
       d="m 45.768497,56.874396 c 0,0 1.390215,4.313319 4.679285,4.367239 3.289069,0.05392 5.861592,0.486236 7.440847,-1.132302 1.760511,-1.804303 1.958526,-5.182464 1.958526,-5.182464"
       style="display:inline;opacity:1;fill:#d38d5f;stroke:#000000;stroke-width:0.15250644px;stroke-linecap:butt;stroke-linejoin:miter;stroke-opacity:1" />
    <path
       id="path8961"
       d="m 36.255165,33.151193 c 0,0 0.215678,5.823272 1.186223,8.195715 0.970545,2.372444 0.754867,4.960564 1.29406,6.362463 0.539191,1.401897 3.23515,4.529209 4.960563,6.470299 1.725414,1.94109 2.911636,5.499757 8.627068,5.391918 5.715433,-0.107837 6.470301,-2.803796 8.950584,-6.038948 2.480281,-3.23515 4.313534,-5.284078 4.960563,-8.519228 0.64703,-3.235152 2.911636,-9.813291 1.617576,-10.460321 -1.294061,-0.64703 -9.274098,-6.038947 -16.822783,-5.607593 -7.548684,0.431353 -14.773854,4.205695 -14.773854,4.205695 z"
       style="display:inline;fill:#d38d5f;stroke:#000000;stroke-width:0.15250644px;stroke-linecap:butt;stroke-linejoin:miter;stroke-opacity:1" />
    <g
       transform="matrix(0.57640235,0,0,0.57640235,86.939189,21.174881)"
       style="fill:#0088aa"
       id="g8926">
      <g
         style="fill:#0088aa"
         id="g8930">
        <path
           id="path8905"
           d="m -60.589583,-34.660417 c 0,0 -22.357291,-0.264583 -28.310416,20.505209 -5.953125,20.7697912 -1.190625,20.9020829 -1.190625,20.9020829 0,0 11.244792,-7.01145828 29.36875,-6.08541663 18.123958,0.92604163 28.574999,9.39270873 30.559374,8.46666663 1.984375,-0.9260417 0.06423,-18.7522525 -1.455208,-24.2093739 -1.369258,-4.917749 -7.672916,-17.4625 -23.680208,-19.314584 -0.16103,-2.047912 -3.784199,-3.835917 -5.291667,-0.264584 z"
           style="fill:#0088aa;stroke:#000000;stroke-width:0.26458332px;stroke-linecap:butt;stroke-linejoin:miter;stroke-opacity:1" />
        <path
           id="path8907"
           d="m -90.090624,6.7468749 c 0,0 -5.291666,19.0500001 5.688542,13.2291661 10.980208,-5.820833 24.271112,-12.6841387 46.698957,0.264584 6.746876,5.291666 10.861996,3.845331 7.150788,-11.0419177 C -47.652219,2.6371049 -64.149943,-5.1840472 -90.090624,6.7468749 Z"
           style="fill:#0088aa;stroke:#000000;stroke-width:0.26458332px;stroke-linecap:butt;stroke-linejoin:miter;stroke-opacity:1" />
      </g>
    </g>
    <path
       id="path8911"
       d="M 52.015211,1.1965358 55.06534,1.349042"
       style="fill:none;stroke:#000000;stroke-width:0.15250644px;stroke-linecap:butt;stroke-linejoin:miter;stroke-opacity:1" />
    <g
       id="layer1-0"
       transform="matrix(0.17775719,0.00878875,0,0.14894327,34.411884,-22.24512)">
      <g
         id="g932"
         transform="translate(0.26458426,-0.26456218)">
        <g
           transform="matrix(0.26458333,0,0,0.26458333,27.391935,207.48768)"
           id="g333">
          <g
             id="g331">
            <g
               id="g329">
              <path
                 style="fill:#ffffff"
                 class="st0"
                 d="M 267.3,41.9 C 157.9,41.9 86.7,71.1 83.7,72.4 l -7.2,3 2.7,4.3 C 76,78.7 72.3,78 68.4,78 52.8,78 42.3,85.6 33.8,91.7 c -5,3.6 -9.4,6.8 -12.9,6.8 -4.1,0 -5.9,-0.8 -6.6,-1.1 L 2.5,91.7 v 9.7 50.5 8.9 l 7.9,-2.4 c 0,0 0.1,0 0.1,0 0.2,0 0.4,0 0.4,0.1 0,0 0.5,0.8 0.5,3.2 v 76.7 0.3 0.3 c 0.1,1.6 -0.3,4.6 -1.2,5.6 -0.1,0.1 -0.3,0.3 -1.2,0.3 H 2.5 v 6.6 53.5 15.5 L 14.4,309 c 0,0 5.2,-6.6 13.3,-9.6 3.7,-1.4 7.7,-1.5 12.7,-1.7 6.2,-0.3 14,-0.6 23.6,-3.5 18.3,-5.6 28.1,-12 35,-33.2 4.4,-13.5 5.6,-24.8 5.9,-30.7 8.4,-3.7 30.3,-12.8 56.4,-19.5 25,-6.4 47.3,-9.7 57.1,-11 2.7,6.3 8,13.3 16.7,14.2 2.7,0.3 6.8,0.4 12.5,0.4 13,0 30,-0.7 30.2,-0.7 l 12,0.3 -9.5,-13 c -0.5,-0.4 -1.9,-1.6 -3.5,-4.4 16.8,0.4 52.7,2.3 83.3,9.8 41.3,10.1 75.2,25.7 75.6,25.8 0.6,0.3 6.7,3.1 14.7,3.3 v 43.9 5.9 l 5.9,0.6 c 1,0.1 9.9,1.1 13.5,1.1 0.4,0 0.8,0 1.2,0 0.5,0.1 1.8,0.9 4.7,4.2 l 0.4,0.5 0.5,0.4 c 6.9,5.4 14.8,8.2 23.6,8.2 2.2,0 4.5,-0.2 6.9,-0.5 21,-2.5 42.7,-22.7 42.7,-52.2 0.6,-18.5 -6.9,-44.9 -22.3,-78.4 l 20.9,-51.8 4.5,-11.2 -11.9,2.3 c 0,0 -3,0.6 -6.3,0.6 -3.6,0 -4.6,-0.7 -4.6,-0.7 -0.6,-0.4 -1.4,-1.1 -2.4,-1.8 -9,-6.8 -19.4,-14 -28.5,-15 -1.4,-0.2 -2.8,-0.2 -4.2,-0.2 -3.1,0 -5.9,0.4 -8.1,0.9 -2.8,-4.2 -8.1,-9.3 -18.4,-13.1 -1.1,-0.4 -2.4,-0.9 -4,-1.5 -23.5,-9 -94,-35.8 -197.2,-35.8 z"
                 id="path325" />
              <path
                 d="m 0,326.3 v -84 h 8.7 c 0.2,-0.8 0.4,-2.2 0.4,-3.3 v -0.7 -76.7 c 0,-0.1 0,-0.2 0,-0.2 l -9,2.7 V 87.7 l 15.6,7.5 c 0.3,0.1 1.7,0.8 5.4,0.8 2.7,0 6.9,-3.1 11.4,-6.3 8.8,-6.4 19.7,-14.2 36.1,-14.2 1.8,0 3.6,0.1 5.5,0.4 l -1,-1.6 9.9,-4.1 C 86,68.9 157.7,39.5 267.6,39.5 371,39.4 441.8,66.3 465,75.2 l 0.2,0.1 c 1.5,0.6 2.7,1 3.8,1.4 8.4,3.1 14.7,7.3 18.7,12.7 3.7,-0.7 7.6,-0.8 11.4,-0.4 9.7,1 20.4,8.6 29.7,15.5 0.9,0.6 1.6,1.2 2.1,1.6 0.3,0.1 1.3,0.4 3.4,0.4 3,0 5.8,-0.5 5.8,-0.5 v 0 l 16.4,-3.1 -26.7,66.1 c 15.3,33.4 22.7,59.8 22.1,78.5 0,14.1 -5,27.6 -14.1,37.8 -8.3,9.3 -19.5,15.4 -30.8,16.8 -2.4,0.4 -4.8,0.6 -7.2,0.6 -9.3,0 -17.7,-2.9 -25.1,-8.7 l -0.8,-0.7 -0.4,-0.5 c -1.9,-2.2 -2.9,-3 -3.3,-3.3 -0.2,0 -0.4,0 -0.6,0 -3.9,0 -13.3,-1 -13.7,-1.1 l -8.1,-0.9 v -49.7 c -7.3,-0.6 -12.6,-3.1 -13.3,-3.4 -1.4,-0.6 -34.6,-15.7 -75.1,-25.7 -27.1,-6.7 -58.3,-8.8 -77.4,-9.5 l 12.7,17.3 -17,-0.5 c -2.2,0.1 -18,0.7 -30.2,0.7 -5.8,0 -10,-0.1 -12.8,-0.4 -9.8,-1 -15.2,-8.5 -17.9,-13.9 -11.2,1.5 -31.9,4.8 -55,10.7 -24.6,6.3 -45.5,14.8 -54.6,18.7 -0.5,6.1 -1.8,17 -5.9,29.8 -7.1,22.2 -17.9,29.1 -36.6,34.9 -10,3.1 -17.9,3.4 -24.3,3.6 -4.8,0.2 -8.6,0.4 -12,1.6 -7.3,2.7 -12.1,8.7 -12.1,8.8 l -0.2,0.3 z m 5,-78.9 v 67.2 l 7.5,-7.3 c 1,-1.2 6.3,-7.3 14.2,-10.2 4.1,-1.5 8.2,-1.7 13.5,-1.9 6.1,-0.3 13.7,-0.6 23,-3.4 17.8,-5.4 26.8,-11.3 33.3,-31.6 4.3,-13.4 5.5,-24.6 5.8,-30.1 l 0.1,-1.5 1.4,-0.6 c 8.3,-3.7 30.4,-12.9 56.8,-19.6 24.7,-6.3 46.5,-9.6 57.4,-11 l 1.9,-0.2 0.8,1.7 c 1.9,4.4 6.3,11.8 14.6,12.7 2.6,0.3 6.6,0.4 12.3,0.4 12.3,0 28.3,-0.6 30,-0.7 h 0.1 0.1 l 6.9,0.2 -6.3,-8.6 c -0.9,-0.7 -2.3,-2.2 -3.8,-4.9 l -2.2,-3.8 4.4,0.1 c 18.3,0.5 53.5,2.4 83.8,9.8 41,10.1 74.6,25.3 76,26 0.3,0.1 6.1,2.9 13.7,3.1 l 2.4,0.1 v 50 l 3.7,0.4 c 3.3,0.4 10.3,1.1 13.2,1.1 0.4,0 0.7,0 1,0 h 0.4 l 0.4,0.1 c 1,0.3 2.6,1 6,4.9 l 0.3,0.3 0.3,0.2 c 8.1,6.4 17.7,8.8 28.5,7.2 20,-2.4 40.6,-21.6 40.6,-49.7 0.6,-18.2 -6.8,-44.2 -22.1,-77.3 l -0.4,-1 24.1,-59.8 -7.4,1.4 v 0 c -0.7,0.1 -3.7,0.6 -6.8,0.6 -4,0 -5.6,-0.8 -6.1,-1.1 -0.7,-0.5 -1.5,-1.1 -2.4,-1.8 -8.8,-6.6 -18.8,-13.7 -27.3,-14.6 -3.9,-0.4 -7.8,-0.2 -11.4,0.6 l -1.7,0.4 -1,-1.4 c -3.3,-5 -9.3,-9.2 -17.2,-12.1 -1,-0.4 -2.3,-0.9 -3.8,-1.4 l -0.2,-0.1 C 440.4,71.4 370.3,44.8 267.5,44.8 158.6,44.8 87.8,73.8 84.9,75.1 l -4.5,1.9 4.8,7.6 -6.5,-2.1 c -3.4,-1.1 -6.8,-1.7 -10,-1.7 -14.8,0 -25,7.4 -33.1,13.3 -5.4,3.9 -10,7.3 -14.3,7.3 -4.2,0 -6.5,-0.7 -7.7,-1.4 L 5.3,96 v 61.7 l 5.1,-1.5 h 0.5 c 0.4,0 0.9,0 1.4,0.3 l 4.3,1.9 -2.5,1.5 c 0.1,0.6 0.1,1.3 0.1,2.1 v 76.9 0.2 c 0.1,1.5 0,5.6 -1.9,7.6 -0.7,0.8 -1.7,1.1 -3,1.1 z"
                 id="path327" />
            </g>
          </g>
        </g>
        <g
           transform="matrix(0.26458333,0,0,0.26458333,27.391935,207.48768)"
           id="g353">
          <path
             id="path341"
             d="m 359.9,68.3 c -1.8,-2 -10.8,-9 -26.7,-7.2 -15.9,1.8 -13.5,23.3 -13.5,23.3 0,0 0.2,62.4 0.2,75.4 0,13 10.1,18.4 28.7,19.5 18.9,1.1 16.6,-19.3 16.6,-19.3 0,0 0.2,-61.5 0.2,-72.1 0.1,-10.4 -3.7,-17.6 -5.5,-19.6 z m -11.5,20.7 -0.2,63.5 c 0,0 1.3,8.8 -4.9,7 -6.3,-1.8 -6.3,-4.9 -6.3,-9.2 V 85.4 c 0,0 -0.2,-7.2 5.8,-5.8 6.1,1.3 5.6,9.4 5.6,9.4 z"
             class="st1"
             style="fill:#ee3425" />
          <path
             id="path343"
             d="m 318.1,70.3 c 0.9,-5.2 4,-10.8 4,-10.8 -10.3,-1.8 -19.8,-1.6 -19.8,-1.6 3.6,2.5 1.6,13.2 1.6,13.2 l -9,62.6 c 0,0 -3.6,-59 -4,-64 -0.5,-4.9 2.2,-12.6 2.2,-12.6 -24.9,-2.2 -28.3,-0.2 -28.3,-0.2 1.6,1.6 0.7,12.6 0.7,12.6 l -6.7,64 c 0,0 -5.6,-63.5 -5.6,-67.6 0,-4 2.7,-9.4 2.7,-9.4 -5.6,-0.2 -25.8,0.4 -25.8,0.4 0.3,0 0.7,0.1 1,0.3 -5.5,0.3 -12.4,0.7 -15.3,1.5 0,0 2.2,2.9 2,6.7 -0.2,3.8 -11.2,38.2 -11.2,38.2 l 0.2,-38.8 c 0,0 1.8,-4.5 3.1,-5.2 0,0 -13.6,0.4 -25.9,2.9 v -0.2 c -3.8,0 -7,3.4 -11.7,4 -4.7,0.7 -7.9,-3.8 -18.6,0.9 -13.9,6.1 -14.4,20.7 -14.4,20.7 0,0 -1.1,46.5 -0.4,61.7 0.7,15.3 1.8,37 21.8,35.5 20,-1.6 21.5,-17.3 22.2,-28.3 0.7,-11 -5.8,-16.2 -9,-17.1 -3.1,-0.9 -7.9,-0.9 -6.5,1.6 1.4,2.5 7.2,21.5 -2.9,24.2 -10.1,2.7 -7.2,-37.5 -7.2,-37.5 0,0 -2,-29.1 2,-40 0.9,-2.3 2.6,-3.4 4,-3.6 10.5,-1.5 12.8,17.1 12.8,17.1 l 7.6,-37.8 c 1.5,1.9 4.3,6.3 4.3,11.8 0,7.4 -0.4,92.9 -0.4,92.9 0,0 -0.2,8.1 -1.6,10.3 0,0 18.9,-3.4 23.6,-3.4 0,0 -2.3,-3.1 -2.7,-7.9 C 206.4,162.7 206,120 206,120 l 20.7,60.4 c 0,0 3.1,10.8 10.3,9.6 7.2,-1.1 12.8,-1.6 14.6,-0.9 0,0 -4.3,-5.2 -5.8,-8.5 -1.6,-3.4 -25.4,-74.3 -25.4,-74.3 L 233.8,65 c 0.3,2 0.4,3.5 0.4,3.5 0,0 12.1,86 11.9,92 -0.2,6.1 -1.4,12.3 -1.4,12.3 8.1,-2 26.3,-1.3 26.3,-1.3 -1.1,-1.6 -1.8,-15 -1.8,-15 l 6.3,-57.7 c 0,0 6,54.2 6.5,60.4 0.4,5.2 -1.3,12.6 -1.3,12.6 2.5,-0.5 23.8,1.3 23.8,1.3 -1.3,-2.7 -0.2,-14.6 -0.2,-14.6 0,0 12.9,-83 13.8,-88.2 z"
             class="st1"
             style="fill:#ee3425" />
          <path
             id="path345"
             d="m 124.8,81.5 c 0,-2.5 1.1,-7.2 1.1,-7.2 -14.1,2 -31,9 -31,9 4.7,2.9 3.1,13 3.1,13 0,0 -9.4,86 -11.2,98.8 -0.7,5 -1.9,8.8 -3.1,11.6 -1.8,-14.4 -6.7,-24.1 -16.5,-26.1 0,0 13.8,-8.8 15.2,-24.2 1.3,-15.5 0.7,-31 -0.7,-41.4 -1.3,-10.4 -5.4,-19.5 -18.9,-19.5 -13.5,0 -18.5,5.4 -27.3,12.5 -8.8,7.1 -15.8,8.4 -20.2,5.4 v 26.3 c 0,0 9.4,-3.7 9.4,6.7 v 96.3 c 0,0 0,13.8 -9.4,13.8 V 282 c 0,0 4,-8.4 14.1,-8.4 10.1,0 29.3,0.7 37.4,-6.7 8.1,-7.4 16.8,-17.5 17.5,-41.8 0.1,-5.2 0,-10 -0.3,-14.5 9.1,-4.9 16.8,-6.9 16.8,-6.9 -1.3,-9.7 2.5,-35.7 2.5,-35.7 7.9,-4.9 14.1,-4.7 14.1,-4.7 3.6,13 2.7,33 2.7,33 10.6,-4.5 22.9,-7.9 22.9,-7.9 -3.1,-3.1 -5.8,-15.7 -5.8,-15.7 0,0 -12.4,-88.7 -12.4,-91.2 z m -79,45.3 c 0,0 3.4,-8.1 8.4,-8.1 0,0 7.4,-1 7.4,14.1 0,15.2 1,29.3 -2.4,34.3 -1.2,1.8 -2.6,4.2 -5.1,4.7 -3.7,0.7 -8.4,-1.8 -8.4,-7.1 v -37.9 z m 14.3,118.5 c -1.2,1.8 -3.4,4.2 -5.8,4.7 -3.7,0.7 -8.4,-1.8 -8.4,-7.1 v -44.1 c 0,0 3.4,-8.1 8.4,-8.1 0,0 8.2,-1 8.2,14.1 -0.1,15.3 0.9,35.5 -2.4,40.5 z m 45.4,-94.2 5.2,-46.2 4.9,41.8 z"
             class="st1"
             style="fill:#ee3425" />
          <path
             id="path347"
             d="m 413.9,80.4 c -1.8,-2.1 -10.8,-9.7 -26.7,-8.9 -15.9,0.7 -13.5,22.5 -13.5,22.5 0,0 0.2,61.9 0.2,74.9 0,13 10.1,21.6 28.7,23.9 18.9,2.3 16.6,-23.4 16.6,-23.4 0,0 0.2,-58.3 0.2,-68.8 0.1,-10.6 -3.7,-18.1 -5.5,-20.2 z m -11.4,19.9 -0.2,65.5 c 0,0 1.3,8.8 -4.9,6.6 -6.3,-2.2 -6.3,-5.3 -6.3,-9.6 V 96 c 0,0 -0.2,-7.2 5.8,-5.5 6,1.7 5.6,9.8 5.6,9.8 z"
             class="st1"
             style="fill:#ee3425" />
          <path
             id="path349"
             d="m 472.6,179.9 v -47.8 c 0,-10.6 -0.9,-18.2 -4.7,-29.4 -4.3,-12.6 -22.7,-15.9 -22.7,-15.9 l -20,-6.1 c 3.4,3.4 2.8,19.1 2.8,19.1 v 88.7 c 0,7.9 -6.6,12.8 -6.6,12.8 0,0 6.7,-0.9 16.6,4.9 19,11.2 26.2,0.9 29,-2.5 6.5,-8.1 5.6,-23.8 5.6,-23.8 z m -16.4,0 c 0,0 0,12.3 -4.7,12.3 -5.6,0 -7.2,-2.2 -7.2,-2.2 v -84.9 c 0,0 11.9,1.8 11.9,10.5 z"
             class="st1"
             style="fill:#ee3425" />
          <path
             id="path351"
             d="m 503.8,174.8 c 0,0 -12.4,-34.7 -5.6,-40 6.8,-5.3 14.2,5.3 16.9,26.1 l 16.3,-39.1 c 0,0 -2.7,1.8 -5.6,0 -3,-1.8 -11.3,-8 -15.4,-11.6 -4.1,-3.6 -19.3,-5.3 -26.4,0.3 -7.1,5.6 -12.7,14.2 -10.7,32.6 2.1,18.4 10.7,44.7 16.9,60.2 6.2,15.4 13.9,39.7 5.3,41.2 -8.6,1.5 -17.2,-3.3 -25.2,-25.5 v 43.9 c 0,0 4.1,-1.8 6.5,-1.2 2.4,0.6 14.5,14.5 26.4,12.2 11.9,-2.4 22.2,-10.4 20.2,-33.8 -2.1,-23.5 -19.6,-65.3 -19.6,-65.3 z"
             class="st1"
             style="fill:#ee3425" />
        </g>
      </g>
    </g>
  </g>
  <style
     id="style10"
     type="text/css">
	.st0{fill:#FFFFFF;}
	.st1{fill:#EE3425;}
</style>
</svg>
